<svg xmlns="http://www.w3.org/2000/svg" xmlns:xlink="http://www.w3.org/1999/xlink" width="121" height="121" viewBox="0 0 121 121">
  <defs>
    <clipPath id="clip-path">
      <rect id="Rectangle_400938" data-name="Rectangle 400938" width="121" height="121" transform="translate(0 0)" fill="none"/>
    </clipPath>
    <clipPath id="clip-path-2">
      <rect id="Rectangle_401073" data-name="Rectangle 401073" width="92.219" height="41.532" fill="#efb499"/>
    </clipPath>
    <clipPath id="clip-path-3">
      <rect id="Rectangle_403507" data-name="Rectangle 403507" width="75" height="75" transform="translate(411.667 1271.666)" fill="#fff" stroke="#707070" stroke-width="1"/>
    </clipPath>
    <clipPath id="clip-path-4">
      <rect id="Rectangle_403516" data-name="Rectangle 403516" width="72.735" height="76.829" fill="none"/>
    </clipPath>
    <clipPath id="clip-path-6">
      <circle id="Ellipse_11552" data-name="Ellipse 11552" cx="35" cy="35" r="35" fill="none"/>
    </clipPath>
    <clipPath id="clip-path-7">
      <rect id="Rectangle_403513" data-name="Rectangle 403513" width="31.555" height="33.949" fill="none"/>
    </clipPath>
    <clipPath id="clip-path-8">
      <rect id="Rectangle_403514" data-name="Rectangle 403514" width="11.751" height="7.689" fill="none"/>
    </clipPath>
    <clipPath id="clip-path-9">
      <rect id="Rectangle_403515" data-name="Rectangle 403515" width="15.203" height="41.52" fill="none"/>
    </clipPath>
  </defs>
  <g id="Group_1103339" data-name="Group 1103339" transform="translate(6499.344 10461)">
    <g id="Group_1101865" data-name="Group 1101865" transform="translate(-6887.012 -16474)">
      <rect id="Rectangle_401103" data-name="Rectangle 401103" width="121" height="121" transform="translate(387.668 6013)" fill="none"/>
      <g id="Group_1099348" data-name="Group 1099348" transform="translate(387.668 6013)">
        <g id="Group_1099282" data-name="Group 1099282">
          <g id="Group_1099281" data-name="Group 1099281" clip-path="url(#clip-path-2)">
            <path id="Path_873375" data-name="Path 873375" d="M74.8,9.1c-4.139,0-6.28-2.03-8.17-3.821-1.855-1.756-3.452-3.274-6.792-3.274s-4.937,1.517-6.792,3.274C51.161,7.072,49.023,9.1,44.881,9.1s-6.28-2.03-8.169-3.821C34.857,3.525,33.26,2.007,29.92,2.007s-4.937,1.517-6.789,3.274C21.241,7.072,19.1,9.1,14.962,9.1S8.679,7.072,6.789,5.281C4.937,3.525,3.34,2.007,0,2.007V0C4.139,0,6.28,2.033,8.17,3.821c1.855,1.759,3.452,3.274,6.792,3.274S19.9,5.58,21.75,3.824C23.637,2.033,25.781,0,29.92,0s6.283,2.033,8.17,3.821c1.855,1.759,3.452,3.274,6.792,3.274s4.937-1.514,6.792-3.274C53.56,2.033,55.7,0,59.843,0s6.283,2.033,8.17,3.821C69.867,5.58,71.464,7.094,74.8,7.094S79.742,5.58,81.6,3.821C83.483,2.033,85.624,0,89.766,0V2.007c-3.34,0-4.937,1.517-6.792,3.274C81.084,7.072,78.943,9.1,74.8,9.1" transform="translate(2.453 32.43)" fill="#efb499"/>
            <path id="Path_873376" data-name="Path 873376" d="M74.8,9.1c-4.139,0-6.283-2.03-8.17-3.824-1.855-1.756-3.452-3.27-6.792-3.27s-4.937,1.514-6.792,3.27C51.164,7.072,49.023,9.1,44.881,9.1s-6.283-2.03-8.17-3.824c-1.855-1.756-3.452-3.27-6.792-3.27s-4.937,1.517-6.789,3.27C21.241,7.072,19.1,9.1,14.962,9.1S8.679,7.072,6.789,5.278C4.937,3.522,3.34,2.007,0,2.007V0C4.139,0,6.283,2.03,8.17,3.821c1.855,1.759,3.452,3.274,6.792,3.274S19.9,5.58,21.75,3.821C23.637,2.03,25.781,0,29.92,0S36.2,2.03,38.093,3.821c1.852,1.759,3.449,3.274,6.789,3.274s4.937-1.514,6.792-3.274C53.56,2.03,55.7,0,59.843,0s6.283,2.03,8.17,3.821C69.867,5.58,71.464,7.094,74.8,7.094S79.742,5.58,81.6,3.821C83.486,2.03,85.627,0,89.769,0V2.007c-3.34,0-4.94,1.517-6.8,3.27C81.084,7.072,78.943,9.1,74.8,9.1" transform="translate(1.635 21.62)" fill="#efb499"/>
            <path id="Path_873377" data-name="Path 873377" d="M74.8,9.1c-4.139,0-6.283-2.03-8.169-3.824-1.855-1.756-3.452-3.27-6.792-3.27s-4.937,1.514-6.792,3.27C51.164,7.072,49.02,9.1,44.881,9.1s-6.283-2.03-8.17-3.824c-1.855-1.756-3.452-3.27-6.792-3.27s-4.937,1.517-6.789,3.27C21.241,7.072,19.1,9.1,14.962,9.1S8.678,7.072,6.789,5.278C4.937,3.522,3.34,2.007,0,2.007V0C4.139,0,6.283,2.03,8.169,3.821c1.851,1.759,3.452,3.274,6.792,3.274S19.9,5.58,21.75,3.821C23.637,2.03,25.781,0,29.92,0S36.2,2.03,38.093,3.821c1.852,1.759,3.449,3.274,6.789,3.274s4.937-1.514,6.792-3.274C53.56,2.03,55.7,0,59.843,0s6.283,2.03,8.17,3.821C69.867,5.58,71.464,7.094,74.8,7.094S79.742,5.58,81.6,3.821C83.486,2.03,85.624,0,89.769,0V2.007c-3.34,0-4.941,1.517-6.8,3.27C81.084,7.072,78.943,9.1,74.8,9.1" transform="translate(0.818 10.81)" fill="#efb499"/>
            <path id="Path_873378" data-name="Path 873378" d="M74.8,9.1c-4.139,0-6.28-2.03-8.17-3.821-1.855-1.756-3.452-3.27-6.792-3.27s-4.937,1.514-6.789,3.27C51.164,7.069,49.023,9.1,44.881,9.1s-6.28-2.03-8.169-3.821c-1.855-1.756-3.452-3.27-6.792-3.27s-4.937,1.514-6.789,3.267C21.245,7.069,19.1,9.1,14.962,9.1S8.678,7.069,6.789,5.278C4.937,3.522,3.34,2.007,0,2.007V0C4.139,0,6.283,2.03,8.17,3.821c1.855,1.756,3.452,3.27,6.792,3.27S19.9,5.577,21.75,3.821C23.64,2.03,25.781,0,29.92,0s6.28,2.03,8.173,3.821c1.852,1.756,3.449,3.27,6.789,3.27s4.937-1.514,6.792-3.27C53.563,2.03,55.7,0,59.843,0s6.28,2.03,8.17,3.821c1.855,1.756,3.452,3.27,6.792,3.27s4.937-1.514,6.792-3.27C83.486,2.03,85.627,0,89.769,0V2.007c-3.344,0-4.941,1.514-6.8,3.27C81.084,7.069,78.943,9.1,74.8,9.1" transform="translate(0 0.003)" fill="#efb499"/>
          </g>
        </g>
      </g>
      <circle id="Ellipse_11504" data-name="Ellipse 11504" cx="50.5" cy="50.5" r="50.5" transform="translate(402.668 6031)" fill="#ffce73"/>
      <circle id="Ellipse_11503" data-name="Ellipse 11503" cx="52.5" cy="52.5" r="52.5" transform="translate(395.668 6021)" fill="#f3f9ff"/>
    </g>
    <g id="Mask_Group_1101500" data-name="Mask Group 1101500" transform="translate(-6887.667 -11707.667)" clip-path="url(#clip-path-3)">
      <g id="Group_1102040" data-name="Group 1102040" transform="translate(413.667 1273.837)">
        <g id="Group_1102039" data-name="Group 1102039" clip-path="url(#clip-path-4)">
          <g id="Group_1102027" data-name="Group 1102027">
            <g id="Group_1102026" data-name="Group 1102026" clip-path="url(#clip-path-4)">
              <path id="Path_881959" data-name="Path 881959" d="M70,35A35,35,0,1,1,35,0,35,35,0,0,1,70,35" transform="translate(0 1)" fill="#fecab2"/>
            </g>
          </g>
          <g id="Group_1102038" data-name="Group 1102038" transform="translate(0 0)">
            <g id="Group_1102037" data-name="Group 1102037" clip-path="url(#clip-path-6)">
              <path id="Path_881960" data-name="Path 881960" d="M45.939,89.25,45.1,81.383H34.514l-.835,7.682a9.646,9.646,0,0,1-5.8,7.827L8.386,105.22v10.113H71.229V105.22L51.819,97.13a9.644,9.644,0,0,1-5.88-7.88" transform="translate(-4.193 -40.691)" fill="#ffd6a4"/>
              <path id="Path_881961" data-name="Path 881961" d="M29.716,116.169l-2.456-2.931-18.874,7.91V131.26H71.229V121.148L52.15,113.34,49.464,116.4a13.011,13.011,0,0,1-19.748-.23" transform="translate(-4.193 -56.619)" fill="#e85725"/>
              <g id="Group_1102030" data-name="Group 1102030" transform="translate(35.48 40.692)" opacity="0.5" style="mix-blend-mode: multiply;isolation: isolate">
                <g id="Group_1102029" data-name="Group 1102029">
                  <g id="Group_1102028" data-name="Group 1102028" clip-path="url(#clip-path-7)">
                    <path id="Path_881962" data-name="Path 881962" d="M83.106,97.13a9.644,9.644,0,0,1-5.88-7.88l-.839-7.867H70.96v33.95h31.556V105.22Z" transform="translate(-70.96 -81.383)" fill="#ddcebf"/>
                  </g>
                </g>
              </g>
              <g id="Group_1102033" data-name="Group 1102033" transform="translate(29.716 43.692)" opacity="0.6" style="mix-blend-mode: multiply;isolation: isolate">
                <g id="Group_1102032" data-name="Group 1102032">
                  <g id="Group_1102031" data-name="Group 1102031" clip-path="url(#clip-path-8)">
                    <path id="Path_881963" data-name="Path 881963" d="M59.433,92.948A9.528,9.528,0,0,0,65.2,95.073a9.606,9.606,0,0,0,5.985-2.437l-.56-5.253H60.038Z" transform="translate(-59.433 -87.383)" fill="#ffd6a4"/>
                  </g>
                </g>
              </g>
              <path id="Path_881964" data-name="Path 881964" d="M70.942,49.666c-.243,9.08-6.579,16.447-12.4,16.447-6.236,0-12.114-7.369-12.4-16.447C45.7,36.1,51.688,33.219,58.538,33.219s12.806,1.368,12.4,16.447" transform="translate(-23.056 -16.609)" fill="#ffd6a4"/>
              <path id="Path_881965" data-name="Path 881965" d="M46.026,60.225c.312,1.809-.986,3.323-2.2,3.323s-2.348-2.354-2.348-4.19.986-2.456,2.2-2.456,2.068,1.7,2.348,3.323" transform="translate(-20.737 -28.451)" fill="#ffd6a4"/>
              <path id="Path_881966" data-name="Path 881966" d="M91.016,60.225c-.312,1.809.986,3.323,2.2,3.323s2.348-2.354,2.348-4.19-.986-2.456-2.2-2.456-2.068,1.7-2.347,3.323" transform="translate(-45.484 -28.451)" fill="#ffd6a4"/>
              <path id="Path_881967" data-name="Path 881967" d="M70.191,25.137c-.072-2.239-2-5.923-4.31-6.357s-2.167,0-5.2-1.228-5.779-1.228-7.217,0a13.113,13.113,0,0,1-5.641,2.312c-2.023.433-4.045,2.095-6,6.212s-.578,8.452.072,9.968a47.923,47.923,0,0,0,3.085,5.063s-1.538-8.144.269-10.287c1.665-1.976-.3,2.985-.3,2.985,1.372.313,2.648-4.334,2.648-4.334.576,1.9-1.571,4.262-1.571,4.262,2.69,0,5.256-4.334,5.256-4.334A14.909,14.909,0,0,1,49.2,32.986c1.661-.073,3.973-3.66,3.973-3.66a8.49,8.49,0,0,1-1.324,2.5c2.312-.1,3.419-2.5,3.419-2.5-.65,1.589-4.479,5.2-4.479,5.2,3.4.072,7.151-5.129,7.151-5.129-.722,3.106-5.779,5.562-5.779,5.562C59.389,34.515,63,32,64.807,29.533A9.057,9.057,0,0,1,65.882,30.7c1.9,2.432.569,11.06.569,11.06A37.927,37.927,0,0,0,70.77,34c1.276-3.3-.506-6.622-.578-8.861" transform="translate(-20.411 -8.315)" fill="#5e2e10"/>
              <path id="Path_881968" data-name="Path 881968" d="M70.8,57.386l-.675.3a14.1,14.1,0,0,1-6.327,10.35c-5.484-5.142-10.241-1.27-11.928.49a12.4,12.4,0,0,1-2.07-2.214c-2.068-2.659-2.718-8.922-2.718-8.922L45.833,56.9a34.16,34.16,0,0,0,.843,9.448,16.756,16.756,0,0,0,5.662,9.558c6.357,5.378,11.527,0,11.527,0,8.809-6.531,6.932-18.52,6.932-18.52m-9.649,16.9s.8-4.078-2.735-4.2c-3.574-.118-3.43,4.018-3.43,4.018s-2.377-1.734-2.377-2.449V71.45a5.725,5.725,0,0,1,5.49-3.678c3.1,0,4.669,2.6,5.246,3.844a12.086,12.086,0,0,1-2.194,2.668" transform="translate(-22.893 -28.45)" fill="#5e2e10"/>
              <g id="Group_1102036" data-name="Group 1102036" transform="translate(35.614 8.316)" opacity="0.5" style="mix-blend-mode: multiply;isolation: isolate">
                <g id="Group_1102035" data-name="Group 1102035">
                  <g id="Group_1102034" data-name="Group 1102034" clip-path="url(#clip-path-9)">
                    <path id="Path_881969" data-name="Path 881969" d="M85.395,25.137c-.072-2.24-2-5.923-4.31-6.357s-2.167,0-5.2-1.228a10.925,10.925,0,0,0-4.656-.907V58.152a8.682,8.682,0,0,0,5.359-2.381l0,0c.075-.056.15-.114.225-.173a18.071,18.071,0,0,0,6.641-12.191c1.175-.132,2.241-2.4,2.241-4.183a2.219,2.219,0,0,0-1.1-2.228,29.357,29.357,0,0,0,1.374-3c1.276-3.3-.506-6.622-.578-8.861" transform="translate(-71.228 -16.631)" fill="#ffd6a4"/>
                  </g>
                </g>
              </g>
            </g>
          </g>
        </g>
      </g>
    </g>
  </g>
</svg>
