<svg xmlns="http://www.w3.org/2000/svg" xmlns:xlink="http://www.w3.org/1999/xlink" width="1030" height="513.333" viewBox="0 0 1030 513.333">
  <defs>
    <clipPath id="clip-path">
      <path id="Path_611005" data-name="Path 611005" d="M0,0H1030V512.333H0Z" fill="#fef7eb"/>
    </clipPath>
    <clipPath id="clip-path-2">
      <rect id="Rectangle_404501" data-name="Rectangle 404501" width="630" height="409" transform="translate(495 4010)" fill="#fff" stroke="#707070" stroke-width="1"/>
    </clipPath>
    <clipPath id="clip-path-3">
      <rect id="Rectangle_403193" data-name="Rectangle 403193" width="591.735" height="451.364" fill="none"/>
    </clipPath>
    <clipPath id="clip-path-4">
      <path id="Path_880578" data-name="Path 880578" d="M0,0V394.49H591.735V0Z" fill="none"/>
    </clipPath>
  </defs>
  <g id="Group_1103376" data-name="Group 1103376" transform="translate(-285 -3777.214)">
    <g id="Group_1101852" data-name="Group 1101852" transform="translate(0 3330.714)">
      <path id="Path_608309" data-name="Path 608309" d="M0,0H1030V512.333H0Z" transform="translate(285 446.5)" fill="#fef7eb"/>
    </g>
    <path id="Path_881845" data-name="Path 881845" d="M6.759,0H183.241C186.974,0,190,4.029,190,9V47c0,4.971-3.026,9-6.759,9H6.759C3.026,56,0,51.971,0,47V9C0,4.029,3.026,0,6.759,0Z" transform="translate(1071 3882.547)" fill="#7d3a1b"/>
    <path id="Path_881846" data-name="Path 881846" d="M6.759,0H183.241C186.974,0,190,4.029,190,9V47c0,4.971-3.026,9-6.759,9H6.759C3.026,56,0,51.971,0,47V9C0,4.029,3.026,0,6.759,0Z" transform="translate(1072 4124.547)" fill="#7d3a1b"/>
    <path id="Path_881847" data-name="Path 881847" d="M6.759,0H183.241C186.974,0,190,4.029,190,9V47c0,4.971-3.026,9-6.759,9H6.759C3.026,56,0,51.971,0,47V9C0,4.029,3.026,0,6.759,0Z" transform="translate(347 3882.547)" fill="#7d3a1b"/>
    <path id="Path_881848" data-name="Path 881848" d="M6.759,0H183.241C186.974,0,190,4.029,190,9V47c0,4.971-3.026,9-6.759,9H6.759C3.026,56,0,51.971,0,47V9C0,4.029,3.026,0,6.759,0Z" transform="translate(347.5 4124.733)" fill="#7d3a1b"/>
    <path id="Path_881849" data-name="Path 881849" d="M6.759,0H183.241C186.974,0,190,4.029,190,9V47c0,4.971-3.026,9-6.759,9H6.759C3.026,56,0,51.971,0,47V9C0,4.029,3.026,0,6.759,0Z" transform="translate(705 4205.547)" fill="#7d3a1b"/>
    <path id="Path_883170" data-name="Path 883170" d="M21.96,11.352H19.619V16h-2.1V3.914h4.25A4.944,4.944,0,0,1,25,4.853,3.321,3.321,0,0,1,26.135,7.57,3.4,3.4,0,0,1,25.55,9.6a3.724,3.724,0,0,1-1.631,1.259l2.714,5.033V16h-2.25ZM19.619,9.658h2.158a2.4,2.4,0,0,0,1.66-.535,1.867,1.867,0,0,0,.6-1.465,1.988,1.988,0,0,0-.552-1.5,2.345,2.345,0,0,0-1.648-.548H19.619Zm12.269,6.508a4.173,4.173,0,0,1-3.109-1.208,4.381,4.381,0,0,1-1.191-3.217v-.249a5.389,5.389,0,0,1,.519-2.4,3.949,3.949,0,0,1,1.457-1.648,3.851,3.851,0,0,1,2.092-.589,3.525,3.525,0,0,1,2.835,1.17,4.949,4.949,0,0,1,1,3.312v.813H29.621a2.7,2.7,0,0,0,.743,1.76A2.23,2.23,0,0,0,32,14.556a2.731,2.731,0,0,0,2.258-1.121l1.087,1.038a3.631,3.631,0,0,1-1.44,1.249A4.509,4.509,0,0,1,31.887,16.166Zm-.241-7.695a1.7,1.7,0,0,0-1.341.581,3.012,3.012,0,0,0-.652,1.619H33.5v-.149a2.452,2.452,0,0,0-.54-1.531A1.686,1.686,0,0,0,31.647,8.471Zm9.1,6.084A1.824,1.824,0,0,0,42,14.116a1.5,1.5,0,0,0,.531-1.087h1.9a2.963,2.963,0,0,1-.523,1.565,3.43,3.43,0,0,1-1.328,1.15,3.958,3.958,0,0,1-1.81.423,3.829,3.829,0,0,1-2.988-1.22,4.84,4.84,0,0,1-1.1-3.37v-.208a4.759,4.759,0,0,1,1.1-3.283,3.8,3.8,0,0,1,2.988-1.233,3.69,3.69,0,0,1,2.611.934,3.345,3.345,0,0,1,1.058,2.453h-1.9A1.847,1.847,0,0,0,42,8.969a1.7,1.7,0,0,0-1.258-.5,1.775,1.775,0,0,0-1.511.71,3.621,3.621,0,0,0-.54,2.154v.324a3.682,3.682,0,0,0,.527,2.179A1.773,1.773,0,0,0,40.744,14.556Zm9.164,1.61A4.173,4.173,0,0,1,46.8,14.958a4.381,4.381,0,0,1-1.191-3.217v-.249a5.389,5.389,0,0,1,.519-2.4,3.949,3.949,0,0,1,1.457-1.648,3.851,3.851,0,0,1,2.092-.589,3.525,3.525,0,0,1,2.835,1.17,4.949,4.949,0,0,1,1,3.312v.813H47.642a2.7,2.7,0,0,0,.743,1.76,2.23,2.23,0,0,0,1.639.647,2.731,2.731,0,0,0,2.258-1.121l1.087,1.038a3.631,3.631,0,0,1-1.44,1.249A4.509,4.509,0,0,1,49.908,16.166Zm-.241-7.695a1.7,1.7,0,0,0-1.341.581,3.012,3.012,0,0,0-.652,1.619h3.843v-.149a2.452,2.452,0,0,0-.54-1.531A1.686,1.686,0,0,0,49.668,8.471ZM62.941,11.6a5.348,5.348,0,0,1-.946,3.324,3.287,3.287,0,0,1-4.906.27v4.258H55.072V7.019h1.859l.083.913a2.963,2.963,0,0,1,2.416-1.079,3.062,3.062,0,0,1,2.577,1.224,5.49,5.49,0,0,1,.934,3.4Zm-2.009-.174A3.746,3.746,0,0,0,60.4,9.293,1.741,1.741,0,0,0,58.865,8.5a1.856,1.856,0,0,0-1.776,1.021V13.51a1.873,1.873,0,0,0,1.793,1.046,1.739,1.739,0,0,0,1.507-.776A4.124,4.124,0,0,0,60.932,11.426Zm7.4,3.129a1.824,1.824,0,0,0,1.253-.44,1.5,1.5,0,0,0,.531-1.087h1.9a2.963,2.963,0,0,1-.523,1.565,3.43,3.43,0,0,1-1.328,1.15,3.958,3.958,0,0,1-1.81.423,3.829,3.829,0,0,1-2.988-1.22,4.84,4.84,0,0,1-1.1-3.37v-.208a4.759,4.759,0,0,1,1.1-3.283,3.8,3.8,0,0,1,2.988-1.233,3.69,3.69,0,0,1,2.611.934,3.345,3.345,0,0,1,1.058,2.453h-1.9a1.847,1.847,0,0,0-.527-1.27,1.7,1.7,0,0,0-1.258-.5,1.775,1.775,0,0,0-1.511.71,3.621,3.621,0,0,0-.54,2.154v.324a3.681,3.681,0,0,0,.527,2.179A1.773,1.773,0,0,0,68.336,14.556ZM75.691,16H73.674V7.019h2.017ZM73.549,4.686a1.071,1.071,0,0,1,.295-.772,1.113,1.113,0,0,1,.843-.307,1.127,1.127,0,0,1,.847.307,1.062,1.062,0,0,1,.3.772,1.038,1.038,0,0,1-.3.76,1.136,1.136,0,0,1-.847.3,1.122,1.122,0,0,1-.843-.3A1.046,1.046,0,0,1,73.549,4.686Zm3.959,6.74a5.3,5.3,0,0,1,.523-2.378A3.819,3.819,0,0,1,79.5,7.421a4.14,4.14,0,0,1,2.175-.569,3.923,3.923,0,0,1,2.951,1.17,4.6,4.6,0,0,1,1.224,3.1l.008.473a5.343,5.343,0,0,1-.51,2.374,3.773,3.773,0,0,1-1.461,1.619,4.17,4.17,0,0,1-2.2.573A3.9,3.9,0,0,1,78.65,14.9a4.848,4.848,0,0,1-1.141-3.374Zm2.017.174a3.619,3.619,0,0,0,.573,2.171,1.862,1.862,0,0,0,1.594.784,1.842,1.842,0,0,0,1.59-.8,4,4,0,0,0,.569-2.333,3.572,3.572,0,0,0-.585-2.158,1.973,1.973,0,0,0-3.158-.012A3.922,3.922,0,0,0,79.526,11.6ZM82.232,3.25h2.3l-2.3,2.515-1.619,0Zm7.205,3.769.058,1.038a3.229,3.229,0,0,1,2.615-1.2q2.806,0,2.855,3.212V16H92.948V10.181a1.85,1.85,0,0,0-.369-1.266A1.554,1.554,0,0,0,91.371,8.5a1.944,1.944,0,0,0-1.818,1.1V16H87.536V7.019Zm11.438,4.424a5.34,5.34,0,0,1,.963-3.333,3.085,3.085,0,0,1,2.582-1.258,2.931,2.931,0,0,1,2.308,1V3.25h2.017V16h-1.826l-.1-.93a2.973,2.973,0,0,1-2.416,1.1,3.068,3.068,0,0,1-2.552-1.27A5.535,5.535,0,0,1,100.875,11.443Zm2.017.174a3.739,3.739,0,0,0,.527,2.137,1.71,1.71,0,0,0,1.5.768,1.9,1.9,0,0,0,1.81-1.1V9.583A1.876,1.876,0,0,0,104.934,8.5a1.723,1.723,0,0,0-1.511.776A4.163,4.163,0,0,0,102.892,11.617ZM114.8,16.166a4.173,4.173,0,0,1-3.109-1.208,4.381,4.381,0,0,1-1.191-3.217v-.249a5.389,5.389,0,0,1,.519-2.4,3.949,3.949,0,0,1,1.457-1.648,3.851,3.851,0,0,1,2.092-.589,3.525,3.525,0,0,1,2.835,1.17,4.949,4.949,0,0,1,1,3.312v.813h-5.869a2.7,2.7,0,0,0,.743,1.76,2.23,2.23,0,0,0,1.639.647,2.731,2.731,0,0,0,2.258-1.121l1.087,1.038a3.631,3.631,0,0,1-1.44,1.249A4.509,4.509,0,0,1,114.8,16.166Zm-.241-7.695a1.7,1.7,0,0,0-1.341.581,3.012,3.012,0,0,0-.652,1.619h3.843v-.149a2.452,2.452,0,0,0-.54-1.531A1.686,1.686,0,0,0,114.563,8.471ZM126.35,16h-2.017V3.25h2.017Zm7.562,0a3.113,3.113,0,0,1-.232-.838,3.393,3.393,0,0,1-4.565.232,2.47,2.47,0,0,1-.855-1.909,2.55,2.55,0,0,1,1.067-2.2,5.169,5.169,0,0,1,3.051-.768h1.237V9.924a1.573,1.573,0,0,0-.39-1.116,1.547,1.547,0,0,0-1.187-.419,1.777,1.777,0,0,0-1.129.344,1.066,1.066,0,0,0-.44.876H128.45a2.239,2.239,0,0,1,.49-1.382,3.263,3.263,0,0,1,1.332-1.009,4.68,4.68,0,0,1,1.88-.365,3.769,3.769,0,0,1,2.515.793,2.827,2.827,0,0,1,.963,2.229v4.051a4.591,4.591,0,0,0,.34,1.934V16ZM131.7,14.547a2.294,2.294,0,0,0,1.125-.291,1.941,1.941,0,0,0,.793-.78V11.783h-1.087a2.973,2.973,0,0,0-1.685.39,1.264,1.264,0,0,0-.564,1.1,1.179,1.179,0,0,0,.386.926A1.5,1.5,0,0,0,131.7,14.547ZM50.033,35.56a.914.914,0,0,0-.444-.822,4.723,4.723,0,0,0-1.473-.5,7.574,7.574,0,0,1-1.718-.548,2.293,2.293,0,0,1-1.511-2.117,2.391,2.391,0,0,1,.979-1.942,3.872,3.872,0,0,1,2.49-.78,4.029,4.029,0,0,1,2.6.8,2.529,2.529,0,0,1,.992,2.067H49.933a1.243,1.243,0,0,0-.432-.967,1.654,1.654,0,0,0-1.146-.386,1.787,1.787,0,0,0-1.083.307.968.968,0,0,0-.419.822.818.818,0,0,0,.39.722,5.365,5.365,0,0,0,1.577.519,7.466,7.466,0,0,1,1.864.623,2.639,2.639,0,0,1,1,.867,2.212,2.212,0,0,1,.328,1.229,2.34,2.34,0,0,1-1,1.963,4.283,4.283,0,0,1-2.631.751,4.644,4.644,0,0,1-1.967-.4,3.238,3.238,0,0,1-1.345-1.1,2.594,2.594,0,0,1-.481-1.5h1.959a1.421,1.421,0,0,0,.54,1.1,2.1,2.1,0,0,0,1.32.386,2.04,2.04,0,0,0,1.212-.3A.938.938,0,0,0,50.033,35.56Zm3.362-2.133a5.3,5.3,0,0,1,.523-2.378,3.819,3.819,0,0,1,1.469-1.627,4.14,4.14,0,0,1,2.175-.569,3.923,3.923,0,0,1,2.951,1.17,4.6,4.6,0,0,1,1.224,3.1l.008.473a5.343,5.343,0,0,1-.51,2.374,3.773,3.773,0,0,1-1.461,1.619,4.17,4.17,0,0,1-2.2.573A3.9,3.9,0,0,1,54.536,36.9a4.848,4.848,0,0,1-1.141-3.374Zm2.017.174a3.619,3.619,0,0,0,.573,2.171,1.862,1.862,0,0,0,1.594.784,1.842,1.842,0,0,0,1.59-.8,4,4,0,0,0,.569-2.333,3.572,3.572,0,0,0-.585-2.158,1.973,1.973,0,0,0-3.158-.012A3.922,3.922,0,0,0,55.412,33.6ZM65.6,38H63.58V25.25H65.6Zm4.341,0H67.921V29.019h2.017ZM67.8,26.686a1.071,1.071,0,0,1,.295-.772,1.113,1.113,0,0,1,.843-.307,1.127,1.127,0,0,1,.847.307,1.062,1.062,0,0,1,.3.772,1.038,1.038,0,0,1-.3.76,1.136,1.136,0,0,1-.847.3,1.122,1.122,0,0,1-.843-.3A1.046,1.046,0,0,1,67.8,26.686Zm8.027,9.87a1.824,1.824,0,0,0,1.253-.44,1.5,1.5,0,0,0,.531-1.087h1.9a2.963,2.963,0,0,1-.523,1.565,3.43,3.43,0,0,1-1.328,1.15,3.958,3.958,0,0,1-1.81.423,3.829,3.829,0,0,1-2.988-1.22,4.84,4.84,0,0,1-1.1-3.37v-.208a4.759,4.759,0,0,1,1.1-3.283,3.8,3.8,0,0,1,2.988-1.233,3.69,3.69,0,0,1,2.611.934,3.345,3.345,0,0,1,1.058,2.453h-1.9a1.847,1.847,0,0,0-.527-1.27,1.7,1.7,0,0,0-1.258-.5,1.775,1.775,0,0,0-1.511.71,3.621,3.621,0,0,0-.54,2.154v.324a3.681,3.681,0,0,0,.527,2.179A1.773,1.773,0,0,0,75.823,36.556ZM83.178,38H81.161V29.019h2.017ZM81.036,26.686a1.071,1.071,0,0,1,.295-.772,1.113,1.113,0,0,1,.843-.307,1.127,1.127,0,0,1,.847.307,1.062,1.062,0,0,1,.3.772,1.038,1.038,0,0,1-.3.76,1.136,1.136,0,0,1-.847.3,1.122,1.122,0,0,1-.843-.3A1.046,1.046,0,0,1,81.036,26.686Zm6.865.149v2.183h1.585v1.494H87.9v5.014a1.1,1.1,0,0,0,.2.743.943.943,0,0,0,.726.228,3.107,3.107,0,0,0,.706-.083v1.561a4.968,4.968,0,0,1-1.328.191q-2.324,0-2.324-2.565V30.513H84.406V29.019h1.478V26.835ZM96.468,37.12a3.128,3.128,0,0,1-2.523,1.046,2.788,2.788,0,0,1-2.212-.855,3.637,3.637,0,0,1-.751-2.474V29.019H93v5.794q0,1.71,1.419,1.71A1.993,1.993,0,0,0,96.4,35.468v-6.45h2.017V38h-1.9Zm3.627-3.677a5.34,5.34,0,0,1,.963-3.333,3.085,3.085,0,0,1,2.582-1.258,2.931,2.931,0,0,1,2.308,1v-4.6h2.017V38h-1.826l-.1-.93a2.973,2.973,0,0,1-2.416,1.1,3.068,3.068,0,0,1-2.552-1.27A5.535,5.535,0,0,1,100.095,33.443Zm2.017.174a3.739,3.739,0,0,0,.527,2.137,1.71,1.71,0,0,0,1.5.768,1.9,1.9,0,0,0,1.81-1.1V31.583a1.876,1.876,0,0,0-1.793-1.079,1.723,1.723,0,0,0-1.511.776A4.163,4.163,0,0,0,102.112,33.617Z" transform="translate(366 3889.547)" fill="#fff"/>
    <path id="Path_883168" data-name="Path 883168" d="M13.972,13.186H9.291L8.311,16H6.128L10.693,3.914h1.884L17.151,16H14.96ZM9.88,11.493h3.5L11.631,6.479ZM23.36,13.56a.914.914,0,0,0-.444-.822,4.723,4.723,0,0,0-1.473-.5,7.574,7.574,0,0,1-1.718-.548,2.293,2.293,0,0,1-1.511-2.117,2.391,2.391,0,0,1,.979-1.942,3.872,3.872,0,0,1,2.49-.78,4.029,4.029,0,0,1,2.6.8,2.529,2.529,0,0,1,.992,2.067H23.261a1.243,1.243,0,0,0-.432-.967,1.654,1.654,0,0,0-1.146-.386A1.787,1.787,0,0,0,20.6,8.67a.968.968,0,0,0-.419.822.818.818,0,0,0,.39.722,5.365,5.365,0,0,0,1.577.519,7.466,7.466,0,0,1,1.864.623,2.639,2.639,0,0,1,1,.867,2.212,2.212,0,0,1,.328,1.229,2.34,2.34,0,0,1-1,1.963,4.283,4.283,0,0,1-2.631.751,4.644,4.644,0,0,1-1.967-.4,3.238,3.238,0,0,1-1.345-1.1,2.594,2.594,0,0,1-.481-1.5h1.959a1.421,1.421,0,0,0,.54,1.1,2.1,2.1,0,0,0,1.32.386,2.04,2.04,0,0,0,1.212-.3A.938.938,0,0,0,23.36,13.56ZM29.246,16H27.229V7.019h2.017ZM27.1,4.686a1.071,1.071,0,0,1,.295-.772,1.113,1.113,0,0,1,.843-.307,1.127,1.127,0,0,1,.847.307,1.062,1.062,0,0,1,.3.772,1.038,1.038,0,0,1-.3.76,1.136,1.136,0,0,1-.847.3,1.122,1.122,0,0,1-.843-.3A1.046,1.046,0,0,1,27.1,4.686Zm3.984,6.757A5.253,5.253,0,0,1,32.072,8.1a3.157,3.157,0,0,1,2.611-1.249A2.958,2.958,0,0,1,37.1,7.923l.091-.9h1.818v8.708a3.619,3.619,0,0,1-1.1,2.789,4.189,4.189,0,0,1-2.968,1.021,4.783,4.783,0,0,1-1.93-.411,3.429,3.429,0,0,1-1.432-1.075l.955-1.212a2.883,2.883,0,0,0,2.291,1.1,2.228,2.228,0,0,0,1.585-.544,2.084,2.084,0,0,0,.581-1.6v-.606a2.97,2.97,0,0,1-2.324.971,3.15,3.15,0,0,1-2.577-1.253A5.423,5.423,0,0,1,31.088,11.443Zm2.009.174a3.616,3.616,0,0,0,.552,2.129,1.775,1.775,0,0,0,1.531.776,1.941,1.941,0,0,0,1.81-1.046V9.525A1.913,1.913,0,0,0,35.2,8.5a1.782,1.782,0,0,0-1.548.789A4.049,4.049,0,0,0,33.1,11.617Zm9.853-4.6.058,1.038a3.229,3.229,0,0,1,2.615-1.2q2.806,0,2.855,3.212V16H46.461V10.181a1.85,1.85,0,0,0-.369-1.266A1.554,1.554,0,0,0,44.884,8.5a1.944,1.944,0,0,0-1.818,1.1V16H41.049V7.019ZM55.9,16a3.113,3.113,0,0,1-.232-.838,3.393,3.393,0,0,1-4.565.232,2.47,2.47,0,0,1-.855-1.909,2.55,2.55,0,0,1,1.067-2.2,5.169,5.169,0,0,1,3.051-.768H55.6V9.924a1.573,1.573,0,0,0-.39-1.116,1.547,1.547,0,0,0-1.187-.419,1.777,1.777,0,0,0-1.129.344,1.066,1.066,0,0,0-.44.876H50.438a2.239,2.239,0,0,1,.49-1.382A3.263,3.263,0,0,1,52.26,7.218a4.68,4.68,0,0,1,1.88-.365,3.769,3.769,0,0,1,2.515.793,2.827,2.827,0,0,1,.963,2.229v4.051a4.591,4.591,0,0,0,.34,1.934V16Zm-2.216-1.453a2.294,2.294,0,0,0,1.125-.291,1.941,1.941,0,0,0,.793-.78V11.783H54.513a2.973,2.973,0,0,0-1.685.39,1.264,1.264,0,0,0-.564,1.1,1.179,1.179,0,0,0,.386.926A1.5,1.5,0,0,0,53.683,14.547Zm9.737.008a1.824,1.824,0,0,0,1.253-.44,1.5,1.5,0,0,0,.531-1.087h1.9a2.963,2.963,0,0,1-.523,1.565,3.43,3.43,0,0,1-1.328,1.15,3.958,3.958,0,0,1-1.81.423,3.829,3.829,0,0,1-2.988-1.22,4.84,4.84,0,0,1-1.1-3.37v-.208a4.759,4.759,0,0,1,1.1-3.283,3.8,3.8,0,0,1,2.988-1.233,3.69,3.69,0,0,1,2.611.934,3.345,3.345,0,0,1,1.058,2.453H65.2a1.847,1.847,0,0,0-.527-1.27,1.7,1.7,0,0,0-1.258-.5,1.775,1.775,0,0,0-1.511.71,3.621,3.621,0,0,0-.54,2.154v.324a3.682,3.682,0,0,0,.527,2.179A1.773,1.773,0,0,0,63.42,14.556ZM70.774,16H68.757V7.019h2.017ZM68.633,4.686a1.071,1.071,0,0,1,.295-.772,1.113,1.113,0,0,1,.843-.307,1.127,1.127,0,0,1,.847.307,1.062,1.062,0,0,1,.3.772,1.038,1.038,0,0,1-.3.76,1.136,1.136,0,0,1-.847.3,1.122,1.122,0,0,1-.843-.3A1.046,1.046,0,0,1,68.633,4.686Zm3.959,6.74a5.3,5.3,0,0,1,.523-2.378,3.819,3.819,0,0,1,1.469-1.627,4.14,4.14,0,0,1,2.175-.569,3.923,3.923,0,0,1,2.951,1.17,4.6,4.6,0,0,1,1.224,3.1l.008.473a5.343,5.343,0,0,1-.51,2.374,3.773,3.773,0,0,1-1.461,1.619,4.17,4.17,0,0,1-2.2.573A3.9,3.9,0,0,1,73.734,14.9a4.848,4.848,0,0,1-1.141-3.374Zm2.017.174a3.619,3.619,0,0,0,.573,2.171,1.862,1.862,0,0,0,1.594.784,1.842,1.842,0,0,0,1.59-.8,4,4,0,0,0,.569-2.333,3.572,3.572,0,0,0-.585-2.158,1.973,1.973,0,0,0-3.158-.012A3.922,3.922,0,0,0,74.609,11.6ZM77.315,3.25h2.3l-2.3,2.515-1.619,0Zm7.205,3.769.058,1.038a3.229,3.229,0,0,1,2.615-1.2q2.806,0,2.855,3.212V16H88.032V10.181a1.85,1.85,0,0,0-.369-1.266A1.554,1.554,0,0,0,86.455,8.5a1.944,1.944,0,0,0-1.818,1.1V16H82.62V7.019Zm11.438,4.424a5.34,5.34,0,0,1,.963-3.333A3.085,3.085,0,0,1,99.5,6.853a2.931,2.931,0,0,1,2.308,1V3.25h2.017V16H102l-.1-.93a2.973,2.973,0,0,1-2.416,1.1,3.068,3.068,0,0,1-2.552-1.27A5.535,5.535,0,0,1,95.959,11.443Zm2.017.174a3.739,3.739,0,0,0,.527,2.137,1.71,1.71,0,0,0,1.5.768,1.9,1.9,0,0,0,1.81-1.1V9.583A1.876,1.876,0,0,0,100.018,8.5a1.723,1.723,0,0,0-1.511.776A4.163,4.163,0,0,0,97.976,11.617Zm11.912,4.549a4.173,4.173,0,0,1-3.109-1.208,4.381,4.381,0,0,1-1.191-3.217v-.249a5.389,5.389,0,0,1,.519-2.4,3.949,3.949,0,0,1,1.457-1.648,3.851,3.851,0,0,1,2.092-.589,3.525,3.525,0,0,1,2.835,1.17,4.949,4.949,0,0,1,1,3.312v.813h-5.869a2.7,2.7,0,0,0,.743,1.76,2.23,2.23,0,0,0,1.639.647,2.731,2.731,0,0,0,2.258-1.121l1.087,1.038a3.631,3.631,0,0,1-1.44,1.249A4.509,4.509,0,0,1,109.888,16.166Zm-.241-7.695a1.7,1.7,0,0,0-1.341.581,3.012,3.012,0,0,0-.652,1.619H111.5v-.149a2.452,2.452,0,0,0-.54-1.531A1.686,1.686,0,0,0,109.647,8.471ZM19.023,30.861a4.991,4.991,0,0,0-.822-.066,1.85,1.85,0,0,0-1.868,1.063V38H14.317V29.019h1.926l.05,1a2.273,2.273,0,0,1,2.025-1.17,1.888,1.888,0,0,1,.714.116Zm5.072,7.3a4.173,4.173,0,0,1-3.109-1.208A4.381,4.381,0,0,1,19.8,33.742v-.249a5.389,5.389,0,0,1,.519-2.4,3.949,3.949,0,0,1,1.457-1.648,3.851,3.851,0,0,1,2.092-.589,3.525,3.525,0,0,1,2.835,1.17,4.949,4.949,0,0,1,1,3.312v.813H21.829a2.7,2.7,0,0,0,.743,1.76,2.23,2.23,0,0,0,1.639.647,2.731,2.731,0,0,0,2.258-1.121l1.087,1.038a3.631,3.631,0,0,1-1.44,1.249A4.509,4.509,0,0,1,24.095,38.166Zm-.241-7.695a1.7,1.7,0,0,0-1.341.581,3.012,3.012,0,0,0-.652,1.619h3.843v-.149a2.452,2.452,0,0,0-.54-1.531A1.686,1.686,0,0,0,23.854,30.471ZM34.3,35.56a.914.914,0,0,0-.444-.822,4.723,4.723,0,0,0-1.473-.5,7.574,7.574,0,0,1-1.718-.548,2.293,2.293,0,0,1-1.511-2.117,2.391,2.391,0,0,1,.979-1.942,3.872,3.872,0,0,1,2.49-.78,4.029,4.029,0,0,1,2.6.8,2.529,2.529,0,0,1,.992,2.067H34.2a1.243,1.243,0,0,0-.432-.967,1.654,1.654,0,0,0-1.146-.386,1.787,1.787,0,0,0-1.083.307.968.968,0,0,0-.419.822.818.818,0,0,0,.39.722,5.365,5.365,0,0,0,1.577.519,7.466,7.466,0,0,1,1.864.623,2.639,2.639,0,0,1,1,.867,2.212,2.212,0,0,1,.328,1.229,2.34,2.34,0,0,1-1,1.963,4.283,4.283,0,0,1-2.631.751,4.644,4.644,0,0,1-1.967-.4,3.238,3.238,0,0,1-1.345-1.1,2.594,2.594,0,0,1-.481-1.5H30.81a1.421,1.421,0,0,0,.54,1.1,2.1,2.1,0,0,0,1.32.386,2.04,2.04,0,0,0,1.212-.3A.938.938,0,0,0,34.3,35.56ZM45.9,33.6a5.348,5.348,0,0,1-.946,3.324,3.287,3.287,0,0,1-4.906.27v4.258H38.032V29.019h1.859l.083.913a2.963,2.963,0,0,1,2.416-1.079,3.062,3.062,0,0,1,2.577,1.224,5.49,5.49,0,0,1,.934,3.4Zm-2.009-.174a3.746,3.746,0,0,0-.535-2.133,1.741,1.741,0,0,0-1.531-.789,1.856,1.856,0,0,0-1.776,1.021V35.51a1.873,1.873,0,0,0,1.793,1.046,1.739,1.739,0,0,0,1.507-.776A4.124,4.124,0,0,0,43.892,33.426Zm3.337,0a5.3,5.3,0,0,1,.523-2.378,3.819,3.819,0,0,1,1.469-1.627,4.14,4.14,0,0,1,2.175-.569,3.923,3.923,0,0,1,2.951,1.17,4.6,4.6,0,0,1,1.224,3.1l.008.473a5.343,5.343,0,0,1-.51,2.374,3.773,3.773,0,0,1-1.461,1.619,4.17,4.17,0,0,1-2.2.573A3.9,3.9,0,0,1,48.371,36.9a4.848,4.848,0,0,1-1.141-3.374Zm2.017.174a3.619,3.619,0,0,0,.573,2.171,1.862,1.862,0,0,0,1.594.784,1.842,1.842,0,0,0,1.59-.8,4,4,0,0,0,.569-2.333,3.572,3.572,0,0,0-.585-2.158,1.973,1.973,0,0,0-3.158-.012A3.922,3.922,0,0,0,49.246,33.6Zm9.911-4.582.058,1.038a3.229,3.229,0,0,1,2.615-1.2q2.806,0,2.855,3.212V38H62.669V32.181a1.85,1.85,0,0,0-.369-1.266,1.554,1.554,0,0,0-1.208-.411,1.944,1.944,0,0,0-1.818,1.1V38H57.257V29.019ZM71.775,35.56a.914.914,0,0,0-.444-.822,4.723,4.723,0,0,0-1.473-.5,7.574,7.574,0,0,1-1.718-.548,2.293,2.293,0,0,1-1.511-2.117,2.391,2.391,0,0,1,.979-1.942,3.872,3.872,0,0,1,2.49-.78,4.029,4.029,0,0,1,2.6.8,2.529,2.529,0,0,1,.992,2.067H71.675a1.243,1.243,0,0,0-.432-.967,1.654,1.654,0,0,0-1.146-.386,1.787,1.787,0,0,0-1.083.307.968.968,0,0,0-.419.822.818.818,0,0,0,.39.722,5.365,5.365,0,0,0,1.577.519,7.466,7.466,0,0,1,1.864.623,2.639,2.639,0,0,1,1,.867,2.212,2.212,0,0,1,.328,1.229,2.34,2.34,0,0,1-1,1.963,4.283,4.283,0,0,1-2.631.751,4.644,4.644,0,0,1-1.967-.4,3.238,3.238,0,0,1-1.345-1.1,2.594,2.594,0,0,1-.481-1.5h1.959a1.421,1.421,0,0,0,.54,1.1,2.1,2.1,0,0,0,1.32.386,2.04,2.04,0,0,0,1.212-.3A.938.938,0,0,0,71.775,35.56ZM80.881,38a3.113,3.113,0,0,1-.232-.838,3.393,3.393,0,0,1-4.565.232,2.47,2.47,0,0,1-.855-1.909,2.55,2.55,0,0,1,1.067-2.2,5.169,5.169,0,0,1,3.051-.768h1.237v-.589a1.573,1.573,0,0,0-.39-1.116A1.547,1.547,0,0,0,79,30.388a1.777,1.777,0,0,0-1.129.344,1.066,1.066,0,0,0-.44.876H75.419a2.239,2.239,0,0,1,.49-1.382,3.263,3.263,0,0,1,1.332-1.009,4.68,4.68,0,0,1,1.88-.365,3.769,3.769,0,0,1,2.515.793,2.827,2.827,0,0,1,.963,2.229v4.051a4.591,4.591,0,0,0,.34,1.934V38Zm-2.216-1.453a2.294,2.294,0,0,0,1.125-.291,1.941,1.941,0,0,0,.793-.78V33.783H79.494a2.973,2.973,0,0,0-1.685.39,1.264,1.264,0,0,0-.564,1.1,1.179,1.179,0,0,0,.386.926A1.5,1.5,0,0,0,78.664,36.547ZM92.593,33.6a5.4,5.4,0,0,1-.934,3.329,3.042,3.042,0,0,1-2.569,1.237,2.93,2.93,0,0,1-2.457-1.137l-.1.971H84.707V25.25h2.017v4.632a2.92,2.92,0,0,1,2.349-1.029,3.077,3.077,0,0,1,2.582,1.22,5.484,5.484,0,0,1,.938,3.412Zm-2.017-.174a3.813,3.813,0,0,0-.515-2.191,1.714,1.714,0,0,0-1.494-.73,1.873,1.873,0,0,0-1.843,1.146v3.7a1.892,1.892,0,0,0,1.859,1.17,1.7,1.7,0,0,0,1.461-.706,3.7,3.7,0,0,0,.531-2.133ZM96.428,38H94.411V25.25h2.017Zm6.151.166a4.173,4.173,0,0,1-3.109-1.208,4.381,4.381,0,0,1-1.191-3.217v-.249a5.389,5.389,0,0,1,.519-2.4,3.949,3.949,0,0,1,1.457-1.648,3.851,3.851,0,0,1,2.092-.589,3.525,3.525,0,0,1,2.835,1.17,4.949,4.949,0,0,1,1,3.312v.813h-5.869a2.7,2.7,0,0,0,.743,1.76,2.23,2.23,0,0,0,1.639.647,2.731,2.731,0,0,0,2.258-1.121l1.087,1.038a3.631,3.631,0,0,1-1.44,1.249A4.509,4.509,0,0,1,102.579,38.166Zm-.241-7.695a1.7,1.7,0,0,0-1.341.581,3.012,3.012,0,0,0-.652,1.619h3.843v-.149a2.452,2.452,0,0,0-.54-1.531A1.686,1.686,0,0,0,102.338,30.471Z" transform="translate(382.5 4129.733)" fill="#fff"/>
    <path id="Path_883171" data-name="Path 883171" d="M9.961,5.607H6.192V16H4.109V5.607H.374V3.914H9.961ZM13.5,16H11.48V7.019H13.5ZM11.355,4.686a1.071,1.071,0,0,1,.295-.772,1.113,1.113,0,0,1,.843-.307,1.127,1.127,0,0,1,.847.307,1.062,1.062,0,0,1,.3.772,1.038,1.038,0,0,1-.3.76,1.136,1.136,0,0,1-.847.3,1.122,1.122,0,0,1-.843-.3A1.046,1.046,0,0,1,11.355,4.686Zm8.292,11.48a4.173,4.173,0,0,1-3.109-1.208,4.381,4.381,0,0,1-1.191-3.217v-.249a5.389,5.389,0,0,1,.519-2.4,3.949,3.949,0,0,1,1.457-1.648,3.851,3.851,0,0,1,2.092-.589,3.525,3.525,0,0,1,2.835,1.17,4.949,4.949,0,0,1,1,3.312v.813H17.382a2.7,2.7,0,0,0,.743,1.76,2.23,2.23,0,0,0,1.639.647,2.731,2.731,0,0,0,2.258-1.121l1.087,1.038a3.631,3.631,0,0,1-1.44,1.249A4.509,4.509,0,0,1,19.648,16.166Zm-.241-7.695a1.7,1.7,0,0,0-1.341.581,3.012,3.012,0,0,0-.652,1.619h3.843v-.149a2.452,2.452,0,0,0-.54-1.531A1.686,1.686,0,0,0,19.407,8.471Zm7.3-1.453.058.938a3.232,3.232,0,0,1,2.59-1.1A2.483,2.483,0,0,1,31.825,8.23a3.186,3.186,0,0,1,2.756-1.378,2.8,2.8,0,0,1,2.212.822,3.618,3.618,0,0,1,.743,2.424V16H35.519V10.156A1.786,1.786,0,0,0,35.146,8.9a1.635,1.635,0,0,0-1.237-.4,1.679,1.679,0,0,0-1.125.369,1.948,1.948,0,0,0-.61.967L32.182,16H30.165V10.09A1.439,1.439,0,0,0,28.546,8.5a1.776,1.776,0,0,0-1.718.988V16H24.811V7.019ZM47.472,11.6a5.348,5.348,0,0,1-.946,3.324,3.287,3.287,0,0,1-4.906.27v4.258H39.6V7.019h1.859l.083.913a2.963,2.963,0,0,1,2.416-1.079,3.062,3.062,0,0,1,2.577,1.224,5.49,5.49,0,0,1,.934,3.4Zm-2.009-.174a3.746,3.746,0,0,0-.535-2.133A1.741,1.741,0,0,0,43.4,8.5,1.856,1.856,0,0,0,41.62,9.525V13.51a1.873,1.873,0,0,0,1.793,1.046,1.739,1.739,0,0,0,1.507-.776A4.124,4.124,0,0,0,45.463,11.426Zm3.337,0a5.3,5.3,0,0,1,.523-2.378,3.819,3.819,0,0,1,1.469-1.627,4.14,4.14,0,0,1,2.175-.569,3.923,3.923,0,0,1,2.951,1.17,4.6,4.6,0,0,1,1.224,3.1l.008.473a5.343,5.343,0,0,1-.51,2.374,3.773,3.773,0,0,1-1.461,1.619,4.17,4.17,0,0,1-2.2.573A3.9,3.9,0,0,1,49.942,14.9,4.848,4.848,0,0,1,48.8,11.526Zm2.017.174a3.619,3.619,0,0,0,.573,2.171,1.862,1.862,0,0,0,1.594.784,1.842,1.842,0,0,0,1.59-.8,4,4,0,0,0,.569-2.333,3.572,3.572,0,0,0-.585-2.158A1.973,1.973,0,0,0,51.4,9.256,3.922,3.922,0,0,0,50.817,11.6Zm11.9-.158a5.34,5.34,0,0,1,.963-3.333,3.085,3.085,0,0,1,2.582-1.258,2.931,2.931,0,0,1,2.308,1V3.25h2.017V16H68.755l-.1-.93a2.973,2.973,0,0,1-2.416,1.1,3.068,3.068,0,0,1-2.552-1.27A5.535,5.535,0,0,1,62.712,11.443Zm2.017.174a3.739,3.739,0,0,0,.527,2.137,1.71,1.71,0,0,0,1.5.768,1.9,1.9,0,0,0,1.81-1.1V9.583A1.876,1.876,0,0,0,66.771,8.5a1.723,1.723,0,0,0-1.511.776A4.163,4.163,0,0,0,64.729,11.617Zm11.912,4.549a4.173,4.173,0,0,1-3.109-1.208,4.381,4.381,0,0,1-1.191-3.217v-.249a5.389,5.389,0,0,1,.519-2.4,3.949,3.949,0,0,1,1.457-1.648,3.851,3.851,0,0,1,2.092-.589,3.525,3.525,0,0,1,2.835,1.17,4.949,4.949,0,0,1,1,3.312v.813H74.375a2.7,2.7,0,0,0,.743,1.76,2.23,2.23,0,0,0,1.639.647,2.731,2.731,0,0,0,2.258-1.121L80.1,14.473a3.631,3.631,0,0,1-1.44,1.249A4.509,4.509,0,0,1,76.641,16.166ZM76.4,8.471a1.7,1.7,0,0,0-1.341.581,3.012,3.012,0,0,0-.652,1.619h3.843v-.149a2.452,2.452,0,0,0-.54-1.531A1.686,1.686,0,0,0,76.4,8.471Zm14.344.39a4.991,4.991,0,0,0-.822-.066,1.85,1.85,0,0,0-1.868,1.063V16H86.038V7.019h1.926l.05,1a2.273,2.273,0,0,1,2.025-1.17,1.888,1.888,0,0,1,.714.116Zm5.072,7.3a4.173,4.173,0,0,1-3.109-1.208,4.381,4.381,0,0,1-1.191-3.217v-.249a5.389,5.389,0,0,1,.519-2.4,3.949,3.949,0,0,1,1.457-1.648,3.851,3.851,0,0,1,2.092-.589,3.525,3.525,0,0,1,2.835,1.17,4.949,4.949,0,0,1,1,3.312v.813H93.55a2.7,2.7,0,0,0,.743,1.76,2.23,2.23,0,0,0,1.639.647,2.731,2.731,0,0,0,2.258-1.121l1.087,1.038a3.631,3.631,0,0,1-1.44,1.249A4.509,4.509,0,0,1,95.816,16.166Zm-.241-7.695a1.7,1.7,0,0,0-1.341.581,3.012,3.012,0,0,0-.652,1.619h3.843v-.149a2.452,2.452,0,0,0-.54-1.531A1.686,1.686,0,0,0,95.575,8.471Zm10.442,5.088a.914.914,0,0,0-.444-.822,4.723,4.723,0,0,0-1.473-.5,7.574,7.574,0,0,1-1.718-.548,2.293,2.293,0,0,1-1.511-2.117,2.391,2.391,0,0,1,.979-1.942,3.872,3.872,0,0,1,2.49-.78,4.029,4.029,0,0,1,2.6.8,2.529,2.529,0,0,1,.992,2.067h-2.017a1.243,1.243,0,0,0-.432-.967,1.654,1.654,0,0,0-1.146-.386,1.787,1.787,0,0,0-1.083.307.968.968,0,0,0-.419.822.818.818,0,0,0,.39.722,5.365,5.365,0,0,0,1.577.519,7.466,7.466,0,0,1,1.864.623,2.639,2.639,0,0,1,1,.867A2.212,2.212,0,0,1,108,13.452a2.34,2.34,0,0,1-1,1.963,4.283,4.283,0,0,1-2.631.751,4.644,4.644,0,0,1-1.967-.4,3.238,3.238,0,0,1-1.345-1.1,2.594,2.594,0,0,1-.481-1.5h1.959a1.421,1.421,0,0,0,.54,1.1,2.1,2.1,0,0,0,1.32.386,2.04,2.04,0,0,0,1.212-.3A.938.938,0,0,0,106.018,13.56Zm11.6-1.959a5.348,5.348,0,0,1-.946,3.324,3.287,3.287,0,0,1-4.906.27v4.258h-2.017V7.019h1.859l.083.913a2.963,2.963,0,0,1,2.416-1.079,3.062,3.062,0,0,1,2.577,1.224,5.49,5.49,0,0,1,.934,3.4Zm-2.009-.174a3.746,3.746,0,0,0-.535-2.133,1.741,1.741,0,0,0-1.531-.789,1.856,1.856,0,0,0-1.776,1.021V13.51a1.873,1.873,0,0,0,1.793,1.046,1.739,1.739,0,0,0,1.507-.776A4.124,4.124,0,0,0,115.613,11.426Zm9.156,3.694a3.128,3.128,0,0,1-2.523,1.046,2.788,2.788,0,0,1-2.212-.855,3.637,3.637,0,0,1-.751-2.474V7.019H121.3v5.794q0,1.71,1.419,1.71a1.993,1.993,0,0,0,1.984-1.054V7.019h2.017V16h-1.9Zm7.96,1.046a4.173,4.173,0,0,1-3.109-1.208,4.381,4.381,0,0,1-1.191-3.217v-.249a5.389,5.389,0,0,1,.519-2.4,3.949,3.949,0,0,1,1.457-1.648,3.851,3.851,0,0,1,2.092-.589,3.525,3.525,0,0,1,2.835,1.17,4.949,4.949,0,0,1,1,3.312v.813h-5.869a2.7,2.7,0,0,0,.743,1.76,2.23,2.23,0,0,0,1.639.647,2.731,2.731,0,0,0,2.258-1.121l1.087,1.038a3.631,3.631,0,0,1-1.44,1.249A4.509,4.509,0,0,1,132.729,16.166Zm-.241-7.695a1.7,1.7,0,0,0-1.341.581,3.012,3.012,0,0,0-.652,1.619h3.843v-.149a2.452,2.452,0,0,0-.54-1.531A1.686,1.686,0,0,0,132.489,8.471Zm10.442,5.088a.914.914,0,0,0-.444-.822,4.723,4.723,0,0,0-1.473-.5,7.574,7.574,0,0,1-1.718-.548,2.293,2.293,0,0,1-1.511-2.117,2.391,2.391,0,0,1,.979-1.942,3.872,3.872,0,0,1,2.49-.78,4.029,4.029,0,0,1,2.6.8,2.529,2.529,0,0,1,.992,2.067h-2.017a1.243,1.243,0,0,0-.432-.967,1.654,1.654,0,0,0-1.146-.386,1.787,1.787,0,0,0-1.083.307.968.968,0,0,0-.419.822.818.818,0,0,0,.39.722,5.365,5.365,0,0,0,1.577.519,7.466,7.466,0,0,1,1.864.623,2.639,2.639,0,0,1,1,.867,2.212,2.212,0,0,1,.328,1.229,2.34,2.34,0,0,1-1,1.963,4.283,4.283,0,0,1-2.631.751,4.644,4.644,0,0,1-1.967-.4,3.238,3.238,0,0,1-1.345-1.1,2.594,2.594,0,0,1-.481-1.5h1.959a1.421,1.421,0,0,0,.54,1.1,2.1,2.1,0,0,0,1.32.386,2.04,2.04,0,0,0,1.212-.3A.938.938,0,0,0,142.931,13.56ZM149.2,4.835V7.019h1.585V8.513H149.2v5.014a1.1,1.1,0,0,0,.2.743.943.943,0,0,0,.726.228,3.107,3.107,0,0,0,.706-.083v1.561a4.968,4.968,0,0,1-1.328.191q-2.324,0-2.324-2.565V8.513H145.7V7.019h1.478V4.835ZM157.69,16a3.113,3.113,0,0,1-.232-.838,3.393,3.393,0,0,1-4.565.232,2.47,2.47,0,0,1-.855-1.909,2.55,2.55,0,0,1,1.067-2.2,5.169,5.169,0,0,1,3.051-.768h1.237V9.924A1.573,1.573,0,0,0,157,8.807a1.547,1.547,0,0,0-1.187-.419,1.777,1.777,0,0,0-1.129.344,1.066,1.066,0,0,0-.44.876h-2.017a2.239,2.239,0,0,1,.49-1.382,3.263,3.263,0,0,1,1.332-1.009,4.68,4.68,0,0,1,1.88-.365,3.769,3.769,0,0,1,2.515.793,2.827,2.827,0,0,1,.963,2.229v4.051a4.591,4.591,0,0,0,.34,1.934V16Zm-2.216-1.453a2.294,2.294,0,0,0,1.125-.291,1.941,1.941,0,0,0,.793-.78V11.783H156.3a2.973,2.973,0,0,0-1.685.39,1.264,1.264,0,0,0-.564,1.1,1.179,1.179,0,0,0,.386.926A1.5,1.5,0,0,0,155.474,14.547Z" transform="translate(1084 4145.303)" fill="#fff"/>
    <path id="Path_883172" data-name="Path 883172" d="M30.491,12.887a1.459,1.459,0,0,0-.56-1.229,6.741,6.741,0,0,0-2.021-.872,9.76,9.76,0,0,1-2.324-.979A3.1,3.1,0,0,1,23.933,7.1a2.945,2.945,0,0,1,1.191-2.407,4.821,4.821,0,0,1,3.092-.946,5.223,5.223,0,0,1,2.25.465,3.692,3.692,0,0,1,1.552,1.324,3.4,3.4,0,0,1,.564,1.905H30.491A1.894,1.894,0,0,0,29.9,5.96a2.45,2.45,0,0,0-1.7-.535,2.558,2.558,0,0,0-1.6.44,1.465,1.465,0,0,0-.569,1.229A1.325,1.325,0,0,0,26.647,8.2a7.076,7.076,0,0,0,2.025.863,9.316,9.316,0,0,1,2.266.955,3.6,3.6,0,0,1,1.253,1.229,3.2,3.2,0,0,1,.4,1.623,2.876,2.876,0,0,1-1.158,2.4,5.023,5.023,0,0,1-3.142.892,5.9,5.9,0,0,1-2.411-.486,4.051,4.051,0,0,1-1.71-1.341,3.341,3.341,0,0,1-.61-1.992h2.1a1.955,1.955,0,0,0,.681,1.594,2.981,2.981,0,0,0,1.951.564,2.59,2.59,0,0,0,1.648-.444A1.433,1.433,0,0,0,30.491,12.887Zm7.7,3.279a4.173,4.173,0,0,1-3.109-1.208,4.381,4.381,0,0,1-1.191-3.217v-.249a5.389,5.389,0,0,1,.519-2.4A3.949,3.949,0,0,1,35.87,7.442a3.851,3.851,0,0,1,2.092-.589A3.525,3.525,0,0,1,40.8,8.023a4.949,4.949,0,0,1,1,3.312v.813H35.928a2.7,2.7,0,0,0,.743,1.76,2.23,2.23,0,0,0,1.639.647,2.731,2.731,0,0,0,2.258-1.121l1.087,1.038a3.631,3.631,0,0,1-1.44,1.249A4.509,4.509,0,0,1,38.194,16.166Zm-.241-7.695a1.7,1.7,0,0,0-1.341.581,3.012,3.012,0,0,0-.652,1.619H39.8v-.149a2.452,2.452,0,0,0-.54-1.531A1.686,1.686,0,0,0,37.953,8.471Zm5.055,2.972A5.253,5.253,0,0,1,43.992,8.1,3.157,3.157,0,0,1,46.6,6.853a2.958,2.958,0,0,1,2.416,1.071l.091-.9h1.818v8.708a3.619,3.619,0,0,1-1.1,2.789,4.189,4.189,0,0,1-2.968,1.021,4.783,4.783,0,0,1-1.93-.411A3.429,3.429,0,0,1,43.5,18.05l.955-1.212a2.883,2.883,0,0,0,2.291,1.1,2.228,2.228,0,0,0,1.585-.544,2.084,2.084,0,0,0,.581-1.6v-.606a2.97,2.97,0,0,1-2.324.971,3.15,3.15,0,0,1-2.577-1.253A5.423,5.423,0,0,1,43.008,11.443Zm2.009.174a3.616,3.616,0,0,0,.552,2.129,1.775,1.775,0,0,0,1.531.776,1.941,1.941,0,0,0,1.81-1.046V9.525A1.913,1.913,0,0,0,47.117,8.5a1.782,1.782,0,0,0-1.548.789A4.049,4.049,0,0,0,45.017,11.617Zm13.422,3.5a3.128,3.128,0,0,1-2.523,1.046,2.788,2.788,0,0,1-2.212-.855,3.637,3.637,0,0,1-.751-2.474V7.019H54.97v5.794q0,1.71,1.419,1.71a1.993,1.993,0,0,0,1.984-1.054V7.019H60.39V16h-1.9ZM64.59,16H62.573V7.019H64.59ZM62.449,4.686a1.071,1.071,0,0,1,.295-.772,1.113,1.113,0,0,1,.843-.307,1.127,1.127,0,0,1,.847.307,1.062,1.062,0,0,1,.3.772,1.038,1.038,0,0,1-.3.76,1.136,1.136,0,0,1-.847.3,1.122,1.122,0,0,1-.843-.3A1.046,1.046,0,0,1,62.449,4.686Zm6.234,2.333.058.938a3.232,3.232,0,0,1,2.59-1.1A2.483,2.483,0,0,1,73.8,8.23a3.186,3.186,0,0,1,2.756-1.378,2.8,2.8,0,0,1,2.212.822,3.618,3.618,0,0,1,.743,2.424V16H77.49V10.156A1.786,1.786,0,0,0,77.116,8.9a1.635,1.635,0,0,0-1.237-.4,1.679,1.679,0,0,0-1.125.369,1.948,1.948,0,0,0-.61.967L74.153,16H72.136V10.09A1.439,1.439,0,0,0,70.517,8.5a1.776,1.776,0,0,0-1.718.988V16H66.782V7.019ZM83.724,16H81.707V7.019h2.017ZM81.582,4.686a1.071,1.071,0,0,1,.295-.772,1.113,1.113,0,0,1,.843-.307,1.127,1.127,0,0,1,.847.307,1.062,1.062,0,0,1,.3.772,1.038,1.038,0,0,1-.3.76,1.136,1.136,0,0,1-.847.3,1.122,1.122,0,0,1-.843-.3A1.046,1.046,0,0,1,81.582,4.686Zm8.292,11.48a4.173,4.173,0,0,1-3.109-1.208,4.381,4.381,0,0,1-1.191-3.217v-.249a5.389,5.389,0,0,1,.519-2.4A3.949,3.949,0,0,1,87.55,7.442a3.851,3.851,0,0,1,2.092-.589,3.525,3.525,0,0,1,2.835,1.17,4.949,4.949,0,0,1,1,3.312v.813H87.608a2.7,2.7,0,0,0,.743,1.76,2.23,2.23,0,0,0,1.639.647,2.731,2.731,0,0,0,2.258-1.121l1.087,1.038a3.631,3.631,0,0,1-1.44,1.249A4.509,4.509,0,0,1,89.875,16.166Zm-.241-7.695a1.7,1.7,0,0,0-1.341.581,3.012,3.012,0,0,0-.652,1.619h3.843v-.149a2.452,2.452,0,0,0-.54-1.531A1.686,1.686,0,0,0,89.634,8.471Zm7.28-1.453.058,1.038a3.229,3.229,0,0,1,2.615-1.2q2.806,0,2.855,3.212V16h-2.017V10.181a1.85,1.85,0,0,0-.369-1.266A1.554,1.554,0,0,0,98.848,8.5a1.944,1.944,0,0,0-1.818,1.1V16H95.013V7.019Zm10.11-2.183V7.019h1.585V8.513h-1.585v5.014a1.1,1.1,0,0,0,.2.743.943.943,0,0,0,.726.228,3.107,3.107,0,0,0,.706-.083v1.561a4.968,4.968,0,0,1-1.328.191q-2.324,0-2.324-2.565V8.513h-1.478V7.019h1.478V4.835Zm2.5,6.591a5.3,5.3,0,0,1,.523-2.378,3.819,3.819,0,0,1,1.469-1.627,4.14,4.14,0,0,1,2.175-.569,3.923,3.923,0,0,1,2.951,1.17,4.6,4.6,0,0,1,1.224,3.1l.008.473a5.343,5.343,0,0,1-.51,2.374,3.773,3.773,0,0,1-1.461,1.619,4.17,4.17,0,0,1-2.2.573,3.9,3.9,0,0,1-3.042-1.266,4.848,4.848,0,0,1-1.141-3.374Zm2.017.174a3.619,3.619,0,0,0,.573,2.171,1.862,1.862,0,0,0,1.594.784,1.842,1.842,0,0,0,1.59-.8,4,4,0,0,0,.569-2.333,3.572,3.572,0,0,0-.585-2.158,1.973,1.973,0,0,0-3.158-.012A3.922,3.922,0,0,0,111.54,11.6Zm15.415,1.511,1.826-6.093h2.15l-3.569,10.343a2.9,2.9,0,0,1-2.789,2.266,3.6,3.6,0,0,1-.971-.15V17.909l.382.025a1.964,1.964,0,0,0,1.15-.278,1.842,1.842,0,0,0,.61-.933l.291-.771-3.154-8.933h2.175ZM15.524,30.861a4.991,4.991,0,0,0-.822-.066,1.85,1.85,0,0,0-1.868,1.063V38H10.818V29.019h1.926l.05,1a2.273,2.273,0,0,1,2.025-1.17,1.888,1.888,0,0,1,.714.116Zm5.072,7.3a4.173,4.173,0,0,1-3.109-1.208A4.381,4.381,0,0,1,16.3,33.742v-.249a5.389,5.389,0,0,1,.519-2.4,3.949,3.949,0,0,1,1.457-1.648,3.851,3.851,0,0,1,2.092-.589,3.525,3.525,0,0,1,2.835,1.17,4.949,4.949,0,0,1,1,3.312v.813H18.33a2.7,2.7,0,0,0,.743,1.76,2.23,2.23,0,0,0,1.639.647,2.731,2.731,0,0,0,2.258-1.121l1.087,1.038a3.631,3.631,0,0,1-1.44,1.249A4.509,4.509,0,0,1,20.6,38.166Zm-.241-7.695a1.7,1.7,0,0,0-1.341.581,3.012,3.012,0,0,0-.652,1.619h3.843v-.149a2.452,2.452,0,0,0-.54-1.531A1.686,1.686,0,0,0,20.355,30.471Zm7.936-3.636v2.183h1.585v1.494H28.291v5.014a1.1,1.1,0,0,0,.2.743.943.943,0,0,0,.726.228,3.107,3.107,0,0,0,.706-.083v1.561a4.968,4.968,0,0,1-1.328.191q-2.324,0-2.324-2.565V30.513H24.8V29.019h1.478V26.835Zm7.828,4.026a4.991,4.991,0,0,0-.822-.066,1.85,1.85,0,0,0-1.868,1.063V38H31.412V29.019h1.926l.05,1a2.273,2.273,0,0,1,2.025-1.17,1.888,1.888,0,0,1,.714.116Zm.6,2.565a5.3,5.3,0,0,1,.523-2.378,3.819,3.819,0,0,1,1.469-1.627,4.14,4.14,0,0,1,2.175-.569,3.923,3.923,0,0,1,2.951,1.17,4.6,4.6,0,0,1,1.224,3.1l.008.473a5.343,5.343,0,0,1-.51,2.374A3.773,3.773,0,0,1,43.1,37.593a4.17,4.17,0,0,1-2.2.573A3.9,3.9,0,0,1,37.858,36.9a4.848,4.848,0,0,1-1.141-3.374Zm2.017.174a3.619,3.619,0,0,0,.573,2.171,1.862,1.862,0,0,0,1.594.784,1.842,1.842,0,0,0,1.59-.8,4,4,0,0,0,.569-2.333,3.572,3.572,0,0,0-.585-2.158,1.973,1.973,0,0,0-3.158-.012A3.922,3.922,0,0,0,38.733,33.6ZM52.139,38a3.113,3.113,0,0,1-.232-.838,3.393,3.393,0,0,1-4.565.232,2.47,2.47,0,0,1-.855-1.909,2.55,2.55,0,0,1,1.067-2.2,5.169,5.169,0,0,1,3.051-.768H51.84v-.589a1.573,1.573,0,0,0-.39-1.116,1.547,1.547,0,0,0-1.187-.419,1.777,1.777,0,0,0-1.129.344,1.066,1.066,0,0,0-.44.876H46.677a2.239,2.239,0,0,1,.49-1.382A3.263,3.263,0,0,1,48.5,29.218a4.68,4.68,0,0,1,1.88-.365,3.769,3.769,0,0,1,2.515.793,2.827,2.827,0,0,1,.963,2.229v4.051a4.591,4.591,0,0,0,.34,1.934V38Zm-2.216-1.453a2.294,2.294,0,0,0,1.125-.291,1.941,1.941,0,0,0,.793-.78V33.783H50.753a2.973,2.973,0,0,0-1.685.39,1.264,1.264,0,0,0-.564,1.1,1.179,1.179,0,0,0,.386.926A1.5,1.5,0,0,0,49.923,36.547ZM58.116,38H56.1V25.25h2.017Zm4.341,0H60.44V29.019h2.017ZM60.315,26.686a1.07,1.07,0,0,1,.295-.772,1.113,1.113,0,0,1,.843-.307,1.127,1.127,0,0,1,.847.307,1.062,1.062,0,0,1,.3.772,1.038,1.038,0,0,1-.3.76,1.136,1.136,0,0,1-.847.3,1.122,1.122,0,0,1-.843-.3A1.046,1.046,0,0,1,60.315,26.686Zm6.234,2.333.058.938a3.232,3.232,0,0,1,2.59-1.1,2.483,2.483,0,0,1,2.465,1.378,3.186,3.186,0,0,1,2.756-1.378,2.8,2.8,0,0,1,2.212.822,3.618,3.618,0,0,1,.743,2.424V38H75.356V32.156a1.786,1.786,0,0,0-.374-1.253,1.635,1.635,0,0,0-1.237-.4,1.679,1.679,0,0,0-1.125.369,1.948,1.948,0,0,0-.61.967L72.02,38H70V32.09A1.439,1.439,0,0,0,68.384,30.5a1.776,1.776,0,0,0-1.718.988V38H64.648V29.019ZM83.4,38.166a4.173,4.173,0,0,1-3.109-1.208A4.381,4.381,0,0,1,79.1,33.742v-.249a5.389,5.389,0,0,1,.519-2.4,3.949,3.949,0,0,1,1.457-1.648,3.851,3.851,0,0,1,2.092-.589A3.525,3.525,0,0,1,86,30.023a4.949,4.949,0,0,1,1,3.312v.813H81.134a2.7,2.7,0,0,0,.743,1.76,2.23,2.23,0,0,0,1.639.647,2.731,2.731,0,0,0,2.258-1.121l1.087,1.038a3.631,3.631,0,0,1-1.44,1.249A4.509,4.509,0,0,1,83.4,38.166Zm-.241-7.695a1.7,1.7,0,0,0-1.341.581,3.012,3.012,0,0,0-.652,1.619H85.01v-.149a2.452,2.452,0,0,0-.54-1.531A1.686,1.686,0,0,0,83.159,30.471Zm7.28-1.453.058,1.038a3.229,3.229,0,0,1,2.615-1.2q2.806,0,2.855,3.212V38H93.95V32.181a1.85,1.85,0,0,0-.369-1.266,1.554,1.554,0,0,0-1.208-.411,1.944,1.944,0,0,0-1.818,1.1V38H88.538V29.019Zm10.11-2.183v2.183h1.585v1.494h-1.585v5.014a1.1,1.1,0,0,0,.2.743.943.943,0,0,0,.726.228,3.107,3.107,0,0,0,.706-.083v1.561a4.968,4.968,0,0,1-1.328.191q-2.324,0-2.324-2.565V30.513H97.055V29.019h1.478V26.835ZM109.041,38a3.113,3.113,0,0,1-.232-.838,3.393,3.393,0,0,1-4.565.232,2.47,2.47,0,0,1-.855-1.909,2.55,2.55,0,0,1,1.067-2.2,5.169,5.169,0,0,1,3.051-.768h1.237v-.589a1.573,1.573,0,0,0-.39-1.116,1.547,1.547,0,0,0-1.187-.419,1.777,1.777,0,0,0-1.129.344,1.066,1.066,0,0,0-.44.876h-2.017a2.239,2.239,0,0,1,.49-1.382,3.263,3.263,0,0,1,1.332-1.009,4.68,4.68,0,0,1,1.88-.365,3.769,3.769,0,0,1,2.515.793,2.827,2.827,0,0,1,.963,2.229v4.051a4.591,4.591,0,0,0,.34,1.934V38Zm-2.216-1.453a2.294,2.294,0,0,0,1.125-.291,1.941,1.941,0,0,0,.793-.78V33.783h-1.087a2.973,2.973,0,0,0-1.685.39,1.264,1.264,0,0,0-.564,1.1,1.179,1.179,0,0,0,.386.926A1.5,1.5,0,0,0,106.825,36.547Zm9.737.008a1.824,1.824,0,0,0,1.253-.44,1.5,1.5,0,0,0,.531-1.087h1.9a2.963,2.963,0,0,1-.523,1.565,3.43,3.43,0,0,1-1.328,1.15,3.958,3.958,0,0,1-1.81.423,3.829,3.829,0,0,1-2.988-1.22,4.84,4.84,0,0,1-1.1-3.37v-.208a4.759,4.759,0,0,1,1.1-3.283,3.8,3.8,0,0,1,2.988-1.233,3.69,3.69,0,0,1,2.611.934,3.345,3.345,0,0,1,1.058,2.453h-1.9a1.847,1.847,0,0,0-.527-1.27,1.7,1.7,0,0,0-1.258-.5,1.775,1.775,0,0,0-1.511.71,3.621,3.621,0,0,0-.54,2.154v.324a3.681,3.681,0,0,0,.527,2.179A1.773,1.773,0,0,0,116.562,36.556ZM123.916,38H121.9V29.019h2.017Zm-2.142-11.314a1.071,1.071,0,0,1,.295-.772,1.113,1.113,0,0,1,.843-.307,1.127,1.127,0,0,1,.847.307,1.062,1.062,0,0,1,.3.772,1.038,1.038,0,0,1-.3.76,1.136,1.136,0,0,1-.847.3,1.122,1.122,0,0,1-.843-.3A1.046,1.046,0,0,1,121.774,26.686Zm3.959,6.74a5.3,5.3,0,0,1,.523-2.378,3.819,3.819,0,0,1,1.469-1.627,4.14,4.14,0,0,1,2.175-.569,3.923,3.923,0,0,1,2.951,1.17,4.6,4.6,0,0,1,1.224,3.1l.008.473a5.343,5.343,0,0,1-.51,2.374,3.773,3.773,0,0,1-1.461,1.619,4.17,4.17,0,0,1-2.2.573,3.9,3.9,0,0,1-3.042-1.266,4.848,4.848,0,0,1-1.141-3.374Zm2.017.174a3.619,3.619,0,0,0,.573,2.171,1.862,1.862,0,0,0,1.594.784,1.842,1.842,0,0,0,1.59-.8,4,4,0,0,0,.569-2.333,3.572,3.572,0,0,0-.585-2.158,1.973,1.973,0,0,0-3.158-.012A3.922,3.922,0,0,0,127.751,33.6Zm2.706-8.351h2.3l-2.3,2.515-1.619,0Zm7.205,3.769.058,1.038a3.229,3.229,0,0,1,2.615-1.2q2.806,0,2.855,3.212V38h-2.017V32.181a1.85,1.85,0,0,0-.369-1.266A1.554,1.554,0,0,0,139.6,30.5a1.944,1.944,0,0,0-1.818,1.1V38h-2.017V29.019Z" transform="translate(1089 3889.547)" fill="#fff"/>
    <path id="Path_883169" data-name="Path 883169" d="M13.513,12.065a4.364,4.364,0,0,1-1.428,3.017,4.867,4.867,0,0,1-3.312,1.083,4.713,4.713,0,0,1-2.544-.685,4.5,4.5,0,0,1-1.7-1.947,7.024,7.024,0,0,1-.623-2.93V9.476a7.075,7.075,0,0,1,.606-3.013A4.567,4.567,0,0,1,6.254,4.454a4.851,4.851,0,0,1,2.619-.706,4.672,4.672,0,0,1,3.221,1.083A4.527,4.527,0,0,1,13.513,7.9H11.421a2.985,2.985,0,0,0-.76-1.88,2.51,2.51,0,0,0-1.789-.577,2.452,2.452,0,0,0-2.1,1A5,5,0,0,0,6.018,9.38v1.072a5.308,5.308,0,0,0,.7,2.991,2.328,2.328,0,0,0,2.054,1.03,2.715,2.715,0,0,0,1.859-.556,2.9,2.9,0,0,0,.789-1.851Zm1.3-.639a5.3,5.3,0,0,1,.523-2.378,3.819,3.819,0,0,1,1.469-1.627,4.14,4.14,0,0,1,2.175-.569,3.923,3.923,0,0,1,2.951,1.17,4.6,4.6,0,0,1,1.224,3.1l.008.473a5.343,5.343,0,0,1-.51,2.374A3.773,3.773,0,0,1,21.2,15.593a4.17,4.17,0,0,1-2.2.573A3.9,3.9,0,0,1,15.958,14.9a4.848,4.848,0,0,1-1.141-3.374Zm2.017.174a3.619,3.619,0,0,0,.573,2.171A1.862,1.862,0,0,0,19,14.556a1.842,1.842,0,0,0,1.59-.8,4,4,0,0,0,.569-2.333,3.572,3.572,0,0,0-.585-2.158,1.973,1.973,0,0,0-3.158-.012A3.922,3.922,0,0,0,16.833,11.6ZM26.77,7.019l.058.938a3.232,3.232,0,0,1,2.59-1.1A2.483,2.483,0,0,1,31.883,8.23a3.186,3.186,0,0,1,2.756-1.378,2.8,2.8,0,0,1,2.212.822,3.618,3.618,0,0,1,.743,2.424V16H35.577V10.156A1.786,1.786,0,0,0,35.2,8.9a1.635,1.635,0,0,0-1.237-.4,1.679,1.679,0,0,0-1.125.369,1.948,1.948,0,0,0-.61.967L32.24,16H30.223V10.09A1.439,1.439,0,0,0,28.6,8.5a1.776,1.776,0,0,0-1.718.988V16H24.869V7.019Zm18.336,8.1a3.128,3.128,0,0,1-2.523,1.046,2.788,2.788,0,0,1-2.212-.855,3.637,3.637,0,0,1-.751-2.474V7.019h2.017v5.794q0,1.71,1.419,1.71a1.993,1.993,0,0,0,1.984-1.054V7.019h2.017V16h-1.9Zm5.877-8.1.058,1.038a3.229,3.229,0,0,1,2.615-1.2q2.806,0,2.855,3.212V16H54.494V10.181a1.85,1.85,0,0,0-.369-1.266A1.554,1.554,0,0,0,52.917,8.5a1.944,1.944,0,0,0-1.818,1.1V16H49.082V7.019ZM60.711,16H58.694V7.019h2.017ZM58.57,4.686a1.071,1.071,0,0,1,.295-.772,1.113,1.113,0,0,1,.843-.307,1.127,1.127,0,0,1,.847.307,1.062,1.062,0,0,1,.3.772,1.038,1.038,0,0,1-.3.76,1.136,1.136,0,0,1-.847.3,1.122,1.122,0,0,1-.843-.3A1.046,1.046,0,0,1,58.57,4.686Zm8.027,9.87a1.824,1.824,0,0,0,1.253-.44,1.5,1.5,0,0,0,.531-1.087h1.9a2.963,2.963,0,0,1-.523,1.565,3.43,3.43,0,0,1-1.328,1.15,3.958,3.958,0,0,1-1.81.423,3.829,3.829,0,0,1-2.988-1.22,4.84,4.84,0,0,1-1.1-3.37v-.208a4.759,4.759,0,0,1,1.1-3.283,3.8,3.8,0,0,1,2.988-1.233,3.69,3.69,0,0,1,2.611.934,3.345,3.345,0,0,1,1.058,2.453h-1.9a1.847,1.847,0,0,0-.527-1.27,1.7,1.7,0,0,0-1.258-.5,1.775,1.775,0,0,0-1.511.71,3.621,3.621,0,0,0-.54,2.154v.324a3.681,3.681,0,0,0,.527,2.179A1.773,1.773,0,0,0,66.6,14.556ZM77.172,16a3.113,3.113,0,0,1-.232-.838,3.393,3.393,0,0,1-4.565.232,2.47,2.47,0,0,1-.855-1.909,2.55,2.55,0,0,1,1.067-2.2,5.169,5.169,0,0,1,3.051-.768h1.237V9.924a1.573,1.573,0,0,0-.39-1.116A1.547,1.547,0,0,0,75.3,8.388a1.777,1.777,0,0,0-1.129.344,1.066,1.066,0,0,0-.44.876H71.71a2.239,2.239,0,0,1,.49-1.382,3.263,3.263,0,0,1,1.332-1.009,4.68,4.68,0,0,1,1.88-.365,3.769,3.769,0,0,1,2.515.793,2.827,2.827,0,0,1,.963,2.229v4.051a4.591,4.591,0,0,0,.34,1.934V16Zm-2.216-1.453a2.294,2.294,0,0,0,1.125-.291,1.941,1.941,0,0,0,.793-.78V11.783H75.786a2.973,2.973,0,0,0-1.685.39,1.264,1.264,0,0,0-.564,1.1,1.179,1.179,0,0,0,.386.926A1.5,1.5,0,0,0,74.956,14.547Zm9.737.008a1.824,1.824,0,0,0,1.253-.44,1.5,1.5,0,0,0,.531-1.087h1.9a2.963,2.963,0,0,1-.523,1.565,3.43,3.43,0,0,1-1.328,1.15,3.958,3.958,0,0,1-1.81.423,3.829,3.829,0,0,1-2.988-1.22,4.84,4.84,0,0,1-1.1-3.37v-.208a4.759,4.759,0,0,1,1.1-3.283,3.8,3.8,0,0,1,2.988-1.233,3.69,3.69,0,0,1,2.611.934,3.345,3.345,0,0,1,1.058,2.453h-1.9a1.847,1.847,0,0,0-.527-1.27,1.7,1.7,0,0,0-1.258-.5,1.775,1.775,0,0,0-1.511.71,3.621,3.621,0,0,0-.54,2.154v.324a3.681,3.681,0,0,0,.527,2.179A1.773,1.773,0,0,0,84.692,14.556ZM92.047,16H90.03V7.019h2.017ZM89.905,4.686a1.071,1.071,0,0,1,.295-.772,1.113,1.113,0,0,1,.843-.307,1.127,1.127,0,0,1,.847.307,1.062,1.062,0,0,1,.3.772,1.038,1.038,0,0,1-.3.76,1.136,1.136,0,0,1-.847.3,1.122,1.122,0,0,1-.843-.3A1.046,1.046,0,0,1,89.905,4.686Zm3.959,6.74a5.3,5.3,0,0,1,.523-2.378,3.819,3.819,0,0,1,1.469-1.627,4.14,4.14,0,0,1,2.175-.569,3.923,3.923,0,0,1,2.951,1.17,4.6,4.6,0,0,1,1.224,3.1l.008.473a5.343,5.343,0,0,1-.51,2.374,3.773,3.773,0,0,1-1.461,1.619,4.17,4.17,0,0,1-2.2.573A3.9,3.9,0,0,1,95.006,14.9a4.848,4.848,0,0,1-1.141-3.374Zm2.017.174a3.619,3.619,0,0,0,.573,2.171,1.862,1.862,0,0,0,1.594.784,1.842,1.842,0,0,0,1.59-.8,4,4,0,0,0,.569-2.333,3.572,3.572,0,0,0-.585-2.158,1.973,1.973,0,0,0-3.158-.012A3.922,3.922,0,0,0,95.882,11.6ZM98.588,3.25h2.3l-2.3,2.515-1.619,0Zm7.205,3.769.058,1.038a3.229,3.229,0,0,1,2.615-1.2q2.806,0,2.855,3.212V16H109.3V10.181a1.85,1.85,0,0,0-.369-1.266,1.554,1.554,0,0,0-1.208-.411,1.944,1.944,0,0,0-1.818,1.1V16h-2.017V7.019ZM121.3,14.556a1.824,1.824,0,0,0,1.253-.44,1.5,1.5,0,0,0,.531-1.087h1.9a2.963,2.963,0,0,1-.523,1.565,3.43,3.43,0,0,1-1.328,1.15,3.958,3.958,0,0,1-1.81.423,3.829,3.829,0,0,1-2.988-1.22,4.84,4.84,0,0,1-1.1-3.37v-.208a4.759,4.759,0,0,1,1.1-3.283,3.8,3.8,0,0,1,2.988-1.233,3.69,3.69,0,0,1,2.611.934,3.345,3.345,0,0,1,1.058,2.453h-1.9a1.847,1.847,0,0,0-.527-1.27,1.7,1.7,0,0,0-1.258-.5,1.775,1.775,0,0,0-1.511.71,3.621,3.621,0,0,0-.54,2.154v.324a3.681,3.681,0,0,0,.527,2.179A1.773,1.773,0,0,0,121.3,14.556ZM128.653,16h-2.017V3.25h2.017Zm7.562,0a3.113,3.113,0,0,1-.232-.838,3.393,3.393,0,0,1-4.565.232,2.47,2.47,0,0,1-.855-1.909,2.55,2.55,0,0,1,1.067-2.2,5.169,5.169,0,0,1,3.051-.768h1.237V9.924a1.573,1.573,0,0,0-.39-1.116,1.547,1.547,0,0,0-1.187-.419,1.777,1.777,0,0,0-1.129.344,1.066,1.066,0,0,0-.44.876h-2.017a2.239,2.239,0,0,1,.49-1.382,3.263,3.263,0,0,1,1.332-1.009,4.68,4.68,0,0,1,1.88-.365,3.769,3.769,0,0,1,2.515.793,2.827,2.827,0,0,1,.963,2.229v4.051a4.591,4.591,0,0,0,.34,1.934V16ZM134,14.547a2.294,2.294,0,0,0,1.125-.291,1.941,1.941,0,0,0,.793-.78V11.783h-1.087a2.973,2.973,0,0,0-1.685.39,1.264,1.264,0,0,0-.564,1.1,1.179,1.179,0,0,0,.386.926A1.5,1.5,0,0,0,134,14.547Zm10.75-5.686a4.991,4.991,0,0,0-.822-.066,1.85,1.85,0,0,0-1.868,1.063V16h-2.017V7.019h1.926l.05,1a2.273,2.273,0,0,1,2.025-1.17,1.888,1.888,0,0,1,.714.116ZM151.14,16a3.113,3.113,0,0,1-.232-.838,3.393,3.393,0,0,1-4.565.232,2.47,2.47,0,0,1-.855-1.909,2.55,2.55,0,0,1,1.067-2.2,5.169,5.169,0,0,1,3.051-.768h1.237V9.924a1.573,1.573,0,0,0-.39-1.116,1.547,1.547,0,0,0-1.187-.419,1.777,1.777,0,0,0-1.129.344,1.066,1.066,0,0,0-.44.876h-2.017a2.239,2.239,0,0,1,.49-1.382A3.263,3.263,0,0,1,147.5,7.218a4.68,4.68,0,0,1,1.88-.365,3.769,3.769,0,0,1,2.515.793,2.827,2.827,0,0,1,.963,2.229v4.051a4.591,4.591,0,0,0,.34,1.934V16Zm-2.216-1.453a2.294,2.294,0,0,0,1.125-.291,1.941,1.941,0,0,0,.793-.78V11.783h-1.087a2.973,2.973,0,0,0-1.685.39,1.264,1.264,0,0,0-.564,1.1,1.179,1.179,0,0,0,.386.926A1.5,1.5,0,0,0,148.924,14.547ZM46.2,35.111l1.826-6.093h2.15L46.6,39.361a2.9,2.9,0,0,1-2.789,2.266,3.6,3.6,0,0,1-.971-.15V39.909l.382.025a1.964,1.964,0,0,0,1.15-.278,1.842,1.842,0,0,0,.61-.933l.291-.771-3.154-8.933H44.3ZM59.52,38.166a4.173,4.173,0,0,1-3.109-1.208,4.381,4.381,0,0,1-1.191-3.217v-.249a5.389,5.389,0,0,1,.519-2.4A3.949,3.949,0,0,1,57.2,29.442a3.851,3.851,0,0,1,2.092-.589,3.525,3.525,0,0,1,2.835,1.17,4.949,4.949,0,0,1,1,3.312v.813H57.254A2.7,2.7,0,0,0,58,35.908a2.23,2.23,0,0,0,1.639.647,2.731,2.731,0,0,0,2.258-1.121l1.087,1.038a3.631,3.631,0,0,1-1.44,1.249A4.509,4.509,0,0,1,59.52,38.166Zm-.241-7.695a1.7,1.7,0,0,0-1.341.581,3.012,3.012,0,0,0-.652,1.619h3.843v-.149a2.452,2.452,0,0,0-.54-1.531A1.686,1.686,0,0,0,59.28,30.471ZM65.4,38V30.513h-1.37V29.019H65.4V28.2a3.085,3.085,0,0,1,.83-2.308,3.18,3.18,0,0,1,2.324-.813,4.662,4.662,0,0,1,1.129.149l-.05,1.577a3.973,3.973,0,0,0-.772-.066,1.3,1.3,0,0,0-1.444,1.486v.8H69.24v1.494H67.414V38Zm9.073.166a4.173,4.173,0,0,1-3.109-1.208,4.381,4.381,0,0,1-1.191-3.217v-.249a5.389,5.389,0,0,1,.519-2.4,3.949,3.949,0,0,1,1.457-1.648,3.851,3.851,0,0,1,2.092-.589,3.525,3.525,0,0,1,2.835,1.17,4.949,4.949,0,0,1,1,3.312v.813H72.2a2.7,2.7,0,0,0,.743,1.76,2.23,2.23,0,0,0,1.639.647,2.731,2.731,0,0,0,2.258-1.121l1.087,1.038a3.631,3.631,0,0,1-1.44,1.249A4.509,4.509,0,0,1,74.47,38.166Zm-.241-7.695a1.7,1.7,0,0,0-1.341.581,3.012,3.012,0,0,0-.652,1.619H76.08v-.149a2.452,2.452,0,0,0-.54-1.531A1.686,1.686,0,0,0,74.229,30.471Zm9.1,6.084a1.824,1.824,0,0,0,1.253-.44,1.5,1.5,0,0,0,.531-1.087h1.9a2.963,2.963,0,0,1-.523,1.565,3.43,3.43,0,0,1-1.328,1.15,3.958,3.958,0,0,1-1.81.423,3.829,3.829,0,0,1-2.988-1.22,4.84,4.84,0,0,1-1.1-3.37v-.208a4.759,4.759,0,0,1,1.1-3.283,3.8,3.8,0,0,1,2.988-1.233,3.69,3.69,0,0,1,2.611.934,3.345,3.345,0,0,1,1.058,2.453h-1.9a1.847,1.847,0,0,0-.527-1.27,1.7,1.7,0,0,0-1.258-.5,1.775,1.775,0,0,0-1.511.71,3.621,3.621,0,0,0-.54,2.154v.324a3.681,3.681,0,0,0,.527,2.179A1.773,1.773,0,0,0,83.327,36.556Zm7.736-9.72v2.183h1.585v1.494H91.063v5.014a1.1,1.1,0,0,0,.2.743.943.943,0,0,0,.726.228,3.107,3.107,0,0,0,.706-.083v1.561a4.968,4.968,0,0,1-1.328.191q-2.324,0-2.324-2.565V30.513H87.569V29.019h1.478V26.835ZM96.334,38H94.317V29.019h2.017ZM94.193,26.686a1.071,1.071,0,0,1,.295-.772,1.113,1.113,0,0,1,.843-.307,1.127,1.127,0,0,1,.847.307,1.062,1.062,0,0,1,.3.772,1.038,1.038,0,0,1-.3.76,1.136,1.136,0,0,1-.847.3,1.122,1.122,0,0,1-.843-.3A1.046,1.046,0,0,1,94.193,26.686Zm7.5,8.757,1.9-6.425h2.083L102.568,38h-1.751l-3.138-8.981h2.092ZM112.18,38a3.113,3.113,0,0,1-.232-.838,3.393,3.393,0,0,1-4.565.232,2.47,2.47,0,0,1-.855-1.909,2.55,2.55,0,0,1,1.067-2.2,5.169,5.169,0,0,1,3.051-.768h1.237v-.589a1.573,1.573,0,0,0-.39-1.116,1.547,1.547,0,0,0-1.187-.419,1.777,1.777,0,0,0-1.129.344,1.066,1.066,0,0,0-.44.876h-2.017a2.239,2.239,0,0,1,.49-1.382,3.263,3.263,0,0,1,1.332-1.009,4.68,4.68,0,0,1,1.88-.365,3.769,3.769,0,0,1,2.515.793,2.827,2.827,0,0,1,.963,2.229v4.051a4.591,4.591,0,0,0,.34,1.934V38Zm-2.216-1.453a2.294,2.294,0,0,0,1.125-.291,1.941,1.941,0,0,0,.793-.78V33.783h-1.087a2.973,2.973,0,0,0-1.685.39,1.264,1.264,0,0,0-.564,1.1,1.179,1.179,0,0,0,.386.926A1.5,1.5,0,0,0,109.964,36.547Z" transform="translate(722 4212.547)" fill="#fff"/>
    <g id="Mask_Group_1101514" data-name="Mask Group 1101514" transform="translate(0 -201.453)" clip-path="url(#clip-path-2)">
      <g id="Group_1101853" data-name="Group 1101853" transform="translate(504 3967.636)">
        <g id="Group_1101509" data-name="Group 1101509">
          <g id="Group_1101508" data-name="Group 1101508" clip-path="url(#clip-path-3)">
            <path id="Path_880559" data-name="Path 880559" d="M147.837,419.374c-17.993-19.865-35.263-41.349-40-65.843s6.385-52.7,33.15-63.973c30.017-12.645,66.962-.56,99.794-6.834,29.685-5.672,51.888-25.32,77.11-39.43,29.217-16.345,64.129-25.666,99.408-26.542,25.2-.625,51.421,3.308,71.868,15.481,26.511,15.783,39.7,43.562,40.766,70.529s-8.508,53.438-19.971,78.705c-5.569,12.273-11.551,26.25-4.41,37.955Z" transform="translate(-22.533 -45.726)" fill="#e3e8ff"/>
          </g>
        </g>
        <g id="Group_1101511" data-name="Group 1101511">
          <g id="Group_1101510" data-name="Group 1101510" clip-path="url(#clip-path-4)">
            <path id="Path_880560" data-name="Path 880560" d="M32.4,232.136a21.312,21.312,0,0,0-6.562,7.842,11.616,11.616,0,0,0-.017,9.98c2.454,4.656,8.538,6.395,13.708,5.408s9.647-4.092,13.951-7.122c-2.869,2.2-1.826,7.263,1.284,9.1s7.18,1.081,10.317-.712,5.653-4.477,8.48-6.728a37.016,37.016,0,0,1,28.49-7.493C83.361,226.541,51.695,217,32.4,232.136" transform="translate(-5.213 -47.379)"/>
            <path id="Path_880561" data-name="Path 880561" d="M88.387,216.568a119.159,119.159,0,0,0-15.611-8.133,76.767,76.767,0,0,0-45.656-5.118c-7.734,1.548-15.67,4.531-19.856,11.716A13.625,13.625,0,0,0,5.946,226.4c2.782,7.849,11.625,9.459,19.255,9.488a99.355,99.355,0,0,0,38.224-7.518c-3.069,2.618-6.566,5.96-4.91,10.109a6.62,6.62,0,0,0,4.074,3.685c4.046,1.4,8.015.039,11.934-.914,13.735-3.34,27.444-.429,40.079,5.909l-2.2-4.279a67.351,67.351,0,0,0-24.01-26.31" transform="translate(-1.107 -42.601)" fill="#09614d"/>
            <path id="Path_880562" data-name="Path 880562" d="M38.3,211.267c24.641-7.8,52.245,3.3,70.423,21.673s28.619,42.894,37.389,67.205A758.977,758.977,0,0,1,175.952,406.6" transform="translate(-8.082 -44.048)" fill="none" stroke="#000" stroke-linecap="round" stroke-linejoin="round" stroke-width="1"/>
            <path id="Path_880563" data-name="Path 880563" d="M102.684,170.732a21.307,21.307,0,0,0-8.163,6.158,11.616,11.616,0,0,0-2.271,9.719c1.34,5.09,6.874,8.156,12.133,8.362s10.321-1.808,15.2-3.788c-3.29,1.494-3.419,6.664-.8,9.159s6.75,2.675,10.212,1.636,6.517-3.086,9.78-4.64a37.018,37.018,0,0,1,29.446-.867c-14.624-19.684-43.319-36.129-65.531-25.739" transform="translate(-19.402 -35.349)"/>
            <path id="Path_880564" data-name="Path 880564" d="M160.746,168.3a119.073,119.073,0,0,0-13.372-11.447,76.756,76.756,0,0,0-43.321-15.294c-7.883-.239-16.289.876-21.988,6.93a13.622,13.622,0,0,0-3.851,10.774c.938,8.275,9.189,11.84,16.616,13.591a99.349,99.349,0,0,0,38.934,1.306c-3.581,1.857-7.742,4.324-7.065,8.74a6.617,6.617,0,0,0,3.138,4.509c3.625,2.278,7.8,1.849,11.832,1.8,14.135-.152,26.832,5.778,37.709,14.806l-1.181-4.666a67.344,67.344,0,0,0-17.45-31.052" transform="translate(-16.488 -29.866)" fill="#09614d"/>
            <path id="Path_880565" data-name="Path 880565" d="M114.317,150.759c25.765-2.032,50.151,15.011,63.711,37.013s18.2,48.248,21.25,73.911a758.975,758.975,0,0,1,5.034,110.443" transform="translate(-24.123 -31.778)" fill="none" stroke="#000" stroke-linecap="round" stroke-linejoin="round" stroke-width="1"/>
            <path id="Path_880566" data-name="Path 880566" d="M67.3,324.728a18.433,18.433,0,0,0-5.68,6.788,10.053,10.053,0,0,0-.016,8.639c2.125,4.03,7.39,5.535,11.865,4.681s8.351-3.543,12.076-6.165c-2.482,1.9-1.58,6.287,1.112,7.88s6.215.936,8.931-.615,4.892-3.876,7.341-5.824a32.036,32.036,0,0,1,24.66-6.485c-16.179-13.742-43.59-22-60.29-8.9" transform="translate(-12.795 -67.134)"/>
            <path id="Path_880567" data-name="Path 880567" d="M115.758,311.251a103.187,103.187,0,0,0-13.513-7.04,66.448,66.448,0,0,0-39.521-4.43c-6.694,1.34-13.564,3.923-17.187,10.141A11.8,11.8,0,0,0,44.4,319.76c2.408,6.794,10.063,8.188,16.667,8.212a86,86,0,0,0,33.087-6.508c-2.657,2.266-5.684,5.159-4.25,8.751a5.729,5.729,0,0,0,3.527,3.189c3.5,1.212,6.938.034,10.33-.791,11.89-2.891,23.756-.372,34.693,5.116l-1.909-3.7a58.291,58.291,0,0,0-20.783-22.775" transform="translate(-9.24 -62.998)" fill="#09614d"/>
            <path id="Path_880569" data-name="Path 880569" d="M366.812,282.168a21.306,21.306,0,0,1,6.562,7.842,11.616,11.616,0,0,1,.017,9.98c-2.454,4.656-8.538,6.395-13.708,5.408s-9.647-4.092-13.951-7.122c2.869,2.2,1.826,7.263-1.284,9.1s-7.179,1.082-10.317-.711-5.653-4.477-8.48-6.728a37.016,37.016,0,0,0-28.49-7.493c18.691-15.874,50.357-25.415,69.65-10.279" transform="translate(-62.707 -57.937)"/>
            <path id="Path_880570" data-name="Path 880570" d="M302.268,266.6a119.211,119.211,0,0,1,15.611-8.133,76.768,76.768,0,0,1,45.656-5.118c7.734,1.548,15.67,4.531,19.856,11.716a13.622,13.622,0,0,1,1.318,11.365c-2.782,7.849-11.625,9.459-19.255,9.488A99.355,99.355,0,0,1,327.23,278.4c3.069,2.618,6.566,5.96,4.91,10.109a6.62,6.62,0,0,1-4.074,3.685c-4.046,1.4-8.015.039-11.934-.914-13.735-3.341-27.444-.429-40.079,5.909l2.2-4.279a67.351,67.351,0,0,1,24.01-26.31" transform="translate(-58.253 -53.159)" fill="#09614d"/>
            <path id="Path_880572" data-name="Path 880572" d="M296.819,220.763a21.306,21.306,0,0,1,8.163,6.158,11.616,11.616,0,0,1,2.271,9.719c-1.34,5.09-6.874,8.156-12.133,8.362s-10.321-1.808-15.2-3.788c3.29,1.494,3.419,6.664.8,9.159s-6.75,2.674-10.212,1.636-6.517-3.086-9.78-4.64a37.018,37.018,0,0,0-29.446-.867c14.624-19.684,43.319-36.129,65.531-25.739" transform="translate(-48.806 -45.907)"/>
            <path id="Path_880573" data-name="Path 880573" d="M232.08,218.335a119.142,119.142,0,0,1,13.372-11.447,76.756,76.756,0,0,1,43.321-15.294c7.883-.239,16.288.876,21.988,6.93a13.622,13.622,0,0,1,3.851,10.774c-.938,8.275-9.189,11.84-16.616,13.591a99.349,99.349,0,0,1-38.934,1.306c3.581,1.858,7.742,4.324,7.065,8.74a6.622,6.622,0,0,1-3.137,4.51c-3.626,2.277-7.8,1.848-11.832,1.8-14.135-.153-26.832,5.778-37.709,14.806l1.181-4.667a67.344,67.344,0,0,1,17.45-31.052" transform="translate(-45.042 -40.424)" fill="#09614d"/>
            <path id="Path_880575" data-name="Path 880575" d="M334.7,374.76a18.433,18.433,0,0,1,5.68,6.788,10.053,10.053,0,0,1,.016,8.639c-2.125,4.03-7.39,5.535-11.865,4.681s-8.351-3.543-12.076-6.165c2.483,1.9,1.58,6.287-1.112,7.88s-6.215.936-8.931-.615-4.892-3.876-7.34-5.824a32.042,32.042,0,0,0-24.661-6.486c16.179-13.741,43.59-22,60.29-8.9" transform="translate(-57.905 -77.691)"/>
            <path id="Path_880576" data-name="Path 880576" d="M278.827,361.283a103.235,103.235,0,0,1,13.513-7.04,66.448,66.448,0,0,1,39.521-4.43c6.694,1.34,13.564,3.923,17.187,10.142a11.793,11.793,0,0,1,1.142,9.838c-2.408,6.794-10.063,8.188-16.667,8.213a86,86,0,0,1-33.087-6.508c2.657,2.266,5.684,5.159,4.25,8.751a5.727,5.727,0,0,1-3.527,3.189c-3.5,1.212-6.938.034-10.33-.791-11.89-2.891-23.756-.372-34.693,5.116l1.909-3.7a58.291,58.291,0,0,1,20.783-22.775" transform="translate(-54.05 -73.555)" fill="#0097a7"/>
          </g>
        </g>
        <g id="Group_1101513" data-name="Group 1101513">
          <g id="Group_1101512" data-name="Group 1101512" clip-path="url(#clip-path-3)">
            <path id="Path_880579" data-name="Path 880579" d="M211.972,101.505c-10.22,3.494-18,12.745-19.355,23.007-.786,5.965.39,12.319-2.2,17.8-2.249,4.76-6.96,8-11.647,10.7s-9.68,5.218-13.152,9.258-5,10.166-1.921,14.486c3.407,4.784,10.912,5.6,14.382,10.344,3.021,4.132,1.942,9.8.01,14.486s-4.638,9.317-4.542,14.352c.107,5.645,3.846,10.781,8.6,14.15s10.464,5.256,16.091,7.032c9.635,3.041,19.454,5.927,29.588,6.469s20.746-1.472,28.775-7.386,12.89-16.187,10.355-25.547c-1.449-5.347-5.135-10.283-4.8-15.8.665-10.837,16.229-17.338,15.466-28.17-.826-11.736-19.893-16.044-21.09-27.751-.612-5.991,3.938-11.506,3.98-17.524a12.622,12.622,0,0,0-7.165-11.216c-3.783-1.819-8.052-1.58-11.785-3.687-9.309-5.256-18.767-8.716-29.6-5.015" transform="translate(-34.193 -21.094)" fill="#773040"/>
            <path id="Path_880580" data-name="Path 880580" d="M214.744,156.282a5.364,5.364,0,0,0-1.468-1.686,1.829,1.829,0,0,0-2.1-.024,2.528,2.528,0,0,0-.621,2.081,17.391,17.391,0,0,0,3.154,9.387,3.088,3.088,0,0,0,1,1,1.2,1.2,0,0,0,1.337-.073,1.81,1.81,0,0,0,.4-1.382q.009-1.8.019-3.606" transform="translate(-44.43 -32.55)" fill="#e06753"/>
            <path id="Path_880581" data-name="Path 880581" d="M268.4,156.282a5.364,5.364,0,0,1,1.467-1.686,1.829,1.829,0,0,1,2.1-.024,2.528,2.528,0,0,1,.621,2.081,17.4,17.4,0,0,1-3.154,9.387,3.088,3.088,0,0,1-1,1,1.2,1.2,0,0,1-1.337-.073,1.81,1.81,0,0,1-.4-1.382q-.01-1.8-.019-3.606" transform="translate(-56.277 -32.55)" fill="#e06753"/>
            <path id="Path_880582" data-name="Path 880582" d="M251.885,222.906c-23.031-4.234-41.028-4.419-65.294,2.1a14.675,14.675,0,0,0-10.744,16.213c3.283,23.191,5.835,45.234,15.657,66.962-24.943,24.361-45.673,64.61-45.005,99.88H289.161c-3.819-33.451-19.685-71.914-37.5-100.238,8.935-20.135,13.79-37.7,18.389-57.186a22.867,22.867,0,0,0-18.167-27.727" transform="translate(-30.911 -46.401)" fill="#ffb937"/>
            <path id="Path_880583" data-name="Path 880583" d="M281.34,314.972l23.54-9.543-27.557-65.505a27.429,27.429,0,0,0-18.565-15.932,87.6,87.6,0,0,0-12.627-2.373c-12.192,23.01-21.48,48.3-29.887,72.922-9.049-23.376-19.98-47.788-27.843-71.789-5.311.889-9.472,1.425-13.574,2.126a27.135,27.135,0,0,0-20.4,16.15L124.6,311.291l23.54,9.543,24.086-40.014v0c4.7,9.091,9.645,18.182,14.056,27.723a161.144,161.144,0,0,0-34.232,48.83c9.8,10.972,22.607,21.265,38.946,19.223,15.78-2.367,22.091-18.936,23.669-33.137.789,10.257,3.945,20.513,10.257,28.4,8.679,9.468,22.091,8.679,31.559,1.578a98.4,98.4,0,0,0,16.484-15.512,280.965,280.965,0,0,0-25.144-49.743c4.624-10.187,8.6-19.817,12.134-29.4Z" transform="translate(-26.293 -46.766)" fill="#bf8211"/>
            <path id="Path_880584" data-name="Path 880584" d="M238.729,364.044c2.438-17.007,1.911-32.808,1.6-50" transform="translate(-50.376 -66.27)" fill="none" stroke="#000" stroke-linecap="round" stroke-linejoin="round" stroke-width="1"/>
            <path id="Path_880585" data-name="Path 880585" d="M189.55,229.462c2.249,7.99,4.447,18.755,3.531,27L211.594,268.7l-16.256-1.046c5.475,7.794,12.363,14.465,18.809,21.478s12.574,14.567,16.079,23.423" transform="translate(-39.999 -48.421)" fill="none" stroke="#000" stroke-linecap="round" stroke-linejoin="round" stroke-width="1"/>
            <path id="Path_880586" data-name="Path 880586" d="M281.779,229.462c-2.249,7.99-4.447,18.755-3.53,27L259.735,268.7l16.256-1.046c-5.475,7.794-12.363,14.465-18.809,21.478S244.609,303.7,241.1,312.555" transform="translate(-50.878 -48.421)" fill="none" stroke="#000" stroke-linecap="round" stroke-linejoin="round" stroke-width="1"/>
            <path id="Path_880587" data-name="Path 880587" d="M182.465,362.582a87.19,87.19,0,0,0,22.113,11.824" transform="translate(-38.504 -76.512)" fill="none" stroke="#000" stroke-linecap="round" stroke-linejoin="round" stroke-width="1"/>
            <path id="Path_880588" data-name="Path 880588" d="M260.574,374.266a54.082,54.082,0,0,0,23.623-8.547" transform="translate(-54.986 -77.174)" fill="none" stroke="#000" stroke-linecap="round" stroke-linejoin="round" stroke-width="1"/>
            <path id="Path_880589" data-name="Path 880589" d="M256.15,215.029c-6.743,5.2-20.75,15.8-20.75,15.8-.058-.046-14.364-10.594-21.107-15.8,1.909-.649,5.649-1.167,7.558-1.815a198.778,198.778,0,0,0,1.21-26.061q0-7.151-.508-14.278l12.491-1.045V171.8l.174.015.181-.015v.031l12.49,1.045q-.522,7.425-.508,14.9a203.4,203.4,0,0,0,1.138,25.442c1.909.648,5.722,1.166,7.63,1.815" transform="translate(-45.22 -36.253)" fill="#ff9685"/>
            <path id="Path_880590" data-name="Path 880590" d="M250.1,172.875q-.523,7.425-.508,14.9c-3.839,4.2-8.281,7.162-11.126,7.162H236.4c-2.228,0-6.975-3.257-11.126-7.78q0-7.151-.508-14.278l12.49-1.045V171.8l.174.015.181-.015v.031Z" transform="translate(-47.429 -36.253)"/>
            <path id="Path_880591" data-name="Path 880591" d="M250.872,125.77H236.208a12.743,12.743,0,0,1-1.235,2.583c-5.255,6.006-13.367,12.005-21.618,10.535l1.572,19.782c0,10.425,13.955,23.714,20.383,23.714h2.252c4.813,0,20.383-13.289,20.383-23.714l.918-19.152a3.612,3.612,0,0,0-.8-2.455c-2.724-3.349-4.7-7.526-6.848-11.1l-.344-.193" transform="translate(-45.022 -26.54)" fill="#ff9685"/>
            <path id="Path_880592" data-name="Path 880592" d="M248.3,181.85a9.256,9.256,0,0,1-14.181.636c4.279-2.626,10.051-2.954,14.181-.636" transform="translate(-49.404 -38.046)" fill="#961717"/>
            <path id="Path_880593" data-name="Path 880593" d="M249.266,178.584a9.24,9.24,0,0,1-1.509,2.905c-4.13-2.318-9.9-1.99-14.181.636a9.267,9.267,0,0,1-2.042-3.541Z" transform="translate(-48.858 -37.685)" fill="#520c0c"/>
            <path id="Path_880594" data-name="Path 880594" d="M243.69,170.134c2.185-1.153,3.364-3.011,3.083-4.739-.7-4.275-1.7-8.493-1.77-10.243" transform="translate(-51.423 -32.74)" fill="none" stroke="#000" stroke-linecap="round" stroke-linejoin="round" stroke-width="1"/>
            <path id="Path_880595" data-name="Path 880595" d="M255.741,155.653a2.8,2.8,0,1,0,1.253-3.753,2.8,2.8,0,0,0-1.253,3.753" transform="translate(-53.904 -31.992)"/>
            <path id="Path_880596" data-name="Path 880596" d="M226.794,155.654a2.8,2.8,0,1,0,1.253-3.753,2.8,2.8,0,0,0-1.253,3.753" transform="translate(-47.796 -31.992)"/>
            <path id="Path_880597" data-name="Path 880597" d="M264.344,146.648a8.28,8.28,0,0,0-11.552-2.084" transform="translate(-53.344 -30.192)" fill="none" stroke="#773040" stroke-linecap="round" stroke-linejoin="round" stroke-width="2"/>
            <path id="Path_880598" data-name="Path 880598" d="M220.667,146.648a8.28,8.28,0,0,1,11.552-2.084" transform="translate(-46.565 -30.192)" fill="none" stroke="#773040" stroke-linecap="round" stroke-linejoin="round" stroke-width="2"/>
            <path id="Path_880599" data-name="Path 880599" d="M346.034,224.133c-10.557,24.565-28.6,72.177-28.25,77.7.462,7.385,4.051,14.432,9.24,17.275s11.751,1.017,15.316-4.7c2.582-4.145,3.445-9.649,4.224-14.916q5.9-39.895,11.81-79.789Z" transform="translate(-67.058 -46.361)" fill="#ff9685"/>
            <path id="Path_880600" data-name="Path 880600" d="M382.157,212.581s-12.086,1.95-13.149,2.193c-4.878,1.118-10.338-.343-14.014,2.456-2.254,1.717-3.09,10.245.859,12.663,7.1,4.35,18.745,2.65,27.7,1.655,3.055-6.565,1.407-12.336-1.4-18.968" transform="translate(-74.51 -44.859)" fill="#ff9685"/>
            <path id="Path_880601" data-name="Path 880601" d="M388.628,216.325c6.091-1.553,12.7-2.06,18.1-4.74,1.262-3.845,1.669-8.437,2.606-12.092a3.517,3.517,0,0,0-2.832-.084c-.828.337-4.13,6.384-4.675,8.331,0,0-10.052,1.782-15,2.377Z" transform="translate(-81.628 -42.025)" fill="#ff9685"/>
            <path id="Path_880602" data-name="Path 880602" d="M392,221.138a114.891,114.891,0,0,0,20.3-5.049c2.336-3.256,1.878-5.986,5.023-10.041a3.466,3.466,0,0,0-2.8-.357,5.911,5.911,0,0,0-2.2,1.315,15.064,15.064,0,0,0-3.9,5.113c-4.62,1.5-15,3.568-20,3.681Z" transform="translate(-81.964 -43.376)" fill="#ff9685"/>
            <path id="Path_880603" data-name="Path 880603" d="M389.128,227.743c6.4-.246,14.027-.252,20.151-1.728,2.912-2.963,4-6.578,7.692-10.4a3.334,3.334,0,0,0-2.7-.664,6.467,6.467,0,0,0-2.42,1.057,16.79,16.79,0,0,0-4.8,4.627c-4.849.97-15.5,1.867-20.475,1.423Z" transform="translate(-81.575 -45.35)" fill="#ff9685"/>
            <path id="Path_880604" data-name="Path 880604" d="M385.46,233.891a107.8,107.8,0,0,0,18.937-2.343c2.649-2.648,3.546-5.861,6.231-8.4a2.991,2.991,0,0,0-2.424-.613,5.851,5.851,0,0,0-2.187.937,15.206,15.206,0,0,0-4.365,4.134c-4.372.844-13.963,1.587-18.434,1.157Z" transform="translate(-80.867 -46.951)" fill="#ff9685"/>
            <path id="Path_880605" data-name="Path 880605" d="M411.562,222.966a4.823,4.823,0,0,0-3.907.151,10.53,10.53,0,0,0-2.917,2.224l-2.073,2.019c-5,.494-9.779.953-14.783,1.447" transform="translate(-81.851 -46.977)" fill="none" stroke="#000" stroke-linecap="round" stroke-linejoin="round" stroke-width="1"/>
            <path id="Path_880606" data-name="Path 880606" d="M418.547,215.389a7.511,7.511,0,0,0-6.22,1.041,14.7,14.7,0,0,0-3.845,4.225,76.581,76.581,0,0,1-13.952,2.17" transform="translate(-83.254 -45.39)" fill="none" stroke="#000" stroke-linecap="round" stroke-linejoin="round" stroke-width="1"/>
            <path id="Path_880607" data-name="Path 880607" d="M390.657,215.769a121.431,121.431,0,0,0,17.993-3.513,15.506,15.506,0,0,1,3.185-4.519,7.943,7.943,0,0,1,5.8-2.057" transform="translate(-82.436 -43.397)" fill="none" stroke="#000" stroke-linecap="round" stroke-linejoin="round" stroke-width="1"/>
            <path id="Path_880608" data-name="Path 880608" d="M354.346,215.253c2.122-5.214,22.86-14.038,27.584-17.727,1.486.014-.264,4.255-1.959,5.936a54,54,0,0,1-7.209,5.73,11.54,11.54,0,0,1-2.429,9.585,13.653,13.653,0,0,1-8.631,4.455c-3.525.376-5.76-5.513-7.356-7.98" transform="translate(-74.774 -41.682)" fill="#ff9685"/>
            <path id="Path_880609" data-name="Path 880609" d="M375.011,212.312c.243,5.373-3.827,10.723-10.007,13.156" transform="translate(-77.023 -44.802)" fill="none" stroke="#000" stroke-linecap="round" stroke-linejoin="round" stroke-width="1"/>
            <path id="Path_880610" data-name="Path 880610" d="M280.351,313.134c11.336-23.182,17.072-44.57,25.609-66.855" transform="translate(-59.16 -51.97)" fill="none" stroke="#000" stroke-linecap="round" stroke-linejoin="round" stroke-width="1"/>
            <path id="Path_880611" data-name="Path 880611" d="M230.75,328.327c-5.607-1.7-17.673-1.2-25.8-1.68a58.644,58.644,0,0,0-1.912,10.925c5.595,4.784,8.023,8.381,17.384,8.142,4.989-5.055,7.856-10.4,10.325-17.387" transform="translate(-42.846 -68.929)" fill="#ff9685"/>
            <path id="Path_880612" data-name="Path 880612" d="M205.465,325.863a30.513,30.513,0,0,1,19.316-2.273c4.49.958,9.223,2.619,13.679,3.889a.614.614,0,0,1,.279,1.015c-1.3,1.34-5.224,1.464-7.641,1.676a56.691,56.691,0,0,1-25.632-4.306" transform="translate(-43.357 -68.146)" fill="#ff9685"/>
            <path id="Path_880613" data-name="Path 880613" d="M232.5,327.621l16.664,4.236a28.749,28.749,0,0,0,8.063,6.129c-2.008,2.757-8.171-.329-10.942-3.038-4.525-.435-8.973-1.131-13.5-1.566a3.646,3.646,0,0,1-2.177-.7,2.463,2.463,0,0,1-.51-2.522c.269-.865,1.832-1.834,2.4-2.54" transform="translate(-48.527 -69.134)" fill="#ff9685"/>
            <path id="Path_880614" data-name="Path 880614" d="M225.96,339.391l16.664,4.236a28.749,28.749,0,0,0,8.063,6.129c-2.008,2.757-8.171-.329-10.942-3.038-4.525-.436-8.973-1.13-13.5-1.566a3.647,3.647,0,0,1-2.177-.7,2.463,2.463,0,0,1-.51-2.522c.269-.865,1.832-1.834,2.4-2.54" transform="translate(-47.147 -71.618)" fill="#ff9685"/>
            <path id="Path_880615" data-name="Path 880615" d="M219.593,343.594l15.339,3.9a26.448,26.448,0,0,0,7.423,5.641c-1.849,2.538-7.521-.3-10.071-2.8-4.165-.4-8.26-1.041-12.426-1.441a3.358,3.358,0,0,1-2-.643,2.267,2.267,0,0,1-.47-2.322c.248-.8,1.686-1.688,2.209-2.338" transform="translate(-45.846 -72.505)" fill="#ff9685"/>
            <path id="Path_880616" data-name="Path 880616" d="M231.42,333.583l17.562,4.465a30.3,30.3,0,0,0,8.5,6.459c-2.116,2.906-8.611-.346-11.531-3.2-4.769-.459-9.458-1.191-14.226-1.651a3.853,3.853,0,0,1-2.294-.736,2.6,2.6,0,0,1-.538-2.658c.283-.912,1.931-1.934,2.529-2.677" transform="translate(-48.27 -70.393)" fill="#ff9685"/>
            <path id="Path_880617" data-name="Path 880617" d="M222.523,327.12c7.754.053,11.7.684,20.5,3.289" transform="translate(-46.957 -69.029)" fill="none" stroke="#000" stroke-linecap="round" stroke-linejoin="round" stroke-width="0.75"/>
            <path id="Path_880618" data-name="Path 880618" d="M149.061,343.692c-6.5,1.444-13.356,2.871-19.669.7-3.718-1.277-7.374-4.44-7.355-8.558.014-3.082,3.211-8.224,5.52-10.119,7.213-5.921,14.807-6.988,23.952-7.114,13.795-.189,23.794,6.344,42.308,5.5-.042-.006-3.231,8.881-4.526,9.962-2.418,2.017-6.665,2.172-9.543,2.812l-30.687,6.818" transform="translate(-25.752 -67.231)" fill="#ff9685"/>
            <path id="Path_880619" data-name="Path 880619" d="M486.579,176.616H428.8a4.508,4.508,0,0,1-4.507-4.507V152.039a4.508,4.508,0,0,1,4.507-4.507h57.78a4.508,4.508,0,0,1,4.507,4.507v20.069a4.508,4.508,0,0,1-4.507,4.507" transform="translate(-89.534 -31.132)" fill="#ffb937"/>
            <path id="Path_880620" data-name="Path 880620" d="M495.342,179.753l24.822,14.273-17.135-21.32Z" transform="translate(-104.527 -36.444)" fill="#ffb937"/>
            <line id="Line_3241" data-name="Line 3241" x2="47.999" transform="translate(344.059 126.165)" fill="none" stroke="#fff" stroke-linecap="round" stroke-linejoin="round" stroke-width="1"/>
            <line id="Line_3242" data-name="Line 3242" x2="47.999" transform="translate(344.059 130.273)" fill="none" stroke="#fff" stroke-linecap="round" stroke-linejoin="round" stroke-width="1"/>
            <line id="Line_3243" data-name="Line 3243" x2="18.96" transform="translate(344.059 134.381)" fill="none" stroke="#fff" stroke-linecap="round" stroke-linejoin="round" stroke-width="1"/>
            <path id="Path_880621" data-name="Path 880621" d="M429.534,127.338l1.621,3.283,3.623.526-2.622,2.556.619,3.609-3.24-1.7-3.24,1.7.619-3.609-2.622-2.556,3.623-.526Z" transform="translate(-89.534 -26.871)" fill="#ffb937"/>
            <path id="Path_880622" data-name="Path 880622" d="M447.127,127.338l1.621,3.283,3.623.526-2.622,2.556.619,3.609-3.24-1.7-3.24,1.7.619-3.609-2.621-2.556,3.622-.526Z" transform="translate(-93.246 -26.871)" fill="#ffb937"/>
            <path id="Path_880623" data-name="Path 880623" d="M464.719,127.338l1.621,3.283,3.623.526-2.622,2.556.619,3.609-3.24-1.7-3.24,1.7.619-3.609-2.622-2.556,3.623-.526Z" transform="translate(-96.958 -26.871)" fill="#ffb937"/>
            <path id="Path_880624" data-name="Path 880624" d="M482.311,127.338l1.621,3.283,3.623.526-2.622,2.556.619,3.609-3.24-1.7-3.24,1.7.619-3.609-2.622-2.556,3.623-.526Z" transform="translate(-100.671 -26.871)" fill="#ffb937"/>
            <path id="Path_880625" data-name="Path 880625" d="M499.9,127.338l1.621,3.283,3.623.526-2.622,2.556.619,3.609-3.24-1.7-3.24,1.7.619-3.609-2.622-2.556,3.623-.526Z" transform="translate(-104.383 -26.871)" fill="#ffb937"/>
            <path id="Path_880626" data-name="Path 880626" d="M414.088,374.3H285.235a2.554,2.554,0,0,1-2.5-3.533l23.718-80.778a5.107,5.107,0,0,1,4.571-3.533H439.881a2.553,2.553,0,0,1,2.5,3.533l-23.718,80.778a5.108,5.108,0,0,1-4.571,3.533" transform="translate(-59.632 -60.448)" fill="#323e78"/>
            <path id="Path_880627" data-name="Path 880627" d="M419.845,374.3H290.992a2.554,2.554,0,0,1-2.5-3.533l23.718-80.778a5.108,5.108,0,0,1,4.571-3.533H445.638a2.553,2.553,0,0,1,2.5,3.533l-23.718,80.778a5.108,5.108,0,0,1-4.571,3.533" transform="translate(-60.847 -60.448)"/>
            <path id="Path_880628" data-name="Path 880628" d="M365.158,369.033h-2.344L388,412.886H360.691v2.224H391.03v-2.327Z" transform="translate(-76.113 -77.873)" fill="#323e78"/>
            <path id="Path_880629" data-name="Path 880629" d="M393.791,369.033H366.353l25.872,43.751v2.327h26.527v-2.621Z" transform="translate(-77.308 -77.873)"/>
            <rect id="Rectangle_403194" data-name="Rectangle 403194" width="436.533" height="14.835" transform="translate(77.602 361.655)" fill="#7a4f00"/>
            <rect id="Rectangle_403195" data-name="Rectangle 403195" width="457.049" height="13.49" transform="translate(67.343 336.547)" fill="#7a4f00"/>
            <rect id="Rectangle_403196" data-name="Rectangle 403196" width="457.049" height="11.618" transform="translate(67.343 350.037)" fill="#7d3a1b"/>
            <rect id="Rectangle_403197" data-name="Rectangle 403197" width="113.791" height="18.295" transform="translate(198.699 318.252)" fill="#09614d"/>
          </g>
        </g>
        <g id="Group_1101515" data-name="Group 1101515">
          <g id="Group_1101514" data-name="Group 1101514" clip-path="url(#clip-path-3)">
            <path id="Path_880630" data-name="Path 880630" d="M708.331,371.444c.382,5.678.268,12.151-3.917,16.008-3.1,2.854-7.6,3.445-11.786,3.865q-15.177,1.523-30.408,2.428c3.007-.178,3.535-69.284,3.535-75.771q0-19.151-.9-38.288c-.382-8.129-5.476-29.1-1.122-35.413,14.142,16.472,23.684,39.888,30.807,60.2a254.258,254.258,0,0,1,13.789,66.975" transform="translate(-139.692 -51.546)" fill="#ffce73"/>
            <path id="Path_880631" data-name="Path 880631" d="M689.146,371.444c.224,5.678.157,12.151-2.3,16.008-1.815,2.854-4.451,3.445-6.907,3.865q-8.895,1.523-17.821,2.428c1.762-.178,2.071-69.284,2.072-75.771q0-19.151-.527-38.288c-.223-8.129-3.209-29.1-.657-35.413,8.288,16.472,13.881,39.888,18.054,60.2a415.38,415.38,0,0,1,8.081,66.975" transform="translate(-139.692 -51.546)"/>
            <path id="Path_880632" data-name="Path 880632" d="M552.539,102.943a25.394,25.394,0,0,1,20.33-7.345,16.112,16.112,0,0,1,8.213,2.931,9.467,9.467,0,0,1,3.911,7.553,13.463,13.463,0,0,1,17.8,18.877c3.082-.469,6.164,1.714,7.369,4.59a11.916,11.916,0,0,1-.413,9.1,35.338,35.338,0,0,1-5.068,7.825l-19.3,24.706c1-1.282-7.038-13.11-8.028-14.655a123.324,123.324,0,0,0-22.143-25.849c-3.393-3-9.947-5.857-9.844-10.717a25.365,25.365,0,0,1,7.166-17.013" transform="translate(-115.084 -20.148)" fill="#b85123"/>
            <path id="Path_880633" data-name="Path 880633" d="M587.557,173.456c8.776,22.24,13.655,42.568,22.431,64.808-14.51,3.2-28.579,7.756-43.089,10.958-2.218-21.848-2.533-43.287-4.751-65.137,6.7-4.471,18.7-6.158,25.409-10.629" transform="translate(-118.624 -36.603)" fill="#ffa973"/>
            <path id="Path_880634" data-name="Path 880634" d="M583.661,171.034c.054.136.107.272.162.409-4.444,14.064-10.46,29.457-19.464,41.866-.581-9.879-1.2-19.764-2.209-29.735,6.7-4.471,14.807-8.069,21.512-12.54" transform="translate(-118.624 -36.092)"/>
            <path id="Path_880635" data-name="Path 880635" d="M572.383,149.833c1.588-3.705,7.2-4.418,10.228-1.761s3.449,7.49,1.722,11.133-5.175,6.21-8.846,7.876c.118,1.492.423,5.378-.006,7.253-.814,3.566-30.969,17.162-35.951,15.729-2.587-.744-1.557-4.257-1.8-5.876-.724-4.749-3.132-9.36-3.856-14.11-1.542-.476-6.459-1.6-6.468-2.467-.028-2.761,7.913-13.335,9.278-19.13a37.665,37.665,0,0,1-1.722-5.164c1.883-6.324,4.524-15.149,8.52-20.4,6.013.751,12.178,2.917,17.859,5.026-.458,3.057-.567,6.3-1.024,9.357,3.948,3.8,8.121,8.732,12.069,12.533" transform="translate(-111.292 -25.938)" fill="#ffa973"/>
            <path id="Path_880636" data-name="Path 880636" d="M594.269,157.989a4.482,4.482,0,0,0-7.01,4.8,1.693,1.693,0,1,1,.735,3.072" transform="translate(-123.89 -33.154)" fill="none" stroke="#000" stroke-linecap="round" stroke-linejoin="round" stroke-width="1"/>
            <path id="Path_880637" data-name="Path 880637" d="M548.309,184.629l5.547-1.081a26.673,26.673,0,0,1-11.563,8.4,16.961,16.961,0,0,1,6.017-7.316" transform="translate(-114.434 -38.732)" fill="#7a0c0c"/>
            <path id="Path_880638" data-name="Path 880638" d="M539.813,186.471l7.973-1.553a16.957,16.957,0,0,0-6.017,7.316c-.2.072-.4.144-.608.208-.409-1.834-.94-4.137-1.348-5.971" transform="translate(-113.911 -39.021)" fill="#520c0c"/>
            <path id="Path_880639" data-name="Path 880639" d="M543.125,155.374a2.143,2.143,0,1,0,2.074-2.565,2.352,2.352,0,0,0-2.074,2.565" transform="translate(-114.61 -32.246)"/>
            <path id="Path_880640" data-name="Path 880640" d="M554.251,148.046a13.944,13.944,0,0,0-7.6-3.493,4.8,4.8,0,0,0-2.042.092A2.106,2.106,0,0,0,543.175,146" transform="translate(-114.621 -30.49)" fill="none" stroke="#000" stroke-linecap="round" stroke-linejoin="round" stroke-width="2"/>
            <path id="Path_880641" data-name="Path 880641" d="M541.15,233.752c-.276-3.05-.535-6.268-.811-9.318a104.549,104.549,0,0,1,52.371-16.825c1.072,2.511,2.675,5.33,3.748,7.842a66.862,66.862,0,0,1,12.362,2.413,52.556,52.556,0,0,1,36.908,41.322c5.464,30.608,6.146,65.324,2.006,97.281-2.02,15.587,5.992,41-9.506,43.994H521.989c-8.01-2.92-1.333-35.077-1.333-35.077-1.334-34.741-5.152-85.526-9.6-110.6,7.645-12.8,30.1-21.037,30.1-21.037" transform="translate(-107.842 -43.81)" fill="#ffce73"/>
            <path id="Path_880642" data-name="Path 880642" d="M539.786,280.055c-3.665,15.881-11.591,30.337-20.839,43.747,1.545,19.612,2.649,40.191,3.459,58.815,8.41-10.414,13.235-24.371,17.38-36.287,7.1-21.3,10.257-45.761,0-66.274" transform="translate(-109.508 -59.097)"/>
            <path id="Path_880643" data-name="Path 880643" d="M610.979,218.909a114.068,114.068,0,0,0-57.749,16.808" transform="translate(-116.742 -46.194)" fill="none" stroke="#000" stroke-linecap="round" stroke-linejoin="round" stroke-width="1"/>
            <path id="Path_880644" data-name="Path 880644" d="M651.624,280.284A212.874,212.874,0,0,0,551.529,295.9" transform="translate(-116.383 -58.98)" fill="none" stroke="#000" stroke-linecap="round" stroke-linejoin="round" stroke-width="1"/>
            <path id="Path_880645" data-name="Path 880645" d="M624.227,282.076a378.1,378.1,0,0,1,2.886,133.369" transform="translate(-131.724 -59.524)" fill="none" stroke="#000" stroke-linecap="round" stroke-linejoin="round" stroke-width="1"/>
            <path id="Path_880646" data-name="Path 880646" d="M524.914,452.042l1.965,23.04H660.3s-7.042-17.939-19.149-23.04Z" transform="translate(-110.767 -95.39)" fill="#efb499"/>
            <line id="Line_3244" data-name="Line 3244" x2="117.524" transform="translate(416.111 365.335)" fill="none" stroke="#000" stroke-linecap="round" stroke-linejoin="round" stroke-width="1"/>
            <path id="Path_880647" data-name="Path 880647" d="M530.221,468.416a5.177,5.177,0,0,0,2.692,3.826,15.29,15.29,0,0,0,4.593,1.527l21.863,4.769" transform="translate(-111.887 -98.845)" fill="none" stroke="#000" stroke-linecap="round" stroke-linejoin="round" stroke-width="1"/>
            <path id="Path_880648" data-name="Path 880648" d="M457.3,334.722c-8.639-20.736-21.486-40.29-30.023-60.974-6.073,2.185-8.975,2.674-15.048,4.859a340.372,340.372,0,0,0,24.751,88.429,86.9,86.9,0,0,1,20.32-32.314" transform="translate(-86.989 -57.766)" fill="#ffa973"/>
            <path id="Path_880649" data-name="Path 880649" d="M511.738,253.715c-8,1.827-14.583,7.736-19.007,14.644s-6.979,14.82-9.488,22.631L467.661,339.5q-1.857-4.5-3.737-9.009A86.911,86.911,0,0,0,443.6,362.81q4.443,10.274,9.549,20.226a13.407,13.407,0,0,0,19.96,4.594c11.456-8.608,22.145-18.016,31-29.394,12.029-15.46,20.769-33.837,22.9-53.309s-2.8-36.1-15.271-51.212" transform="translate(-93.609 -53.539)" fill="#ffce73"/>
            <path id="Path_880650" data-name="Path 880650" d="M467.148,397.6a62.421,62.421,0,0,1,6.505-37.327" transform="translate(-98.455 -76.024)" fill="none" stroke="#000" stroke-linecap="round" stroke-linejoin="round" stroke-width="1"/>
            <path id="Path_880651" data-name="Path 880651" d="M428.491,283.88a159.476,159.476,0,0,1,.875-35.074c-6.893-6.111-24.525-.94-26.325.131-2.675,1.592-3.434,5.053-3.938,8.125-.323,1.967-.628,4.077.224,5.879s3.363,2.937,4.908,1.68a7.609,7.609,0,0,0-3.449,8.167c.529,2.306,2.083,4.221,3.591,6.044l9.1,11.006c5.324-.331,10.559-3.015,15.008-5.958" transform="translate(-84.149 -51.884)" fill="#ffa973"/>
            <path id="Path_880652" data-name="Path 880652" d="M433.639,252.077q3.064-20.341,6.126-40.683c-2.451.154-4.565,2.121-5.871,4.2a22.124,22.124,0,0,0-2.459,6.908,265.286,265.286,0,0,0-4.748,26.947" transform="translate(-90.039 -44.608)" fill="#ffa973"/>
            <path id="Path_880653" data-name="Path 880653" d="M405.976,270.987a8.823,8.823,0,0,1,.751-9.864" transform="translate(-85.423 -55.102)" fill="none" stroke="#000" stroke-linecap="round" stroke-linejoin="round" stroke-width="1"/>
            <path id="Path_880654" data-name="Path 880654" d="M402.068,264.171l2.243,2.041" transform="translate(-84.844 -55.745)" fill="none" stroke="#000" stroke-linecap="round" stroke-linejoin="round" stroke-width="1"/>
            <path id="Path_880655" data-name="Path 880655" d="M405.935,249.277a23.378,23.378,0,0,1,11.928,4.676" transform="translate(-85.66 -52.602)" fill="none" stroke="#000" stroke-linecap="round" stroke-linejoin="round" stroke-width="1"/>
            <path id="Path_880656" data-name="Path 880656" d="M415.275,246.865a12.925,12.925,0,0,1,8.792,4.062" transform="translate(-87.631 -52.093)" fill="none" stroke="#000" stroke-linecap="round" stroke-linejoin="round" stroke-width="1"/>
            <path id="Path_880657" data-name="Path 880657" d="M423.569,246.077a18.507,18.507,0,0,1,7.066.742" transform="translate(-89.381 -51.912)" fill="none" stroke="#000" stroke-linecap="round" stroke-linejoin="round" stroke-width="1"/>
            <rect id="Rectangle_403199" data-name="Rectangle 403199" width="101.715" height="2.707" transform="translate(93.104 333.84)"/>
            <path id="Path_880658" data-name="Path 880658" d="M171.279,420.785s-5.749-12.531-26.087-7.622-21.3,4.558-21.3,4.558l-1.38,3.064Z" transform="translate(-25.853 -86.945)" fill="#fff8f8"/>
            <path id="Path_880659" data-name="Path 880659" d="M179.12,420.785s5.749-12.531,26.087-7.622,21.3,4.558,21.3,4.558l1.379,3.064Z" transform="translate(-37.798 -86.945)" fill="#fff8f8"/>
            <path id="Path_880660" data-name="Path 880660" d="M318.162,145.02h67.366a4.507,4.507,0,0,0,4.507-4.507V120.407a4.506,4.506,0,0,0-4.507-4.507H318.162a4.507,4.507,0,0,0-4.507,4.507v20.107a4.507,4.507,0,0,0,4.507,4.507" transform="translate(-66.187 -24.457)" fill="#efb499"/>
            <path id="Path_880661" data-name="Path 880661" d="M319.679,148.664,298.228,161l14.808-18.424Z" transform="translate(-62.932 -30.086)" fill="#efb499"/>
            <line id="Line_3245" data-name="Line 3245" x1="41.48" transform="translate(255.673 101.875)" fill="none" stroke="#fff" stroke-linecap="round" stroke-linejoin="round" stroke-width="1"/>
            <line id="Line_3246" data-name="Line 3246" x1="41.48" transform="translate(255.673 105.425)" fill="none" stroke="#fff" stroke-linecap="round" stroke-linejoin="round" stroke-width="1"/>
            <line id="Line_3247" data-name="Line 3247" x1="16.385" transform="translate(280.768 108.975)" fill="none" stroke="#fff" stroke-linecap="round" stroke-linejoin="round" stroke-width="1"/>
            <path id="Path_880662" data-name="Path 880662" d="M390.911,120.232l2.824,1.9c.313.211.312.365,0,.578l-2.645,1.779c-.111.075-.223.162-.364.08s-.133-.216-.133-.352c0-.326,0-.651,0-.977,0-.114-.03-.149-.147-.136a8.008,8.008,0,0,0-6.535,4.886,7.981,7.981,0,0,0,11.754,9.726,7.722,7.722,0,0,0,.974-.757c.08-.073.129-.077.208.008.294.324.594.645.9.959.09.092.092.14-.007.229a8.971,8.971,0,0,1-3.432,2,9.389,9.389,0,0,1-9.744-2.273,8.948,8.948,0,0,1-2.784-5.53,9.365,9.365,0,0,1,3.089-8.439,9.185,9.185,0,0,1,5.041-2.37c.184-.026.368-.054.553-.066.107-.007.132-.049.129-.148-.005-.245.006-.492,0-.737a.391.391,0,0,1,.163-.361Z" transform="translate(-80.544 -25.371)" fill="#fff"/>
            <path id="Path_880663" data-name="Path 880663" d="M400.2,123.749c-.021.032-.043.065-.065.1-.251.359-.506.715-.752,1.078-.067.1-.117.114-.219.044a7.294,7.294,0,0,0-1.125-.634c-.1-.046-.119-.092-.073-.195.184-.4.361-.812.534-1.221.043-.1.087-.122.193-.073a9.95,9.95,0,0,1,1.418.8c.036.025.088.039.089.1" transform="translate(-83.973 -25.917)" fill="#fff"/>
            <path id="Path_880664" data-name="Path 880664" d="M402.279,128.015c-.065.009-.08-.044-.1-.08a8.373,8.373,0,0,0-.808-1.06c-.073-.08-.054-.129.019-.194.335-.3.667-.609.994-.921.084-.079.125-.053.188.019a10.51,10.51,0,0,1,.985,1.3c.053.082.06.125-.035.182-.394.234-.782.476-1.172.715l-.066.038" transform="translate(-84.687 -26.528)" fill="#fff"/>
            <path id="Path_880665" data-name="Path 880665" d="M394.294,138.807h-6.105l.223-1.435,3.2-2.975.439-.439A2.553,2.553,0,0,0,393,132a.707.707,0,0,0-.742-.736.977.977,0,0,0-.808.387,1.982,1.982,0,0,0-.411,1.042l-2.023.013a3.089,3.089,0,0,1,.514-1.55,3.2,3.2,0,0,1,1.24-1.1,3.542,3.542,0,0,1,1.654-.39,2.923,2.923,0,0,1,2.041.715,2.2,2.2,0,0,1,.631,1.865,3.044,3.044,0,0,1-.454,1.348,6.954,6.954,0,0,1-1.16,1.379l-.94.866-1.4,1.348,3.4.012Z" transform="translate(-81.915 -27.362)" fill="#fff"/>
            <path id="Path_880666" data-name="Path 880666" d="M403.243,135.318h.884l-.279,1.608h-.884l-.335,1.912H400.6l.334-1.912h-3.371l.112-1.374,4.422-5.7v-.043l2.1.031Zm-3.569-.013,1.534.013.544-2.8Z" transform="translate(-83.893 -27.392)" fill="#fff"/>
          </g>
        </g>
      </g>
    </g>
  </g>
</svg>
