<svg xmlns="http://www.w3.org/2000/svg" xmlns:xlink="http://www.w3.org/1999/xlink" width="120" height="120" viewBox="0 0 120 120">
  <defs>
    <clipPath id="clip-path">
      <rect id="Rectangle_400938" data-name="Rectangle 400938" width="120" height="120" transform="translate(0 0)" fill="none"/>
    </clipPath>
    <clipPath id="clip-path-2">
      <rect id="Rectangle_401073" data-name="Rectangle 401073" width="92.219" height="41.532" fill="#7d3a1b"/>
    </clipPath>
    <clipPath id="clip-path-3">
      <rect id="Rectangle_403197" data-name="Rectangle 403197" width="66.672" height="64.672" fill="none"/>
    </clipPath>
  </defs>
  <g id="Group_1103359" data-name="Group 1103359" transform="translate(-810 -2980)">
    <g id="Group_1099399" data-name="Group 1099399" transform="translate(422.332 -3033)">
      <rect id="Rectangle_401103" data-name="Rectangle 401103" width="120" height="120" transform="translate(387.668 6013)" fill="none"/>
      <g id="Group_1099348" data-name="Group 1099348" transform="translate(387.668 6013)">
        <g id="Group_1099282" data-name="Group 1099282">
          <g id="Group_1099281" data-name="Group 1099281" clip-path="url(#clip-path-2)">
            <path id="Path_873375" data-name="Path 873375" d="M74.8,9.1c-4.139,0-6.28-2.03-8.17-3.821-1.855-1.756-3.452-3.274-6.792-3.274s-4.937,1.517-6.792,3.274C51.161,7.072,49.023,9.1,44.881,9.1s-6.28-2.03-8.169-3.821C34.857,3.525,33.26,2.007,29.92,2.007s-4.937,1.517-6.789,3.274C21.241,7.072,19.1,9.1,14.962,9.1S8.679,7.072,6.789,5.281C4.937,3.525,3.34,2.007,0,2.007V0C4.139,0,6.28,2.033,8.17,3.821c1.855,1.759,3.452,3.274,6.792,3.274S19.9,5.58,21.75,3.824C23.637,2.033,25.781,0,29.92,0s6.283,2.033,8.17,3.821c1.855,1.759,3.452,3.274,6.792,3.274s4.937-1.514,6.792-3.274C53.56,2.033,55.7,0,59.843,0s6.283,2.033,8.17,3.821C69.867,5.58,71.464,7.094,74.8,7.094S79.742,5.58,81.6,3.821C83.483,2.033,85.624,0,89.766,0V2.007c-3.34,0-4.937,1.517-6.792,3.274C81.084,7.072,78.943,9.1,74.8,9.1" transform="translate(2.453 32.43)" fill="#7d3a1b"/>
            <path id="Path_873376" data-name="Path 873376" d="M74.8,9.1c-4.139,0-6.283-2.03-8.17-3.824-1.855-1.756-3.452-3.27-6.792-3.27s-4.937,1.514-6.792,3.27C51.164,7.072,49.023,9.1,44.881,9.1s-6.283-2.03-8.17-3.824c-1.855-1.756-3.452-3.27-6.792-3.27s-4.937,1.517-6.789,3.27C21.241,7.072,19.1,9.1,14.962,9.1S8.679,7.072,6.789,5.278C4.937,3.522,3.34,2.007,0,2.007V0C4.139,0,6.283,2.03,8.17,3.821c1.855,1.759,3.452,3.274,6.792,3.274S19.9,5.58,21.75,3.821C23.637,2.03,25.781,0,29.92,0S36.2,2.03,38.093,3.821c1.852,1.759,3.449,3.274,6.789,3.274s4.937-1.514,6.792-3.274C53.56,2.03,55.7,0,59.843,0s6.283,2.03,8.17,3.821C69.867,5.58,71.464,7.094,74.8,7.094S79.742,5.58,81.6,3.821C83.486,2.03,85.627,0,89.769,0V2.007c-3.34,0-4.94,1.517-6.8,3.27C81.084,7.072,78.943,9.1,74.8,9.1" transform="translate(1.635 21.62)" fill="#7d3a1b"/>
            <path id="Path_873377" data-name="Path 873377" d="M74.8,9.1c-4.139,0-6.283-2.03-8.169-3.824-1.855-1.756-3.452-3.27-6.792-3.27s-4.937,1.514-6.792,3.27C51.164,7.072,49.02,9.1,44.881,9.1s-6.283-2.03-8.17-3.824c-1.855-1.756-3.452-3.27-6.792-3.27s-4.937,1.517-6.789,3.27C21.241,7.072,19.1,9.1,14.962,9.1S8.678,7.072,6.789,5.278C4.937,3.522,3.34,2.007,0,2.007V0C4.139,0,6.283,2.03,8.169,3.821c1.851,1.759,3.452,3.274,6.792,3.274S19.9,5.58,21.75,3.821C23.637,2.03,25.781,0,29.92,0S36.2,2.03,38.093,3.821c1.852,1.759,3.449,3.274,6.789,3.274s4.937-1.514,6.792-3.274C53.56,2.03,55.7,0,59.843,0s6.283,2.03,8.17,3.821C69.867,5.58,71.464,7.094,74.8,7.094S79.742,5.58,81.6,3.821C83.486,2.03,85.624,0,89.769,0V2.007c-3.34,0-4.941,1.517-6.8,3.27C81.084,7.072,78.943,9.1,74.8,9.1" transform="translate(0.818 10.81)" fill="#7d3a1b"/>
            <path id="Path_873378" data-name="Path 873378" d="M74.8,9.1c-4.139,0-6.28-2.03-8.17-3.821-1.855-1.756-3.452-3.27-6.792-3.27s-4.937,1.514-6.789,3.27C51.164,7.069,49.023,9.1,44.881,9.1s-6.28-2.03-8.169-3.821c-1.855-1.756-3.452-3.27-6.792-3.27s-4.937,1.514-6.789,3.267C21.245,7.069,19.1,9.1,14.962,9.1S8.678,7.069,6.789,5.278C4.937,3.522,3.34,2.007,0,2.007V0C4.139,0,6.283,2.03,8.17,3.821c1.855,1.756,3.452,3.27,6.792,3.27S19.9,5.577,21.75,3.821C23.64,2.03,25.781,0,29.92,0s6.28,2.03,8.173,3.821c1.852,1.756,3.449,3.27,6.789,3.27s4.937-1.514,6.792-3.27C53.563,2.03,55.7,0,59.843,0s6.28,2.03,8.17,3.821c1.855,1.756,3.452,3.27,6.792,3.27s4.937-1.514,6.792-3.27C83.486,2.03,85.627,0,89.769,0V2.007c-3.344,0-4.941,1.514-6.8,3.27C81.084,7.069,78.943,9.1,74.8,9.1" transform="translate(0 0.003)" fill="#7d3a1b"/>
          </g>
        </g>
      </g>
      <circle id="Ellipse_11504" data-name="Ellipse 11504" cx="50" cy="50" r="50" transform="translate(402.668 6031)" fill="#efb499"/>
      <circle id="Ellipse_11503" data-name="Ellipse 11503" cx="52" cy="52" r="52" transform="translate(395.668 6021)" fill="#f3f9ff"/>
    </g>
    <g id="Group_1099398" data-name="Group 1099398" transform="translate(835.941 3005.804)">
      <rect id="Rectangle_401104" data-name="Rectangle 401104" width="68" height="69" transform="translate(0.059 -0.804)" fill="none"/>
      <g id="Group_1101532" data-name="Group 1101532" transform="translate(0.136 1.291)">
        <g id="Group_1101531" data-name="Group 1101531" clip-path="url(#clip-path-3)">
          <path id="Path_881014" data-name="Path 881014" d="M153.416,15.206c-.039,1.654.178,3.378-1.873,3.907l-19.782.028c-.95,0-1.906,0-2.856,0-1.068,0-2.2-.014-3.213,0l-1.052-1a2.416,2.416,0,0,1-.381-1.25c-.37-4.775.287-10,0-14.82a1.612,1.612,0,0,1,.328-.838c.321-.49.864-.691,1.1-1.187,8.423-.139,16.862.107,25.288,0a2.463,2.463,0,0,1,2.433,2.379c-.07,4.259.1,8.531,0,12.787M127.2,8.342c.187-.2.213-.6.392-.835a.94.94,0,0,1,1.557,1.052c-.383.578-1.8.124-1.8,1.381,0,1.115,1.465.832,1.8,1.381a.929.929,0,0,1-1.23,1.313c-.682-.349-.278-1.946-1.638-1.777-1.51.187-.835,2.147-.117,2.905,2.221,2.347,6.1.035,5-2.9-.1-.257-.472-.794-.476-.921-.008-.228.343-.57.447-.835a2.936,2.936,0,0,0-3.779-3.792c-1.015.335-2.306,1.692-1.817,2.8a1.093,1.093,0,0,0,1.657.225m22.964.536a1.558,1.558,0,0,0-.849-.275c-4.531-.4-9.689.316-14.287,0-1.52.177-1.308,2.011.122,2.086,4.492-.321,9.622.431,14.038,0,1.035-.1,1.8-1.076.976-1.813M134.82,11.99a1.034,1.034,0,0,0,.1,2.052,46.915,46.915,0,0,0,6.764,0,1.031,1.031,0,1,0,0-2.062c-2.055-.283-4.743.169-6.865.014" transform="translate(-109.373 0)" fill="#efb499"/>
          <path id="Path_881015" data-name="Path 881015" d="M280.313,277.087c-.036,1.814.191,3.452-2.113,3.9q-9.768.061-19.542.03c-.95,0-1.905.005-2.856,0-1.029-.005-2.065.016-3.094,0l-1.245-1.162-.3-.981V265.86q9.828.03,19.663-.028c2.168-.539,1.951-2.161,1.992-3.908,2.243.332,7.2-1.165,7.5,2.136-.072,4.34.081,8.688,0,13.026m-25.938-7.177.006,6.533a1.017,1.017,0,0,0,2.019.009c.285-2.389-.212-5.3-.01-7.75-.115-.987-1.9-.85-2.673-.762-1.66.191-1.022,2.39.658,1.97m7.7,1.3a1.03,1.03,0,0,0-.031,2.058h14.521c1.33-.152,1.417-1.909-.119-2.089Zm-.241,3.469a.982.982,0,0,0,.1,1.937c2.175-.171,4.775.252,6.9.009a.989.989,0,0,0,.11-1.964Z" transform="translate(-221.278 -231.557)" fill="#8ac8fc"/>
          <path id="Path_881016" data-name="Path 881016" d="M315.367,412.474l-1.123-1.049c-.651-.927-.441-3.054-.426-4.219,0-.2-.076-.514.121-.635.546.375,3.379-.118,3.814.167.29.191-.433,1.684.5,2.289a.99.99,0,0,0,1.148.023c.889-.521.3-2.174.49-2.359.064-.062.8.065,1.012-.577.4-1.225-.994-1.358-1.024-1.466-.173-1.33.282-3.446-.048-4.678a1.55,1.55,0,0,0-2.318-.859c-.673.439-3.093,4.662-3.575,5.608l-.119-7.407q9.768.03,19.542-.03c2.3-.453,2.078-2.091,2.113-3.905l5.744.026a2.388,2.388,0,0,1,1.757,2.11c.434,4.713-.339,10.046,0,14.824a2.416,2.416,0,0,1-2.44,2.141c-8.386-.113-16.786.136-25.169,0m9.248-9.811c-1.331.347-1.134,1.9.208,2.06l14.281,0a1.046,1.046,0,1,0,0-2.083Zm.12,3.357a1.03,1.03,0,0,0-.031,2.059c.712.082,2.625.159,3.02-.423,1.168-1.72-1.939-1.82-2.989-1.636" transform="translate(-276.44 -347.847)" fill="#ffce73"/>
          <path id="Path_881017" data-name="Path 881017" d="M217.31,146.074c-.041,1.747.176,3.368-1.992,3.908q-9.829.054-19.663.028c-.95,0-1.906,0-2.856,0-1.069-.006-2.144.018-3.213,0l-1-.933-.425-1.092V134.847l19.782-.028c2.05-.53,1.834-2.254,1.873-3.907,2.5.359,7.184-1.264,7.5,2.369-.081,4.261.095,8.535,0,12.794m-24.63-2.083c.9-1.848,3.264-3.541,2.247-5.832a3.035,3.035,0,0,0-5.571.341c-.259.88.244,1.631,1.216,1.415.9-.2.488-1.636,1.8-1.477,1.257.152.569,1.519.193,2.141-.528.874-2.877,3.5-2.972,4.173-.114.8.361,1.209,1.135,1.311a21.028,21.028,0,0,0,3.863-.041,1,1,0,0,0,.585-1.739,4.682,4.682,0,0,0-.651-.293Zm6.153-3.679a.994.994,0,0,0,.329,1.946l14.4,0a.987.987,0,0,0,.122-1.97Zm11.181,3.6a1.559,1.559,0,0,0-.849-.275c-3.173-.282-6.783.225-10,0a.988.988,0,0,0-.119,1.973c3.194.361,7.087-.277,10.357,0a.994.994,0,0,0,.614-1.7" transform="translate(-165.771 -115.706)" fill="#9be49d"/>
          <path id="Path_881018" data-name="Path 881018" d="M5.375,158.8a14.244,14.244,0,0,0,7.249,14.925c2.629,1.424,4.03,1.359,6.838,1.814a1.85,1.85,0,0,1,.029,3.667c-3.061.363-7.75-1.483-10.247-3.17A17.932,17.932,0,0,1,1.9,156.817c-.121-.434-1.67-.679-1.856-1.567a1.2,1.2,0,0,1,.606-1.422,49.041,49.041,0,0,1,5.726-3.113c1-.461,2.08-.394,2.236.867.265,2.141-.359,4.82-.14,7.032a1.372,1.372,0,0,1-1.765.9c-.176-.052-1.253-.8-1.333-.71" transform="translate(2.11 -133.475)" fill="#696069"/>
          <path id="Path_881019" data-name="Path 881019" d="M105.656.341c-.236.5-.779.7-1.1,1.187a1.612,1.612,0,0,0-.328.838c.282,4.823-.375,10.045,0,14.82a2.417,2.417,0,0,0,.381,1.25l1.052,1a14.606,14.606,0,0,1-1.843.115,2.642,2.642,0,0,1-2.384-1.732L101.4,2.162C102.017.021,103.853.37,105.656.341" transform="translate(-89.336 -0.297)" fill="#cc8565"/>
          <path id="Path_881020" data-name="Path 881020" d="M230.017,296.373v13.02l.3.981,1.245,1.162c-1.847-.029-3.758.36-4.348-1.847l-.054-13.315c.95,0,1.906,0,2.856,0" transform="translate(-200.133 -262.07)" fill="#62b7fe"/>
          <path id="Path_881021" data-name="Path 881021" d="M166.985,165.368v13.137l.425,1.092,1,.933c-2.088-.035-4.052.3-4.288-2.369l0-12.794c.95,0,1.906,0,2.856,0" transform="translate(-144.597 -146.227)" fill="#6fd6a2"/>
          <path id="Path_881022" data-name="Path 881022" d="M293.017,427.373l.119,7.407c-.274.536-.662,1.4,0,1.852-.2.12-.118.439-.121.635-.015,1.165-.225,3.291.426,4.219l1.123,1.049c-1.853-.031-3.721.354-4.35-1.845l-.053-13.317c.95.005,1.906,0,2.856,0" transform="translate(-255.637 -377.908)" fill="#ffb937"/>
          <path id="Path_881023" data-name="Path 881023" d="M490.14,121.777c.687.611.205,1.448-.56,1.754-1.912.766-4.421,1.026-6.393,1.77a1.024,1.024,0,0,1-.386-2,51.485,51.485,0,0,1,6.4-1.769,1.26,1.26,0,0,1,.94.244" transform="translate(-424.717 -107.46)" fill="#ffb937"/>
          <path id="Path_881024" data-name="Path 881024" d="M418.857,17.427a1.1,1.1,0,0,1,1.231.845c-.438,2.275-1.258,4.5-1.888,6.74a1.036,1.036,0,0,1-1.9-.8,43.091,43.091,0,0,1,1.781-6.023,1.22,1.22,0,0,1,.775-.758" transform="translate(-366.755 -15.396)" fill="#ffb937"/>
          <path id="Path_881025" data-name="Path 881025" d="M460.708,58.353a1,1,0,0,1,1.037,1.6l-4.819,4.688a1.009,1.009,0,0,1-1.476-1.321c1.6-1.3,3.2-3.519,4.81-4.695a1.124,1.124,0,0,1,.447-.267" transform="translate(-401.11 -51.576)" fill="#ffb937"/>
          <path id="Path_881026" data-name="Path 881026" d="M136.327,47.66a1.093,1.093,0,0,1-1.657-.225c-.489-1.111.8-2.469,1.817-2.8a2.936,2.936,0,0,1,3.779,3.792c-.1.266-.455.607-.447.835,0,.127.38.664.476.921,1.094,2.936-2.783,5.248-5,2.9-.718-.758-1.393-2.718.117-2.905,1.36-.168.955,1.428,1.638,1.777a.929.929,0,0,0,1.23-1.313c-.334-.549-1.8-.266-1.8-1.381,0-1.256,1.416-.8,1.8-1.38a.94.94,0,0,0-1.557-1.052c-.179.237-.2.63-.392.835" transform="translate(-118.498 -39.319)" fill="#12263f"/>
          <path id="Path_881027" data-name="Path 881027" d="M223.006,73.637c.827.737.059,1.712-.976,1.813-4.416.433-9.546-.32-14.038,0-1.43-.075-1.642-1.909-.122-2.086,4.6.313,9.756-.406,14.287,0a1.559,1.559,0,0,1,.849.275" transform="translate(-182.213 -64.76)" fill="#12263f"/>
          <path id="Path_881028" data-name="Path 881028" d="M207.52,102.754c2.122.155,4.81-.3,6.865-.014a1.031,1.031,0,1,1,0,2.062,46.916,46.916,0,0,1-6.764,0,1.034,1.034,0,0,1-.1-2.052" transform="translate(-182.073 -90.764)" fill="#12263f"/>
          <path id="Path_881029" data-name="Path 881029" d="M335.347,342.384l14.371-.03c1.536.18,1.449,1.937.119,2.089H335.316a1.03,1.03,0,0,1,.031-2.058" transform="translate(-294.547 -302.73)" fill="#12263f"/>
          <path id="Path_881030" data-name="Path 881030" d="M266.119,315.854c-1.679.42-2.318-1.779-.658-1.97.771-.089,2.558-.226,2.673.762-.2,2.446.294,5.361.01,7.75a1.017,1.017,0,0,1-2.019-.009Z" transform="translate(-233.021 -277.501)" fill="#12263f"/>
          <path id="Path_881031" data-name="Path 881031" d="M335.1,372.452l7.107-.018a.989.989,0,0,1-.11,1.964c-2.122.242-4.722-.18-6.9-.009a.982.982,0,0,1-.1-1.937" transform="translate(-294.542 -329.328)" fill="#12263f"/>
          <path id="Path_881032" data-name="Path 881032" d="M312.459,446.666c.483-.945,2.9-5.169,3.575-5.608a1.55,1.55,0,0,1,2.318.859c.331,1.232-.125,3.348.048,4.678.031.109,1.428.241,1.025,1.466-.211.642-.948.515-1.012.577-.191.185.4,1.837-.49,2.359a.99.99,0,0,1-1.148-.023c-.935-.6-.212-2.1-.5-2.289-.434-.286-3.268.208-3.814-.167-.662-.456-.274-1.316,0-1.852m3.926-2.546a17.835,17.835,0,0,0-1.547,2.486c.057.281,1.547.247,1.547,0Z" transform="translate(-274.96 -389.794)" fill="#12263f"/>
          <path id="Path_881033" data-name="Path 881033" d="M398.2,473.4l14.489-.026a1.046,1.046,0,1,1,0,2.083l-14.281,0c-1.342-.156-1.539-1.712-.208-2.06" transform="translate(-350.021 -418.589)" fill="#12263f"/>
          <path id="Path_881034" data-name="Path 881034" d="M398.425,502.107c1.051-.185,4.157-.084,2.989,1.636-.4.582-2.308.5-3.02.423a1.03,1.03,0,0,1,.031-2.059" transform="translate(-350.13 -443.934)" fill="#12263f"/>
          <path id="Path_881035" data-name="Path 881035" d="M201.051,187.037H202.9a4.683,4.683,0,0,1,.651.293,1,1,0,0,1-.585,1.739,21.028,21.028,0,0,1-3.863.041c-.775-.1-1.249-.513-1.135-1.311.1-.67,2.444-3.3,2.972-4.173.376-.622,1.064-1.989-.193-2.141-1.311-.159-.9,1.276-1.8,1.477-.972.216-1.475-.535-1.216-1.415a3.035,3.035,0,0,1,5.571-.341c1.017,2.291-1.345,3.984-2.247,5.832" transform="translate(-174.142 -158.752)" fill="#12263f"/>
          <path id="Path_881036" data-name="Path 881036" d="M272.623,212.382l14.85-.027a.987.987,0,0,1-.122,1.97l-14.4,0a.994.994,0,0,1-.329-1.946" transform="translate(-239.56 -187.777)" fill="#12263f"/>
          <path id="Path_881037" data-name="Path 881037" d="M283.82,240.929a.994.994,0,0,1-.614,1.7c-3.27-.277-7.162.361-10.357,0a.988.988,0,0,1,.119-1.973c3.221.222,6.831-.285,10,0a1.558,1.558,0,0,1,.849.275" transform="translate(-239.577 -212.723)" fill="#12263f"/>
          <path id="Path_881038" data-name="Path 881038" d="M336.7,469.378v2.488c0,.245-1.491.279-1.547,0a17.839,17.839,0,0,1,1.547-2.486" transform="translate(-295.275 -415.052)" fill="#ffe7ba"/>
        </g>
      </g>
    </g>
  </g>
</svg>
