<svg id="Group_1099439" data-name="Group 1099439" xmlns="http://www.w3.org/2000/svg" xmlns:xlink="http://www.w3.org/1999/xlink" width="1240" height="457" viewBox="0 0 1240 457">
  <defs>
    <clipPath id="clip-path">
      <rect id="Rectangle_377901" data-name="Rectangle 377901" width="1240" height="457" rx="20" fill="#feebcf"/>
    </clipPath>
    <clipPath id="clip-path-2">
      <rect id="Rectangle_377901-2" data-name="Rectangle 377901" width="1270.715" height="533.41" rx="20" transform="translate(1270.715 533.41) rotate(180)" fill="#ffe9df"/>
    </clipPath>
  </defs>
  <g id="Group_154360" data-name="Group 154360" clip-path="url(#clip-path)">
    <rect id="Rectangle_378306" data-name="Rectangle 378306" width="1305.641" height="515.882" transform="translate(-30.01 -101.882)" fill="none"/>
    <g id="Group_1099343" data-name="Group 1099343" transform="translate(1319.085 447.087) rotate(180)" style="isolation: isolate">
      <g id="Group_1099437" data-name="Group 1099437">
        <rect id="Rectangle_378306-2" data-name="Rectangle 378306" width="1305.641" height="515.882" transform="translate(1349.095 521.969) rotate(180)" fill="none"/>
        <g id="Group_1098873" data-name="Group 1098873" transform="translate(62.964 -33.235)" style="isolation: isolate">
          <g id="Group_1073825" data-name="Group 1073825" clip-path="url(#clip-path-2)">
            <rect id="_2149647046saaaa" data-name="2149647046saaaa" width="1293.245" height="541.641" transform="translate(-10.965 0)" fill="#feddce"/>
            <rect id="Rectangle_378306-3" data-name="Rectangle 378306" width="1337.623" height="563.637" transform="translate(1340.212 559.792) rotate(180)" fill="none"/>
          </g>
        </g>
        <g id="Group_1099338" data-name="Group 1099338" transform="translate(1360.985 558.178) rotate(180)">
          <path id="Path_873421" data-name="Path 873421" d="M301.729,0c0,22.768-30.79,50.641-51.908,50.641s-38.98-4.464-63.023-4.464-58.9,9.274-58.9,54.608c0,12.02,5.323,26.1,5.323,47.735s-14.6,43.275-52.374,40.354-46.192,19.06-46.192,38.98S60.931,301.175,0,350.4V0Z" transform="translate(21.138 22.493)" fill="#fecab2"/>
          <path id="Path_873420" data-name="Path 873420" d="M0,358.074l4.04-3.261C54.684,313.9,46.494,270.381,41.6,244.38c-1.065-5.655-1.985-10.538-1.985-14.043,0-24.394,12.5-36.762,37.159-36.762,2.043,0,4.181.088,6.361.252,2.344.183,4.662.275,6.88.275,15.708,0,28.484-4.651,36.937-13.455,7.243-7.533,11.229-18.06,11.229-29.644,0-12.608-1.741-22.485-3.28-31.221-1.1-6.224-2.043-11.6-2.043-16.514,0-47.048,39.453-52.126,56.418-52.126a291.226,291.226,0,0,1,33.363,2.329c9.935,1.1,19.316,2.134,29.656,2.134,10.6,0,24.238-6.693,35.582-17.464,11.775-11.18,18.808-24.509,18.808-35.658V0H0ZM306.108,2.482c0,10.993-6.964,24.165-18.625,35.238-11.245,10.672-24.727,17.3-35.185,17.3-10.305,0-19.675-1.035-29.644-2.134a291.121,291.121,0,0,0-33.375-2.329c-17.14,0-57,5.135-57,52.706,0,4.964.951,10.363,2.054,16.636,1.535,8.69,3.268,18.541,3.268,31.1,0,11.432-3.929,21.817-11.065,29.244-8.347,8.686-20.973,13.276-36.521,13.276-2.2,0-4.505-.092-6.835-.271-2.2-.168-4.349-.256-6.407-.256-25.04,0-37.735,12.562-37.735,37.342,0,3.559.92,8.469,1.993,14.158C45.9,270.362,54.05,313.664,3.673,354.363l-3.093,2.5V.58H306.108Z" transform="translate(8.129 4.899)" fill="#fff"/>
          <path id="Path_873419" data-name="Path 873419" d="M0,358.074l4.04-3.261c50.648-40.92,42.454-84.432,37.56-110.43-1.061-5.655-1.982-10.542-1.982-14.047,0-24.394,12.5-36.762,37.159-36.762,2.031,0,4.169.084,6.361.252,2.348.183,4.666.275,6.88.275,15.708,0,28.48-4.651,36.937-13.455,7.243-7.533,11.229-18.064,11.229-29.644,0-12.627-1.745-22.5-3.284-31.225-1.1-6.224-2.043-11.6-2.043-16.51,0-47.048,39.457-52.13,56.421-52.13a290.983,290.983,0,0,1,33.31,2.329c9.95,1.1,19.347,2.138,29.709,2.138,10.6,0,24.234-6.693,35.582-17.464,11.775-11.183,18.808-24.513,18.808-35.658V0H0ZM306.108,2.482c0,10.989-6.964,24.162-18.625,35.238-11.245,10.672-24.727,17.3-35.185,17.3-10.332,0-19.713-1.039-29.656-2.138a292.386,292.386,0,0,0-33.363-2.325c-17.14,0-57,5.135-57,52.706,0,4.96.951,10.359,2.054,16.624,1.535,8.686,3.272,18.537,3.272,31.111,0,11.432-3.929,21.817-11.065,29.243-8.347,8.686-20.973,13.276-36.521,13.276-2.2,0-4.5-.092-6.835-.271-2.207-.168-4.36-.256-6.407-.256-25.04,0-37.739,12.562-37.739,37.342,0,3.562.924,8.473,1.993,14.154,4.872,25.872,13.024,69.17-37.357,109.872l-3.093,2.5L.577.58H306.108Z" transform="translate(0 0)" fill="#fff"/>
        </g>
        <g id="Group_1099307" data-name="Group 1099307" transform="translate(689.086 497.693) rotate(180)">
          <g id="Group_1099344" data-name="Group 1099344" transform="translate(0 0)">
            <path id="Path_873389" data-name="Path 873389" d="M636.706,0c-41.369,0-65.4,65.525-65.4,103.9s8.117,70.826,8.117,114.509S562.577,325.441,480.2,325.441c-21.842,0-47.427-9.674-86.742-9.674s-78.631,26.523-73.325,95.167S285.5,494.864,249.3,494.864,89.446,400.532,0,511.247H636.706Z" fill="#efb499"/>
            <path id="Path_873391" data-name="Path 873391" d="M576.43,108.584c0,18.815,1.879,35.889,3.887,54,2.074,18.769,4.22,38.184,4.22,60.512,0,30.768-9.208,102.342-94.537,102.342-8.921,0-18.687-1.726-30.01-3.718-15.845-2.791-33.805-5.956-56.732-5.956-22.712,0-42.895,8.291-56.825,23.342-16.367,17.678-23.685,44.257-21.171,76.869,2.1,27.183-2.98,47.617-15.123,60.732-11.154,12.045-28.325,18.155-51.033,18.155-7.728,0-21.463-5.408-37.379-11.681C194.1,472.3,156.273,457.4,116.917,457.4c-43.694,0-80.961,18.7-110.756,55.58L0,520.609H651.183V0H646.5C600.494,0,576.43,70.693,576.43,108.584m73.356,410.621H2.94l4.312-5.336c29.513-36.54,66.411-55.063,109.665-55.063,39.09,0,76.777,14.846,104.313,25.693,16.034,6.314,29.882,11.768,37.876,11.768,23.112,0,40.631-6.258,52.062-18.605,12.419-13.412,17.632-34.2,15.5-61.8-2.489-32.207,4.7-58.417,20.792-75.8,13.663-14.764,33.487-22.892,55.8-22.892,22.8,0,40.7,3.15,56.5,5.935,11.369,2,21.191,3.739,30.24,3.739,86.594,0,95.945-72.552,95.945-103.745,0-22.405-2.156-41.855-4.241-60.7-1.987-18.037-3.876-35.075-3.876-53.813C577.828,71.179,601.421,1.4,646.5,1.4h3.282Z" transform="translate(37.903 10.319)" fill="#fff"/>
          </g>
        </g>
      </g>
    </g>
  </g>
</svg>
