<svg xmlns="http://www.w3.org/2000/svg" xmlns:xlink="http://www.w3.org/1999/xlink" width="121" height="121" viewBox="0 0 121 121">
  <defs>
    <clipPath id="clip-path">
      <rect id="Rectangle_400938" data-name="Rectangle 400938" width="121" height="121" transform="translate(0 0)" fill="none"/>
    </clipPath>
    <clipPath id="clip-path-2">
      <rect id="Rectangle_401073" data-name="Rectangle 401073" width="92.219" height="41.532" fill="#efb499"/>
    </clipPath>
    <clipPath id="clip-path-3">
      <rect id="Rectangle_403247" data-name="Rectangle 403247" width="40.271" height="69" fill="none"/>
    </clipPath>
  </defs>
  <g id="Group_1103349" data-name="Group 1103349" transform="translate(-11988.656 10814)">
    <g id="Group_1101426" data-name="Group 1101426" transform="translate(11600.988 -16827)">
      <rect id="Rectangle_401103" data-name="Rectangle 401103" width="121" height="121" transform="translate(387.668 6013)" fill="none"/>
      <g id="Group_1099348" data-name="Group 1099348" transform="translate(387.668 6013)">
        <g id="Group_1099282" data-name="Group 1099282">
          <g id="Group_1099281" data-name="Group 1099281" clip-path="url(#clip-path-2)">
            <path id="Path_873375" data-name="Path 873375" d="M74.8,9.1c-4.139,0-6.28-2.03-8.17-3.821-1.855-1.756-3.452-3.274-6.792-3.274s-4.937,1.517-6.792,3.274C51.161,7.072,49.023,9.1,44.881,9.1s-6.28-2.03-8.169-3.821C34.857,3.525,33.26,2.007,29.92,2.007s-4.937,1.517-6.789,3.274C21.241,7.072,19.1,9.1,14.962,9.1S8.679,7.072,6.789,5.281C4.937,3.525,3.34,2.007,0,2.007V0C4.139,0,6.28,2.033,8.17,3.821c1.855,1.759,3.452,3.274,6.792,3.274S19.9,5.58,21.75,3.824C23.637,2.033,25.781,0,29.92,0s6.283,2.033,8.17,3.821c1.855,1.759,3.452,3.274,6.792,3.274s4.937-1.514,6.792-3.274C53.56,2.033,55.7,0,59.843,0s6.283,2.033,8.17,3.821C69.867,5.58,71.464,7.094,74.8,7.094S79.742,5.58,81.6,3.821C83.483,2.033,85.624,0,89.766,0V2.007c-3.34,0-4.937,1.517-6.792,3.274C81.084,7.072,78.943,9.1,74.8,9.1" transform="translate(2.453 32.43)" fill="#efb499"/>
            <path id="Path_873376" data-name="Path 873376" d="M74.8,9.1c-4.139,0-6.283-2.03-8.17-3.824-1.855-1.756-3.452-3.27-6.792-3.27s-4.937,1.514-6.792,3.27C51.164,7.072,49.023,9.1,44.881,9.1s-6.283-2.03-8.17-3.824c-1.855-1.756-3.452-3.27-6.792-3.27s-4.937,1.517-6.789,3.27C21.241,7.072,19.1,9.1,14.962,9.1S8.679,7.072,6.789,5.278C4.937,3.522,3.34,2.007,0,2.007V0C4.139,0,6.283,2.03,8.17,3.821c1.855,1.759,3.452,3.274,6.792,3.274S19.9,5.58,21.75,3.821C23.637,2.03,25.781,0,29.92,0S36.2,2.03,38.093,3.821c1.852,1.759,3.449,3.274,6.789,3.274s4.937-1.514,6.792-3.274C53.56,2.03,55.7,0,59.843,0s6.283,2.03,8.17,3.821C69.867,5.58,71.464,7.094,74.8,7.094S79.742,5.58,81.6,3.821C83.486,2.03,85.627,0,89.769,0V2.007c-3.34,0-4.94,1.517-6.8,3.27C81.084,7.072,78.943,9.1,74.8,9.1" transform="translate(1.635 21.62)" fill="#efb499"/>
            <path id="Path_873377" data-name="Path 873377" d="M74.8,9.1c-4.139,0-6.283-2.03-8.169-3.824-1.855-1.756-3.452-3.27-6.792-3.27s-4.937,1.514-6.792,3.27C51.164,7.072,49.02,9.1,44.881,9.1s-6.283-2.03-8.17-3.824c-1.855-1.756-3.452-3.27-6.792-3.27s-4.937,1.517-6.789,3.27C21.241,7.072,19.1,9.1,14.962,9.1S8.678,7.072,6.789,5.278C4.937,3.522,3.34,2.007,0,2.007V0C4.139,0,6.283,2.03,8.169,3.821c1.851,1.759,3.452,3.274,6.792,3.274S19.9,5.58,21.75,3.821C23.637,2.03,25.781,0,29.92,0S36.2,2.03,38.093,3.821c1.852,1.759,3.449,3.274,6.789,3.274s4.937-1.514,6.792-3.274C53.56,2.03,55.7,0,59.843,0s6.283,2.03,8.17,3.821C69.867,5.58,71.464,7.094,74.8,7.094S79.742,5.58,81.6,3.821C83.486,2.03,85.624,0,89.769,0V2.007c-3.34,0-4.941,1.517-6.8,3.27C81.084,7.072,78.943,9.1,74.8,9.1" transform="translate(0.818 10.81)" fill="#efb499"/>
            <path id="Path_873378" data-name="Path 873378" d="M74.8,9.1c-4.139,0-6.28-2.03-8.17-3.821-1.855-1.756-3.452-3.27-6.792-3.27s-4.937,1.514-6.789,3.27C51.164,7.069,49.023,9.1,44.881,9.1s-6.28-2.03-8.169-3.821c-1.855-1.756-3.452-3.27-6.792-3.27s-4.937,1.514-6.789,3.267C21.245,7.069,19.1,9.1,14.962,9.1S8.678,7.069,6.789,5.278C4.937,3.522,3.34,2.007,0,2.007V0C4.139,0,6.283,2.03,8.17,3.821c1.855,1.756,3.452,3.27,6.792,3.27S19.9,5.577,21.75,3.821C23.64,2.03,25.781,0,29.92,0s6.28,2.03,8.173,3.821c1.852,1.756,3.449,3.27,6.789,3.27s4.937-1.514,6.792-3.27C53.563,2.03,55.7,0,59.843,0s6.28,2.03,8.17,3.821c1.855,1.756,3.452,3.27,6.792,3.27s4.937-1.514,6.792-3.27C83.486,2.03,85.627,0,89.769,0V2.007c-3.344,0-4.941,1.514-6.8,3.27C81.084,7.069,78.943,9.1,74.8,9.1" transform="translate(0 0.003)" fill="#efb499"/>
          </g>
        </g>
      </g>
      <circle id="Ellipse_11504" data-name="Ellipse 11504" cx="50.5" cy="50.5" r="50.5" transform="translate(402.668 6031)" fill="#ffce73"/>
      <circle id="Ellipse_11503" data-name="Ellipse 11503" cx="52.5" cy="52.5" r="52.5" transform="translate(395.668 6021)" fill="#f3f9ff"/>
    </g>
    <g id="Group_1101427" data-name="Group 1101427" transform="translate(12014.598 -10788.196)">
      <rect id="Rectangle_401104" data-name="Rectangle 401104" width="68" height="69" transform="translate(0.402 -0.804)" fill="none"/>
      <g id="Group_1101541" data-name="Group 1101541" transform="translate(14.402 -0.804)">
        <g id="Group_1101540" data-name="Group 1101540" clip-path="url(#clip-path-3)">
          <path id="Path_881041" data-name="Path 881041" d="M40.271,1.137V67.862A1.138,1.138,0,0,1,39.134,69h-38A1.138,1.138,0,0,1,0,67.862V1.137A1.137,1.137,0,0,1,1.137,0h38a1.137,1.137,0,0,1,1.137,1.137" fill="#12263f"/>
          <rect id="Rectangle_403233" data-name="Rectangle 403233" width="34.682" height="54.137" transform="translate(2.795 5.992)" fill="#edf3f3"/>
          <rect id="Rectangle_403234" data-name="Rectangle 403234" width="7.634" height="3.689" transform="translate(16.506 62.869)" fill="#ffb937"/>
          <rect id="Rectangle_403235" data-name="Rectangle 403235" width="11.602" height="1.517" transform="translate(14.522 2.477)" fill="#344951"/>
          <rect id="Rectangle_403236" data-name="Rectangle 403236" width="6.569" height="6.569" transform="translate(6.126 8.885)" fill="#fecab2"/>
          <rect id="Rectangle_403237" data-name="Rectangle 403237" width="6.569" height="6.569" transform="translate(16.851 8.885)" fill="#cdd1d1"/>
          <rect id="Rectangle_403238" data-name="Rectangle 403238" width="6.569" height="6.569" transform="translate(27.576 8.885)" fill="#ffb937"/>
          <rect id="Rectangle_403239" data-name="Rectangle 403239" width="6.569" height="6.569" transform="translate(6.126 19.331)" fill="#7d3a1b"/>
          <rect id="Rectangle_403240" data-name="Rectangle 403240" width="6.569" height="6.569" transform="translate(16.851 19.331)" fill="#cdd1d1"/>
          <rect id="Rectangle_403241" data-name="Rectangle 403241" width="6.569" height="6.569" transform="translate(27.576 19.331)" fill="#fecab2"/>
          <rect id="Rectangle_403242" data-name="Rectangle 403242" width="6.569" height="6.569" transform="translate(6.126 29.776)" fill="#cdd1d1"/>
          <rect id="Rectangle_403243" data-name="Rectangle 403243" width="6.569" height="6.569" transform="translate(16.851 29.776)" fill="#ffb937"/>
          <rect id="Rectangle_403244" data-name="Rectangle 403244" width="6.569" height="6.569" transform="translate(6.126 50.041)" fill="#cdd1d1"/>
          <rect id="Rectangle_403245" data-name="Rectangle 403245" width="6.569" height="6.569" transform="translate(16.851 50.041)" fill="#cdd1d1"/>
          <rect id="Rectangle_403246" data-name="Rectangle 403246" width="6.569" height="6.569" transform="translate(27.576 50.041)" fill="#7d3a1b"/>
        </g>
      </g>
    </g>
  </g>
</svg>
