<svg xmlns="http://www.w3.org/2000/svg" xmlns:xlink="http://www.w3.org/1999/xlink" width="139" height="139" viewBox="0 0 139 139">
  <defs>
    <clipPath id="clip-path">
      <rect id="Rectangle_400938" data-name="Rectangle 400938" width="139" height="139" transform="translate(-0.043 -0.043)" fill="none"/>
    </clipPath>
    <clipPath id="clip-path-2">
      <rect id="Rectangle_401073" data-name="Rectangle 401073" width="105.872" height="47.68" fill="#7d3a1b"/>
    </clipPath>
    <clipPath id="clip-path-3">
      <rect id="Rectangle_403305" data-name="Rectangle 403305" width="78" height="69.411" fill="#6a4d23"/>
    </clipPath>
  </defs>
  <g id="Group_1101590" data-name="Group 1101590" transform="translate(-318 -7429.881)">
    <g id="Group_1099526" data-name="Group 1099526" transform="translate(53.043 2145.924)">
      <g id="Group_1099379" data-name="Group 1099379" transform="translate(265 5284)">
        <rect id="Rectangle_401103" data-name="Rectangle 401103" width="139" height="139" transform="translate(-0.043 -0.043)" fill="none"/>
        <g id="Group_1099348" data-name="Group 1099348" transform="translate(0)">
          <g id="Group_1099282" data-name="Group 1099282">
            <g id="Group_1099281" data-name="Group 1099281" clip-path="url(#clip-path-2)">
              <path id="Path_873375" data-name="Path 873375" d="M85.879,10.449c-4.752,0-7.21-2.33-9.379-4.386C74.371,4.047,72.538,2.3,68.7,2.3s-5.668,1.742-7.8,3.758c-2.17,2.056-4.624,4.386-9.379,4.386s-7.21-2.33-9.379-4.386C40.018,4.047,38.184,2.3,34.349,2.3s-5.668,1.742-7.794,3.758c-2.17,2.056-4.627,4.386-9.379,4.386S9.963,8.119,7.794,6.063C5.668,4.047,3.835,2.3,0,2.3V0C4.752,0,7.21,2.334,9.379,4.386c2.129,2.02,3.963,3.758,7.8,3.758s5.668-1.738,7.794-3.755C27.136,2.334,29.6,0,34.349,0s7.213,2.334,9.379,4.386c2.129,2.02,3.963,3.758,7.8,3.758s5.668-1.738,7.8-3.758C61.489,2.334,63.951,0,68.7,0s7.213,2.334,9.379,4.386c2.129,2.02,3.963,3.758,7.8,3.758s5.668-1.738,7.8-3.758C95.843,2.334,98.3,0,103.056,0V2.3c-3.835,0-5.668,1.742-7.8,3.758-2.169,2.056-4.627,4.386-9.379,4.386" transform="translate(2.816 37.231)" fill="#7d3a1b"/>
              <path id="Path_873376" data-name="Path 873376" d="M85.879,10.449c-4.752,0-7.213-2.33-9.379-4.39C74.371,4.043,72.538,2.3,68.7,2.3s-5.668,1.738-7.8,3.755c-2.166,2.06-4.624,4.39-9.379,4.39s-7.213-2.33-9.379-4.39C40.018,4.043,38.184,2.3,34.349,2.3s-5.668,1.742-7.794,3.755c-2.17,2.06-4.627,4.39-9.379,4.39s-7.213-2.33-9.383-4.39C5.668,4.043,3.835,2.3,0,2.3V0C4.752,0,7.213,2.33,9.379,4.386c2.129,2.02,3.963,3.758,7.8,3.758s5.668-1.738,7.794-3.758C27.136,2.33,29.6,0,34.349,0s7.213,2.33,9.383,4.386c2.126,2.02,3.959,3.758,7.794,3.758s5.668-1.738,7.8-3.758C61.489,2.33,63.951,0,68.7,0s7.213,2.33,9.379,4.386c2.129,2.02,3.963,3.758,7.8,3.758s5.668-1.738,7.8-3.758C95.846,2.33,98.3,0,103.059,0V2.3c-3.835,0-5.672,1.742-7.8,3.755-2.169,2.06-4.628,4.39-9.379,4.39" transform="translate(1.877 24.821)" fill="#7d3a1b"/>
              <path id="Path_873377" data-name="Path 873377" d="M85.879,10.449c-4.752,0-7.213-2.33-9.379-4.39C74.371,4.043,72.538,2.3,68.7,2.3s-5.668,1.738-7.8,3.755c-2.166,2.06-4.627,4.39-9.379,4.39s-7.213-2.33-9.379-4.39C40.018,4.043,38.184,2.3,34.349,2.3s-5.668,1.742-7.794,3.755c-2.169,2.06-4.627,4.39-9.379,4.39s-7.213-2.33-9.383-4.39C5.668,4.043,3.835,2.3,0,2.3V0C4.752,0,7.213,2.33,9.379,4.386c2.126,2.02,3.963,3.758,7.8,3.758s5.668-1.738,7.794-3.758C27.136,2.33,29.6,0,34.349,0s7.213,2.33,9.383,4.386c2.126,2.02,3.959,3.758,7.794,3.758s5.668-1.738,7.8-3.758C61.489,2.33,63.951,0,68.7,0s7.213,2.33,9.379,4.386c2.129,2.02,3.963,3.758,7.8,3.758s5.668-1.738,7.8-3.758C95.846,2.33,98.3,0,103.059,0V2.3c-3.835,0-5.672,1.742-7.8,3.755-2.169,2.06-4.627,4.39-9.379,4.39" transform="translate(0.939 12.41)" fill="#7d3a1b"/>
              <path id="Path_873378" data-name="Path 873378" d="M85.879,10.445c-4.752,0-7.21-2.33-9.379-4.386C74.371,4.043,72.538,2.3,68.7,2.3s-5.668,1.738-7.794,3.755c-2.169,2.056-4.627,4.386-9.383,4.386s-7.21-2.33-9.379-4.386C40.018,4.043,38.184,2.3,34.349,2.3s-5.668,1.738-7.794,3.751c-2.166,2.06-4.627,4.39-9.379,4.39S9.963,8.115,7.794,6.059C5.668,4.043,3.835,2.3,0,2.3V0C4.752,0,7.213,2.33,9.379,4.386c2.129,2.016,3.963,3.755,7.8,3.755S22.845,6.4,24.971,4.386C27.14,2.33,29.6,0,34.349,0s7.21,2.33,9.383,4.386c2.126,2.016,3.959,3.755,7.794,3.755s5.668-1.738,7.8-3.755C61.493,2.33,63.951,0,68.7,0s7.21,2.33,9.379,4.386c2.129,2.016,3.963,3.755,7.8,3.755s5.668-1.738,7.8-3.755C95.846,2.33,98.3,0,103.059,0V2.3c-3.839,0-5.672,1.738-7.8,3.755-2.169,2.056-4.627,4.386-9.379,4.386" transform="translate(0 0.004)" fill="#7d3a1b"/>
            </g>
          </g>
        </g>
        <path id="Path_873425" data-name="Path 873425" d="M57.977,0A57.977,57.977,0,1,1,0,57.977,57.977,57.977,0,0,1,57.977,0Z" transform="translate(17.221 20.665)" fill="#ffe2b7"/>
        <circle id="Ellipse_11503" data-name="Ellipse 11503" cx="60.5" cy="60.5" r="60.5" transform="translate(8.957 8.957)" fill="#fff"/>
      </g>
    </g>
    <g id="Group_1099527" data-name="Group 1099527" transform="translate(0 1035.881)">
      <g id="Group_1099389" data-name="Group 1099389" transform="translate(347.893 6422.744)">
        <rect id="Rectangle_401104" data-name="Rectangle 401104" width="78" height="79" transform="translate(0.107 0.256)" fill="none"/>
      </g>
      <g id="Group_1101598" data-name="Group 1101598" transform="translate(348 6426.119)">
        <g id="Group_1101597" data-name="Group 1101597" transform="translate(0 0)" clip-path="url(#clip-path-3)">
          <path id="Path_881207" data-name="Path 881207" d="M63.792,26.378h.953c2.668,0,5.337,0,8.008-.008a5.412,5.412,0,0,1,3.182.8,4.368,4.368,0,0,1,1.995,3.417c.048.59.064,1.182.067,1.771q0,12.9,0,25.789a5.648,5.648,0,0,1-.461,2.579,4.274,4.274,0,0,1-3.764,2.582c-2.177.106-4.361.056-6.544.061q-3.479.013-6.963,0a.907.907,0,0,0-.7.293q-2.569,2.573-5.149,5.138a1.567,1.567,0,0,1-1.484.578,1.487,1.487,0,0,1-.673-.316c-.964-.905-1.908-1.833-2.85-2.758s-1.841-1.836-2.772-2.741a.78.78,0,0,0-.486-.2c-3.75-.006-7.5.008-11.246.008-.766,0-1.531,0-2.3-.045a4.524,4.524,0,0,1-4.166-3.755,11.407,11.407,0,0,1-.059-1.176c-.14.109-.24.173-.324.254-.62.609-1.235,1.227-1.855,1.836a4.507,4.507,0,0,1-.441.391,1.367,1.367,0,0,1-1.769.056,4.908,4.908,0,0,1-.724-.6c-1.665-1.665-3.319-3.339-4.99-5a.781.781,0,0,0-.495-.156q-6.408-.013-12.813-.006A4.888,4.888,0,0,1,1.6,54.025,4.757,4.757,0,0,1,.008,50.236Q0,36.649.011,23.059A4.565,4.565,0,0,1,2.769,18.6a5.989,5.989,0,0,1,2.548-.45c2.822-.017,5.641-.006,8.46-.006h.433V4.538A4.556,4.556,0,0,1,17.825.1,8.7,8.7,0,0,1,19.491,0q18.227-.008,36.45,0c1.148,0,2.3.039,3.445.02A4.543,4.543,0,0,1,63.8,4.541q-.008,10.683,0,21.368ZM38.9,39.524c.263-.249.4-.372.528-.5,1.383-1.375,2.786-2.727,4.135-4.132a2.762,2.762,0,0,1,2.179-.905c4.28.036,8.564.017,12.844.014a5.507,5.507,0,0,0,.833-.05,1.4,1.4,0,0,0,1.313-1.542V4.951a2.439,2.439,0,0,0-.011-.623,2.49,2.49,0,0,0-.349-.835,1.428,1.428,0,0,0-1.249-.472l-34.986.006c-1.777,0-3.551.008-5.328,0a1.519,1.519,0,0,0-1.542,1.59c.034,4.037.014,8.075.014,12.112q0,7.917-.006,15.834a1.194,1.194,0,0,0,.774,1.2,2.957,2.957,0,0,0,1.073.232q6.856.025,13.716.017a1.56,1.56,0,0,1,1.16.458c.19.187.386.372.57.562L38.9,39.524M24.808,57.615c.12-.106.218-.184.307-.274,1.439-1.433,2.892-2.85,4.306-4.306a2.932,2.932,0,0,1,2.235-.925c4.515.008,9.027,0,13.543.008a1.351,1.351,0,0,0,1.106-.545,1.848,1.848,0,0,0,.31-1.285q0-5.813,0-11.623c0-.464.006-.928-.008-1.391,0-.092-.084-.251-.14-.257a1.218,1.218,0,0,0-1.118.293c-1.6,1.632-3.224,3.241-4.848,4.85-1.182,1.171-1.822,1.168-2.992,0-1.5-1.5-3.023-2.984-4.5-4.512a1.99,1.99,0,0,0-1.6-.668c-4.049.034-8.1.025-12.148.017a4.894,4.894,0,0,1-4.082-1.794,4.713,4.713,0,0,1-.972-3.051c.008-3.5,0-7,0-10.508v-.425c-.089-.006-.145-.014-.2-.014-3.121,0-6.242-.006-9.365,0A1.461,1.461,0,0,0,3.07,22.838q0,8.663,0,17.328,0,5.184,0,10.369a1.574,1.574,0,0,0,.327,1.07,1.523,1.523,0,0,0,1.271.514q6.735-.013,13.473-.006a2.628,2.628,0,0,1,2.023.824c.978,1.023,2,2,3,3.006.548.548,1.09,1.1,1.648,1.671M63.792,29.4c0,1.051.017,2.082-.006,3.11a4.393,4.393,0,0,1-1.565,3.325A5.064,5.064,0,0,1,58.735,37c-2.794.011-5.591.006-8.388.006-.754,0-.74,0-.74.76q0,6.559-.014,13.118a4.057,4.057,0,0,1-1.048,2.66,4.75,4.75,0,0,1-3.867,1.64c-4.292-.006-8.586,0-12.88-.008-.271,0-.4.059-.4.36.014,1.148,0,2.3.011,3.445a1.194,1.194,0,0,0,.715,1.146,2.877,2.877,0,0,0,1.1.24q6.718.017,13.439-.008a2.285,2.285,0,0,1,1.735.712c1.475,1.492,2.978,2.959,4.473,4.434.087.087.184.165.293.263.19-.182.36-.335.525-.5,1.338-1.336,2.691-2.66,4.007-4.015a2.854,2.854,0,0,1,2.2-.9c4.015.022,8.03.011,12.045.011.534,0,1.07.008,1.6-.039a1.415,1.415,0,0,0,1.344-1.241,2.891,2.891,0,0,0,.045-.517q0-13.675,0-27.353c0-.092,0-.184-.006-.277a1.485,1.485,0,0,0-1.062-1.47,3.154,3.154,0,0,0-.827-.087q-3.969,0-7.938.022H63.792" transform="translate(0 -0.001)" fill="#6a4d23"/>
          <path id="Path_881208" data-name="Path 881208" d="M23.99,6.076q-6.928,0-13.855,0A3.022,3.022,0,0,1,9.481,6,1.465,1.465,0,0,1,8.388,4.866a1.326,1.326,0,0,1,.757-1.528,4.213,4.213,0,0,1,1.512-.313q12.3-.029,24.61-.014c.766,0,1.534-.022,2.3.011a3.674,3.674,0,0,1,1.084.21,1.407,1.407,0,0,1,.947,1.654,1.492,1.492,0,0,1-1.4,1.187c-.115.006-.232,0-.346,0H23.99" transform="translate(15.014 5.387)" fill="#6a4d23"/>
          <path id="Path_881209" data-name="Path 881209" d="M22.942,12.15H12.674a1.524,1.524,0,0,1-1.375-.659,1.38,1.38,0,0,1,.517-2.07A3.36,3.36,0,0,1,13.149,9.1q9.8-.029,19.6,0a3.384,3.384,0,0,1,1.179.246,1.405,1.405,0,0,1,.88,1.69,1.48,1.48,0,0,1-1.422,1.115c-.394.011-.788,0-1.182,0H22.942" transform="translate(19.795 16.297)" fill="#6a4d23"/>
          <path id="Path_881210" data-name="Path 881210" d="M20.207,6.088h9.645c.265,0,.534.006.8.022A1.464,1.464,0,0,1,32.071,7.4a1.45,1.45,0,0,1-1.059,1.562,3.6,3.6,0,0,1-.961.134q-9.836.013-19.67,0a2.047,2.047,0,0,1-1.6-.536,1.379,1.379,0,0,1-.313-1.512,1.3,1.3,0,0,1,1.263-.93c1.774-.022,3.548-.025,5.325-.028C16.774,6.082,18.489,6.088,20.207,6.088Z" transform="translate(15.008 10.916)" fill="#6a4d23"/>
          <path id="Path_881211" data-name="Path 881211" d="M9.915,12.091a1.465,1.465,0,0,1-1.551-1.545A1.549,1.549,0,0,1,9.923,9.118a1.621,1.621,0,0,1,1.539,1.47,1.533,1.533,0,0,1-1.548,1.5" transform="translate(15.005 16.356)" fill="#6a4d23"/>
          <path id="Path_881212" data-name="Path 881212" d="M19.983,6.1a1.446,1.446,0,0,1,1.47,1.509,1.507,1.507,0,0,1-1.472,1.419,1.553,1.553,0,0,1-1.484-1.5A1.48,1.48,0,0,1,19.983,6.1" transform="translate(33.183 10.926)" fill="#6a4d23"/>
        </g>
      </g>
    </g>
  </g>
</svg>
