<svg xmlns="http://www.w3.org/2000/svg" xmlns:xlink="http://www.w3.org/1999/xlink" width="190" height="134" viewBox="0 0 190 134">
  <defs>
    <clipPath id="clip-path">
      <rect id="Rectangle_403309" data-name="Rectangle 403309" width="82.004" height="81.684" fill="#7d3a1b"/>
    </clipPath>
  </defs>
  <g id="Group_1101616" data-name="Group 1101616" transform="translate(-330 -7019)">
    <rect id="Rectangle_402215" data-name="Rectangle 402215" width="190" height="134" transform="translate(330 7019)" fill="none"/>
    <g id="Group_1100287" data-name="Group 1100287" transform="translate(16 -507)">
      <g id="Grupo_156312" data-name="Grupo 156312" transform="translate(344 7528)">
        <path id="Elipse_5845" data-name="Elipse 5845" d="M65.5,0A65.5,65.5,0,1,1,0,65.5,65.5,65.5,0,0,1,65.5,0Z" transform="translate(0 0)" fill="#ffce73"/>
      </g>
      <g id="Group_1101618" data-name="Group 1101618" transform="translate(368 7553)">
        <g id="Group_1101617" data-name="Group 1101617" transform="translate(0 0)" clip-path="url(#clip-path)">
          <path id="Path_881226" data-name="Path 881226" d="M8.672,37.465V36.98q0-8.253-.006-16.506a2.082,2.082,0,0,1,.931-1.9c1.1-.749,2.156-1.551,3.234-2.332.059-.041.115-.085.1-.073-.073-.6-.176-1.131-.2-1.671a3.662,3.662,0,0,1,6.918-1.63,3.427,3.427,0,0,1-.426,4.057,3.434,3.434,0,0,1-3.851,1.163,1.118,1.118,0,0,0-1.128.194c-.887.684-1.807,1.328-2.7,2.006a.648.648,0,0,0-.226.447q-.018,8.235-.009,16.471c0,.07.006.141.009.235h1.745V37c0-3.734-.006-7.467,0-11.2a6.676,6.676,0,0,1,3.079-5.781A13.606,13.606,0,0,1,21.241,18c1.345-.27,2.711-.461,4.068-.687.153-.023.3-.05.511-.085a2.164,2.164,0,0,0-.209-.194,9.854,9.854,0,0,1-4.054-6.254,10.847,10.847,0,0,1,.056-5.314A7.078,7.078,0,0,1,27.592.123,9.564,9.564,0,0,1,32,.432,6.79,6.79,0,0,1,36.81,5.869a10.947,10.947,0,0,1-2.585,9.9,16.6,16.6,0,0,1-1.683,1.486c.447.053.9.082,1.345.159a28.19,28.19,0,0,1,6.136,1.451A8.826,8.826,0,0,1,44.1,21.9a6.459,6.459,0,0,1,1.163,3.748c.026,3.745.009,7.491.009,11.236v.585h.417q2.432,0,4.867,0a1.458,1.458,0,0,1,1.663,1.66c0,1.915,0,3.833,0,5.749a3.581,3.581,0,0,1-.059.687,1.131,1.131,0,0,1-1.113.984c-1.193.032-2.388.018-3.584.018-.855,0-.849,0-.881.864-.138,3.51-.285,7.021-.417,10.531-.112,3-.2,6-.311,9q-.137,3.891-.294,7.787c-.079,1.9-.185,3.8-.288,5.7a1.351,1.351,0,0,1-1.389,1.237c-.1.006-.194,0-.291,0H14.823a3.391,3.391,0,0,1-.546-.032,1.322,1.322,0,0,1-1.216-1.434c-.079-1.742-.2-3.481-.27-5.223-.05-1.29-.018-2.585-.065-3.875-.07-1.974-.191-3.948-.27-5.919-.147-3.766-.276-7.535-.42-11.3-.091-2.338-.2-4.679-.291-7.018-.009-.235-.088-.317-.326-.314-1.207.015-2.418.012-3.625.015s-1.674-.458-1.68-1.648q-.013-2.891,0-5.784c.006-1.184.529-1.683,1.71-1.686h.846M25.795,64.411c-.22-.226-.394-.394-.558-.573a8.431,8.431,0,0,1-2.191-6.354,5.849,5.849,0,0,1,1.4-3.7,6.166,6.166,0,0,1,6.3-1.854A5.3,5.3,0,0,1,34.933,55.7a8.235,8.235,0,0,1-.984,7.041,16.28,16.28,0,0,1-1.342,1.683c.141.038.311.094.488.129.966.2,1.942.364,2.9.6a8.379,8.379,0,0,1,3.093,1.439,4.944,4.944,0,0,1,2.133,4.124q0,3.64.012,7.282c0,.358-.079.861.115,1.034s.693.041,1.055.068c.308.023.385-.1.4-.4.1-2.744.226-5.484.332-8.225.056-1.478.073-2.952.132-4.427.07-1.669.176-3.337.247-5.006.044-1.025.035-2.05.071-3.073.07-2.109.156-4.215.235-6.324q.013-.383.035-.767c.082-1.34.162-2.679.25-4.016.015-.226-.053-.294-.282-.291-.758.012-1.513-.006-2.271-.006q-13.377,0-26.758,0c-.176,0-.353.021-.552.035.012.273.021.5.035.731.085,1.328.244,2.656.238,3.98-.009,2.456.156,4.9.3,7.347.126,2.191.156,4.386.226,6.58.059,1.792.1,3.584.167,5.376.059,1.61.147,3.217.214,4.826.05,1.119.082,2.241.138,3.363.006.1.1.285.167.288.447.026.893.015,1.357.015.012-.185.026-.291.026-.4,0-2.465-.006-4.929,0-7.394a9.176,9.176,0,0,1,.1-1.53,5.187,5.187,0,0,1,2.629-3.56A13.023,13.023,0,0,1,24.7,64.628c.347-.056.69-.135,1.1-.217M42.641,37.447v-.461q0-5.874,0-11.75a3.376,3.376,0,0,0-.855-2.274,7.007,7.007,0,0,0-3.372-2.03,31.777,31.777,0,0,0-7.77-1.278A31.342,31.342,0,0,0,19.955,20.93a7.284,7.284,0,0,0-3.234,1.848A3.277,3.277,0,0,0,15.7,25.092q-.009,5.988,0,11.97v.385h4.1V31.875c0-1.122,0-2.244,0-3.366a1.331,1.331,0,0,1,1.066-1.3,1.254,1.254,0,0,1,1.451.984,4.217,4.217,0,0,1,.112.978c.006,2.523,0,5.05-.006,7.576v.7H35.908v-.308q0-4.045,0-8.09a4.434,4.434,0,0,1,.079-.834,1.232,1.232,0,0,1,1.069-1,1.333,1.333,0,0,1,1.483,1.378q0,4.208,0,8.419v.444ZM38.679,79.1c.012-.162.023-.258.023-.352,0-2.623-.009-5.246.015-7.87a2.68,2.68,0,0,0-1.451-2.517,7.6,7.6,0,0,0-1.219-.582,20.363,20.363,0,0,0-4.976-.949,23.184,23.184,0,0,0-7.552.59,7.551,7.551,0,0,0-2.776,1.166,2.47,2.47,0,0,0-1.1,2.042c-.006.464-.006.928-.006,1.389,0,2.233.009,4.465,0,6.7,0,.3.065.411.385.391.488-.032.975-.023,1.463-.018.558.006.523.079.523-.532.006-1.733,0-3.466.006-5.2a3.452,3.452,0,0,1,.076-.8,1.192,1.192,0,0,1,1.387-.911,1.14,1.14,0,0,1,1.016,1.11c.015.194.018.391.018.585,0,1.795.012,3.587,0,5.382,0,.3.094.382.379.376.8-.018,1.61-.012,2.415-.015q3.076-.009,6.148-.009c.3,0,.394-.1.391-.4-.015-1.575-.006-3.149-.006-4.721,0-.379-.006-.758.015-1.134a1.133,1.133,0,0,1,1.14-1.181,1.187,1.187,0,0,1,1.3,1.066,6.093,6.093,0,0,1,.05.8c0,1.745,0,3.49.006,5.235,0,.153-.076.361.217.358.693-.009,1.387,0,2.118,0M49.656,40.129H8.7v3.9H49.656ZM29.237,2.579c-.209,0-.414-.006-.623,0a4.563,4.563,0,0,0-4.107,2.291A5.893,5.893,0,0,0,23.8,7.608a8.851,8.851,0,0,0,1.874,6.222,4.5,4.5,0,0,0,2.6,1.669A4.225,4.225,0,0,0,32.6,13.9,8.823,8.823,0,0,0,34.39,6.471a4.376,4.376,0,0,0-2.582-3.449,5.935,5.935,0,0,0-2.57-.444M25.545,58.048l.044,0c0,.147-.006.294,0,.441a5.7,5.7,0,0,0,1.334,3.522,2.756,2.756,0,0,0,2.852,1.06,3.02,3.02,0,0,0,1.727-1.16,6.236,6.236,0,0,0,1.013-5.546,2.588,2.588,0,0,0-1.833-1.88,4.923,4.923,0,0,0-2.274-.182,2.959,2.959,0,0,0-2.717,2.512,12.243,12.243,0,0,0-.15,1.231M16.418,15.733A1.134,1.134,0,0,0,17.593,14.6a1.179,1.179,0,0,0-1.363-1.14A1.123,1.123,0,0,0,15.193,14.6a1.165,1.165,0,0,0,1.225,1.131" transform="translate(11.832 0)" fill="#7d3a1b"/>
          <path id="Path_881227" data-name="Path 881227" d="M15.54,30.311c.467.088.943.179,1.419.264a13.218,13.218,0,0,1,4.283,1.41,5.278,5.278,0,0,1,2.879,4,18.84,18.84,0,0,1,.062,2.341q0,3.86-.018,7.72a1.375,1.375,0,0,1-1.522,1.522q-10.54,0-21.08,0A1.4,1.4,0,0,1,.006,45.994c0-3.111-.015-6.222,0-9.333a5.2,5.2,0,0,1,2.77-4.6,13.383,13.383,0,0,1,4.953-1.551c.288-.047.573-.115.858-.176.032-.006.059-.041.106-.076-.209-.209-.426-.4-.617-.614a8.325,8.325,0,0,1-2.009-4.465,7.48,7.48,0,0,1,.623-4.489,5.272,5.272,0,0,1,3.8-2.876,6.358,6.358,0,0,1,5.8,1.3,5.519,5.519,0,0,1,1.848,3.751,8.551,8.551,0,0,1-1.24,5.711,21.448,21.448,0,0,1-1.36,1.733M2.641,44.966c.664,0,1.284-.012,1.9.006.314.009.417-.088.414-.414-.018-1.815-.015-3.634-.015-5.449a3.394,3.394,0,0,1,.038-.546A1.158,1.158,0,0,1,6.2,37.528a1.154,1.154,0,0,1,1.2,1.043,6.761,6.761,0,0,1,.062.946c.006,1.707.009,3.416,0,5.123,0,.273.073.361.35.347.438-.026.878-.015,1.319-.015q3.384,0,6.768,0h.8v-.488c0-1.877,0-3.754,0-5.634a1.252,1.252,0,0,1,.9-1.272,1.2,1.2,0,0,1,1.463.6,1.968,1.968,0,0,1,.182.875c.015,1.854.006,3.707,0,5.561,0,.194-.015.373.267.364q.93-.022,1.865-.023c.229,0,.282-.109.282-.317,0-2.623.006-5.243,0-7.867a2.646,2.646,0,0,0-1.316-2.418,8.312,8.312,0,0,0-1.4-.693,19.937,19.937,0,0,0-4.938-.955,24.154,24.154,0,0,0-7.87.673,5.739,5.739,0,0,0-2.9,1.469,1.977,1.977,0,0,0-.608,1.469c.023,1.951.009,3.9.009,5.854v2.8M15.7,23.957c-.012-.244-.015-.476-.035-.708a3.072,3.072,0,0,0-2.376-2.973,5.047,5.047,0,0,0-2.459.018,2.82,2.82,0,0,0-2.174,2.271,6.666,6.666,0,0,0-.144,1.742,5.489,5.489,0,0,0,1.724,3.983,2.577,2.577,0,0,0,3.043.444,3.678,3.678,0,0,0,1.022-.808,6.008,6.008,0,0,0,1.4-3.969" transform="translate(0 34.117)" fill="#7d3a1b"/>
          <path id="Path_881228" data-name="Path 881228" d="M35.174,30.327c.455.082.928.167,1.407.256a12.354,12.354,0,0,1,4.732,1.627,5.164,5.164,0,0,1,2.529,4.512q.018,4.7,0,9.406a1.354,1.354,0,0,1-1.387,1.434c-.1.009-.194,0-.294,0H21.373c-.062,0-.123,0-.185,0a1.372,1.372,0,0,1-1.5-1.51q0-4.591.006-9.186a6.831,6.831,0,0,1,.1-1.2,5.113,5.113,0,0,1,2.553-3.528,13.22,13.22,0,0,1,4.964-1.636c.347-.056.684-.141,1.06-.22-.253-.261-.488-.476-.69-.711a8.235,8.235,0,0,1-2.009-5.1,7.943,7.943,0,0,1,.253-2.679,5.347,5.347,0,0,1,3.969-3.91,6.347,6.347,0,0,1,6.239,1.4,5.333,5.333,0,0,1,1.592,3.175,8.47,8.47,0,0,1-1.927,7.162c-.194.232-.405.452-.632.708m6.037,14.661v-.332c0-2.708-.029-5.417.018-8.125a2.307,2.307,0,0,0-1.034-2.05,5.7,5.7,0,0,0-1.2-.676,18.826,18.826,0,0,0-5.349-1.093,21.964,21.964,0,0,0-6.157.3,12.512,12.512,0,0,0-3.457,1.016,3.054,3.054,0,0,0-1.851,3.008c.035,2.379.015,4.759.015,7.138v.767h2.418v-.391c0-1.783-.009-3.563,0-5.346a3.544,3.544,0,0,1,.062-.726,1.2,1.2,0,0,1,1.184-.955,1.28,1.28,0,0,1,1.3,1.363c.006,1.88,0,3.76,0,5.637v.435h.508c2.758.006,5.52,0,8.272.021.355,0,.461-.079.458-.435-.018-1.745-.009-3.49-.006-5.235a3.918,3.918,0,0,1,.088-.87,1.22,1.22,0,0,1,2.4.185c.038.376.021.755.023,1.134q.013,2.432.021,4.867c0,.173-.024.358.235.358h2.056m-13.1-21.036.041.006a5.491,5.491,0,0,0,.032.623,5.646,5.646,0,0,0,1.654,3.645,2.589,2.589,0,0,0,2.867.629,3.646,3.646,0,0,0,1.836-1.713,6.354,6.354,0,0,0,.682-4.491,2.761,2.761,0,0,0-2.291-2.362,6.565,6.565,0,0,0-1.918-.085,2.874,2.874,0,0,0-2.705,2.415c-.109.435-.132.89-.2,1.334" transform="translate(38.153 34.115)" fill="#7d3a1b"/>
        </g>
      </g>
    </g>
  </g>
</svg>
