<svg xmlns="http://www.w3.org/2000/svg" xmlns:xlink="http://www.w3.org/1999/xlink" width="190" height="124" viewBox="0 0 190 124">
  <defs>
    <clipPath id="clip-path">
      <rect id="Rectangle_403341" data-name="Rectangle 403341" width="190" height="124" transform="translate(1125 1144.154)" fill="#fff" stroke="#707070" stroke-width="1"/>
    </clipPath>
    <clipPath id="clip-path-2">
      <rect id="Rectangle_403358" data-name="Rectangle 403358" width="97.31" height="118.49" fill="none"/>
    </clipPath>
  </defs>
  <g id="Mask_Group_1098740" data-name="Mask Group 1098740" transform="translate(-1125 -1144.154)" clip-path="url(#clip-path)">
    <g id="Group_1101738" data-name="Group 1101738" transform="translate(1171 1147.155)">
      <g id="Group_1101737" data-name="Group 1101737" transform="translate(0 0)" clip-path="url(#clip-path-2)">
        <path id="Path_881663" data-name="Path 881663" d="M.425,84.329c0-.835.017-1.674,0-2.508a11.365,11.365,0,0,1,.217-2.342,1.458,1.458,0,0,0,1.392-1.2,4.525,4.525,0,0,0,.119-1.307q.013-35.61.013-71.219a21.573,21.573,0,0,1,.043-2.227,2.743,2.743,0,0,1,1.614-2.3A5.43,5.43,0,0,1,6.315.8Q38.354.805,70.389.8c1.133,0,2.265-.013,3.394.03a4.316,4.316,0,0,1,2.427.673,3.163,3.163,0,0,1,1.235,2.81v74.14c0,5.216.009,10.437-.009,15.653a3.25,3.25,0,0,1-.937,2.525,3.848,3.848,0,0,1-2.827.8q-25.007-.006-50.013,0c-6.277,0-12.553-.038-18.83-.026a2.875,2.875,0,0,1-2.521-2.078,14.576,14.576,0,0,1-.141-2.061c-.013-2.4-.013-4.808-.038-7.213a1.593,1.593,0,0,0-1.7-1.725M34.675,44.122q-.013-8.738-.026-17.476c-.009-1.818.072-3.637-.026-5.451l.026-.034L34.6,21.1a1.732,1.732,0,0,0-1.524-1.184,1.758,1.758,0,0,0-1.882,1.8q-.006,10.162,0,20.32c0,.656-.021,1.312.013,1.963a1.78,1.78,0,0,0,1.218,1.614,1.572,1.572,0,0,0,1.6-.315c.264-.2.571-.443.451-.873.247.021.243-.123.2-.3m4.991-28.3v.021H68.408c1.354,0,2.691.026,3.777-1.052a3.8,3.8,0,0,0,.984-1.444,5.984,5.984,0,0,0,.256-2.01,28.057,28.057,0,0,0-.106-3.164,3.508,3.508,0,0,0-.409-1.439,3.924,3.924,0,0,0-3.641-1.874q-23.493.006-46.986,0c-4.05,0-8.1.013-12.145,0a3.91,3.91,0,0,0-3.99,4.058c.038,1.043,0,2.087.009,3.13a3.9,3.9,0,0,0,3.811,3.786q14.851-.032,29.7-.009m.869,36.285C28.688,52,19,61.177,19.115,73.053a19.67,19.67,0,0,0,5.94,14.095A20.133,20.133,0,0,0,41.88,93.28,20.692,20.692,0,0,0,60.458,73.8a20.042,20.042,0,0,0-5.813-15.385,20.718,20.718,0,0,0-14.112-6.306M16.138,45.8c1.478-.077,3.5.106,5.531-.085a4.359,4.359,0,0,0,3.79-3.611,15.709,15.709,0,0,0-.3-5.293A9.329,9.329,0,0,0,23.548,33.4a10.684,10.684,0,0,0-2.7-2.5c-.2-.123-.17-.2-.034-.358a6.113,6.113,0,0,0,1.478-4.471,6.055,6.055,0,0,0-1.341-3.717,6.344,6.344,0,0,0-4.539-2.436,5.48,5.48,0,0,0-2.334.166A6.774,6.774,0,0,0,9.649,24.42a5.361,5.361,0,0,0-.226,3.189,8.352,8.352,0,0,0,1.329,2.84c.213.29.217.422-.132.634a8.326,8.326,0,0,0-2.282,2.035,9.946,9.946,0,0,0-2.087,5.059A12.308,12.308,0,0,0,6.3,42.47a4.106,4.106,0,0,0,3.994,3.313c1.763.094,3.534.021,5.847.021m40.726-7.575V38.2q6.26,0,12.515,0a14.9,14.9,0,0,0,2.542-.017,1.575,1.575,0,0,0,1.277-2.3c-.332-1.018-1.269-1.1-2.142-1.1Q57.03,34.761,43,34.767a5.966,5.966,0,0,0-1.35.119c-.664.158-1.563,1.312-1.111,2.184a1.952,1.952,0,0,0,1.9,1.162q7.211-.013,14.423,0m0-10.893v0H45.571c-1.094,0-2.193-.017-3.287,0A1.9,1.9,0,0,0,40.432,28.7a1.855,1.855,0,0,0,1.128,1.946,3.822,3.822,0,0,0,1.631.153c5.723-.013,11.45,0,17.174-.013,3.82-.013,7.635.06,11.45-.038A1.612,1.612,0,0,0,73.3,29.5a1.587,1.587,0,0,0-.758-1.865,3.371,3.371,0,0,0-1.686-.3H56.864m.009-4.028c4.791,0,9.577-.013,14.367.017a3.244,3.244,0,0,0,1.435-.439,1.4,1.4,0,0,0,.634-1.554,1.354,1.354,0,0,0-.826-1.235,3.154,3.154,0,0,0-1.167-.192q-11,.006-22,0c-2.4,0-4.808.03-7.209-.013-1-.017-2.052,1.29-1.576,2.236a2.028,2.028,0,0,0,1.976,1.184c4.786-.017,9.577-.009,14.363-.009M49.446,45.8v.013c2.227,0,4.45,0,6.677,0a3.615,3.615,0,0,0,.984-.111c1.337-.375,1.955-1.507,1.077-2.687a1.827,1.827,0,0,0-1.631-.681q-7.026-.013-14.044-.013a4.106,4.106,0,0,0-.686.064,1.6,1.6,0,0,0-1.162,2.389,2.016,2.016,0,0,0,1.844,1.013c2.312.026,4.629.009,6.941.009" transform="translate(1.363 2.602)" fill="#fef7eb"/>
        <path id="Path_881664" data-name="Path 881664" d="M1.788,86.932a1.6,1.6,0,0,1,1.7,1.725c.026,2.406.026,4.812.038,7.218a14.473,14.473,0,0,0,.141,2.057,2.879,2.879,0,0,0,2.521,2.082c6.277-.013,12.553.017,18.826.021q25.013.006,50.017,0a3.817,3.817,0,0,0,2.823-.8,3.229,3.229,0,0,0,.941-2.521c.017-5.221.009-10.437.009-15.658V6.92a3.167,3.167,0,0,0-1.235-2.81,4.351,4.351,0,0,0-2.427-.673c-1.128-.043-2.261-.026-3.394-.026Q39.712,3.4,7.677,3.4a5.405,5.405,0,0,0-2.5.434,2.734,2.734,0,0,0-1.61,2.291,21.6,21.6,0,0,0-.043,2.227L3.512,79.578a4.552,4.552,0,0,1-.119,1.307A1.458,1.458,0,0,1,2,82.086c-.294-.072-.592.043-.886-.077a1.736,1.736,0,0,1-1-1.392A11.1,11.1,0,0,1,.059,77.96Q.04,42.721.055,7.477c0-.673,0-1.346.043-2.014A5.04,5.04,0,0,1,.941,3.3,6.247,6.247,0,0,1,4.1.515,8.614,8.614,0,0,1,7.2,0q22.145.026,44.29.013C59.44.013,67.4,0,75.353.021A6.7,6.7,0,0,1,80.3,1.874,6.106,6.106,0,0,1,82.2,6.447c-.017,1.1,0,1.12,1.094,1.1A6.194,6.194,0,0,1,88.192,9.8a6.255,6.255,0,0,1,1.55,3.645,3.277,3.277,0,0,1,.03,1.273c-.072.268.226.366.5.375a8.688,8.688,0,0,1,1.938.094,6.369,6.369,0,0,1,4.1,2.959,8.278,8.278,0,0,1,.975,4.331c.03,2.248.009,4.5.009,6.741q0,33.489,0,66.982a7.814,7.814,0,0,1-.123,1.831,1.464,1.464,0,0,1-1.367,1.346.888.888,0,0,0-.226.119h-.217a1.635,1.635,0,0,1-1.469-1.6,14.1,14.1,0,0,1-.034-1.8q0-31.094,0-62.183,0-5.627,0-11.25a8.414,8.414,0,0,0-.243-2.172c-.324-1.188-1.316-2.1-3.241-2.027-.434.013-.549.115-.545.558.017,3.977.026,7.959,0,11.936a1.825,1.825,0,0,1-1.256,2.023c-.179.068-.4,0-.541.17a1.961,1.961,0,0,1-1.669-1.524c-.132-.818.2-1.678-.2-2.474.4-.349.158-.822.158-1.205q.057-6.981.009-13.959a3.034,3.034,0,0,0-2.342-2.934l-.03-.03-.034.021a4.372,4.372,0,0,0-1.312-.068c-.294-.128-.422.089-.511.294-.043.1.115.077.183.106,0,.213,0,.426,0,.634q0,33.374,0,66.748,0,8.968,0,17.936a7.065,7.065,0,0,1-.315,2.436,6.544,6.544,0,0,1-4.454,4.165,7.553,7.553,0,0,1-2.512.213q-31.445,0-62.89,0c-1.307,0-1.065-.17-1.086,1.039a2.927,2.927,0,0,0,2.632,2.938.068.068,0,0,0,.115.013c.281.009.566.026.847.026q34.39-.006,68.779-.013a2.138,2.138,0,0,0,.52-.013,3,3,0,0,0,2.431-3.117V92.549q0-26.457-.017-52.909a1.805,1.805,0,0,1,1.605-1.869,1.756,1.756,0,0,1,1.665.954,2.785,2.785,0,0,1,.247,1.337q-.006,31.541,0,63.086a11.038,11.038,0,0,1-.2,2.772,6.621,6.621,0,0,1-2.236,3.615,7.2,7.2,0,0,1-4.808,1.478q-27.338-.019-54.672-.009c-3.091,0-6.187.021-9.279.03l-.03-.026-.017.038a4.337,4.337,0,0,0-.051,1,2.955,2.955,0,0,0,2.265,2.9,7.636,7.636,0,0,0,1.669.132q29.9.006,59.8,0c2.265,0,4.527-.047,6.788.021a8.878,8.878,0,0,0,2.308-.136,2.692,2.692,0,0,0,2.1-1.584,5.679,5.679,0,0,0,.388-2.189q-.032-2.657.009-5.306a1.563,1.563,0,0,1,1.482-1.754h.213c1.26.166,1.656.762,1.695,2.006.06,1.976.051,3.96-.013,5.94a6.061,6.061,0,0,1-.95,3.334,6.584,6.584,0,0,1-4.641,2.977,11.989,11.989,0,0,1-1.831.089q-33.693.006-67.391.021a8.27,8.27,0,0,1-2.917-.345,6.7,6.7,0,0,1-4.109-4.071,5.407,5.407,0,0,1-.353-2.4c.043-.549-.2-.66-.669-.639a6.488,6.488,0,0,1-3.347-.826,6.774,6.774,0,0,1-3.419-4.642,6.478,6.478,0,0,1-.1-1.669c0-.3-.089-.4-.388-.4a7.37,7.37,0,0,1-2.176-.2A6.594,6.594,0,0,1,.408,99.077a5.858,5.858,0,0,1-.315-1.895C.025,94.32.008,91.454.085,88.589a1.588,1.588,0,0,1,1.7-1.656" transform="translate(0.001 -0.002)" fill="#060607"/>
        <path id="Path_881665" data-name="Path 881665" d="M81.173,90.005a1.559,1.559,0,0,0-1.482,1.75q-.045,2.657-.009,5.306a5.8,5.8,0,0,1-.388,2.193,2.694,2.694,0,0,1-2.1,1.58,8.867,8.867,0,0,1-2.308.141c-2.257-.072-4.522-.026-6.783-.026H8.3a7.619,7.619,0,0,1-1.669-.136,2.941,2.941,0,0,1-2.265-2.891,4.374,4.374,0,0,1,.051-1l.026.009.021-.017c3.091-.013,6.183-.03,9.279-.034q27.332,0,54.667.013a7.239,7.239,0,0,0,4.808-1.478,6.624,6.624,0,0,0,2.24-3.62,11.206,11.206,0,0,0,.2-2.768q0-31.547,0-63.086a2.811,2.811,0,0,0-.247-1.341,1.759,1.759,0,0,0-1.669-.95.857.857,0,0,0,.111-.558c0-1.354,0-2.713,0-4.067.145-.166.362-.1.537-.17a1.817,1.817,0,0,0,1.256-2.023c.03-3.981.021-7.959,0-11.94,0-.443.115-.541.549-.554,1.92-.068,2.917.835,3.236,2.023a8.089,8.089,0,0,1,.243,2.176V19.782q0,31.094,0,62.188a14.1,14.1,0,0,0,.03,1.8,1.642,1.642,0,0,0,1.473,1.6c-.009.149,0,.285.2.3-.141,1.269-.06,2.546-.085,3.82-.481.068-.277.294-.115.511" transform="translate(14.187 14.12)" fill="#efb499"/>
        <path id="Path_881666" data-name="Path 881666" d="M22.535,24.844c-.162-.217-.366-.443.115-.511.153.149.072.341.1.511h-.213" transform="translate(72.824 79.281)" fill="#a3cff1"/>
        <path id="Path_881667" data-name="Path 881667" d="M22.6,23.671c-.192-.021-.2-.153-.2-.307l.221,0c-.009.1-.013.2-.021.3" transform="translate(72.968 76.124)" fill="#a3cff1"/>
        <path id="Path_881668" data-name="Path 881668" d="M35.283,12.718q-14.844,0-29.7.009A3.9,3.9,0,0,1,1.775,8.941c0-1.043.03-2.087-.009-3.13a3.91,3.91,0,0,1,3.99-4.058c4.05.017,8.095,0,12.145,0q23.493,0,46.986,0a3.916,3.916,0,0,1,3.641,1.874A3.579,3.579,0,0,1,68.94,5.07a29.088,29.088,0,0,1,.1,3.164,5.878,5.878,0,0,1-.255,2.01,3.742,3.742,0,0,1-.979,1.444c-1.09,1.077-2.427,1.052-3.781,1.052H35.283ZM61.2,9.226c1.073.013,2.146.034,3.224.034,1.3,0,1.2.141,1.2-1.18a12.586,12.586,0,0,1,.038-2.27c.089-.473-.017-.549-.383-.554-1.388,0-2.781,0-4.173,0-.2,0-.387-.017-.583-.017q-23.7,0-47.407,0c-2.423,0-4.842.013-7.265,0-.413,0-.6.085-.583.554.038.971.034,1.946,0,2.917-.017.46.141.554.571.554q23.071-.026,46.134-.021c3.079,0,6.153-.013,9.228-.021" transform="translate(5.745 5.71)" fill="#060607"/>
        <path id="Path_881669" data-name="Path 881669" d="M26.232,12.85A20.739,20.739,0,0,1,40.344,19.16a20.048,20.048,0,0,1,5.808,15.385,20.684,20.684,0,0,1-18.57,19.473,20.147,20.147,0,0,1-16.833-6.128,19.7,19.7,0,0,1-5.94-14.1C4.69,21.92,14.381,12.743,26.232,12.85M8.262,33.515a17.128,17.128,0,0,0,18,17.182,16.74,16.74,0,0,0,11.148-4.684,16.959,16.959,0,0,0,5.259-14.687A16.386,16.386,0,0,0,36.882,20.5,17.3,17.3,0,0,0,8.262,33.515" transform="translate(15.665 41.863)" fill="#060607"/>
        <path id="Path_881670" data-name="Path 881670" d="M11.8,31.207c-2.312,0-4.084.072-5.842-.021a4.111,4.111,0,0,1-4-3.313,12.331,12.331,0,0,1-.047-4.3,9.917,9.917,0,0,1,2.091-5.055,8.248,8.248,0,0,1,2.278-2.035c.349-.213.345-.349.136-.634a8.2,8.2,0,0,1-1.329-2.84,5.36,5.36,0,0,1,.221-3.189A6.774,6.774,0,0,1,9.742,5.5a5.482,5.482,0,0,1,2.334-.17,6.341,6.341,0,0,1,4.539,2.44,6.085,6.085,0,0,1,1.346,3.717,6.122,6.122,0,0,1-1.482,4.471c-.136.153-.162.234.034.358a10.613,10.613,0,0,1,2.7,2.5,9.261,9.261,0,0,1,1.614,3.411,15.7,15.7,0,0,1,.3,5.293,4.35,4.35,0,0,1-3.79,3.607c-2.027.2-4.05.013-5.531.089m-.277-3.483v.009c1.784,0,3.568,0,5.353,0,.694,0,.792-.1.788-.809q-.006-1.431-.034-2.862a4.908,4.908,0,0,0-.328-1.691,6.224,6.224,0,0,0-9.743-2.644,6.1,6.1,0,0,0-2.214,3.956,21.948,21.948,0,0,0-.026,3.177c0,.762.072.856.852.86,1.784.013,3.568,0,5.353,0m-.1-18.9a3,3,0,1,0,.081,6,3.1,3.1,0,0,0,3.04-3.138,2.934,2.934,0,0,0-3.121-2.862" transform="translate(5.698 17.199)" fill="#060607"/>
        <path id="Path_881671" data-name="Path 881671" d="M26.256,12.238q-7.211,0-14.423,0a1.952,1.952,0,0,1-1.9-1.167c-.451-.869.447-2.023,1.111-2.18a5.732,5.732,0,0,1,1.35-.119q14.027.006,28.053.013c.873,0,1.81.081,2.142,1.1a1.575,1.575,0,0,1-1.277,2.3,14.9,14.9,0,0,1-2.542.017q-6.26.006-12.515,0v.034" transform="translate(31.971 28.593)" fill="#060607"/>
        <path id="Path_881672" data-name="Path 881672" d="M26.269,7.033h14a3.309,3.309,0,0,1,1.682.3A1.582,1.582,0,0,1,42.706,9.2a1.607,1.607,0,0,1-1.482,1.243c-3.82.1-7.635.03-11.45.043-5.727.013-11.45,0-17.178.013a3.738,3.738,0,0,1-1.627-.158A1.85,1.85,0,0,1,9.837,8.391a1.894,1.894,0,0,1,1.852-1.35c1.1-.021,2.193,0,3.287,0H26.269Z" transform="translate(31.954 22.905)" fill="#060607"/>
        <path id="Path_881673" data-name="Path 881673" d="M26.268,8.695c-4.786,0-9.577-.009-14.363.009A2.008,2.008,0,0,1,9.929,7.52c-.477-.945.579-2.253,1.576-2.236,2.4.043,4.8.013,7.209.013q10.993,0,21.994,0a3.267,3.267,0,0,1,1.171.192,1.354,1.354,0,0,1,.826,1.235,1.4,1.4,0,0,1-.634,1.554,3.245,3.245,0,0,1-1.439.439c-4.786-.03-9.577-.017-14.363-.017" transform="translate(31.968 17.215)" fill="#060607"/>
        <path id="Path_881674" data-name="Path 881674" d="M11.084,6.577c.094,1.818.017,3.637.021,5.455q.032,8.732.026,17.472c-.089.081-.387.03-.2.3.119.43-.187.669-.451.873a1.585,1.585,0,0,1-1.6.319A1.779,1.779,0,0,1,7.664,29.38c-.038-.656-.013-1.312-.013-1.963q0-10.162,0-20.32a1.764,1.764,0,0,1,1.886-1.8,1.732,1.732,0,0,1,1.524,1.184l-.017.034.038.064" transform="translate(24.903 17.221)" fill="#060607"/>
        <path id="Path_881675" data-name="Path 881675" d="M18.821,14.026c-2.312,0-4.629.017-6.941-.009A2.016,2.016,0,0,1,10.036,13,1.6,1.6,0,0,1,11.2,10.615a4.106,4.106,0,0,1,.686-.064q7.02,0,14.044.013a1.827,1.827,0,0,1,1.631.681c.877,1.18.26,2.312-1.077,2.687a3.615,3.615,0,0,1-.984.111c-2.227-.009-4.45,0-6.677,0v-.013" transform="translate(31.989 34.376)" fill="#060607"/>
        <path id="Path_881676" data-name="Path 881676" d="M8.464,11.271c-.192-.268.106-.217.2-.3.043.175.043.319-.2.3" transform="translate(27.373 35.751)" fill="#5eaf7f"/>
        <path id="Path_881677" data-name="Path 881677" d="M8.48,5.664,8.442,5.6l.017-.034.047.064-.026.034" transform="translate(27.506 18.134)" fill="#5eaf7f"/>
        <path id="Path_881678" data-name="Path 881678" d="M79.607,24.763c0,1.354,0,2.713,0,4.067a.857.857,0,0,1-.111.558,1.8,1.8,0,0,0-1.6,1.869q.038,26.45.017,52.9V96a2.99,2.99,0,0,1-2.431,3.113,1.949,1.949,0,0,1-.52.017q-34.39.006-68.779.009c-.285,0-.566-.017-.847-.021-.034-.055-.072-.06-.115-.017a2.921,2.921,0,0,1-2.632-2.938c.021-1.209-.221-1.039,1.086-1.039q31.445-.006,62.89,0a7.641,7.641,0,0,0,2.508-.213,7.087,7.087,0,0,0,2.6-1.4,7.006,7.006,0,0,0,1.857-2.768,7.158,7.158,0,0,0,.315-2.431q.006-8.968,0-17.936V2.991a.4.4,0,0,1,.328-.4,4.244,4.244,0,0,1,1.312.068l.03.021.034-.017A3.038,3.038,0,0,1,77.9,5.6q.038,6.981-.009,13.959c0,.383.243.856-.158,1.209.4.8.072,1.652.2,2.474a1.961,1.961,0,0,0,1.669,1.524" transform="translate(8.428 8.381)" fill="#ffe2b7"/>
        <path id="Path_881679" data-name="Path 881679" d="M19.8,2.606a.4.4,0,0,0-.328.4c-.068-.03-.23-.013-.183-.111.089-.2.213-.417.511-.29" transform="translate(62.813 8.366)" fill="#5eaf7f"/>
        <path id="Path_881680" data-name="Path 881680" d="M19.772,2.614l-.034.017-.03-.026.034-.017Z" transform="translate(64.214 8.432)" fill="#5eaf7f"/>
        <path id="Path_881681" data-name="Path 881681" d="M3.206,25.263q.064-.064.115.013a.068.068,0,0,1-.115-.013" transform="translate(10.446 82.218)" fill="#5eaf7f"/>
        <rect id="Rectangle_403357" data-name="Rectangle 403357" width="0.034" height="0.034" transform="translate(18.599 111.033) rotate(-45)" fill="#5eaf7f"/>
        <path id="Path_881682" data-name="Path 881682" d="M58.519,6.558c-3.074.009-6.149.021-9.228.021Q26.227,6.585,3.158,6.6c-.43,0-.588-.094-.571-.554.034-.971.038-1.946,0-2.917-.017-.468.17-.558.583-.554,2.423.009,4.842,0,7.265,0q23.7,0,47.407,0c.2,0,.388.013.583.017a1.287,1.287,0,0,1,.085.622c0,1.116,0,2.227.009,3.343" transform="translate(8.425 8.379)" fill="#77b9e8"/>
        <path id="Path_881683" data-name="Path 881683" d="M15.793,6.546c0-1.116-.009-2.227-.009-3.343a1.287,1.287,0,0,0-.085-.622c1.392,0,2.785-.009,4.173,0,.366,0,.473.081.383.554a12.585,12.585,0,0,0-.038,2.27c0,1.32.1,1.184-1.2,1.18-1.077,0-2.15-.021-3.224-.034" transform="translate(51.151 8.39)" fill="#5eaf7f"/>
        <path id="Path_881684" data-name="Path 881684" d="M5.62,30.881a17.3,17.3,0,0,1,28.62-13.017,16.386,16.386,0,0,1,5.791,10.824,16.934,16.934,0,0,1-5.263,14.691,16.711,16.711,0,0,1-11.14,4.684A17.131,17.131,0,0,1,5.62,30.881M20.541,41.735A5.666,5.666,0,0,0,24.9,40.117c1.116-1.12,2.2-2.282,3.338-3.377,1.95-1.869,3.841-3.8,5.749-5.71a4.918,4.918,0,0,0,1.456-3.637,5.436,5.436,0,0,0-9.172-3.969c-1.546,1.618-3.2,3.134-4.774,4.727-.366.37-.579.294-.886-.017a16.607,16.607,0,0,0-1.635-1.507,5.437,5.437,0,0,0-6.962,8.325c1.61,1.567,3.172,3.177,4.761,4.765a5.682,5.682,0,0,0,3.769,2.018" transform="translate(18.307 44.497)" fill="#5eaf7f"/>
        <path id="Path_881685" data-name="Path 881685" d="M8.827,17.734c-1.784,0-3.568.009-5.353,0-.775,0-.847-.1-.852-.86a21.945,21.945,0,0,1,.03-3.177,6.091,6.091,0,0,1,2.21-3.956,6.224,6.224,0,0,1,9.743,2.644,4.908,4.908,0,0,1,.328,1.691q.026,1.431.034,2.862c0,.707-.089.8-.788.809-1.784,0-3.568,0-5.353,0Z" transform="translate(8.394 27.188)" fill="#5eaf7f"/>
        <path id="Path_881686" data-name="Path 881686" d="M6.331,6.123A2.934,2.934,0,0,1,9.453,8.985a3.1,3.1,0,0,1-3.04,3.138,3,3,0,1,1-.081-6" transform="translate(10.795 19.902)" fill="#f5f4f4"/>
        <path id="Path_881687" data-name="Path 881687" d="M16.962,35.373a5.7,5.7,0,0,1-3.773-2.018c-1.584-1.588-3.151-3.2-4.756-4.765a5.436,5.436,0,0,1,6.958-8.325,15.7,15.7,0,0,1,1.635,1.507c.311.311.52.388.89.017,1.571-1.593,3.228-3.109,4.769-4.727a5.434,5.434,0,0,1,9.172,3.964,4.934,4.934,0,0,1-1.452,3.641c-1.908,1.912-3.8,3.841-5.749,5.71-1.145,1.094-2.223,2.257-3.343,3.377a5.656,5.656,0,0,1-4.352,1.618M10.128,24.766a1.353,1.353,0,0,0,.264.86A15.339,15.339,0,0,0,11.75,27.1c1.409,1.405,2.806,2.827,4.216,4.228a1.772,1.772,0,0,0,1.656.558,2.873,2.873,0,0,0,1.656-.933q4.209-4.216,8.414-8.431a3.859,3.859,0,0,0,.72-1.06A2.084,2.084,0,0,0,27.144,19.1a2.512,2.512,0,0,0-2.623.835c-1.831,1.895-3.713,3.743-5.574,5.6a2.623,2.623,0,0,1-.609.5c-.37.192-.788.485-1.2.311a3.82,3.82,0,0,1-1.231-.89q-1.041-1.086-2.142-2.129a2.066,2.066,0,0,0-1.214-.647,2.032,2.032,0,0,0-2.427,2.082" transform="translate(21.886 50.859)" fill="#060607"/>
        <path id="Path_881688" data-name="Path 881688" d="M7.519,22.169a2.032,2.032,0,0,1,2.427-2.082,2.066,2.066,0,0,1,1.214.647q1.1,1.041,2.142,2.129a3.82,3.82,0,0,0,1.231.89c.409.175.826-.119,1.2-.311a2.623,2.623,0,0,0,.609-.5c1.861-1.861,3.743-3.709,5.574-5.6a2.512,2.512,0,0,1,2.623-.835A2.084,2.084,0,0,1,25.8,18.864a3.859,3.859,0,0,1-.72,1.06q-4.216,4.2-8.414,8.431a2.873,2.873,0,0,1-1.656.933,1.772,1.772,0,0,1-1.656-.558c-1.409-1.4-2.806-2.823-4.216-4.228a15.338,15.338,0,0,1-1.358-1.473,1.353,1.353,0,0,1-.264-.86" transform="translate(24.495 53.456)" fill="#e2f1fc"/>
      </g>
    </g>
  </g>
</svg>
