<svg xmlns="http://www.w3.org/2000/svg" xmlns:xlink="http://www.w3.org/1999/xlink" width="295" height="269" viewBox="0 0 295 269">
  <defs>
    <clipPath id="clip-path">
      <rect id="Rectangle_403602" data-name="Rectangle 403602" width="295" height="269" transform="translate(285 920)" fill="#fff"/>
    </clipPath>
    <clipPath id="clip-path-2">
      <path id="Path_880707" data-name="Path 880707" d="M343.22,122.409a93.864,93.864,0,1,1-93.864-93.864,93.864,93.864,0,0,1,93.864,93.864" transform="translate(-155.492 -28.545)" fill="none"/>
    </clipPath>
    <clipPath id="clip-path-3">
      <rect id="Rectangle_403209" data-name="Rectangle 403209" width="82.604" height="118.309" fill="none"/>
    </clipPath>
    <clipPath id="clip-path-4">
      <rect id="Rectangle_403210" data-name="Rectangle 403210" width="107.86" height="149.804" fill="none"/>
    </clipPath>
    <clipPath id="clip-path-5">
      <rect id="Rectangle_403211" data-name="Rectangle 403211" width="187.728" height="110.957" fill="none"/>
    </clipPath>
    <clipPath id="clip-path-6">
      <rect id="Rectangle_403212" data-name="Rectangle 403212" width="115.472" height="76.187" fill="none"/>
    </clipPath>
    <clipPath id="clip-path-7">
      <rect id="Rectangle_403220" data-name="Rectangle 403220" width="173.655" height="19.772" fill="none"/>
    </clipPath>
    <clipPath id="clip-path-8">
      <rect id="Rectangle_403221" data-name="Rectangle 403221" width="42.426" height="85.496" fill="none"/>
    </clipPath>
    <clipPath id="clip-path-9">
      <rect id="Rectangle_403222" data-name="Rectangle 403222" width="9.661" height="5.464" fill="none"/>
    </clipPath>
    <clipPath id="clip-path-10">
      <rect id="Rectangle_403223" data-name="Rectangle 403223" width="15.715" height="47.204" fill="none"/>
    </clipPath>
    <clipPath id="clip-path-11">
      <rect id="Rectangle_403224" data-name="Rectangle 403224" width="19.337" height="43.388" fill="none"/>
    </clipPath>
    <clipPath id="clip-path-12">
      <rect id="Rectangle_403225" data-name="Rectangle 403225" width="7.359" height="9.69" fill="none"/>
    </clipPath>
    <clipPath id="clip-path-13">
      <rect id="Rectangle_403226" data-name="Rectangle 403226" width="5.361" height="13.122" fill="none"/>
    </clipPath>
    <clipPath id="clip-path-14">
      <rect id="Rectangle_403227" data-name="Rectangle 403227" width="23.081" height="10.384" fill="none"/>
    </clipPath>
    <clipPath id="clip-path-15">
      <rect id="Rectangle_403229" data-name="Rectangle 403229" width="9.763" height="19.076" fill="none"/>
    </clipPath>
    <clipPath id="clip-path-16">
      <rect id="Rectangle_403241" data-name="Rectangle 403241" width="142.89" height="2.147" fill="none"/>
    </clipPath>
    <clipPath id="clip-path-17">
      <rect id="Rectangle_403250" data-name="Rectangle 403250" width="4.69" height="2.699" fill="none"/>
    </clipPath>
    <clipPath id="clip-path-18">
      <rect id="Rectangle_403251" data-name="Rectangle 403251" width="1.512" height="2.439" fill="none"/>
    </clipPath>
    <clipPath id="clip-path-19">
      <rect id="Rectangle_403253" data-name="Rectangle 403253" width="65.237" height="14.534" fill="none"/>
    </clipPath>
  </defs>
  <g id="Mask_Group_1101506" data-name="Mask Group 1101506" transform="translate(-285 -920)" clip-path="url(#clip-path)">
    <g id="Group_1102209" data-name="Group 1102209" transform="translate(4.297 -27.481)">
      <circle id="Ellipse_11532" data-name="Ellipse 11532" cx="102.059" cy="102.059" r="102.059" transform="translate(327.17 953.88)" fill="none" stroke="#7d3a1b" stroke-linecap="round" stroke-miterlimit="10" stroke-width="1.974" stroke-dasharray="23.679 12.262"/>
      <path id="Path_880683" data-name="Path 880683" d="M804.684,315.257l-1.714-1.01V313.5a.479.479,0,1,0-.959,0v.178l-.714-.421v-.678a.479.479,0,0,0-.959,0v.113l-1.884-1.11c.032-2.687-.2-4.951-1.1-4.872-.895-.079-1.128,2.185-1.1,4.872l-1.884,1.11v-.113a.48.48,0,0,0-.959,0v.678l-.714.421V313.5a.479.479,0,0,0-.959,0v.743l-1.714,1.01a.385.385,0,0,0-.19.332v.657a.187.187,0,0,0,.231.182l6.331-1.507c.115,1.715.271,3.29.371,4.246l-2.32,2.344v.726l2.673-1.211c.119.2.229.226.229.226s.111-.029.229-.226l2.673,1.211v-.726l-2.32-2.344c.1-.955.256-2.531.371-4.246l6.331,1.507a.187.187,0,0,0,.231-.182v-.657a.385.385,0,0,0-.19-.332" transform="translate(-265.84 738.082)" fill="#7d3a1b"/>
      <path id="Path_880684" data-name="Path 880684" d="M215.495,71.579l.556,1.91-.509.541a.479.479,0,0,0,.7.657l.122-.129.232.8-.465.494a.479.479,0,1,0,.7.657l.077-.082.611,2.1c-1.865,1.936-3.246,3.744-2.54,4.3.6.67,2.319-.818,4.137-2.8l2.133.482-.078.082a.479.479,0,1,0,.7.657l.465-.494.808.183-.122.129a.479.479,0,1,0,.7.657l.509-.541,1.941.439a.386.386,0,0,0,.366-.112l.45-.478a.187.187,0,0,0-.043-.291l-5.644-3.24c1.091-1.327,2.057-2.582,2.639-3.347l3.3-.117.5-.529-2.777-.95a.229.229,0,0,0-.334-.314L223.5,69.526l-.5.528.084,3.3c-.727.627-1.921,1.668-3.18,2.838l-3.578-5.436a.187.187,0,0,0-.293-.025l-.45.478a.386.386,0,0,0-.09.372" transform="translate(138.209 904.736)" fill="#7d3a1b"/>
      <path id="Path_880685" data-name="Path 880685" d="M343.219,122.409a93.864,93.864,0,1,1-93.864-93.864,93.864,93.864,0,0,1,93.864,93.864" transform="translate(179.873 933.53)" fill="#ffe9df"/>
      <g id="Group_1101545" data-name="Group 1101545" transform="translate(335.364 962.075)">
        <g id="Group_1101544" data-name="Group 1101544" clip-path="url(#clip-path-2)">
          <g id="Group_1101540" data-name="Group 1101540" transform="translate(121.833 40.075)" opacity="0.81">
            <g id="Group_1101539" data-name="Group 1101539">
              <g id="Group_1101538" data-name="Group 1101538" clip-path="url(#clip-path-3)">
                <path id="Path_880686" data-name="Path 880686" d="M619.852,164.689a26.216,26.216,0,0,1-16.387.6c-8.554-2.683-15.341-3.478-18.025,3.075s.474,7.185-6.63,8.448-7.577,4.735-5.052,9.945,3.951,8.8-.471,12.768-7.737,5.86-6,9.569-1.989,8.76-1.547,16.179-2.715,9.787,2.494,13.26,6.63,10.892,10.261,10.418,8.366,1.482,4.1,4.845-2.684,18.043,3.157,19.937,20.837,9,27.624,7.735,21.784-27.032,21.784-27.032,12.313-69.686,12.628-71.524-27.94-18.223-27.94-18.223" transform="translate(-565.191 -163.309)" fill="#fff"/>
              </g>
            </g>
          </g>
          <g id="Group_1101543" data-name="Group 1101543" transform="translate(-27.215 36.765)" opacity="0.81">
            <g id="Group_1101542" data-name="Group 1101542">
              <g id="Group_1101541" data-name="Group 1101541" clip-path="url(#clip-path-4)">
                <path id="Path_880687" data-name="Path 880687" d="M103.042,154.47s11.129-2.127,17.521-.708,7.814.447,15.864-.488,24.862-1.906,26.756,0,5.919,4.274,1.421,8.536-8.761,6.157-3.788,9.471,10.181,4.736,10.892,8.524-1.635,7.447-6.145,8.341-11.614-2.551-16.112,0-4.167,7.333-7.056,9.441-4.184-1.281-4.957,3.491.884,5.71-4.325,9.977-12.309,7.584-11.126,12.2.462,6.274,6.86,5.8,9.1-1.214,13.549,4.01,4.451,4.045,7.766,5.346,5.754,5.8,5.482,10.771-4.3,9.585-3.35,14.382-8.524,29.185-8.524,29.185l-30.5,9.235s-49.3-64.809-49.3-65.435,14.207-79.679,14.207-79.679Z" transform="translate(-63.974 -152.179)" fill="#fff"/>
              </g>
            </g>
          </g>
          <path id="Path_880688" data-name="Path 880688" d="M123.935,162.02s11.366-3.273,18-1.411,12.312-1.689,17.758-2.4,24.862-1.514,24.862,1.019-2.934,7.123-3.48,10.629-2.44,6.347-1.019,7.768a19.844,19.844,0,0,0,5.446,4.025c3.315,1.894,5.446,6.156,1.184,8.524s-8.761,0-11.6-.947-1.657-1.038-6.867,1.967-3.788,8.924-8.524,7.267-8.4-2.5-5.264.288,4.791,4.417,2.66,7.274a20.653,20.653,0,0,0-3.552,6.256c-.474,1.573-5.209,7.463-6.393,7.714s-1.65-.322-4.021,2.806-6.228,4.1-5.839,6.457,2.689,8.717,6.038,7.549-.2-2.986,7.611-.894,7.814.978,11.839,4.377,5.92,4.583,8.287,4.583a6.449,6.449,0,0,1,6.521,6.867c-.128,5.209-1.312,6.174-2.733,8.3s0,7.2-3.552,10.461-10.182,17.532-10.182,17.532l-10.892,8.462-52.8-38.106,18.232-92.123Z" transform="translate(-114.686 -119.153)" fill="#ffe7ba"/>
          <path id="Path_880689" data-name="Path 880689" d="M626.6,180.392s-4.848,4.9-9.234,3.4-7.814-5.055-14.207-2.687-6.393,5.209-9.708,8.05-3.315,2.841-6.393,3.552-4.972,3.789-2.6,6.393,4.972,4.735,1.42,6.867-5.214,3.76-4.5,7.577c.237,1.894.71.981-2.131,2.621s-2.284,4.761-1.971,6.752.077,2.982-3,5.683-4.354,6.209-2.641,7.422.2,2.152,0,4.516-1.148,3.984,2.878,6.726,8.05,8.9,10.181,6.768.947-4.9,4.025-2.093,5.683,4.173,3.078,10.236-2.261,9.41.764,12.236,1.841,5.453,8,7.809,12.614-.253,15.864-.945,14.207-5.861,14.207-5.861L653.12,203.6Z" transform="translate(-447.344 -135.179)" fill="#ffe9df"/>
          <path id="Path_880690" data-name="Path 880690" d="M39.2,254.1l4.021-.307a.324.324,0,0,0,.216-.106A2.494,2.494,0,0,1,46.1,253l1,.341a.324.324,0,0,0,.141.015L53,252.723a.324.324,0,0,0,.251-.169l.878-1.622a.326.326,0,0,0-.124-.437l-1.919-1.107a.326.326,0,0,1-.161-.315l.167-1.629a.325.325,0,0,1,.288-.291l1.827-.2a.325.325,0,0,1,.343.215l.756,2.133a.333.333,0,0,0,.051.093l1.385,1.755a.326.326,0,0,0,.541-.045l.28-.512a.325.325,0,0,1,.592.047l.6,1.687a.325.325,0,0,0,.581.065l1.057-1.666a.326.326,0,0,0,.01-.332l-.487-.883a.325.325,0,0,1,.354-.475l2.778.6a.325.325,0,0,1,.148.561l-.254.228a.325.325,0,0,0-.05.428l.747,1.071a.325.325,0,0,1-.021.4L62.1,254.09a.325.325,0,0,0-.039.37l.7,1.265a.325.325,0,0,1-.055.387l-.995.993a.326.326,0,0,1-.38.059l-1.022-.531a.326.326,0,0,1-.176-.3l.022-.687a.325.325,0,0,0-.6-.185l-.342.54a.329.329,0,0,1-.075.082L57.66,257.23a.326.326,0,0,0-.056.459l.256.325a.325.325,0,0,1-.247.527l-.988.026a.326.326,0,0,0-.231.105l-1.9,2.073a.326.326,0,0,0-.073.311l.522,1.789a.325.325,0,0,0,.522.158.326.326,0,0,1,.53.194l.243,1.4a.326.326,0,0,0,.426.252l.845-.288a.327.327,0,0,1,.167-.011l6.086,1.175a.325.325,0,0,1,.25.228l.62,2.123a.33.33,0,0,0,.156.2l1.94,1.073a.329.329,0,0,0,.481-.355l-.486-2.344,1.8-1.942a.325.325,0,0,0,.016-.424l-1.728-2.169a.325.325,0,0,1,0-.407l.714-.89a.326.326,0,0,0,0-.413l-1.6-1.91a.326.326,0,0,1,.117-.506l3.018-1.345a.328.328,0,0,1,.249-.006l4.126,1.59a.325.325,0,0,1,.205.348l-.192,1.409a.327.327,0,0,0,.073.253l.758.9a.325.325,0,0,0,.409.074l1.6-.9a.326.326,0,0,0,.154-.2l.291-1.1a.326.326,0,0,1,.594-.084l2.448,4.1a.327.327,0,0,0,.182.144l2.339.731,3.629,2.072a.329.329,0,0,1,.066.522L84.219,268.2a.339.339,0,0,1-.1.066l-2.771,1.188a.315.315,0,0,0-.079.048l-2.515,2.064a.329.329,0,0,0-.084.405l.584,1.131a.329.329,0,0,0,.384.165l2.277-.659a.329.329,0,0,1,.419.28l.085.776a.328.328,0,0,1-.213.344l-2.19.811a.331.331,0,0,0-.136.095l-1.463,1.708a.329.329,0,0,1-.549-.076l-.241-.524a.329.329,0,0,1-.006-.261l.354-.877a.329.329,0,0,0-.442-.422l-2.458,1.131a.33.33,0,0,0-.183.224l-.462,1.976a.329.329,0,0,1-.168.217l-1.936,1.009a.327.327,0,0,0-.175.254l-.5,4.312a.327.327,0,0,1-.138.232l-3.444,2.413a.33.33,0,0,0-.126.366l1.324,4.331a.331.331,0,0,1-.014.23l-.422.949a.329.329,0,0,1-.585.032l-1.516-2.6a.331.331,0,0,0-.276-.163l-4.873-.127a.329.329,0,0,0-.265.535.329.329,0,0,1-.338.525l-2.086-.531a.331.331,0,0,0-.319.091l-3.343,3.494a.329.329,0,0,0-.059.369l2.2,4.592a.329.329,0,0,0,.265.186l2.781.267a.329.329,0,0,0,.311-.154l1.049-1.687a.329.329,0,0,1,.18-.14l1.989-.63a.329.329,0,0,1,.428.308l.055,3.4a.329.329,0,0,0,.34.324l2.685-.088a.329.329,0,0,1,.339.353l-.236,3.189,1.217,1.568,3.725-.189a1.457,1.457,0,0,0,1.1-.6l.77-1.055a1.456,1.456,0,0,1,1.016-.589l2-.22a1.46,1.46,0,0,1,.829.155l.536.278a1.455,1.455,0,0,0,1.22.056l2.064-.843a1.455,1.455,0,0,1,1.055-.018l8.467,3.131a1.455,1.455,0,0,1,.757.639l1.465,2.548a1.456,1.456,0,0,0,1.032.711l10.658,1.7a1.456,1.456,0,0,1,1.217,1.278l.266,2.426a1.454,1.454,0,0,1-.463,1.231l-2.282,2.093a1.458,1.458,0,0,0-.47,1l-.3,5.982a1.456,1.456,0,0,1-.861,1.256l-4.307,1.92a1.454,1.454,0,0,0-.79.872l-2.406,7.278a1.456,1.456,0,0,1-1.112.973l-.885.167A1.455,1.455,0,0,0,91.9,338.99a1.456,1.456,0,0,1-.533,1.292l-4.5,3.629a1.457,1.457,0,0,0-.5.791l-1.909,7.9a1.457,1.457,0,0,0,.084.932l.892,2.01a1.455,1.455,0,0,1-1.614,2.017l-1.046-.208a1.455,1.455,0,0,1-1.109-1.006l-2.69-8.9a1.455,1.455,0,0,1-.061-.48l.5-12.512.387-8.205a1.455,1.455,0,0,0-.8-1.371l-2.4-1.2a1.452,1.452,0,0,1-.5-.411l-4.88-6.3a1.456,1.456,0,0,1-.283-.642l-.455-2.622a1.455,1.455,0,0,1,.45-1.322l2.135-1.959a1.454,1.454,0,0,0,.463-1.231l-.15-1.372a1.455,1.455,0,0,0-1.605-1.287l-1.29.142a1.456,1.456,0,0,1-.663-.081l-3.175-1.174L64.7,303l-2.841.312-2.526-1.6a.327.327,0,0,0-.107-.044L51.3,299.961a.33.33,0,0,1-.191-.12l-5.05-6.547a.329.329,0,0,0-.558.342L46.147,295a.329.329,0,0,1-.534.369l-5.1-5.285-6.252-6.741.351-7.707-7.309-3.27-4.65-5.24-7.134-1.537a.716.716,0,0,0-.443.046L8.314,268.67a.7.7,0,0,1-.214.058l-2.281.251a.717.717,0,0,1-.4-.073L.738,266.539A.715.715,0,0,1,.6,265.353L3.413,263a.715.715,0,0,0-.224-1.223l-1.054-.367a.715.715,0,0,1,.157-1.386.715.715,0,0,0,.17-1.381L.467,257.9a.715.715,0,0,1-.04-1.325l4.121-1.811a10.261,10.261,0,0,1,4.724-.85l10.277.6a9.547,9.547,0,0,0,5.457-1.339,9.548,9.548,0,0,1,6.192-1.267l7.177.979a.325.325,0,0,1,.268.23l.222.75a.325.325,0,0,0,.337.232" transform="translate(-46.239 -182.003)" fill="#7a4f00"/>
          <path id="Path_880691" data-name="Path 880691" d="M193.735,234.77l-.111.478a1.5,1.5,0,0,0,1.194,1.809l5.889,1.051a1.5,1.5,0,0,1,.521.2l2.047,1.259a1.5,1.5,0,0,1,.69,1.02l.574,3.344a1.5,1.5,0,0,0,.875,1.118l5.019,2.193a1.5,1.5,0,0,0,2.037-.959l.417-1.455a1.488,1.488,0,0,1,.249-.5l1.021-1.339a1.5,1.5,0,0,0-.848-2.363l-1.9-.444a1.5,1.5,0,0,1-1.145-1.292,1.5,1.5,0,0,0-.878-1.2l-4.6-2.045a1.506,1.506,0,0,1-.419-.279l-2.126-2.008a1.494,1.494,0,0,0-1.19-.4l-6.026.662a1.5,1.5,0,0,0-1.293,1.15" transform="translate(-182.258 -172.165)" fill="#168272"/>
          <path id="Path_880692" data-name="Path 880692" d="M178.166,236.977l-.964.106a.84.84,0,0,0-.743.927l.042.382a.84.84,0,0,0,.927.743l.623-.069a.84.84,0,0,0,.592-.347l.3-.419a.84.84,0,0,0-.776-1.323" transform="translate(-170.22 -174.991)" fill="#168272"/>
          <path id="Path_880693" data-name="Path 880693" d="M163.239,242.22l.747-1.093a.841.841,0,0,0,.062-.841l-.412-.848a.84.84,0,0,0-1.047-.42l-1.885.7a.84.84,0,0,0-.234,1.443l1.551,1.244a.84.84,0,0,0,1.219-.182" transform="translate(-158.767 -176.392)" fill="#168272"/>
          <path id="Path_880694" data-name="Path 880694" d="M109.728,242.821,102.582,242a1.483,1.483,0,0,0-1.559.958l-.333.9a1.482,1.482,0,0,0,.571,1.75l.314.208a1.483,1.483,0,0,0,1.333.154l1.04-.385a1.483,1.483,0,0,1,1.065.014l1.61.644a1.474,1.474,0,0,1,.348.2l2.572,1.962a1.483,1.483,0,0,0,1.447.2l2.932-1.166a1.481,1.481,0,0,1,.842-.076l2.7.548a1.482,1.482,0,0,0,1.062-2.721l-1.435-.868a1.485,1.485,0,0,1-.623-.754l-.394-1.064a1.482,1.482,0,0,0-1.811-.907l-3.947,1.17a1.48,1.48,0,0,1-.59.051" transform="translate(-116.922 -178.199)" fill="#427824"/>
          <path id="Path_880695" data-name="Path 880695" d="M108.491,227.492l5.675,1.727a.717.717,0,0,0,.434-.005l3.767-1.251a.716.716,0,0,0-.139-1.391l-3.478-.423a.71.71,0,0,1-.159-.038l-3.365-1.228a.716.716,0,0,0-.59.045l-2.281,1.252a.716.716,0,0,0,.136,1.314" transform="translate(-122.111 -166.466)" fill="#427824"/>
          <path id="Path_880696" data-name="Path 880696" d="M127.446,218.2l.195.186a.84.84,0,0,0,.892.172l1.712-.686a.84.84,0,0,0,.523-.872l-.028-.248a.84.84,0,0,0-1.145-.689l-1.879.748a.84.84,0,0,0-.27,1.388" transform="translate(-135.603 -160.258)" fill="#427824"/>
          <path id="Path_880697" data-name="Path 880697" d="M156.344,223.229l2,1.71a.842.842,0,0,0,.5.2l2.59.152a.84.84,0,0,0,.782-1.25l-.27-.481a.84.84,0,0,0-.825-.424l-.716.079a.841.841,0,0,1-.776-.347l-.655-.918a.841.841,0,0,0-.776-.347l-1.394.153a.84.84,0,0,0-.455,1.473" transform="translate(-155.883 -164.189)" fill="#168272"/>
          <path id="Path_880698" data-name="Path 880698" d="M170.064,195.155l8.858-.974a.3.3,0,0,0,.268-.334l-.171-1.553a.3.3,0,0,0-.3-.27l-2.483.012a.3.3,0,0,0-.118.025l-3.551,1.527a.3.3,0,0,1-.36-.094l-.522-.681a.3.3,0,0,1,.076-.439l1.171-.756a.306.306,0,0,1,.167-.048l6.4.061a.3.3,0,0,0,.3-.336l-.15-1.359a.3.3,0,0,1,.075-.234l2.16-2.434a.3.3,0,0,0-.26-.5.3.3,0,0,1-.175-.569l2.1-1.12.029-.018,3.559-2.452.026-.016,3.906-2.134a.3.3,0,0,0-.111-.567l-8.9-1.019a.3.3,0,0,0-.124.011l-12.821,3.948a.3.3,0,0,0-.08.541l1.477.995a.3.3,0,0,0,.176.052l4.88-.1a.307.307,0,0,0,.106-.022l.966-.389a.3.3,0,0,1,.285.53l-1.282.883a.3.3,0,0,1-.121.049l-2.35.4a.3.3,0,0,1-.118,0l-4.309-.975a.3.3,0,0,1-.084-.032l-1.553-.888a.3.3,0,0,0-.3,0l-3.1,1.734a.3.3,0,0,0-.048.5l2.72,2.3a.3.3,0,0,0,.12.062l3.625.94a.3.3,0,0,0,.236-.036l2.32-1.444a.3.3,0,0,1,.421.41l-.969,1.657a.3.3,0,0,1-.092.1l-2.448,1.653a.3.3,0,0,1-.255.04l-3.106-.911a.3.3,0,0,0-.386.324l.1.923a.3.3,0,0,0,.263.267l2.375.3a.3.3,0,0,1,.24.179l.931,2.126a.3.3,0,0,0,.31.18" transform="translate(-161.154 -134.165)" fill="#7a4f00"/>
          <path id="Path_880699" data-name="Path 880699" d="M148.341,214.093h0a.841.841,0,0,0,.518.229l2.346.171a.84.84,0,0,0,.74-1.333l-.173-.236a.839.839,0,0,0-.7-.344l-2.174.065a.84.84,0,0,0-.554,1.448" transform="translate(-150.283 -157.853)" fill="#427824"/>
          <path id="Path_880700" data-name="Path 880700" d="M166.2,211.494l.043.085a.84.84,0,0,0,.841.456l.066-.007a.84.84,0,0,0,.523-1.408l-.076-.081a.84.84,0,0,0-.707-.262l-.033,0a.84.84,0,0,0-.658,1.214" transform="translate(-162.949 -156.231)" fill="#427824"/>
          <path id="Path_880701" data-name="Path 880701" d="M236.068,183.942l5.283-.332a1.188,1.188,0,0,1,.8.246l6.292,4.873a1.19,1.19,0,0,1,.418.627l3.024,11.116a1.189,1.189,0,0,0,.347.566l1.773,1.614a1.187,1.187,0,0,0,1.922-.493l1.616-4.712a1.188,1.188,0,0,1,.993-.8l2.12-.233a1.188,1.188,0,0,0,.832-.484l2.058-2.842a1.186,1.186,0,0,1,.445-.372l5.269-2.548a1.188,1.188,0,0,0,.579-.612l2.826-6.77a1.188,1.188,0,0,0-.012-.942l-2.218-4.964a1.187,1.187,0,0,1,.365-1.429l4.513-3.433a1.187,1.187,0,0,0-.593-2.126l-4.441-.474c-.031,0-.061-.005-.092-.006l-12.731-.362a1.182,1.182,0,0,0-.367.048l-14.322,4.2a1.19,1.19,0,0,0-.473.268l-4.233,3.917a1.192,1.192,0,0,1-.322.213l-4.12,1.839a1.187,1.187,0,0,0-.406,1.87l1.889,2.139a1.187,1.187,0,0,0,.965.4" transform="translate(-209.892 -127.271)" fill="#7a4f00"/>
          <path id="Path_880702" data-name="Path 880702" d="M357.65,248.335l3.854,2.279,4.45-.489,1.8-3.544-6.333-.2Z" transform="translate(-297.534 -181.599)" fill="#168272"/>
          <path id="Path_880703" data-name="Path 880703" d="M583.4,217.99l-1.228,1.429c-.04.046-.078.094-.115.142l-3.958,5.21a3.038,3.038,0,0,0-.333,3.123l.226.484a3.035,3.035,0,0,1-.032,2.637,3.037,3.037,0,0,0,.584,3.509l4.572,4.524a3.037,3.037,0,0,0,2.134.878l2.609,0h1.245a3.037,3.037,0,0,0,1.3-.291l2.747-1.3a.524.524,0,0,1,.556.068l1.719,1.408a.522.522,0,0,0,.332.119h1.41a.524.524,0,0,1,.523.524l0,3.734a1.56,1.56,0,0,0,.165.7l2.631,5.271a1.563,1.563,0,0,1,.09,1.177l-1.354,4.2a1.562,1.562,0,0,0,.075,1.147l1.318,2.788a1.564,1.564,0,0,1,.15.669l0,2.839a1.562,1.562,0,0,0,.262.867l3.9,5.854a1.564,1.564,0,0,0,1.3.7l4.533,0a1.563,1.563,0,0,0,1.269-.649l2.71-3.759a1.561,1.561,0,0,0,.3-.913v-1.209a1.563,1.563,0,0,1,1.134-1.5l.432-.123a1.562,1.562,0,0,0,1.135-1.5V259.1a1.563,1.563,0,0,1,.458-1.1l2.943-2.938a1.563,1.563,0,0,0,.458-1.1l0-3.95a1.561,1.561,0,0,0-.206-.776l-.735-1.289a1.563,1.563,0,0,1,.268-1.895l6.148-5.978a1.562,1.562,0,0,0,.424-.732l.617-2.406a1.986,1.986,0,0,0-2.388-2.424,2.861,2.861,0,0,1-2.937-1.039l-.795-1.035-2.12-1.158-3.333-9.142a.164.164,0,0,1,.28-.161l4.213,5.062,2.135,4.371a2.862,2.862,0,0,0,3.566,1.426l5.939-2.2a.889.889,0,0,0,.47-.405l1.684-3.056a.889.889,0,0,0-.072-.969l-1.653-2.165a.889.889,0,0,0-1.19-.208l-1.765,1.14a.89.89,0,0,1-1.273-.339L627.1,221.2a.89.89,0,0,1,1.523-.914L629.812,222a.891.891,0,0,0,.78.382l2.576-.142a.89.89,0,0,1,.678.26l1,1a.888.888,0,0,0,.629.261l4.638,0a.882.882,0,0,1,.654.291l3.3,3.657a.893.893,0,0,1,.15.229l3.654,8.117a.883.883,0,0,0,1.574.071l2.53-4.49a.877.877,0,0,1,.229-.265l6.6-5.109a.882.882,0,0,1,1.374.41l1.09,3.155a.883.883,0,0,0,.968.585l.956-.147a.882.882,0,0,1,1,.689l.576,2.706a.843.843,0,0,1,.019.184v2.277a.886.886,0,0,0,.076.359l1.4,3.15a.891.891,0,0,0,.182.266l.511.511a.883.883,0,0,0,1.471-.874l-.5-1.7a.881.881,0,0,0-.163-.308l-1.422-1.74a.882.882,0,1,1,1.422-1.041l1.088,1.666a.883.883,0,0,0,1.334.17l2.695-2.458a1.217,1.217,0,0,0,.4-.9v-1.592a1.217,1.217,0,0,0-.62-1.062l-1.292-.728a1.218,1.218,0,0,1-.4-1.76l.068-.1a1.217,1.217,0,0,1,1.361-.463l1.66.52a1.219,1.219,0,0,0,1.066-.167l5.684-4.006a1.218,1.218,0,0,0,.486-.726l1.165-5.143a1.217,1.217,0,0,0-.061-.732l-.981-2.389a1.217,1.217,0,0,1,.055-1.041l.608-1.128a1.218,1.218,0,0,1,1.416-.59l1.719.507a1.218,1.218,0,0,1,.811.784l.391,1.174a1.218,1.218,0,1,0,2.086-1.17l-.707-.838a1.218,1.218,0,0,1-.052-1.507l1.19-1.62a1.216,1.216,0,0,1,.982-.5l2.514,0a1.218,1.218,0,0,0,1.071-.636l3.19-5.867a1.079,1.079,0,0,0,.132-.517l0-2.881a1.086,1.086,0,0,0-1.084-1.086,1.085,1.085,0,0,1-.736-1.882l3.633-3.358a1.087,1.087,0,0,1,.737-.288l5.791,0a1.082,1.082,0,0,0,.618-.193l4.264-2.949a1.087,1.087,0,0,1,.618-.192h1.5a1.085,1.085,0,0,1,.732,1.886l-4.465,4.087a1.085,1.085,0,0,0-.342.953l.549,3.86a1.085,1.085,0,0,0,1.886.567l4.152-4.681a1.086,1.086,0,0,0,.273-.72v-1.809a1.085,1.085,0,0,1,.77-1.038l3.859-1.173,4.628-1.925h1.928l5.377-5.091a1.18,1.18,0,0,0-.4-1.963l-10.035-3.742a1.181,1.181,0,0,0-1.01.088l-2.485,1.459a1.176,1.176,0,0,1-.668.16l-5.75-.342a1.18,1.18,0,0,1-.763-.343l-3.769-3.758a1.18,1.18,0,0,0-.833-.345l-9.073-.006a1.18,1.18,0,0,0-.8.316l-2.294,2.133a1.18,1.18,0,0,1-1.056.289l-4.636-1.016a1.18,1.18,0,0,1-.928-1.153v-.821a1.18,1.18,0,0,0-.9-1.148l-3.111-.749a1.18,1.18,0,0,0-1.26.5l-.587.886a1.18,1.18,0,0,1-1.361.467l-3.627-1.222a1.18,1.18,0,0,1-.221-2.136l.4-.236a1.182,1.182,0,0,0,.578-1.124l-.035-.392a1.181,1.181,0,0,0-1.073-1.07l-11.981-1.05a1.182,1.182,0,0,0-.638.124l-8.89,4.525a1.179,1.179,0,0,0-.645,1.051v.066a1.181,1.181,0,0,1-.684,1.07l-4.057,1.882a1.179,1.179,0,0,1-1.23-.146l-.812-.644a1.18,1.18,0,0,0-1.186-.165l-4.492,1.866a1.18,1.18,0,0,0-.716,1.256,1.18,1.18,0,0,1-1.489,1.3l-3.308-.932a1.18,1.18,0,0,0-1.451.8l-.016.053a1.181,1.181,0,0,1-1.024.836l-5.278.476a1.183,1.183,0,0,0-.534.183l-8.153,5.258a.765.765,0,0,1-.908-.058l-1-.843a.765.765,0,0,1,.269-1.316l2.786-.854a.747.747,0,0,0,.213-.1.765.765,0,0,0-.1-1.313L610.066,176.9a.763.763,0,0,0-.736.03l-9.374,5.652a.783.783,0,0,0-.181.153l-6.3,7.218a.764.764,0,0,0-.066.918l1.484,2.3a.765.765,0,0,0,.884.31l2.492-.831a.765.765,0,0,1,.988.558l.428,1.9a.764.764,0,0,0,.854.589l1.586-.225a.767.767,0,0,0,.589-.441l1.637-3.595a.766.766,0,0,0,.035-.542l-.543-1.768a.765.765,0,0,1,.214-.788l3.669-3.371a.766.766,0,0,1,.518-.2h.568a.765.765,0,0,1,.543,1.3l-2.569,2.593a.765.765,0,0,0-.141.88l.495.991a.764.764,0,0,0,.722.422l2.9-.142a.765.765,0,0,1,.693.37l.031.051a.765.765,0,0,1-.656,1.159h-1.218a.764.764,0,0,0-.763.7l-.1,1.279a.764.764,0,0,1-.464.643l-5.78,2.448a.764.764,0,0,1-.326.06l-5.015-.183a.761.761,0,0,0-.4.1l-3.251,1.8a.54.54,0,0,0-.066.043l-3.591,2.776a2.853,2.853,0,0,0-.434,4.1.524.524,0,0,1,.092.517l-.543,1.49a.524.524,0,0,1-.493.345h-1.738a2.505,2.505,0,0,0-2.5,2.7l.14,1.769a.525.525,0,0,0,.356.455l2.956.988a.526.526,0,0,0,.365-.012l2.773-1.14a.524.524,0,0,0,.325-.484v-.877a3.46,3.46,0,0,1,2.049-3.157l2.831-1.264a1.869,1.869,0,0,1,2.627,1.583.524.524,0,0,0,.175.357l3.006,2.676a.524.524,0,0,0,.638.045l.417-.278a.523.523,0,0,0,.167-.691l-2.319-4.148a.524.524,0,0,1,0-.5l.624-1.157a.524.524,0,0,1,.961.093l.563,1.808a.527.527,0,0,0,.085.163l1.85,2.408a.6.6,0,0,1,.036.053l2.214,3.753a.524.524,0,0,0,.729.178l.788-.491a.525.525,0,0,0,.238-.535.524.524,0,0,1,.97-.352l1.026,1.78a1.124,1.124,0,0,0,1.128.553l3.274-.452a1.96,1.96,0,0,1,2.163,2.444l-.377,1.424a1.123,1.123,0,0,1-1.088.836l-3.272,0a1.13,1.13,0,0,1-.205-.019l-5.551-1.035a1.648,1.648,0,0,0-1.692.734,1.648,1.648,0,0,1-2.04.629l-5.035-2.162a.524.524,0,0,1-.3-.625l.441-1.539a.524.524,0,0,0-.538-.667l-7.933.523-.452.043a8.962,8.962,0,0,0-5.952,3.08" transform="translate(-451.994 -126.325)" fill="#7a4f00"/>
          <path id="Path_880704" data-name="Path 880704" d="M701.5,294.357l.042.21a1.327,1.327,0,0,0,.728.938l2.326,1.114a1.328,1.328,0,0,1-.819,2.5l-5.264-.991a1.323,1.323,0,0,0-.245-.023l-2.51,0a1.328,1.328,0,0,1-1.177-1.941L695.714,294a1.327,1.327,0,0,1,1.178-.714l3.311,0a1.327,1.327,0,0,1,1.3,1.068" transform="translate(-534.168 -214.56)" fill="#168272"/>
          <path id="Path_880705" data-name="Path 880705" d="M745.459,299.347l0,3.235a1.327,1.327,0,0,1-1.328,1.327h-.622a1.328,1.328,0,0,1-1.327-1.328v-1.829a1.324,1.324,0,0,0-.14-.594l-1.338-2.682a1.328,1.328,0,0,1,.686-1.822l1.491-.609a1.327,1.327,0,0,1,1.791.914l.75,3.072a1.311,1.311,0,0,1,.038.316" transform="translate(-566.578 -215.725)" fill="#168272"/>
          <path id="Path_880706" data-name="Path 880706" d="M734.132,457.206l-1.8,1.964a1.712,1.712,0,0,0-.431.894l-.577,3.676a1.716,1.716,0,0,0,1.694,1.982h.594a1.715,1.715,0,0,0,1.637-1.2l1.786-5.641a1.715,1.715,0,0,0-2.9-1.678" transform="translate(-560.071 -329.343)" fill="#168272"/>
        </g>
      </g>
      <g id="Group_1101548" data-name="Group 1101548" transform="translate(335.364 1038.846)" opacity="0.59" style="mix-blend-mode: multiply;isolation: isolate">
        <g id="Group_1101547" data-name="Group 1101547">
          <g id="Group_1101546" data-name="Group 1101546" clip-path="url(#clip-path-5)">
            <path id="Path_880708" data-name="Path 880708" d="M249.355,363.482a93.892,93.892,0,0,1-92.31-76.771,93.864,93.864,0,1,0,184.62,0,93.892,93.892,0,0,1-92.31,76.771" transform="translate(-155.491 -286.711)" fill="#efb499"/>
          </g>
        </g>
      </g>
      <g id="Group_1101551" data-name="Group 1101551" transform="translate(370.684 962.075)" opacity="0.35" style="mix-blend-mode: overlay;isolation: isolate">
        <g id="Group_1101550" data-name="Group 1101550">
          <g id="Group_1101549" data-name="Group 1101549" clip-path="url(#clip-path-6)">
            <path id="Path_880709" data-name="Path 880709" d="M389.735,47.773a93.879,93.879,0,0,0-115.472,1.264,57.757,57.757,0,0,0,115.472-1.264" transform="translate(-274.263 -28.545)" fill="#f5f7e9"/>
          </g>
        </g>
      </g>
      <path id="Path_880710" data-name="Path 880710" d="M666.171,79.537h0a13.46,13.46,0,0,0-11.492,20.469l11.492,18.841,11.492-18.841a13.46,13.46,0,0,0-11.492-20.469m0,20.725a7.421,7.421,0,1,1,7.421-7.421,7.421,7.421,0,0,1-7.421,7.421" transform="translate(-169.472 897.701)" fill="#ffb937"/>
      <path id="Path_880711" data-name="Path 880711" d="M181.175,140.3h0a7.965,7.965,0,0,0-6.8,12.112l6.8,11.148,6.8-11.148a7.965,7.965,0,0,0-6.8-12.112m0,12.263a4.391,4.391,0,1,1,4.391-4.391,4.391,4.391,0,0,1-4.391,4.391" transform="translate(167.432 855.01)" fill="#ffb937"/>
      <path id="Path_880712" data-name="Path 880712" d="M684.789,339.944h0a4.85,4.85,0,0,0-4.141,7.376l4.141,6.789,4.141-6.789a4.851,4.851,0,0,0-4.141-7.376m0,7.468a2.674,2.674,0,1,1,2.674-2.674,2.674,2.674,0,0,1-2.674,2.674" transform="translate(-188.613 714.733)" fill="#ffb937"/>
      <rect id="Rectangle_403215" data-name="Rectangle 403215" width="3.308" height="2.267" transform="translate(382.8 1107.23)" fill="#114956"/>
      <rect id="Rectangle_403216" data-name="Rectangle 403216" width="3.308" height="2.267" transform="translate(387.642 1107.23)" fill="#114956"/>
      <rect id="Rectangle_403217" data-name="Rectangle 403217" width="3.308" height="2.267" transform="translate(392.484 1107.23)" fill="#114956"/>
      <rect id="Rectangle_403218" data-name="Rectangle 403218" width="3.308" height="2.267" transform="translate(397.326 1107.23)" fill="#114956"/>
      <rect id="Rectangle_403219" data-name="Rectangle 403219" width="22.653" height="4.446" transform="translate(379.896 1109.496)" fill="#19657c"/>
      <path id="Path_880713" data-name="Path 880713" d="M375.833,513.981h7.353v7.512H368.4v-.075a7.437,7.437,0,0,1,7.437-7.437" transform="translate(30.28 592.45)" fill="#6fb590"/>
      <g id="Group_1101559" data-name="Group 1101559" transform="translate(323.703 1199.637)" opacity="0.18">
        <g id="Group_1101558" data-name="Group 1101558">
          <g id="Group_1101557" data-name="Group 1101557" clip-path="url(#clip-path-7)">
            <path id="Path_880714" data-name="Path 880714" d="M289.933,837.3c0,5.46-38.874,9.886-86.827,9.886s-86.828-4.426-86.828-9.886,38.874-9.886,86.828-9.886,86.827,4.426,86.827,9.886" transform="translate(-116.278 -827.414)" fill="#19657c"/>
          </g>
        </g>
      </g>
      <path id="Path_880715" data-name="Path 880715" d="M358.922,709.45l11.062,16.713s-5.881,14.365-18.421,20.265c-.795-6.582,3.437-18.377,3.437-18.377L347.507,716.3Z" transform="translate(44.957 455.107)" fill="#092d33"/>
      <path id="Path_880716" data-name="Path 880716" d="M379.334,755.026l-2.977-4.5s-7.192,13.22-12.324,16.9a1.621,1.621,0,0,1-2.418-.616l-.005-.011a28.733,28.733,0,0,0-.7,8.494c12.539-5.9,18.421-20.265,18.421-20.265" transform="translate(35.607 426.245)" fill="#092d33"/>
      <path id="Path_880717" data-name="Path 880717" d="M280.822,605.683l-22.038-.854a15.733,15.733,0,0,0,2.241,9.221l20.163,33.409c14.668-4.167,18.657-13.583,18.657-13.583L280.47,605.846Z" transform="translate(107.322 528.617)" fill="#092d33"/>
      <path id="Path_880718" data-name="Path 880718" d="M454.56,410.738l15.7-84.687-23.25-2.616a9.012,9.012,0,0,0-9.821,7.074l-17.127,80.229Z" transform="translate(-6.023 726.373)" fill="#6fb590"/>
      <path id="Path_880719" data-name="Path 880719" d="M520.664,416.972l18.163-81.156a2.919,2.919,0,0,0-2.4-3.522l-.058-.009a2.919,2.919,0,0,0-3.29,2.232l-18.931,82.455Z" transform="translate(-72.127 720.138)" fill="#599775"/>
      <g id="Group_1101562" data-name="Group 1101562" transform="translate(420.663 1051.613)" opacity="0.28" style="mix-blend-mode: multiply;isolation: isolate">
        <g id="Group_1101561" data-name="Group 1101561">
          <g id="Group_1101560" data-name="Group 1101560" clip-path="url(#clip-path-8)">
            <path id="Path_880720" data-name="Path 880720" d="M461.388,329.646s16.248,3.529,18.16,4.967c3.68,2.767,5.213,15.507,5.213,15.507l-14.553,65.022H442.334Z" transform="translate(-442.334 -329.646)" fill="#599775"/>
          </g>
        </g>
      </g>
      <path id="Path_880721" data-name="Path 880721" d="M386.254,617.151l-1.2,4.666a8.087,8.087,0,0,1-7.831,6.069H322.849V617.151Z" transform="translate(62.283 519.959)" fill="#599775"/>
      <path id="Path_880722" data-name="Path 880722" d="M433.346,661.546H423.6a2.067,2.067,0,0,1-2.067-2.067v-6.229h13.875v6.229a2.067,2.067,0,0,1-2.067,2.067" transform="translate(-7.059 494.594)" fill="#0a3138"/>
      <path id="Path_880723" data-name="Path 880723" d="M439.412,723.591h.046a2.277,2.277,0,0,0,2.277-2.277V681.147h-4.6v40.167a2.277,2.277,0,0,0,2.277,2.277" transform="translate(-18.018 474.993)" fill="#0a3138"/>
      <path id="Path_880724" data-name="Path 880724" d="M463.692,821.084s-2.605-8.832-18.824-9.29v9.29Z" transform="translate(-23.451 383.198)" fill="#0a3138"/>
      <path id="Path_880725" data-name="Path 880725" d="M419.215,838.688c0,1.016-8.428,1.84-18.824,1.84s-18.824-.824-18.824-1.84,8.428-1.84,18.824-1.84,18.824.824,18.824,1.84" transform="translate(21.026 365.594)" fill="#0a3138"/>
      <path id="Path_880726" data-name="Path 880726" d="M381.566,821.084s2.605-8.832,18.824-9.29v9.29Z" transform="translate(21.026 383.198)" fill="#0a3138"/>
      <path id="Path_880727" data-name="Path 880727" d="M285.769,750.1l3.5,22.992S276.079,785.35,260,785.453c2.371-7.319,12.576-17.678,12.576-17.678l-2.165-16.03Z" transform="translate(106.444 426.548)" fill="#f48f62"/>
      <path id="Path_880728" data-name="Path 880728" d="M289.274,812.795l-.943-6.188s-14.017,10.418-21.213,11.787a1.881,1.881,0,0,1-2.247-1.827v-.014A33.338,33.338,0,0,0,260,825.16c16.081-.1,29.275-12.365,29.275-12.365" transform="translate(106.443 386.842)" fill="#7d3a1b"/>
      <path id="Path_880729" data-name="Path 880729" d="M310.369,750.1l-15.359,1.649,1.17,8.66c7.83-1.413,14.665-7.2,14.665-7.2Z" transform="translate(81.843 426.548)" fill="#342a24"/>
      <path id="Path_880730" data-name="Path 880730" d="M368.6,335.428l-.063.019a11.662,11.662,0,0,0-7.887,8.283L355.1,365.58l-11.8-23.985A2.51,2.51,0,0,0,340,340.426l-.023.01-2.843-5.685a1.365,1.365,0,0,0-1.874-.588l-.023.012a1.364,1.364,0,0,0-.648,1.607l1.912,6.085-3.2-4.321a1.365,1.365,0,0,0-2-.208l-.052.047a1.364,1.364,0,0,0-.388,1.451L332,342.277l0,.043a14.471,14.471,0,0,0,1.927,7.933l17.408,30.107A6.259,6.259,0,0,0,362.758,379l5.837-19.757Z" transform="translate(56.705 718.911)" fill="#f48f62"/>
      <g id="Group_1101565" data-name="Group 1101565" transform="translate(407.514 1096.926)" opacity="0.25">
        <g id="Group_1101564" data-name="Group 1101564">
          <g id="Group_1101563" data-name="Group 1101563" clip-path="url(#clip-path-9)">
            <path id="Path_880731" data-name="Path 880731" d="M407.778,486.275a6.029,6.029,0,0,0-9.661-2.821l.528.913a6.257,6.257,0,0,0,9.133,1.908" transform="translate(-398.117 -482.023)" fill="#56221c"/>
          </g>
        </g>
      </g>
      <g id="Group_1101568" data-name="Group 1101568" transform="translate(409.585 1055.183)" opacity="0.37" style="mix-blend-mode: multiply;isolation: isolate">
        <g id="Group_1101567" data-name="Group 1101567">
          <g id="Group_1101566" data-name="Group 1101566" clip-path="url(#clip-path-10)">
            <path id="Path_880732" data-name="Path 880732" d="M414.958,384.378l5.837-19.757V341.65l-.244.065c-2.868,6.66-5.965,13.423-6.92,20.681-.422,3.206-.262,6.429-.694,9.643a44.467,44.467,0,0,1-1.964,8.853,11.707,11.707,0,0,1-1.907,3.729,12.57,12.57,0,0,1-3.987,2.9,6.262,6.262,0,0,0,9.878-3.139" transform="translate(-405.08 -341.65)" fill="#d25937"/>
          </g>
        </g>
      </g>
      <path id="Path_880733" data-name="Path 880733" d="M450.812,328.159l12.7,6.466s-8.585,11.3-4.6,21.683l-6.439,33.839H424.415s6.286-28.21,6.439-31.583-2.607-6.592,0-15.485,3.526-12.419,3.526-12.419l10.5-3.449Z" transform="translate(-9.08 723.679)" fill="#ffce73"/>
      <g id="Group_1101571" data-name="Group 1101571" transform="translate(430.493 1070.438)" style="mix-blend-mode: multiply;isolation: isolate">
        <g id="Group_1101570" data-name="Group 1101570">
          <g id="Group_1101569" data-name="Group 1101569" clip-path="url(#clip-path-11)">
            <path id="Path_880734" data-name="Path 880734" d="M493.548,392.946s-8.709,30.93-13.767,35.364c-1.962,1.72-3.383,4.845-4.389,8.024h12.9l6.439-33.839A17.6,17.6,0,0,1,494,393.03Z" transform="translate(-475.392 -392.946)" fill="#dbd2a7"/>
          </g>
        </g>
      </g>
      <path id="Path_880735" data-name="Path 880735" d="M492.285,380.572l9.659.92-1,2.76-9.509-1.073Z" transform="translate(-56.174 686.186)" fill="#f9ece4"/>
      <path id="Path_880736" data-name="Path 880736" d="M361.688,355.653l1.431,4.7s-2.453,1.942,0,6.388" transform="translate(34.993 703.695)" fill="none" stroke="#843836" stroke-miterlimit="10" stroke-width="2.062"/>
      <line id="Line_3248" data-name="Line 3248" x2="2.453" y2="3.705" transform="translate(388.709 1061.187)" fill="none" stroke="#843836" stroke-miterlimit="10" stroke-width="2.062"/>
      <line id="Line_3249" data-name="Line 3249" x2="3.526" y2="5.519" transform="translate(411.808 1084.492)" fill="none" stroke="#843836" stroke-miterlimit="10" stroke-width="0.688"/>
      <path id="Path_880737" data-name="Path 880737" d="M444.07,352.143s4.191,2.475,6.235,14.74c1.42,8.52,3.432,24.883,4.528,34.081a5.993,5.993,0,0,1-5.955,6.7h-47.43a8.119,8.119,0,0,1,1.763-3.782,5.76,5.76,0,0,0-3.808,3.782h-2.657s2.862-10.732,13.7-10.528,31.427-.8,31.427-.8l-2.4-22.513s-5.315-9.236,4.6-21.683" transform="translate(10.36 706.161)" fill="#f48f62"/>
      <line id="Line_3250" data-name="Line 3250" y1="0.418" x2="7.431" transform="translate(452.23 1102.083)" fill="none" stroke="#843836" stroke-miterlimit="10" stroke-width="0.688"/>
      <g id="Group_1101574" data-name="Group 1101574" transform="translate(457.877 1104.136)" opacity="0.25">
        <g id="Group_1101573" data-name="Group 1101573">
          <g id="Group_1101572" data-name="Group 1101572" clip-path="url(#clip-path-12)">
            <path id="Path_880738" data-name="Path 880738" d="M567.476,513.605a7.337,7.337,0,0,0,.39,2.351h.971a5.993,5.993,0,0,0,5.955-6.7c-.111-.928-.231-1.931-.359-2.989a7.353,7.353,0,0,0-6.958,7.338" transform="translate(-567.476 -506.267)" fill="#56221c"/>
          </g>
        </g>
      </g>
      <path id="Path_880739" data-name="Path 880739" d="M334.365,538.851,332,549.8a15.626,15.626,0,0,1-15.275,12.333h-35.82l6.746,38.962s-8.79,7.972-26.268,5.213L256.433,561.3a18.349,18.349,0,0,1,17.051-20.318l32.824-2.13Z" transform="translate(109.027 574.975)" fill="#092d33"/>
      <line id="Line_3251" data-name="Line 3251" x1="0.918" y1="5.203" transform="translate(389.018 1131.907)" fill="none" stroke="#101010" stroke-miterlimit="10" stroke-width="2.062"/>
      <g id="Group_1101577" data-name="Group 1101577" transform="translate(420.663 1082.242)" style="mix-blend-mode: multiply;isolation: isolate">
        <g id="Group_1101576" data-name="Group 1101576">
          <g id="Group_1101575" data-name="Group 1101575" clip-path="url(#clip-path-13)">
            <path id="Path_880740" data-name="Path 880740" d="M443.445,432.644c-.039.861-.479,3.344-1.111,6.561a69.594,69.594,0,0,1,4.637,5.946c2.824,3.961-3.526-12.507-3.526-12.507" transform="translate(-442.334 -432.644)" fill="#dbd2a7"/>
          </g>
        </g>
      </g>
      <path id="Path_880741" data-name="Path 880741" d="M314.166,646.985c-14.162-.034-13.063,26.938-12.314,35.851,11.662-.45,17.523-5.761,17.523-5.761Z" transform="translate(77.306 498.997)" fill="#19657c"/>
      <path id="Path_880742" data-name="Path 880742" d="M427.214,529.632s.394-2.9,2.6-3.9" transform="translate(-11.047 584.194)" fill="none" stroke="#843836" stroke-miterlimit="10" stroke-width="0.688"/>
      <path id="Path_880743" data-name="Path 880743" d="M610.162,434.693A27.015,27.015,0,0,1,606,415.345c4.788,2.623,13.263,13.7,11.015,23.777Z" transform="translate(-136.412 661.754)" fill="#569171"/>
      <path id="Path_880744" data-name="Path 880744" d="M618.178,424.374a43.4,43.4,0,0,0,7.773,20.1c.023-.026.046-.057.068-.084,1.133-7.651-3.541-15.67-7.842-20.011" transform="translate(-145.223 655.41)" fill="#3a7051"/>
      <path id="Path_880745" data-name="Path 880745" d="M658.643,383.594a36.253,36.253,0,0,0,11.165-17.412c3.436-11.517.245-17.23,1.718-26.766-7.852,13.285-16.975,35.286-16.953,46,1.248.656,4.07-1.825,4.07-1.825" transform="translate(-170.796 715.103)" fill="#569171"/>
      <path id="Path_880746" data-name="Path 880746" d="M656.17,430.575c2.256-2.561,4.828-12.69,6.059-25.977-3.721,8.9-6.623,17.925-7.238,24.266.71,1.105,1.179,1.711,1.179,1.711" transform="translate(-171.09 669.304)" fill="#3a7051"/>
      <path id="Path_880747" data-name="Path 880747" d="M633.352,333.352s-9.569-12.329-7.729-27.6,13.044-27.131,12.513-39.524c5.031,29.487-.459,62.214-4.784,67.124" transform="translate(-150.29 766.527)" fill="#6fb590"/>
      <path id="Path_880748" data-name="Path 880748" d="M646.357,386.276s5.326-30.825,4.021-41.645c-1.227,12.471-5.647,40.607-5.647,40.607Z" transform="translate(-163.88 711.439)" fill="#569171"/>
      <g id="Group_1101580" data-name="Group 1101580" transform="translate(471.779 1090.491)" opacity="0.42" style="mix-blend-mode: multiply;isolation: isolate">
        <g id="Group_1101579" data-name="Group 1101579">
          <g id="Group_1101578" data-name="Group 1101578" clip-path="url(#clip-path-14)">
            <path id="Path_880749" data-name="Path 880749" d="M616.2,466.338l6.85,4.428c.08-.359.143-.719.2-1.08h0c.067-.452.11-.9.138-1.358,0-.045.006-.09.009-.134.024-.462.031-.923.018-1.385h0c0-.058-.006-.116-.008-.174l.092.059a32.187,32.187,0,0,0,2.017,3.078,6.536,6.536,0,0,0,.794-1.19c-.05.64-.081,1.256-.08,1.833,1.249.656,4.07-1.825,4.07-1.825a32.925,32.925,0,0,0,7.013-8.206c-6.627,3.055-18.02,2.782-23.081,2.477a21.04,21.04,0,0,0,1.971,3.479" transform="translate(-614.225 -460.382)" fill="#3a7051"/>
          </g>
        </g>
      </g>
      <path id="Path_880750" data-name="Path 880750" d="M618.459,474.7H606.1l4.539,16.92h15.636l4.539-16.92Z" transform="translate(-136.739 620.048)" fill="#e5b14a"/>
      <rect id="Rectangle_403228" data-name="Rectangle 403228" width="15.637" height="2.156" transform="translate(473.902 1111.67)" fill="#e5b14a"/>
      <g id="Group_1101583" data-name="Group 1101583" transform="translate(469.363 1094.749)" opacity="0.27">
        <g id="Group_1101582" data-name="Group 1101582">
          <g id="Group_1101581" data-name="Group 1101581" clip-path="url(#clip-path-15)">
            <path id="Path_880751" data-name="Path 880751" d="M615.865,493.777v-2.156l-2.782-16.92H606.1l4.539,16.92v2.156Z" transform="translate(-606.102 -474.701)" fill="#721c1f"/>
          </g>
        </g>
      </g>
      <line id="Line_3252" data-name="Line 3252" x2="15.636" transform="translate(473.902 1111.67)" fill="none" stroke="#721c1f" stroke-miterlimit="10" stroke-width="2.062"/>
      <rect id="Rectangle_403230" data-name="Rectangle 403230" width="4.293" height="85.195" transform="translate(359.034 1126.704)" fill="#0a3138"/>
      <rect id="Rectangle_403231" data-name="Rectangle 403231" width="4.293" height="85.195" transform="translate(473.984 1126.704)" fill="#0a3138"/>
      <rect id="Rectangle_403232" data-name="Rectangle 403232" width="13.798" height="6.746" transform="translate(471.908 1119.958)" fill="#0a3138"/>
      <rect id="Rectangle_403233" data-name="Rectangle 403233" width="4.293" height="85.195" transform="translate(348.119 1126.704)" fill="#fbf0d7"/>
      <rect id="Rectangle_403234" data-name="Rectangle 403234" width="4.293" height="10.406" transform="translate(348.119 1126.704)" fill="#d9ba85"/>
      <rect id="Rectangle_403235" data-name="Rectangle 403235" width="4.293" height="85.195" transform="translate(463.09 1126.704)" fill="#fbf0d7"/>
      <rect id="Rectangle_403236" data-name="Rectangle 403236" width="4.293" height="10.406" transform="translate(463.09 1126.704)" fill="#d9ba85"/>
      <rect id="Rectangle_403237" data-name="Rectangle 403237" width="166.5" height="6.132" transform="translate(330.858 1113.825)" fill="#fbf0d7"/>
      <rect id="Rectangle_403238" data-name="Rectangle 403238" width="15.638" height="6.132" transform="translate(481.72 1113.825)" fill="#d9ba85"/>
      <rect id="Rectangle_403239" data-name="Rectangle 403239" width="129.091" height="6.746" transform="translate(342.816 1119.958)" fill="#d9ba85"/>
      <g id="Group_1101586" data-name="Group 1101586" transform="translate(342.816 1119.958)" style="mix-blend-mode: multiply;isolation: isolate">
        <g id="Group_1101585" data-name="Group 1101585">
          <g id="Group_1101584" data-name="Group 1101584" clip-path="url(#clip-path-16)">
            <rect id="Rectangle_403240" data-name="Rectangle 403240" width="142.89" height="2.146" transform="translate(0 0)" fill="#e5b14a"/>
          </g>
        </g>
      </g>
      <path id="Path_880752" data-name="Path 880752" d="M177.721,291.318H227.1a5.187,5.187,0,0,0,5.186-5.186V230.975a5.187,5.187,0,0,0-5.186-5.187h-49.38a5.186,5.186,0,0,0-5.186,5.187v55.157a5.186,5.186,0,0,0,5.186,5.186" transform="translate(167.898 794.941)" fill="#19657c"/>
      <path id="Path_880753" data-name="Path 880753" d="M163.624,291.318H213a5.187,5.187,0,0,0,5.186-5.186V230.975A5.187,5.187,0,0,0,213,225.788h-49.38a5.186,5.186,0,0,0-5.186,5.187v55.157a5.186,5.186,0,0,0,5.186,5.186" transform="translate(177.802 794.941)" fill="#114956"/>
      <path id="Path_880754" data-name="Path 880754" d="M182.773,413.291H199.5l14.341-53.14H197.114Z" transform="translate(160.704 700.534)" fill="#114956"/>
      <path id="Path_880755" data-name="Path 880755" d="M255.388,531.406H230.769l.85-3.151h23.768Z" transform="translate(126.98 582.419)" fill="#114956"/>
      <rect id="Rectangle_403242" data-name="Rectangle 403242" width="6.692" height="2.861" transform="translate(382.368 1077.967)" fill="#0a3138"/>
      <rect id="Rectangle_403243" data-name="Rectangle 403243" width="6.692" height="2.861" transform="translate(373.286 1077.967)" fill="#0a3138"/>
      <path id="Path_880756" data-name="Path 880756" d="M174.507,413.291h16.731l14.341-53.14H188.847Z" transform="translate(166.512 700.534)" fill="#19657c"/>
      <path id="Path_880757" data-name="Path 880757" d="M266.714,385.725l4.24-25.574-6.9,25.574Z" transform="translate(103.595 700.534)" fill="#242417"/>
      <rect id="Rectangle_403244" data-name="Rectangle 403244" width="15.391" height="1.267" transform="translate(376.632 1064.437)" fill="#0a3138"/>
      <rect id="Rectangle_403245" data-name="Rectangle 403245" width="15.391" height="1.267" transform="translate(376.632 1066.378)" fill="#0a3138"/>
      <rect id="Rectangle_403246" data-name="Rectangle 403246" width="15.391" height="1.267" transform="translate(376.632 1068.318)" fill="#0a3138"/>
      <rect id="Rectangle_403247" data-name="Rectangle 403247" width="15.391" height="1.267" transform="translate(376.632 1070.257)" fill="#0a3138"/>
      <rect id="Rectangle_403248" data-name="Rectangle 403248" width="15.391" height="1.267" transform="translate(376.632 1072.198)" fill="#0a3138"/>
      <line id="Line_3253" data-name="Line 3253" x1="14.341" y2="53.14" transform="translate(357.75 1060.685)" fill="none" stroke="#0a3138" stroke-miterlimit="10" stroke-width="1.375"/>
      <rect id="Rectangle_403249" data-name="Rectangle 403249" width="6.793" height="17.956" transform="translate(340.432 1063.116)" fill="none" stroke="#19657c" stroke-miterlimit="10" stroke-width="1.375"/>
      <path id="Path_880758" data-name="Path 880758" d="M485.821,330.4s-.621,10.16-5.294,10.79-6.286-2.841-6.286-2.841Z" transform="translate(-44.09 721.438)" fill="#f9ece4"/>
      <path id="Path_880759" data-name="Path 880759" d="M467.192,338.712s-3.189,1.432-2.973-1.254c.27-3.35,6.195-6.542,6.195-6.542s-1.87,6.483-3.222,7.8" transform="translate(-37.04 721.076)" fill="#f9ece4"/>
      <path id="Path_880760" data-name="Path 880760" d="M539.293,215.95s8.295,3,8.52,10.512,1.971,17.765,3.172,20.164-.363,2.464-1.311,1.362a36.12,36.12,0,0,1-2.765-4.851s-.133,6.422,1.887,8.794.131,3.129-2.32,2.175-7.7-8.022-7.584-11.337a11.718,11.718,0,0,0-.1,4.709c.313,1.394-2.249-.317-2.992-3.314s-1.784-10.494-1.481-13.553,4.976-14.661,4.976-14.661" transform="translate(-86.262 801.854)" fill="#600e00"/>
      <path id="Path_880761" data-name="Path 880761" d="M543.7,221.722c1.151-3.11,2.223-5.773,2.223-5.773s8.295,3,8.52,10.512a94.06,94.06,0,0,0,.906,9.925h0s-1.362,3.705-2.8.384a43.934,43.934,0,0,1-2.234-6.942,31,31,0,0,0-.662,6c.157,1.948-.473,3.707-1.643,2.609s-4.573-4.636-4.123-12.714a16.776,16.776,0,0,0-.189-4" transform="translate(-92.896 801.854)" fill="#7f1e11"/>
      <path id="Path_880762" data-name="Path 880762" d="M528.963,217.582a4.624,4.624,0,1,0,5.249-3.9,4.624,4.624,0,0,0-5.249,3.9" transform="translate(-82.503 803.482)" fill="#6fb590"/>
      <path id="Path_880763" data-name="Path 880763" d="M467.478,211.376s2.5-4.644,9.815-5.787,15.186,3.72,15.008,10.951-8.288,16.252-10.551,18.436l-2.264,2.184-2.028-6.445Z" transform="translate(-39.338 809.25)" fill="#600e00"/>
      <path id="Path_880764" data-name="Path 880764" d="M485.4,284.592s-.708,9.235.131,13.622c-8.946,7.631-10.7,8.087-11.581,7.949s3.222-7.8,3.222-7.8l.428-7.037Z" transform="translate(-43.797 753.624)" fill="#f48f62"/>
      <path id="Path_880765" data-name="Path 880765" d="M492.692,206.108a18.108,18.108,0,0,1,2.317-.518c7.065-1.1,14.65,3.4,15,10.223-6.11.44-8.811-5.006-8.994-5.392.157.334,2.092,4.59-1.99,2.351-2.738-1.5-5.039-4.629-6.33-6.664" transform="translate(-57.054 809.25)" fill="#7f1e11"/>
      <path id="Path_880766" data-name="Path 880766" d="M485.654,308.439l.256-4.208.178-.154,4.527-1.125a12.3,12.3,0,0,1-4.961,5.487" transform="translate(-52.109 740.724)" fill="#380403"/>
      <path id="Path_880767" data-name="Path 880767" d="M469.576,230.545c4.147,1.5,1.294-2.4,1.294-2.4s5.556,4.156,6.912,4.5a32.166,32.166,0,0,1,.766,5.961c-.185,1.049-.378,2.078-.561,2.941a11.982,11.982,0,0,1-6.06,7.972c-2.91,1.376-8.669,1.907-9.257.493s-2.083-10.713-1.928-15.362a31.011,31.011,0,0,1,2-9.208,16.7,16.7,0,0,0,6.839,5.1" transform="translate(-34.596 795.185)" fill="#f48f62"/>
      <path id="Path_880768" data-name="Path 880768" d="M488.027,259.177s3.41-.081,5.158,1.026a11.675,11.675,0,0,1-5.048,1.558,11.072,11.072,0,0,1-.109-2.585" transform="translate(-53.775 771.483)" fill="#fff6e7"/>
      <path id="Path_880769" data-name="Path 880769" d="M491.107,261.153a11.3,11.3,0,0,1-2.97.609,11.074,11.074,0,0,1-.109-2.585,16.393,16.393,0,0,1,2.13.124,2.33,2.33,0,0,1,.95,1.852" transform="translate(-53.775 771.482)" fill="#600e00"/>
      <path id="Path_880770" data-name="Path 880770" d="M491.329,260.056s-1.109-1.119-5.944-1.089" transform="translate(-51.92 771.63)" fill="none" stroke="#541610" stroke-miterlimit="10" stroke-width="0.783"/>
      <path id="Path_880771" data-name="Path 880771" d="M487.727,247.125s3.715-.354,6.047,1.476c-1.248-1.617-4.218-3.436-6.047-1.476" transform="translate(-53.565 780.549)" fill="#600e00"/>
      <path id="Path_880772" data-name="Path 880772" d="M461.8,244.324q.072-.438.156-.862a2.708,2.708,0,0,1,2.454,1.515,11.7,11.7,0,0,0-2.61-.653" transform="translate(-35.347 782.522)" fill="#600e00"/>
      <path id="Path_880773" data-name="Path 880773" d="M464.779,258.7l-2.558-.573s-.578,2.309,2.158,2.5Z" transform="translate(-35.608 772.22)" fill="#fff6e7"/>
      <path id="Path_880774" data-name="Path 880774" d="M471.277,286.344a14.115,14.115,0,0,0,4.362-1.208" transform="translate(-42.007 753.242)" fill="none" stroke="#600e00" stroke-miterlimit="10" stroke-width="0.79"/>
      <g id="Group_1101589" data-name="Group 1101589" transform="translate(434.821 1035.033)" opacity="0.32">
        <g id="Group_1101588" data-name="Group 1101588">
          <g id="Group_1101587" data-name="Group 1101587" clip-path="url(#clip-path-17)">
            <path id="Path_880775" data-name="Path 880775" d="M489.951,274.89c-.106.721.854,1.459,2.145,1.649s2.423-.239,2.529-.96-.854-1.459-2.145-1.649-2.423.239-2.529.96" transform="translate(-489.943 -273.885)" fill="#af0808"/>
          </g>
        </g>
      </g>
      <g id="Group_1101592" data-name="Group 1101592" transform="translate(426.259 1033.499)" opacity="0.32">
        <g id="Group_1101591" data-name="Group 1101591">
          <g id="Group_1101590" data-name="Group 1101590" clip-path="url(#clip-path-18)">
            <path id="Path_880776" data-name="Path 880776" d="M462.656,270.225c-.069.469-.577.811-1.278.943-.09-.826-.167-1.647-.226-2.438.949.3,1.591.9,1.5,1.5" transform="translate(-461.153 -268.729)" fill="#af0808"/>
          </g>
        </g>
      </g>
      <path id="Path_880777" data-name="Path 880777" d="M517.713,257.934c-1.383,2-1.2,4.514.4,5.626s4.026.395,5.408-1.6,1.2-4.514-.4-5.626-4.026-.395-5.408,1.6" transform="translate(-73.981 773.847)" fill="#f68661"/>
      <path id="Path_880778" data-name="Path 880778" d="M521.893,267.768a4.666,4.666,0,0,1,.713-4.129c1.289-1.861,3.48-2.608,5.071-1.8a4.666,4.666,0,0,1-.713,4.129c-1.288,1.86-3.48,2.608-5.071,1.8" transform="translate(-77.421 769.838)" fill="#d66749"/>
      <path id="Path_880779" data-name="Path 880779" d="M468.239,260.052s-1.042,5.261-1.145,6.68c.726.479,2.236-.042,2.236-.042" transform="translate(-39.068 770.866)" fill="none" stroke="#600e00" stroke-miterlimit="10" stroke-width="0.79"/>
      <path id="Path_880780" data-name="Path 880780" d="M462.224,258.125l1.807.4a4.038,4.038,0,0,1,.3,2.091c-2.668-.222-2.1-2.5-2.1-2.5" transform="translate(-35.611 772.22)" fill="#600e00"/>
      <line id="Line_3254" data-name="Line 3254" x1="3.522" y1="0.799" transform="translate(425.778 1030.135)" fill="none" stroke="#541610" stroke-miterlimit="10" stroke-width="0.792"/>
      <path id="Path_880781" data-name="Path 880781" d="M486.824,281.978c.7-.07,1.019.805.667,1.333a1.377,1.377,0,0,0-.667-1.333" transform="translate(-52.931 755.464)" fill="#600e00"/>
      <path id="Path_880782" data-name="Path 880782" d="M484.95,316.755a43.741,43.741,0,0,0,7.72-.322c.911,1.753-.363,2.122-.363,2.122a24.31,24.31,0,0,1-7.523.672,2.321,2.321,0,0,1,.167-2.472" transform="translate(-51.318 731.252)" fill="#6fb590"/>
      <path id="Path_880783" data-name="Path 880783" d="M510.988,314.681s1.776-3.251,6.432-1.894c-1.7,2.5-5.555,2.062-6.432,1.894" transform="translate(-69.909 734.047)" fill="#6fb590"/>
      <path id="Rectangle_403252" data-name="Rectangle 403252" d="M9.011,0H33.285A9.011,9.011,0,0,1,42.3,9.011v3.052a9.01,9.01,0,0,1-9.01,9.01H9.01A9.01,9.01,0,0,1,0,12.063V9.011A9.011,9.011,0,0,1,9.011,0Z" transform="translate(344.323 1030.919)" fill="none" stroke="#19657c" stroke-miterlimit="10" stroke-width="1.375"/>
      <path id="Path_880784" data-name="Path 880784" d="M515.48,255.474a4.151,4.151,0,0,0,8.3.256l.1-3.138a4.151,4.151,0,0,0-8.3-.256Z" transform="translate(-73.064 779.114)" fill="#fefefe"/>
      <path id="Path_880785" data-name="Path 880785" d="M528.356,251.125a3.32,3.32,0,0,1,.529.063,4.139,4.139,0,0,1,1.575,3.379l-.1,3.138a4.127,4.127,0,0,1-.753,2.256,3.322,3.322,0,0,1-4.758-3.1l.078-2.514a3.325,3.325,0,0,1,3.426-3.221" transform="translate(-79.649 777.14)" fill="#e5b14a"/>
      <path id="Path_880786" data-name="Path 880786" d="M532.517,262.427a.663.663,0,0,0,1.325.041l.112-3.642a.663.663,0,1,0-1.325-.041Z" transform="translate(-85.036 772.208)" fill="#fefefe"/>
      <path id="Path_880787" data-name="Path 880787" d="M499.818,283.1a.409.409,0,0,1-.1-.806,13.069,13.069,0,0,0,6.251-3.987.409.409,0,0,1,.637.513,13.707,13.707,0,0,1-6.688,4.268.4.4,0,0,1-.1.012" transform="translate(-61.774 758.144)" fill="#19657c"/>
      <path id="Path_880788" data-name="Path 880788" d="M491.022,291.535a1.206,1.206,0,0,0,1.507.8l1.741-.533a1.206,1.206,0,0,0-.706-2.307l-1.741.533a1.206,1.206,0,0,0-.8,1.507" transform="translate(-55.843 750.216)" fill="#272726"/>
      <path id="Path_880789" data-name="Path 880789" d="M545.616,102.692l10.214-6.76a2.767,2.767,0,0,1,2.163-.386l3.184.752L554.6,106.806Z" transform="translate(-94.239 886.505)" fill="#336a89"/>
      <path id="Path_880790" data-name="Path 880790" d="M413.8,93.329,371.123,83.253a10.065,10.065,0,0,0-9.844,3.734c-.653,1.008.133,1.193,23.635,6.742L411.482,100l13.211.025a1.684,1.684,0,0,0,.485-3.3Z" transform="translate(35.376 895.212)" fill="#fff"/>
      <g id="Group_1101595" data-name="Group 1101595" transform="translate(396.519 980.702)" opacity="0.41">
        <g id="Group_1101594" data-name="Group 1101594">
          <g id="Group_1101593" data-name="Group 1101593" clip-path="url(#clip-path-19)">
            <path id="Path_880791" data-name="Path 880791" d="M411.482,105.7l13.211.025a1.694,1.694,0,0,0,1.425-2.613l-15.592-.625-47.848-11.3a10.493,10.493,0,0,0-1.4,1.5c-.653,1.007.133,1.193,23.635,6.742l26.568,6.272" transform="translate(-361.143 -91.188)" fill="#6ba6bf"/>
          </g>
        </g>
      </g>
      <path id="Path_880792" data-name="Path 880792" d="M452.792,120.866l-11.946-2.82a.863.863,0,0,1-.641-1.038l.457-1.937a.863.863,0,0,1,1.038-.641l11.946,2.82a.862.862,0,0,1,.641,1.038l-.457,1.937a.862.862,0,0,1-1.038.641" transform="translate(-20.158 873.201)" fill="#fff"/>
      <path id="Path_880793" data-name="Path 880793" d="M443.009,114.739l-1.309-.309a.863.863,0,0,0-1.037.641l-.457,1.937a.862.862,0,0,0,.641,1.038l1.309.309Z" transform="translate(-20.158 873.201)" fill="#336a89"/>
      <path id="Path_880794" data-name="Path 880794" d="M459.374,93.2l10.7-2.426L474.84,91.9l-7.5,3.18Z" transform="translate(-33.644 889.808)" fill="#fff"/>
      <path id="Path_880795" data-name="Path 880795" d="M554.526,130.269l6.116,4.032,4.356.531-5.017-4.344Z" transform="translate(-100.5 862.055)" fill="#fff"/>
      <path id="Path_880796" data-name="Path 880796" d="M556.253,133.173l-1.727-2.9,4.413,2.909Z" transform="translate(-100.5 862.055)" fill="#003764"/>
      <path id="Path_880797" data-name="Path 880797" d="M445.443,109.871l3.92,6.126,5.293,1.25Z" transform="translate(-23.855 876.388)" fill="#003764"/>
      <path id="Path_880798" data-name="Path 880798" d="M376.745,86.144a.712.712,0,0,0,.327-1.387l-2.717-.641a9.7,9.7,0,0,0-2.34.911Z" transform="translate(27.737 894.484)" fill="#336a89"/>
      <path id="Path_880799" data-name="Path 880799" d="M445.443,109.871l15.245,12.285,7.493,1.769-10.207-11.13Z" transform="translate(-23.855 876.388)" fill="#fff"/>
      <path id="Path_880800" data-name="Path 880800" d="M418.256,96.81h0a.688.688,0,0,1-.51-.826l.093-.4a.687.687,0,0,1,1.336.315l-.094.4a.688.688,0,0,1-.826.511" transform="translate(-4.381 886.794)" fill="#6ba6bf"/>
      <path id="Path_880801" data-name="Path 880801" d="M429.729,99.519h0a.689.689,0,0,1-.511-.826l.094-.4a.686.686,0,0,1,1.336.316l-.093.4a.688.688,0,0,1-.826.51" transform="translate(-12.443 884.892)" fill="#6ba6bf"/>
      <path id="Path_880802" data-name="Path 880802" d="M441.2,102.228h0a.688.688,0,0,1-.51-.826l.093-.4a.687.687,0,0,1,1.336.316l-.094.4a.688.688,0,0,1-.826.511" transform="translate(-20.505 882.988)" fill="#6ba6bf"/>
      <path id="Path_880803" data-name="Path 880803" d="M452.678,104.937h0a.689.689,0,0,1-.511-.826l.094-.4a.686.686,0,0,1,1.336.316l-.093.4a.688.688,0,0,1-.826.51" transform="translate(-28.568 881.084)" fill="#6ba6bf"/>
      <path id="Path_880804" data-name="Path 880804" d="M464.152,107.646h0a.689.689,0,0,1-.511-.826l.094-.4a.686.686,0,0,1,1.336.316l-.093.4a.688.688,0,0,1-.826.51" transform="translate(-36.629 879.181)" fill="#6ba6bf"/>
      <path id="Path_880805" data-name="Path 880805" d="M475.626,110.355h0a.688.688,0,0,1-.511-.826l.094-.4a.686.686,0,0,1,1.336.316l-.093.4a.689.689,0,0,1-.826.51" transform="translate(-44.691 877.278)" fill="#6ba6bf"/>
      <path id="Path_880806" data-name="Path 880806" d="M487.1,113.064h0a.688.688,0,0,1-.51-.826l.093-.4a.687.687,0,0,1,1.336.315l-.094.4a.688.688,0,0,1-.826.51" transform="translate(-52.754 875.375)" fill="#6ba6bf"/>
      <path id="Path_880807" data-name="Path 880807" d="M498.576,115.773h0a.688.688,0,0,1-.51-.826l.093-.4a.687.687,0,0,1,1.336.316l-.094.4a.688.688,0,0,1-.826.51" transform="translate(-60.816 873.471)" fill="#6ba6bf"/>
      <path id="Path_880808" data-name="Path 880808" d="M510.05,118.482h0a.689.689,0,0,1-.51-.826l.093-.4a.687.687,0,0,1,1.336.315l-.094.4a.689.689,0,0,1-.826.511" transform="translate(-68.878 871.567)" fill="#6ba6bf"/>
      <path id="Path_880809" data-name="Path 880809" d="M521.524,121.19h0a.688.688,0,0,1-.51-.826l.093-.4a.687.687,0,0,1,1.336.316l-.094.4a.688.688,0,0,1-.826.51" transform="translate(-76.94 869.665)" fill="#6ba6bf"/>
    </g>
  </g>
</svg>
