<svg xmlns="http://www.w3.org/2000/svg" xmlns:xlink="http://www.w3.org/1999/xlink" width="121" height="121" viewBox="0 0 121 121">
  <defs>
    <clipPath id="clip-path">
      <rect id="Rectangle_400938" data-name="Rectangle 400938" width="121" height="121" transform="translate(0 0)" fill="none"/>
    </clipPath>
    <clipPath id="clip-path-2">
      <rect id="Rectangle_401073" data-name="Rectangle 401073" width="92.219" height="41.532" fill="#efb499"/>
    </clipPath>
    <clipPath id="clip-path-3">
      <rect id="Rectangle_403262" data-name="Rectangle 403262" width="48" height="65.099" fill="none"/>
    </clipPath>
    <clipPath id="clip-path-5">
      <path id="Path_881057" data-name="Path 881057" d="M17.08,29.175a11.1,11.1,0,1,0,11.1-11.1,11.1,11.1,0,0,0-11.1,11.1" transform="translate(-17.08 -18.076)" fill="none"/>
    </clipPath>
    <clipPath id="clip-path-7">
      <rect id="Rectangle_403257" data-name="Rectangle 403257" width="11.093" height="22.2" fill="none"/>
    </clipPath>
    <clipPath id="clip-path-8">
      <rect id="Rectangle_403258" data-name="Rectangle 403258" width="10.514" height="4.716" fill="none"/>
    </clipPath>
    <clipPath id="clip-path-9">
      <rect id="Rectangle_403260" data-name="Rectangle 403260" width="10.566" height="2.306" fill="none"/>
    </clipPath>
  </defs>
  <g id="Group_1103347" data-name="Group 1103347" transform="translate(-1091.656 -886)">
    <g id="Group_1099376" data-name="Group 1099376" transform="translate(703.988 -5127)">
      <rect id="Rectangle_401103" data-name="Rectangle 401103" width="121" height="121" transform="translate(387.668 6013)" fill="none"/>
      <g id="Group_1099348" data-name="Group 1099348" transform="translate(387.668 6013)">
        <g id="Group_1099282" data-name="Group 1099282">
          <g id="Group_1099281" data-name="Group 1099281" clip-path="url(#clip-path-2)">
            <path id="Path_873375" data-name="Path 873375" d="M74.8,9.1c-4.139,0-6.28-2.03-8.17-3.821-1.855-1.756-3.452-3.274-6.792-3.274s-4.937,1.517-6.792,3.274C51.161,7.072,49.023,9.1,44.881,9.1s-6.28-2.03-8.169-3.821C34.857,3.525,33.26,2.007,29.92,2.007s-4.937,1.517-6.789,3.274C21.241,7.072,19.1,9.1,14.962,9.1S8.679,7.072,6.789,5.281C4.937,3.525,3.34,2.007,0,2.007V0C4.139,0,6.28,2.033,8.17,3.821c1.855,1.759,3.452,3.274,6.792,3.274S19.9,5.58,21.75,3.824C23.637,2.033,25.781,0,29.92,0s6.283,2.033,8.17,3.821c1.855,1.759,3.452,3.274,6.792,3.274s4.937-1.514,6.792-3.274C53.56,2.033,55.7,0,59.843,0s6.283,2.033,8.17,3.821C69.867,5.58,71.464,7.094,74.8,7.094S79.742,5.58,81.6,3.821C83.483,2.033,85.624,0,89.766,0V2.007c-3.34,0-4.937,1.517-6.792,3.274C81.084,7.072,78.943,9.1,74.8,9.1" transform="translate(2.453 32.43)" fill="#efb499"/>
            <path id="Path_873376" data-name="Path 873376" d="M74.8,9.1c-4.139,0-6.283-2.03-8.17-3.824-1.855-1.756-3.452-3.27-6.792-3.27s-4.937,1.514-6.792,3.27C51.164,7.072,49.023,9.1,44.881,9.1s-6.283-2.03-8.17-3.824c-1.855-1.756-3.452-3.27-6.792-3.27s-4.937,1.517-6.789,3.27C21.241,7.072,19.1,9.1,14.962,9.1S8.679,7.072,6.789,5.278C4.937,3.522,3.34,2.007,0,2.007V0C4.139,0,6.283,2.03,8.17,3.821c1.855,1.759,3.452,3.274,6.792,3.274S19.9,5.58,21.75,3.821C23.637,2.03,25.781,0,29.92,0S36.2,2.03,38.093,3.821c1.852,1.759,3.449,3.274,6.789,3.274s4.937-1.514,6.792-3.274C53.56,2.03,55.7,0,59.843,0s6.283,2.03,8.17,3.821C69.867,5.58,71.464,7.094,74.8,7.094S79.742,5.58,81.6,3.821C83.486,2.03,85.627,0,89.769,0V2.007c-3.34,0-4.94,1.517-6.8,3.27C81.084,7.072,78.943,9.1,74.8,9.1" transform="translate(1.635 21.62)" fill="#efb499"/>
            <path id="Path_873377" data-name="Path 873377" d="M74.8,9.1c-4.139,0-6.283-2.03-8.169-3.824-1.855-1.756-3.452-3.27-6.792-3.27s-4.937,1.514-6.792,3.27C51.164,7.072,49.02,9.1,44.881,9.1s-6.283-2.03-8.17-3.824c-1.855-1.756-3.452-3.27-6.792-3.27s-4.937,1.517-6.789,3.27C21.241,7.072,19.1,9.1,14.962,9.1S8.678,7.072,6.789,5.278C4.937,3.522,3.34,2.007,0,2.007V0C4.139,0,6.283,2.03,8.169,3.821c1.851,1.759,3.452,3.274,6.792,3.274S19.9,5.58,21.75,3.821C23.637,2.03,25.781,0,29.92,0S36.2,2.03,38.093,3.821c1.852,1.759,3.449,3.274,6.789,3.274s4.937-1.514,6.792-3.274C53.56,2.03,55.7,0,59.843,0s6.283,2.03,8.17,3.821C69.867,5.58,71.464,7.094,74.8,7.094S79.742,5.58,81.6,3.821C83.486,2.03,85.624,0,89.769,0V2.007c-3.34,0-4.941,1.517-6.8,3.27C81.084,7.072,78.943,9.1,74.8,9.1" transform="translate(0.818 10.81)" fill="#efb499"/>
            <path id="Path_873378" data-name="Path 873378" d="M74.8,9.1c-4.139,0-6.28-2.03-8.17-3.821-1.855-1.756-3.452-3.27-6.792-3.27s-4.937,1.514-6.789,3.27C51.164,7.069,49.023,9.1,44.881,9.1s-6.28-2.03-8.169-3.821c-1.855-1.756-3.452-3.27-6.792-3.27s-4.937,1.514-6.789,3.267C21.245,7.069,19.1,9.1,14.962,9.1S8.678,7.069,6.789,5.278C4.937,3.522,3.34,2.007,0,2.007V0C4.139,0,6.283,2.03,8.17,3.821c1.855,1.756,3.452,3.27,6.792,3.27S19.9,5.577,21.75,3.821C23.64,2.03,25.781,0,29.92,0s6.28,2.03,8.173,3.821c1.852,1.756,3.449,3.27,6.789,3.27s4.937-1.514,6.792-3.27C53.563,2.03,55.7,0,59.843,0s6.28,2.03,8.17,3.821c1.855,1.756,3.452,3.27,6.792,3.27s4.937-1.514,6.792-3.27C83.486,2.03,85.627,0,89.769,0V2.007c-3.344,0-4.941,1.514-6.8,3.27C81.084,7.069,78.943,9.1,74.8,9.1" transform="translate(0 0.003)" fill="#efb499"/>
          </g>
        </g>
      </g>
      <circle id="Ellipse_11504" data-name="Ellipse 11504" cx="50.5" cy="50.5" r="50.5" transform="translate(402.668 6031)" fill="#ffce73"/>
      <circle id="Ellipse_11503" data-name="Ellipse 11503" cx="52.5" cy="52.5" r="52.5" transform="translate(395.668 6021)" fill="#f3f9ff"/>
    </g>
    <g id="Group_1099377" data-name="Group 1099377" transform="translate(1117.598 911.804)">
      <rect id="Rectangle_401104" data-name="Rectangle 401104" width="68" height="69" transform="translate(0.402 -0.804)" fill="none"/>
      <g id="Group_1101560" data-name="Group 1101560" transform="translate(10.402 1.505)">
        <g id="Group_1101559" data-name="Group 1101559" clip-path="url(#clip-path-3)">
          <g id="Group_1101545" data-name="Group 1101545" transform="translate(0 0)">
            <g id="Group_1101544" data-name="Group 1101544" clip-path="url(#clip-path-3)">
              <path id="Path_881051" data-name="Path 881051" d="M48,1.073V64.026A1.24,1.24,0,0,1,46.644,65.1H1.356A1.24,1.24,0,0,1,0,64.026V1.073A1.239,1.239,0,0,1,1.356,0H46.644A1.24,1.24,0,0,1,48,1.073" transform="translate(0 0)" fill="#243239"/>
              <rect id="Rectangle_403252" data-name="Rectangle 403252" width="41.338" height="51.077" transform="translate(3.331 5.653)" fill="#edf3f3"/>
              <rect id="Rectangle_403253" data-name="Rectangle 403253" width="9.1" height="3.481" transform="translate(19.673 59.314)" fill="#ffce73"/>
              <rect id="Rectangle_403254" data-name="Rectangle 403254" width="13.829" height="1.431" transform="translate(17.309 2.337)" fill="#344951"/>
              <path id="Path_881052" data-name="Path 881052" d="M39.277,29.17A11.1,11.1,0,1,1,28.184,18.077,11.1,11.1,0,0,1,39.277,29.17" transform="translate(-4.179 -4.424)" fill="#7bd1df"/>
              <path id="Path_881053" data-name="Path 881053" d="M39.278,29.175a11.1,11.1,0,1,1-11.1-11.1,11.1,11.1,0,0,1,11.1,11.1" transform="translate(-4.179 -4.423)" fill="#fff"/>
            </g>
          </g>
          <g id="Group_1101547" data-name="Group 1101547" transform="translate(12.901 13.653)">
            <g id="Group_1101546" data-name="Group 1101546" clip-path="url(#clip-path-5)">
              <path id="Path_881054" data-name="Path 881054" d="M35.933,44.828v6.153h-12.3V44.828a6.151,6.151,0,0,1,12.3,0" transform="translate(-18.683 -23.117)" fill="#f77c5b"/>
              <path id="Path_881055" data-name="Path 881055" d="M34.914,26.762v2.6a4.643,4.643,0,1,1-9.286,0v-2.6c0-.033,0-.069,0-.1a4.642,4.642,0,0,1,9.283.1" transform="translate(-19.172 -19.065)" fill="#fdda92"/>
              <path id="Path_881056" data-name="Path 881056" d="M34.914,26.762v.119a9.379,9.379,0,0,1-6.831-2.4c-1.04,1.733-1.692,1.946-2.452,2.18a4.642,4.642,0,0,1,9.283.1" transform="translate(-19.172 -19.065)" fill="#058789"/>
            </g>
          </g>
          <g id="Group_1101558" data-name="Group 1101558" transform="translate(0 0)">
            <g id="Group_1101557" data-name="Group 1101557" clip-path="url(#clip-path-3)">
              <rect id="Rectangle_403256" data-name="Rectangle 403256" width="21.133" height="2.306" transform="translate(13.438 45.536)" fill="#cdd1d1"/>
              <path id="Path_881058" data-name="Path 881058" d="M38.886,53.856a2.356,2.356,0,0,1-2.358,2.358H20.2a2.358,2.358,0,0,1,0-4.716H36.527a2.356,2.356,0,0,1,2.358,2.358" transform="translate(-4.367 -12.602)" fill="#f77c5b"/>
              <g id="Group_1101550" data-name="Group 1101550" transform="translate(24.005 13.653)" opacity="0.07">
                <g id="Group_1101549" data-name="Group 1101549">
                  <g id="Group_1101548" data-name="Group 1101548" clip-path="url(#clip-path-7)">
                    <path id="Path_881059" data-name="Path 881059" d="M31.782,40.277v-22.2a11.1,11.1,0,0,1,0,22.2" transform="translate(-31.782 -18.077)" fill="#231f20"/>
                  </g>
                </g>
              </g>
              <g id="Group_1101553" data-name="Group 1101553" transform="translate(24.005 38.897)" opacity="0.07">
                <g id="Group_1101552" data-name="Group 1101552">
                  <g id="Group_1101551" data-name="Group 1101551" clip-path="url(#clip-path-8)">
                    <path id="Path_881060" data-name="Path 881060" d="M39.937,56.215H31.782V51.5h8.155a2.358,2.358,0,1,1,0,4.716" transform="translate(-31.782 -51.498)" fill="#231f20"/>
                  </g>
                </g>
              </g>
              <g id="Group_1101556" data-name="Group 1101556" transform="translate(24.005 45.536)" opacity="0.07">
                <g id="Group_1101555" data-name="Group 1101555">
                  <g id="Group_1101554" data-name="Group 1101554" clip-path="url(#clip-path-9)">
                    <rect id="Rectangle_403259" data-name="Rectangle 403259" width="10.567" height="2.306" transform="translate(0 0)" fill="#231f20"/>
                  </g>
                </g>
              </g>
            </g>
          </g>
        </g>
      </g>
    </g>
  </g>
</svg>
