<svg xmlns="http://www.w3.org/2000/svg" xmlns:xlink="http://www.w3.org/1999/xlink" width="120" height="120" viewBox="0 0 120 120">
  <defs>
    <clipPath id="clip-path">
      <rect id="Rectangle_400938" data-name="Rectangle 400938" width="120" height="120" transform="translate(0 0)" fill="none"/>
    </clipPath>
    <clipPath id="clip-path-2">
      <rect id="Rectangle_401073" data-name="Rectangle 401073" width="92.219" height="41.532" fill="#7d3a1b"/>
    </clipPath>
    <clipPath id="clip-path-3">
      <rect id="Rectangle_403401" data-name="Rectangle 403401" width="66" height="65.827" fill="none"/>
    </clipPath>
  </defs>
  <g id="Group_1103344" data-name="Group 1103344" transform="translate(-180 -1573.32)">
    <g id="Group_1101782" data-name="Group 1101782" transform="translate(-207.668 -4439.68)">
      <rect id="Rectangle_401103" data-name="Rectangle 401103" width="120" height="120" transform="translate(387.668 6013)" fill="none"/>
      <g id="Group_1099348" data-name="Group 1099348" transform="translate(387.668 6013)">
        <g id="Group_1099282" data-name="Group 1099282">
          <g id="Group_1099281" data-name="Group 1099281" clip-path="url(#clip-path-2)">
            <path id="Path_873375" data-name="Path 873375" d="M74.8,9.1c-4.139,0-6.28-2.03-8.17-3.821-1.855-1.756-3.452-3.274-6.792-3.274s-4.937,1.517-6.792,3.274C51.161,7.072,49.023,9.1,44.881,9.1s-6.28-2.03-8.169-3.821C34.857,3.525,33.26,2.007,29.92,2.007s-4.937,1.517-6.789,3.274C21.241,7.072,19.1,9.1,14.962,9.1S8.679,7.072,6.789,5.281C4.937,3.525,3.34,2.007,0,2.007V0C4.139,0,6.28,2.033,8.17,3.821c1.855,1.759,3.452,3.274,6.792,3.274S19.9,5.58,21.75,3.824C23.637,2.033,25.781,0,29.92,0s6.283,2.033,8.17,3.821c1.855,1.759,3.452,3.274,6.792,3.274s4.937-1.514,6.792-3.274C53.56,2.033,55.7,0,59.843,0s6.283,2.033,8.17,3.821C69.867,5.58,71.464,7.094,74.8,7.094S79.742,5.58,81.6,3.821C83.483,2.033,85.624,0,89.766,0V2.007c-3.34,0-4.937,1.517-6.792,3.274C81.084,7.072,78.943,9.1,74.8,9.1" transform="translate(2.453 32.43)" fill="#7d3a1b"/>
            <path id="Path_873376" data-name="Path 873376" d="M74.8,9.1c-4.139,0-6.283-2.03-8.17-3.824-1.855-1.756-3.452-3.27-6.792-3.27s-4.937,1.514-6.792,3.27C51.164,7.072,49.023,9.1,44.881,9.1s-6.283-2.03-8.17-3.824c-1.855-1.756-3.452-3.27-6.792-3.27s-4.937,1.517-6.789,3.27C21.241,7.072,19.1,9.1,14.962,9.1S8.679,7.072,6.789,5.278C4.937,3.522,3.34,2.007,0,2.007V0C4.139,0,6.283,2.03,8.17,3.821c1.855,1.759,3.452,3.274,6.792,3.274S19.9,5.58,21.75,3.821C23.637,2.03,25.781,0,29.92,0S36.2,2.03,38.093,3.821c1.852,1.759,3.449,3.274,6.789,3.274s4.937-1.514,6.792-3.274C53.56,2.03,55.7,0,59.843,0s6.283,2.03,8.17,3.821C69.867,5.58,71.464,7.094,74.8,7.094S79.742,5.58,81.6,3.821C83.486,2.03,85.627,0,89.769,0V2.007c-3.34,0-4.94,1.517-6.8,3.27C81.084,7.072,78.943,9.1,74.8,9.1" transform="translate(1.635 21.62)" fill="#7d3a1b"/>
            <path id="Path_873377" data-name="Path 873377" d="M74.8,9.1c-4.139,0-6.283-2.03-8.169-3.824-1.855-1.756-3.452-3.27-6.792-3.27s-4.937,1.514-6.792,3.27C51.164,7.072,49.02,9.1,44.881,9.1s-6.283-2.03-8.17-3.824c-1.855-1.756-3.452-3.27-6.792-3.27s-4.937,1.517-6.789,3.27C21.241,7.072,19.1,9.1,14.962,9.1S8.678,7.072,6.789,5.278C4.937,3.522,3.34,2.007,0,2.007V0C4.139,0,6.283,2.03,8.169,3.821c1.851,1.759,3.452,3.274,6.792,3.274S19.9,5.58,21.75,3.821C23.637,2.03,25.781,0,29.92,0S36.2,2.03,38.093,3.821c1.852,1.759,3.449,3.274,6.789,3.274s4.937-1.514,6.792-3.274C53.56,2.03,55.7,0,59.843,0s6.283,2.03,8.17,3.821C69.867,5.58,71.464,7.094,74.8,7.094S79.742,5.58,81.6,3.821C83.486,2.03,85.624,0,89.769,0V2.007c-3.34,0-4.941,1.517-6.8,3.27C81.084,7.072,78.943,9.1,74.8,9.1" transform="translate(0.818 10.81)" fill="#7d3a1b"/>
            <path id="Path_873378" data-name="Path 873378" d="M74.8,9.1c-4.139,0-6.28-2.03-8.17-3.821-1.855-1.756-3.452-3.27-6.792-3.27s-4.937,1.514-6.789,3.27C51.164,7.069,49.023,9.1,44.881,9.1s-6.28-2.03-8.169-3.821c-1.855-1.756-3.452-3.27-6.792-3.27s-4.937,1.514-6.789,3.267C21.245,7.069,19.1,9.1,14.962,9.1S8.678,7.069,6.789,5.278C4.937,3.522,3.34,2.007,0,2.007V0C4.139,0,6.283,2.03,8.17,3.821c1.855,1.756,3.452,3.27,6.792,3.27S19.9,5.577,21.75,3.821C23.64,2.03,25.781,0,29.92,0s6.28,2.03,8.173,3.821c1.852,1.756,3.449,3.27,6.789,3.27s4.937-1.514,6.792-3.27C53.563,2.03,55.7,0,59.843,0s6.28,2.03,8.17,3.821c1.855,1.756,3.452,3.27,6.792,3.27s4.937-1.514,6.792-3.27C83.486,2.03,85.627,0,89.769,0V2.007c-3.344,0-4.941,1.514-6.8,3.27C81.084,7.069,78.943,9.1,74.8,9.1" transform="translate(0 0.003)" fill="#7d3a1b"/>
          </g>
        </g>
      </g>
      <circle id="Ellipse_11504" data-name="Ellipse 11504" cx="50" cy="50" r="50" transform="translate(402.668 6031)" fill="#efb499"/>
      <circle id="Ellipse_11503" data-name="Ellipse 11503" cx="52" cy="52" r="52" transform="translate(395.668 6021)" fill="#f3f9ff"/>
    </g>
    <g id="Group_1101784" data-name="Group 1101784" transform="translate(205.941 1599.124)">
      <rect id="Rectangle_401104" data-name="Rectangle 401104" width="68" height="69" transform="translate(0.059 -1.124)" fill="none"/>
      <g id="Group_1101814" data-name="Group 1101814" transform="translate(1.059 0.876)">
        <g id="Group_1101813" data-name="Group 1101813" transform="translate(0 0)" clip-path="url(#clip-path-3)">
          <path id="Path_881810" data-name="Path 881810" d="M15.92.274a.805.805,0,0,1,.5-.2A4.259,4.259,0,0,1,17.236,0Q32.368,0,47.506,0a2.606,2.606,0,0,1,1.685.49,2.2,2.2,0,0,1,.873,1.72c.019.4,0,.807,0,1.209q0,11.541,0,23.082c-.012.088-.08.125-.147.17-.7.483-1.4.956-2.087,1.457a3.709,3.709,0,0,0-.89.651.67.67,0,0,0-.315.149q-1.853,1.26-3.7,2.515c-1.121.762-2.229,1.545-3.334,2.333-.994.71-2.028,1.36-3.033,2.051-1.069.736-2.125,1.5-3.192,2.236-1.034.717-2.106,1.382-3.111,2.139-.783.589-1.642,1.062-2.444,1.621a18.605,18.605,0,0,1-1.535,1.1c-.608.338-1.084.842-1.67,1.2a.178.178,0,0,0-.059.293c.047.062.083.135.128.2.759,1.034,1.469,2.1,2.222,3.137.459.632.882,1.294,1.32,1.945.821,1.221,1.673,2.423,2.5,3.641.128.189.229.187.4.083.466-.274.9-.606,1.346-.9,1.285-.852,2.543-1.741,3.814-2.614q2.832-1.952,5.664-3.9c.953-.66,1.9-1.339,2.851-2,1.256-.866,2.52-1.72,3.778-2.579.494-.336.991-.672,1.486-1.01.149.348-.009.7-.007,1.048q.021,11,.009,22a2.271,2.271,0,0,1-2.274,2.349c-.36.031-.717,0-1.076,0q-22.124,0-44.25.007A2.408,2.408,0,0,1,0,63.34Q.014,40.12.012,16.9a1.565,1.565,0,0,1,.274-1.1.7.7,0,0,0,.473.123c.845,0,1.689.007,2.534,0,3.159-.033,6.322.088,9.48-.066a3.222,3.222,0,0,0,2.576-1.491,3.52,3.52,0,0,0,.577-2.061q.007-5.714,0-11.432c0-.2.106-.4-.007-.6m1.8,56.335a2.169,2.169,0,0,0,1.1-.1c.558-.151,1.117-.3,1.677-.433,1.062-.256,2.127-.5,3.2-.755a.71.71,0,0,0-.052-.142c-.232-.35-.466-.7-.705-1.048q-1.228-1.782-2.461-3.561c-.211-.3-.222-.293-.428,0-.1.144-.2.291-.293.44-.752,1.174-1.559,2.309-2.352,3.454-.109.007-.215.021-.324.021l-4.947,0c-1.758,0-3.516,0-5.274,0a1.1,1.1,0,0,0-.972.561,1.031,1.031,0,0,0,.014,1.14,1.187,1.187,0,0,0,1.11.535l10.368,0c.132,0,.258,0,.341-.125m6.752-32.782h16.5c.383,0,.767.009,1.15,0a1.128,1.128,0,0,0,1.022-1.545,1.02,1.02,0,0,0-1.136-.693q-17.521,0-35.042,0c-.059,0-.118,0-.177,0a1.112,1.112,0,0,0-.951,1.58,1.158,1.158,0,0,0,1.124.66H24.473m-4.126,5.662h0c4.5,0,9-.007,13.5.007a1.149,1.149,0,0,0,1.074-1.552,1.2,1.2,0,0,0-1.19-.7q-13.351,0-26.7,0c-.059,0-.118,0-.177,0a1.122,1.122,0,1,0,.057,2.243q6.722,0,13.441,0m-4.1,5.664v0h5.423c1.346,0,2.69,0,4.036,0a1.1,1.1,0,0,0,1.015-1.4,1.2,1.2,0,0,0-1.209-.84c-.923,0-1.848,0-2.771,0q-7.822,0-15.648,0a1.514,1.514,0,0,0-.987.312A1.1,1.1,0,0,0,5.782,34.4a1.187,1.187,0,0,0,1.06.755q4.7,0,9.4,0M45.528,57.347c0-.963,0-1.926,0-2.889a1.111,1.111,0,0,0-1.112-1.11,1.16,1.16,0,0,0-1.133,1.1c.007.423,0,.845,0,1.268q0,1.491,0,2.979c0,.135.028.279-.192.282-.4.009-.8.047-1.2.052-.994.007-1.985,0-2.979,0a1.433,1.433,0,0,0-.57.1,1.089,1.089,0,0,0-.764,1.178,1.287,1.287,0,0,0,1.119.956c1.876.009,3.752.026,5.629,0a1.1,1.1,0,0,0,1.211-1.233c-.035-.894-.007-1.789-.007-2.683m-5.735-52.8c-1.483,0-2.967.007-4.45,0a1.193,1.193,0,0,0-1.131,1.472,1.34,1.34,0,0,0,1.211.823l8.607,0a2.156,2.156,0,0,0,.748-.135,1.072,1.072,0,0,0,.487-1.725,1.3,1.3,0,0,0-1.079-.435c-1.465,0-2.929,0-4.394,0M11.115,43.166c-1.453,0-2.908,0-4.36,0a1.056,1.056,0,0,0-.979,1.358,1.013,1.013,0,0,0,1.121.826q3.684,0,7.368,0c.393,0,.785.007,1.178,0a1.137,1.137,0,0,0,1.074-1.112,1.123,1.123,0,0,0-1.1-1.076c-1.434.017-2.868,0-4.3,0M41.524,11.325c.953,0,1.907,0,2.858,0a1.117,1.117,0,1,0-.038-2.231c-1.867-.024-3.733-.019-5.6,0a1.13,1.13,0,0,0-1.124,1.185,1.214,1.214,0,0,0,1.195,1.06c.9-.045,1.805-.009,2.709-.009M9.175,48.83c-.8,0-1.611-.007-2.416,0a1.074,1.074,0,0,0-1,1.351c.166.6.549.882,1.351.878,1.5-.007,3,.062,4.5-.04a1.133,1.133,0,0,0,1.022-1.176A1.148,1.148,0,0,0,11.56,48.83c-.795,0-1.59,0-2.385,0m15.376-4.405-4.072,6.149,3.166,4.609,7.076-1.838Z" transform="translate(0 0)" fill="#ffe7ba"/>
          <path id="Path_881811" data-name="Path 881811" d="M35.921,23.805c-.494.336-.989.674-1.486,1.01-1.259.859-2.522,1.713-3.778,2.576-.956.66-1.9,1.339-2.851,2q-2.828,1.955-5.664,3.9c-1.268.873-2.527,1.763-3.814,2.614-.45.3-.88.627-1.346.9-.175.1-.277.106-.4-.083-.828-1.218-1.677-2.42-2.5-3.641-.438-.651-.861-1.313-1.318-1.945C12,30.106,11.294,29.039,10.535,28c-.045-.062-.08-.135-.128-.2a.178.178,0,0,1,.059-.293c.587-.36,1.062-.864,1.673-1.2.547-.3,1.015-.745,1.533-1.1.8-.556,1.661-1.029,2.444-1.618,1.006-.757,2.077-1.422,3.111-2.139,1.067-.741,2.122-1.5,3.192-2.236,1.006-.693,2.039-1.344,3.033-2.051,1.1-.79,2.212-1.571,3.334-2.333q1.853-1.256,3.7-2.515a.674.674,0,0,1,.315-.151c-.009.09.057.144.1.206.492.722,1,1.431,1.469,2.162.618.949,1.313,1.843,1.938,2.787.9,1.37,1.867,2.695,2.808,4.036.062.09-.033.118-.038.177-.137.267-.428.357-.648.513-.8.561-1.58,1.145-2.42,1.644-.038.024-.059.076-.09.114" transform="translate(14.142 16.616)" fill="#ffb937"/>
          <path id="Path_881812" data-name="Path 881812" d="M15.755.116c.114.2.007.4.007.6q.011,5.717,0,11.435a3.524,3.524,0,0,1-.577,2.061A3.222,3.222,0,0,1,12.608,15.7c-3.159.154-6.319.031-9.48.064-.845.009-1.689,0-2.534,0a.712.712,0,0,1-.473-.123A1.093,1.093,0,0,1,.45,15.13c2.207-2.207,4.4-4.429,6.632-6.615C7.727,7.883,8.373,7.245,9.005,6.6c.715-.731,1.483-1.405,2.179-2.16.745-.809,1.564-1.554,2.347-2.333q.852-.845,1.694-1.7a1.033,1.033,0,0,1,.53-.291" transform="translate(0.165 0.158)" fill="#ffce73"/>
          <path id="Path_881813" data-name="Path 881813" d="M21.842,13.667c.568-.407,1.131-.821,1.706-1.218.774-.535,1.562-1.05,2.335-1.585.807-.558,1.592-1.14,2.406-1.685a3.028,3.028,0,0,1,1.405-.5,6.84,6.84,0,0,1,1.188.026,2.7,2.7,0,0,1,1.4.629,5.946,5.946,0,0,1,1.28,1.562c.615.9,1.228,1.8,1.857,2.681a3.679,3.679,0,0,1,.741,2.572,3.23,3.23,0,0,1-1.01,2.03A14.451,14.451,0,0,1,33.44,19.4c-.589.435-1.2.84-1.805,1.254q-1.54,1.065-3.088,2.12c-.121.083-.2.263-.4.2-.047-.085-.09-.175-.144-.253q-1.551-2.25-3.109-4.5-1.483-2.133-2.979-4.254a.4.4,0,0,1-.078-.3" transform="translate(29.828 11.827)" fill="#ae4616"/>
          <path id="Path_881814" data-name="Path 881814" d="M24.567,10.778a.4.4,0,0,0,.078.3q1.491,2.126,2.979,4.254,1.562,2.243,3.109,4.5c.054.078.1.168.144.253a.591.591,0,0,1-.263.308c-1.436.994-2.875,1.98-4.308,2.974a.25.25,0,0,1-.187.066c0-.059.1-.09.038-.177-.942-1.341-1.907-2.669-2.808-4.036-.622-.944-1.318-1.838-1.935-2.787-.473-.731-.979-1.443-1.469-2.162-.043-.064-.109-.116-.1-.206a3.76,3.76,0,0,1,.892-.648c.684-.5,1.389-.977,2.087-1.46.066-.045.135-.08.147-.168a7.1,7.1,0,0,0,1.42-.939c.057-.043.1-.09.18-.071" transform="translate(27.102 14.716)" fill="#c3a37f"/>
          <path id="Path_881815" data-name="Path 881815" d="M21.161,11.366H3.653a1.153,1.153,0,0,1-1.121-.66,1.112,1.112,0,0,1,.951-1.58c.057,0,.116,0,.175,0q17.521,0,35.044,0a1.023,1.023,0,0,1,1.136.691,1.131,1.131,0,0,1-1.022,1.547c-.383.012-.767,0-1.15,0h-16.5Z" transform="translate(3.309 12.46)" fill="#c3a37f"/>
          <path id="Path_881816" data-name="Path 881816" d="M17.037,13.759q-6.722,0-13.441,0a1.122,1.122,0,1,1-.054-2.243c.057,0,.116,0,.175,0H30.424a1.2,1.2,0,0,1,1.188.7,1.15,1.15,0,0,1-1.074,1.554C26.037,13.752,21.537,13.759,17.037,13.759Z" transform="translate(3.307 15.729)" fill="#c3a37f"/>
          <path id="Path_881817" data-name="Path 881817" d="M12.937,16.153h-9.4a1.185,1.185,0,0,1-1.06-.755A1.1,1.1,0,0,1,2.8,14.22a1.523,1.523,0,0,1,.987-.312q7.825,0,15.648,0c.923,0,1.845,0,2.771,0a1.2,1.2,0,0,1,1.209.838,1.1,1.1,0,0,1-1.015,1.4c-1.346.007-2.692,0-4.036,0Z" transform="translate(3.305 18.997)" fill="#c3a37f"/>
          <path id="Path_881818" data-name="Path 881818" d="M23.841,26.548c0,.894-.028,1.789.007,2.683a1.1,1.1,0,0,1-1.209,1.233c-1.876.031-3.755.014-5.631,0a1.287,1.287,0,0,1-1.119-.956,1.089,1.089,0,0,1,.764-1.178,1.445,1.445,0,0,1,.573-.1c.991,0,1.985,0,2.976,0,.4,0,.8-.043,1.2-.052.22,0,.194-.147.194-.282q0-1.491,0-2.979c0-.424.009-.845,0-1.268a1.162,1.162,0,0,1,1.136-1.1,1.113,1.113,0,0,1,1.112,1.11c0,.963,0,1.926,0,2.889" transform="translate(21.684 30.799)" fill="#f5f4f4"/>
          <path id="Path_881819" data-name="Path 881819" d="M14.417,25.161c-.083.125-.208.125-.341.125q-5.185,0-10.368,0a1.187,1.187,0,0,1-1.11-.535,1.026,1.026,0,0,1-.014-1.14,1.094,1.094,0,0,1,.972-.561c1.758,0,3.516,0,5.274,0h4.947c.109,0,.215-.014.322-.021-.057.1-.109.206-.175.3a1.3,1.3,0,0,0-.293.684,1.228,1.228,0,0,0,.785,1.152" transform="translate(3.304 31.446)" fill="#c3a37f"/>
          <path id="Path_881820" data-name="Path 881820" d="M20.071,1.924q2.2,0,4.391,0a1.314,1.314,0,0,1,1.081.435,1.073,1.073,0,0,1-.487,1.725,2.112,2.112,0,0,1-.748.135q-4.3,0-8.607,0a1.343,1.343,0,0,1-1.211-.826,1.193,1.193,0,0,1,1.131-1.472c1.483.012,2.967,0,4.45,0" transform="translate(19.721 2.62)" fill="#c3a37f"/>
          <path id="Path_881821" data-name="Path 881821" d="M7.808,18.249c1.434,0,2.868.012,4.3-.007a1.094,1.094,0,0,1,.026,2.188c-.393.014-.785,0-1.178,0q-3.684,0-7.368,0a1.019,1.019,0,0,1-1.124-.826,1.057,1.057,0,0,1,.982-1.358c1.453-.007,2.908,0,4.36,0" transform="translate(3.307 24.917)" fill="#c3a37f"/>
          <path id="Path_881822" data-name="Path 881822" d="M7.944,27.539a1.228,1.228,0,0,1-.785-1.152,1.3,1.3,0,0,1,.293-.684c.066-.1.118-.2.175-.3.795-1.145,1.6-2.281,2.354-3.454.095-.147.192-.3.293-.44.206-.3.218-.3.426,0q1.239,1.774,2.463,3.561c.239.348.471.7.705,1.048a.711.711,0,0,1,.052.142c-1.074.253-2.139.5-3.2.755-.561.135-1.119.282-1.677.433a2.143,2.143,0,0,1-1.1.1" transform="translate(9.777 29.068)" fill="#12263f"/>
          <path id="Path_881823" data-name="Path 881823" d="M19.806,6.084c-.9,0-1.81-.033-2.711.012A1.218,1.218,0,0,1,15.9,5.036a1.131,1.131,0,0,1,1.126-1.185q2.8-.028,5.6,0a1.117,1.117,0,1,1,.038,2.231c-.953,0-1.9,0-2.858,0" transform="translate(21.718 5.238)" fill="#c3a37f"/>
          <path id="Path_881824" data-name="Path 881824" d="M5.875,20.639c.795,0,1.588,0,2.382,0a1.153,1.153,0,0,1,1.074,1.017A1.137,1.137,0,0,1,8.3,22.83c-1.5.1-3,.033-4.5.043-.8,0-1.183-.277-1.351-.88a1.076,1.076,0,0,1,1-1.351c.807-.009,1.611,0,2.418,0" transform="translate(3.3 28.188)" fill="#c3a37f"/>
        </g>
      </g>
    </g>
  </g>
</svg>
