<svg xmlns="http://www.w3.org/2000/svg" xmlns:xlink="http://www.w3.org/1999/xlink" width="120" height="120" viewBox="0 0 120 120">
  <defs>
    <clipPath id="clip-path">
      <rect id="Rectangle_400938" data-name="Rectangle 400938" width="120" height="120" transform="translate(0 0)" fill="none"/>
    </clipPath>
    <clipPath id="clip-path-2">
      <rect id="Rectangle_401073" data-name="Rectangle 401073" width="92.219" height="41.532" fill="#7d3a1b"/>
    </clipPath>
    <clipPath id="clip-path-3">
      <rect id="Rectangle_403196" data-name="Rectangle 403196" width="58.05" height="66.403" fill="none"/>
    </clipPath>
  </defs>
  <g id="Group_1103358" data-name="Group 1103358" transform="translate(-180 -2980)">
    <g id="Group_1099349" data-name="Group 1099349" transform="translate(-207.668 -3033)">
      <rect id="Rectangle_401103" data-name="Rectangle 401103" width="120" height="120" transform="translate(387.668 6013)" fill="none"/>
      <g id="Group_1099348" data-name="Group 1099348" transform="translate(387.668 6013)">
        <g id="Group_1099282" data-name="Group 1099282">
          <g id="Group_1099281" data-name="Group 1099281" clip-path="url(#clip-path-2)">
            <path id="Path_873375" data-name="Path 873375" d="M74.8,9.1c-4.139,0-6.28-2.03-8.17-3.821-1.855-1.756-3.452-3.274-6.792-3.274s-4.937,1.517-6.792,3.274C51.161,7.072,49.023,9.1,44.881,9.1s-6.28-2.03-8.169-3.821C34.857,3.525,33.26,2.007,29.92,2.007s-4.937,1.517-6.789,3.274C21.241,7.072,19.1,9.1,14.962,9.1S8.679,7.072,6.789,5.281C4.937,3.525,3.34,2.007,0,2.007V0C4.139,0,6.28,2.033,8.17,3.821c1.855,1.759,3.452,3.274,6.792,3.274S19.9,5.58,21.75,3.824C23.637,2.033,25.781,0,29.92,0s6.283,2.033,8.17,3.821c1.855,1.759,3.452,3.274,6.792,3.274s4.937-1.514,6.792-3.274C53.56,2.033,55.7,0,59.843,0s6.283,2.033,8.17,3.821C69.867,5.58,71.464,7.094,74.8,7.094S79.742,5.58,81.6,3.821C83.483,2.033,85.624,0,89.766,0V2.007c-3.34,0-4.937,1.517-6.792,3.274C81.084,7.072,78.943,9.1,74.8,9.1" transform="translate(2.453 32.43)" fill="#7d3a1b"/>
            <path id="Path_873376" data-name="Path 873376" d="M74.8,9.1c-4.139,0-6.283-2.03-8.17-3.824-1.855-1.756-3.452-3.27-6.792-3.27s-4.937,1.514-6.792,3.27C51.164,7.072,49.023,9.1,44.881,9.1s-6.283-2.03-8.17-3.824c-1.855-1.756-3.452-3.27-6.792-3.27s-4.937,1.517-6.789,3.27C21.241,7.072,19.1,9.1,14.962,9.1S8.679,7.072,6.789,5.278C4.937,3.522,3.34,2.007,0,2.007V0C4.139,0,6.283,2.03,8.17,3.821c1.855,1.759,3.452,3.274,6.792,3.274S19.9,5.58,21.75,3.821C23.637,2.03,25.781,0,29.92,0S36.2,2.03,38.093,3.821c1.852,1.759,3.449,3.274,6.789,3.274s4.937-1.514,6.792-3.274C53.56,2.03,55.7,0,59.843,0s6.283,2.03,8.17,3.821C69.867,5.58,71.464,7.094,74.8,7.094S79.742,5.58,81.6,3.821C83.486,2.03,85.627,0,89.769,0V2.007c-3.34,0-4.94,1.517-6.8,3.27C81.084,7.072,78.943,9.1,74.8,9.1" transform="translate(1.635 21.62)" fill="#7d3a1b"/>
            <path id="Path_873377" data-name="Path 873377" d="M74.8,9.1c-4.139,0-6.283-2.03-8.169-3.824-1.855-1.756-3.452-3.27-6.792-3.27s-4.937,1.514-6.792,3.27C51.164,7.072,49.02,9.1,44.881,9.1s-6.283-2.03-8.17-3.824c-1.855-1.756-3.452-3.27-6.792-3.27s-4.937,1.517-6.789,3.27C21.241,7.072,19.1,9.1,14.962,9.1S8.678,7.072,6.789,5.278C4.937,3.522,3.34,2.007,0,2.007V0C4.139,0,6.283,2.03,8.169,3.821c1.851,1.759,3.452,3.274,6.792,3.274S19.9,5.58,21.75,3.821C23.637,2.03,25.781,0,29.92,0S36.2,2.03,38.093,3.821c1.852,1.759,3.449,3.274,6.789,3.274s4.937-1.514,6.792-3.274C53.56,2.03,55.7,0,59.843,0s6.283,2.03,8.17,3.821C69.867,5.58,71.464,7.094,74.8,7.094S79.742,5.58,81.6,3.821C83.486,2.03,85.624,0,89.769,0V2.007c-3.34,0-4.941,1.517-6.8,3.27C81.084,7.072,78.943,9.1,74.8,9.1" transform="translate(0.818 10.81)" fill="#7d3a1b"/>
            <path id="Path_873378" data-name="Path 873378" d="M74.8,9.1c-4.139,0-6.28-2.03-8.17-3.821-1.855-1.756-3.452-3.27-6.792-3.27s-4.937,1.514-6.789,3.27C51.164,7.069,49.023,9.1,44.881,9.1s-6.28-2.03-8.169-3.821c-1.855-1.756-3.452-3.27-6.792-3.27s-4.937,1.514-6.789,3.267C21.245,7.069,19.1,9.1,14.962,9.1S8.678,7.069,6.789,5.278C4.937,3.522,3.34,2.007,0,2.007V0C4.139,0,6.283,2.03,8.17,3.821c1.855,1.756,3.452,3.27,6.792,3.27S19.9,5.577,21.75,3.821C23.64,2.03,25.781,0,29.92,0s6.28,2.03,8.173,3.821c1.852,1.756,3.449,3.27,6.789,3.27s4.937-1.514,6.792-3.27C53.563,2.03,55.7,0,59.843,0s6.28,2.03,8.17,3.821c1.855,1.756,3.452,3.27,6.792,3.27s4.937-1.514,6.792-3.27C83.486,2.03,85.627,0,89.769,0V2.007c-3.344,0-4.941,1.514-6.8,3.27C81.084,7.069,78.943,9.1,74.8,9.1" transform="translate(0 0.003)" fill="#7d3a1b"/>
          </g>
        </g>
      </g>
      <circle id="Ellipse_11504" data-name="Ellipse 11504" cx="50" cy="50" r="50" transform="translate(402.668 6031)" fill="#efb499"/>
      <circle id="Ellipse_11503" data-name="Ellipse 11503" cx="52" cy="52" r="52" transform="translate(395.668 6021)" fill="#f3f9ff"/>
    </g>
    <g id="Group_1099357" data-name="Group 1099357" transform="translate(205.941 3005.804)">
      <rect id="Rectangle_401104" data-name="Rectangle 401104" width="68" height="69" transform="translate(0.059 -0.804)" fill="none"/>
      <g id="Group_1101530" data-name="Group 1101530" transform="translate(6.403 0.449)">
        <g id="Group_1101529" data-name="Group 1101529" clip-path="url(#clip-path-3)">
          <path id="Path_880996" data-name="Path 880996" d="M34.833,0H1.853A1.852,1.852,0,0,0,0,1.853V62.837A1.852,1.852,0,0,0,1.853,64.69H47.909a1.852,1.852,0,0,0,1.853-1.853V14.928Z" fill="#fff"/>
          <path id="Path_880997" data-name="Path 880997" d="M178.226,158.511c2.27-.012,4.549-.01,6.819,0,1.41.006,2.829-.012,4.239,0V162.2c-1.1.009-2.214,0-3.317,0-4.434.02-9.037.143-13.454,0-1.15-.037-2.332.274-3.024-.937a1.852,1.852,0,0,1,1.454-2.753c2.085-.248,5.079.016,7.284,0" transform="translate(-138.048 -129.207)" fill="#7a4f00"/>
          <path id="Path_880998" data-name="Path 880998" d="M172.462,339.767c4.469-.121,8.982,0,13.454,0,1.1,0,2.214,0,3.317,0v3.686c-6.386.058-12.821-.192-19.167-.184-.844-.939-1.308-1.895-.372-2.993.646-.758,1.857-.484,2.768-.509" transform="translate(-137.998 -277.104)" fill="#6a4d23"/>
          <path id="Path_880999" data-name="Path 880999" d="M259.239,178.994c1.163-.01,2.34.036,3.5,0-.056,3.288.423,6.2-1.106,9.215H255c1.088-2.938.911-6.119.922-9.215,1.1,0,2.214.009,3.317,0" transform="translate(-208.003 -146.004)" fill="#f3c08e"/>
          <path id="Path_881000" data-name="Path 881000" d="M238.234,258.7a1.182,1.182,0,0,0,.265.746c.5.514,2.543,1.2,3.371,1.791a7.989,7.989,0,0,1,3.367,5.387h-6.819a7.1,7.1,0,0,0-1.213-3.118c-1.164-1.8-3.265-2.306-3.21-4.807a36.53,36.53,0,0,1,4.239,0" transform="translate(-190.869 -210.965)" fill="#f1c08e"/>
          <path id="Path_881001" data-name="Path 881001" d="M265.635,302a6.49,6.49,0,0,1,.366,1.2c.165,1.795-.116,3.8,0,5.618-1.1.031-2.317.181-3.5.184-1.1,0-2.214,0-3.317,0L259,302Z" transform="translate(-211.266 -246.341)" fill="#484e68"/>
          <path id="Path_881002" data-name="Path 881002" d="M237.87,229h6.635a8.509,8.509,0,0,1-3.931,3.9c-.76.464-2.1.7-2.335,1.627a36.544,36.544,0,0,0-4.239,0c.062-2.812,2.965-3.05,3.5-5.529Z" transform="translate(-190.873 -186.795)" fill="#484e69"/>
          <path id="Path_881003" data-name="Path 881003" d="M278,342.825v-3.686c1.185,0,2.406-.154,3.5-.184.888-.025,2.1-.061,2.769.641a1.9,1.9,0,0,1-.489,3.022c-.851.435-4.538.2-5.782.208" transform="translate(-226.764 -276.476)" fill="#432d04"/>
          <path id="Path_881004" data-name="Path 881004" d="M278,158.651c1.615.014,3.725-.182,5.257,0a1.866,1.866,0,0,1-.016,3.678,16.61,16.61,0,0,1-1.739.012c-1.162.036-2.339-.01-3.5,0Z" transform="translate(-226.764 -129.347)" fill="#432d04"/>
          <path id="Path_881005" data-name="Path 881005" d="M200.367,179c-.011,3.1.166,6.277-.922,9.215H188.018c-1.489-2.948-1.051-6.013-1.106-9.215,4.417.143,9.02.02,13.454,0" transform="translate(-152.448 -146.01)" fill="#feedc6"/>
          <path id="Path_881006" data-name="Path 881006" d="M200.021,302h.184l.184,7c-4.472,0-8.985-.121-13.454,0a66.21,66.21,0,0,1,.184-7h12.9Z" transform="translate(-152.471 -246.341)" fill="#707586"/>
          <path id="Path_881007" data-name="Path 881007" d="M197.294,258.89c-.055,2.5,2.047,3.007,3.21,4.807a7.1,7.1,0,0,1,1.213,3.118H189v-.184c.419-3.02,2.889-5.01,5.345-6.451.232-.136.823-.1,1.283-.468a3.581,3.581,0,0,0,.56-.822,7.983,7.983,0,0,1,1.106,0" transform="translate(-154.167 -211.156)" fill="#feedc6"/>
          <path id="Path_881008" data-name="Path 881008" d="M204.058,229c-.537,2.479-3.44,2.717-3.5,5.529a7.988,7.988,0,0,0-1.106,0c-.22-.93-1.21-.941-1.843-1.29-2.1-1.161-3.494-2.034-4.608-4.239Z" transform="translate(-157.43 -186.795)" fill="#6f7587"/>
          <path id="Path_881009" data-name="Path 881009" d="M188.184,301.184H188a.235.235,0,0,1,.184-.184Z" transform="translate(-153.351 -245.525)" fill="#f1c08e"/>
          <path id="Path_881010" data-name="Path 881010" d="M203.884,14.928c-3.912-.13-7.89.175-11.8,0-1.682-.076-2.608-.217-3.275-1.977L188.771,0c.2.071.414.066.558.263Z" transform="translate(-153.98)" fill="#dee4f0"/>
          <path id="Path_881011" data-name="Path 881011" d="M51.881,39.317H28.659a1.659,1.659,0,1,1,0-3.317H51.881a1.659,1.659,0,1,1,0,3.317" transform="translate(-22.024 -29.365)" fill="#7d3a1b"/>
          <path id="Path_881012" data-name="Path 881012" d="M51.881,75.317H28.659a1.659,1.659,0,1,1,0-3.317H51.881a1.659,1.659,0,1,1,0,3.317" transform="translate(-22.024 -58.73)" fill="#7d3a1b"/>
          <path id="Path_881013" data-name="Path 881013" d="M51.881,111.317H28.659a1.659,1.659,0,0,1,0-3.317H51.881a1.659,1.659,0,0,1,0,3.317" transform="translate(-22.024 -88.095)" fill="#7d3a1b"/>
        </g>
      </g>
    </g>
  </g>
</svg>
