<svg xmlns="http://www.w3.org/2000/svg" xmlns:xlink="http://www.w3.org/1999/xlink" width="190" height="124" viewBox="0 0 190 124">
  <defs>
    <clipPath id="clip-path">
      <rect id="Rectangle_403353" data-name="Rectangle 403353" width="190" height="124" transform="translate(1125 1144.154)" fill="#fff" stroke="#707070" stroke-width="1"/>
    </clipPath>
    <clipPath id="clip-path-2">
      <rect id="Rectangle_403352" data-name="Rectangle 403352" width="109.433" height="114.299" fill="none"/>
    </clipPath>
  </defs>
  <g id="Mask_Group_1101488" data-name="Mask Group 1101488" transform="translate(-1125 -1144.154)" clip-path="url(#clip-path)">
    <g id="Group_1101732" data-name="Group 1101732" transform="translate(1158 1146.855)">
      <g id="Group_1101731" data-name="Group 1101731" transform="translate(0 0)" clip-path="url(#clip-path-2)">
        <path id="Path_881556" data-name="Path 881556" d="M53.019,78.279c-1.567.086-3.134,0-4.7.016-.177,0-.358.012-.535.021a1.62,1.62,0,0,0-1.766-1.652q-19.473-.012-38.95-.025a6.148,6.148,0,0,1-4-1.438A5.981,5.981,0,0,1,.836,70.3Q.888,48.794.858,27.285a6.616,6.616,0,0,1-.009-1.274A6.159,6.159,0,0,1,3.91,21.684a7.889,7.889,0,0,1,4.028-.855q17.724.012,35.449,0a11.9,11.9,0,0,0,2.439-.14,9.685,9.685,0,0,0,5.8-3.443,21.745,21.745,0,0,0,2.314-4.257A6.214,6.214,0,0,1,57.44,9.7a7.376,7.376,0,0,1,2.569-.329c4.032-.033,8.069-.033,12.1-.029q9.74.006,19.475.033A3.87,3.87,0,0,1,93,9.587,4.088,4.088,0,0,1,95.6,12.2a5.863,5.863,0,0,1,.268,1.75q0,9.6.017,19.2c0,.349-.216.44-.471.362a3.578,3.578,0,0,0-1.062-.078q-14.979-.006-29.962.016a12.953,12.953,0,0,0-2.077.119A12.578,12.578,0,0,0,56.1,36.337a11.075,11.075,0,0,0-3.152,4.269,12.381,12.381,0,0,0-.825,4.89c.052,9.607.035,19.218.039,28.829a11.773,11.773,0,0,0,.194,1.644,21.706,21.706,0,0,0,.661,2.309M25.052,45.936H37.313a7.551,7.551,0,0,0,1.425-.095,4.5,4.5,0,0,0,3.838-4.4c.039-1.163.043-2.322-.009-3.48a4.576,4.576,0,0,0-.574-2.227,4.738,4.738,0,0,0-4.365-2.293q-12.5,0-25.005,0a5.456,5.456,0,0,0-1.373.119,4.5,4.5,0,0,0-3.536,4.1c-.039,1.142-.009,2.285-.022,3.427a5.26,5.26,0,0,0,.35,1.989A5.017,5.017,0,0,0,12.2,45.936H25.052" transform="translate(2.704 29.036)" fill="#ffb937"/>
        <path id="Path_881557" data-name="Path 881557" d="M55.723,107.313A21.166,21.166,0,0,1,55.062,105a11.629,11.629,0,0,1-.194-1.644c0-9.607.013-19.218-.039-28.829a12.394,12.394,0,0,1,.825-4.89,11.136,11.136,0,0,1,3.152-4.269,12.615,12.615,0,0,1,6.213-2.761,13.98,13.98,0,0,1,2.077-.119q14.979-.031,29.962-.012a3.578,3.578,0,0,1,1.062.078c.255.078.471-.016.471-.366q-.019-9.6-.017-19.2a6.025,6.025,0,0,0-.268-1.75,4.082,4.082,0,0,0-2.6-2.613,3.884,3.884,0,0,0-1.412-.214q-9.74-.025-19.475-.037c-4.032,0-8.069,0-12.1.029a7.379,7.379,0,0,0-2.569.333,6.2,6.2,0,0,0-3.5,3.287,21.6,21.6,0,0,1-2.314,4.253,9.665,9.665,0,0,1-5.8,3.443,11.618,11.618,0,0,1-2.439.144q-17.724.012-35.453,0a7.879,7.879,0,0,0-4.024.851A6.166,6.166,0,0,0,3.553,55.05a6.614,6.614,0,0,0,0,1.274q0,21.5-.017,43.014a6,6,0,0,0,2.223,4.9,6.19,6.19,0,0,0,4.006,1.438q19.473.019,38.95.025a1.619,1.619,0,0,1,1.766,1.648,1.747,1.747,0,0,1-1.973,1.627q-14.817.012-29.629.016c-3.065,0-6.13-.012-9.2-.012a9.371,9.371,0,0,1-4.4-1.105,9.381,9.381,0,0,1-5.012-6.234,10.147,10.147,0,0,1-.242-2.527C.03,84.857.052,70.6,0,56.336a9.872,9.872,0,0,1,1.325-5.1,8.149,8.149,0,0,1,3.182-3.18A12.246,12.246,0,0,1,7.313,46.86c.337-.082.462-.255.393-.567v-.3q.006-6.4.009-12.8c.009-6.4,0-12.8.03-19.2A4.082,4.082,0,0,1,8.9,11.411a4.425,4.425,0,0,1,2.69-1.5,7.612,7.612,0,0,1,1.528-.148q5.919-.018,11.834,0c.691,0,.224-.477.38-.686.056-.045.056-.095,0-.144-.022-1.508-.009-3.016-.017-4.528a4.116,4.116,0,0,1,1.4-2.959A5.522,5.522,0,0,1,30.881,0q22,.006,43.993,0H88.749a6.518,6.518,0,0,1,2.905.547,5.1,5.1,0,0,1,1.779,1.434,4.433,4.433,0,0,1,.907,2.737c.043,7.968.035,15.939.017,23.907,0,.962-.389,1.582-1.723,1.824a1.723,1.723,0,0,1-1.757-1.771,3.469,3.469,0,0,0-.009-1.035v-.308q0-10.589,0-21.182A4.642,4.642,0,0,0,90.8,4.413c-.263-.838-.98-1.072-1.925-1.118-.876-.041-1.753,0-2.634,0Q58.46,3.285,30.683,3.3c-1.455,0-1.826.448-1.831,1.693,0,1.434,0,2.868-.035,4.3-.009.4.108.473.5.468q13.774-.012,27.54,0,7.344,0,14.683,0A5.1,5.1,0,0,1,75.1,11a5.228,5.228,0,0,1,1.71,4.084c-.082,6.46.112,12.923-.121,19.383-.017.485.147.579.622.579,2.78-.025,5.556-.008,8.337-.016,2.327,0,4.658-.021,6.99-.029a29.355,29.355,0,0,1,3.177.238,7.518,7.518,0,0,1,5.867,5.338,14.692,14.692,0,0,1,.414,3.386q-.006,9.5-.013,19c0,.325.108.452.419.588a11.54,11.54,0,0,1,4.68,3.657,10.722,10.722,0,0,1,2.245,6.628q0,14.54,0,29.084a10.327,10.327,0,0,1-1.256,5.091,11.607,11.607,0,0,1-6.079,5.387,13.667,13.667,0,0,1-3.506.826,23.378,23.378,0,0,1-2.4.074q-14.739.006-29.478-.008a12.127,12.127,0,0,1-5.694-1.442,11.678,11.678,0,0,1-4.973-5c-.095-.181-.212-.349-.319-.526m13.66-94.185c-.1,0-.212-.012-.319-.012q-28.157-.006-56.314,0a1.273,1.273,0,0,0-1.464,1.438q0,15.767-.009,31.537c0,.362.095.5.471.448a2.865,2.865,0,0,1,.376,0q10.977,0,21.945,0c4.373,0,8.751,0,13.124-.033a5.643,5.643,0,0,0,3.769-1.537,9.407,9.407,0,0,0,2.059-3.316,11.649,11.649,0,0,1,2.789-4.171,9.683,9.683,0,0,1,6.424-2.433c2.383-.016,4.766-.016,7.154-.025,1.075,0,2.15-.033,3.225.021.574.029.665-.168.656-.662-.082-6.6.13-13.2-.112-19.8A1.341,1.341,0,0,0,71.8,13.12c-.807-.025-1.615,0-2.422.008m12.736,97.9v0q7.506,0,15.007,0a11.17,11.17,0,0,0,2.025-.214,8.109,8.109,0,0,0,3.886-1.7,7.842,7.842,0,0,0,2.923-6.131q.013-1.362,0-2.716c-.069-9.176.138-18.351-.1-27.527a5.36,5.36,0,0,0-.587-2.2,8.28,8.28,0,0,0-3.717-3.776,7.352,7.352,0,0,0-3.424-.912c-5.146.012-10.292,0-15.438-.008s-10.288-.012-15.434,0a9.461,9.461,0,0,0-3.98.633,7.663,7.663,0,0,0-4.922,7.211c-.086,9.661-.035,19.321-.043,28.982a9.206,9.206,0,0,0,.432,2.77,7.181,7.181,0,0,0,1.636,2.786,8.368,8.368,0,0,0,6.027,2.757c5.232.127,10.469.041,15.706.041" transform="translate(0 0.002)" fill="#060607"/>
        <path id="Path_881558" data-name="Path 881558" d="M68.736,26.2a1.72,1.72,0,0,0,1.757,1.767q0,2.274,0,4.549c-2.331.012-4.663.029-6.99.033-2.78.008-5.561-.008-8.337.012-.479,0-.639-.095-.622-.575.233-6.46.039-12.923.117-19.383A5.2,5.2,0,0,0,52.96,8.522,5.083,5.083,0,0,0,49.4,7.285q-7.344-.012-14.683-.008-13.768,0-27.54,0c-.393,0-.509-.066-.5-.468.039-1.434.03-2.868.035-4.3,0-1.245.376-1.693,1.831-1.7Q36.322.781,64.1.809c.876,0,1.757-.033,2.634.008.945.041,1.662.275,1.925,1.118a7.139,7.139,0,0,0,.073,1.742q0,10.589,0,21.182-.117.062,0,.123v.185a1.451,1.451,0,0,0,.009,1.035" transform="translate(22.142 2.48)" fill="#bae2f5"/>
        <path id="Path_881559" data-name="Path 881559" d="M1.922,11.193v.3c-.1-.008-.177-.049-.177-.152s.078-.14.177-.148" transform="translate(5.789 34.802)" fill="#bae2f5"/>
        <path id="Path_881560" data-name="Path 881560" d="M5.973,2.183a.082.082,0,0,1,0,.144c-.078.033-.138.012-.138-.07s.06-.1.138-.074" transform="translate(19.356 6.756)" fill="#1e75bc"/>
        <path id="Path_881561" data-name="Path 881561" d="M19.768,27.7H6.916a5.017,5.017,0,0,1-4.157-2.852,5.26,5.26,0,0,1-.35-1.989c.013-1.142-.013-2.285.026-3.427a4.5,4.5,0,0,1,3.531-4.1,5.456,5.456,0,0,1,1.373-.119q12.5-.012,25.01,0a4.735,4.735,0,0,1,4.36,2.293,4.581,4.581,0,0,1,.579,2.227c.047,1.155.043,2.318,0,3.48a4.5,4.5,0,0,1-3.834,4.4,7.574,7.574,0,0,1-1.425.095H19.768m14.048-4.528.026-.029-.022-.033c-.022-1.159-.035-2.313-.078-3.468-.022-.588-.315-.83-.889-.966a8.051,8.051,0,0,0-2.012-.082c-.341-.008-.678-.021-1.019-.021q-8.632-.006-17.265,0c-1.809,0-3.618,0-5.431.008-.825.008-1.187.325-1.209,1.109-.035,1.159-.017,2.318-.013,3.48a1.973,1.973,0,0,0,.06.349.932.932,0,0,0,.954.8c.518.037,1.036.078,1.554.07,4.3-.082,8.6-.016,12.9-.037q4.734-.018,9.463-.029a8.069,8.069,0,0,0,1.606.016c.928-.025,1.217-.275,1.369-1.167" transform="translate(7.988 47.275)" fill="#060607"/>
        <path id="Path_881562" data-name="Path 881562" d="M37.316,61.208c-5.237,0-10.474.09-15.706-.037a8.393,8.393,0,0,1-6.031-2.757,7.239,7.239,0,0,1-1.632-2.79,9.306,9.306,0,0,1-.436-2.77c.013-9.661-.039-19.321.047-28.982a7.667,7.667,0,0,1,4.922-7.211,9.43,9.43,0,0,1,3.976-.633c5.146-.012,10.292,0,15.438,0s10.292.021,15.438.012a7.269,7.269,0,0,1,3.424.912,8.271,8.271,0,0,1,3.717,3.772,5.378,5.378,0,0,1,.587,2.2c.233,9.176.03,18.351.1,27.531q.006,1.356,0,2.712A7.842,7.842,0,0,1,58.233,59.3a8.129,8.129,0,0,1-3.89,1.7,11.078,11.078,0,0,1-2.02.21q-7.506-.012-15.007,0ZM29.748,28.931c0,1.159.013,2.322,0,3.48-.009.452.212,1.023-.112,1.323-.3.279-.889.095-1.351.09a6.032,6.032,0,0,0-5.8,3.448,4.923,4.923,0,0,0,.272,5.177A29.478,29.478,0,0,0,24.9,45.067c1.14,1.4,2.34,2.757,3.51,4.138,1.451,1.709,2.8,3.5,4.356,5.132a6.108,6.108,0,0,0,4.689,1.931,6.287,6.287,0,0,0,4.244-1.7,40.385,40.385,0,0,0,3.026-3.456c2.15-2.511,4.24-5.067,6.4-7.569a5.512,5.512,0,0,0,1.563-4.615A5.8,5.8,0,0,0,49.7,34.568a6.692,6.692,0,0,0-3.834-.736c-.958.049-.95.025-.95-.871.009-2.663.017-5.325,0-7.988a4.263,4.263,0,0,0-.168-1.405,4.023,4.023,0,0,0-3.285-2.605c-2.526-.177-5.051-.078-7.577-.066a4.133,4.133,0,0,0-4.162,4.3c.086,1.241.017,2.49.017,3.735" transform="translate(44.806 49.814)" fill="#7d3a1b"/>
        <path id="Path_881563" data-name="Path 881563" d="M60.722,25.1c-2.383.008-4.766.008-7.149.025a9.694,9.694,0,0,0-6.428,2.433,11.741,11.741,0,0,0-2.789,4.171A9.274,9.274,0,0,1,42.3,35.041a5.626,5.626,0,0,1-3.769,1.537c-4.373.037-8.747.029-13.12.033q-10.977.006-21.945,0a2.864,2.864,0,0,0-.376,0c-.376.053-.475-.086-.475-.448Q2.631,20.4,2.621,4.629c0-.97.475-1.434,1.468-1.438q28.151,0,56.31,0c.108,0,.216.008.324.012V25.1M18.4,28.33a.712.712,0,0,0-.566,0,4.814,4.814,0,0,1-1.679.078,7.853,7.853,0,0,1-2.059-.07.437.437,0,0,0-.458,0c-.168.16-.376.074-.561.082-.967.037-1.934-.049-2.9.07A1.847,1.847,0,0,0,8.54,29.847a2.078,2.078,0,0,0,.92,1.627,2.925,2.925,0,0,0,1.55.271q13.528.012,27.056.008a2.5,2.5,0,0,0,1.261-.345,1.5,1.5,0,0,0,.721-1.685,1.522,1.522,0,0,0-1.217-1.146,6.614,6.614,0,0,0-1.528-.16q-9.17,0-18.34,0c-.19,0-.4.078-.561-.082m.609-9.969v.025c1.684,0,3.367,0,5.051,0a8.481,8.481,0,0,0,2.016-.136A4.606,4.606,0,0,0,29.7,13.119c-.518-2.741-2.564-4.035-5.181-4.08-3.549-.062-7.1-.012-10.646-.029a5.63,5.63,0,0,0-2.167.423,4.634,4.634,0,0,0-3.121,4.175,4.5,4.5,0,0,0,2.249,4.023,3.961,3.961,0,0,0,2.314.744c1.951-.029,3.907-.012,5.863-.012m27.009-6.283v-.016q-4.837,0-9.675,0c-.522,0-1.04-.008-1.559.037A1.591,1.591,0,0,0,33.178,13.7a1.664,1.664,0,0,0,1.658,1.681c.5.037,1,.045,1.5.045h19.89a5.216,5.216,0,0,0,1.658-.218,1.428,1.428,0,0,0,1.049-1.36,1.491,1.491,0,0,0-.725-1.356,2.932,2.932,0,0,0-1.653-.415q-5.271.006-10.538,0M30.877,24.9h0c2.4,0,4.805.016,7.21,0,1.33-.012,2.02-.879,1.995-1.627a1.875,1.875,0,0,0-2.008-1.64q-7.208-.012-14.415,0a1.653,1.653,0,0,0-1.679,1.631,1.715,1.715,0,0,0,1.744,1.64h7.154M12.952,21.633c-1.062,0-1.887-.016-2.711,0-.846.021-1.852,1.023-1.688,1.718a1.929,1.929,0,0,0,1.887,1.553c1.325-.012,2.651,0,3.98,0a5.27,5.27,0,0,0,1.317-.095,1.56,1.56,0,0,0-.039-3.086,20.288,20.288,0,0,0-2.746-.09" transform="translate(8.665 9.923)" fill="#e2f1fc"/>
        <path id="Path_881564" data-name="Path 881564" d="M16.072,25.1V3.21c.8-.008,1.61-.033,2.418-.012a1.338,1.338,0,0,1,1.351,1.459c.242,6.6.03,13.2.117,19.8,0,.493-.086.69-.661.662-1.071-.049-2.15-.016-3.225-.021" transform="translate(53.315 9.92)" fill="#bae2f5"/>
        <path id="Path_881565" data-name="Path 881565" d="M21.119,2.816a7.13,7.13,0,0,1-.073-1.742,4.554,4.554,0,0,1,.073,1.742" transform="translate(69.755 3.341)" fill="#1e75bc"/>
        <path id="Path_881566" data-name="Path 881566" d="M21.127,7.763a1.451,1.451,0,0,1-.009-1.035,3.469,3.469,0,0,1,.009,1.035" transform="translate(69.751 20.92)" fill="#1e75bc"/>
        <path id="Path_881567" data-name="Path 881567" d="M21.093,6.776q-.117-.062,0-.123v.123" transform="translate(69.776 20.687)" fill="#1e75bc"/>
        <path id="Path_881568" data-name="Path 881568" d="M28.161,21.773q-4.734.012-9.463.033c-4.3.016-8.6-.045-12.9.033-.518.008-1.036-.033-1.554-.07a.925.925,0,0,1-.954-.793,2.017,2.017,0,0,1-.06-.353c0-1.159-.022-2.322.013-3.48.022-.785.384-1.1,1.209-1.105,1.809-.016,3.622-.012,5.431-.012H27.142c.337,0,.678.016,1.019.025v5.724" transform="translate(10.669 49.822)" fill="#e2f1fc"/>
        <path id="Path_881569" data-name="Path 881569" d="M8.994,21.773V16.049a7.68,7.68,0,0,1,2.012.082c.574.136.868.378.889.962.043,1.155.052,2.313.078,3.468l-.039.012.035.049c-.151.9-.44,1.142-1.369,1.171a7.773,7.773,0,0,1-1.606-.021" transform="translate(29.835 49.821)" fill="#bae2f5"/>
        <path id="Path_881570" data-name="Path 881570" d="M9.71,17.19l-.035-.053.039-.008.022.033Z" transform="translate(32.094 53.254)" fill="#1e75bc"/>
        <path id="Path_881571" data-name="Path 881571" d="M23.318,25.272c0-1.245.069-2.5-.013-3.735a4.127,4.127,0,0,1,4.158-4.3c2.526-.016,5.051-.111,7.577.062a4.022,4.022,0,0,1,3.285,2.609,4.249,4.249,0,0,1,.168,1.405q.019,3.994,0,7.984c0,.9-.013.925.945.875a6.659,6.659,0,0,1,3.834.736,5.788,5.788,0,0,1,2.988,4.364A5.5,5.5,0,0,1,44.7,39.888c-2.163,2.5-4.252,5.058-6.4,7.569a41.15,41.15,0,0,1-3.026,3.456,6.325,6.325,0,0,1-4.248,1.7,6.112,6.112,0,0,1-4.689-1.935c-1.55-1.631-2.905-3.419-4.356-5.128-1.17-1.381-2.37-2.737-3.51-4.138a29.7,29.7,0,0,1-2.146-2.622,4.915,4.915,0,0,1-.272-5.173,6.043,6.043,0,0,1,5.8-3.452c.458,0,1.049.193,1.351-.086.324-.3.1-.871.108-1.323.017-1.159,0-2.322,0-3.48m14.743,8.263c-.41-.016-.825-.037-1.235-.045a1.8,1.8,0,0,1-1.537-.842,2.624,2.624,0,0,1-.328-1.561c0-3.259,0-6.521-.009-9.78,0-.69-.035-.723-.751-.723q-3.3-.018-6.614-.008c-.626,0-.781.164-.8.768-.013.477-.009.957-.009,1.434q-.006,4.53-.017,9.061a1.363,1.363,0,0,1-.82,1.36,2.692,2.692,0,0,1-1.084.312,38.955,38.955,0,0,0-3.92.066A2.5,2.5,0,0,0,19,36.543,8.6,8.6,0,0,0,20.81,39.05c.548.727,1.261,1.348,1.813,2.075.518.678,1.071,1.327,1.615,1.985.881,1.056,1.748,2.124,2.707,3.123.863.9,1.416,2.059,2.573,2.716A2.491,2.491,0,0,0,31.3,49.3a3.677,3.677,0,0,0,2.176-1.356q4.209-5.011,8.47-9.989a2.894,2.894,0,0,0,.868-2.272,2.337,2.337,0,0,0-1.5-1.989,10.555,10.555,0,0,0-3.134-.156h-.112" transform="translate(51.232 53.472)" fill="#060607"/>
        <path id="Path_881572" data-name="Path 881572" d="M14.425,13.965c-1.956,0-3.907-.021-5.863.008a3.929,3.929,0,0,1-2.31-.744A4.494,4.494,0,0,1,4,9.21,4.648,4.648,0,0,1,7.125,5.032a5.605,5.605,0,0,1,2.163-.419c3.549.012,7.1-.037,10.646.025,2.621.045,4.667,1.34,5.181,4.084A4.608,4.608,0,0,1,21.5,13.854a8.509,8.509,0,0,1-2.016.131q-2.532.006-5.055,0v-.025m.181-3.267v0h5.371a1.761,1.761,0,0,0,1.256-.345A1.287,1.287,0,0,0,21.6,8.857a1.522,1.522,0,0,0-1.58-.916q-5.317-.012-10.638-.016a2.955,2.955,0,0,0-1,.144,1.316,1.316,0,0,0-.514,2.157,1.763,1.763,0,0,0,1.364.477c1.787-.008,3.579,0,5.371,0" transform="translate(13.244 14.32)" fill="#060607"/>
        <path id="Path_881573" data-name="Path 881573" d="M9.551,9.312a7.853,7.853,0,0,0,2.059.07,4.716,4.716,0,0,0,1.679-.074.346.346,0,0,0,.566,0c.164.16.371.082.561.082q9.17.006,18.34,0a6.618,6.618,0,0,1,1.528.164A1.524,1.524,0,0,1,35.5,10.7a1.507,1.507,0,0,1-.721,1.689,2.587,2.587,0,0,1-1.261.345q-13.528.006-27.056-.012a2.925,2.925,0,0,1-1.55-.271,2.072,2.072,0,0,1-.92-1.627,1.848,1.848,0,0,1,1.641-1.36c.963-.123,1.93-.037,2.9-.074.186,0,.393.078.557-.078.155.2.307.205.462,0" transform="translate(13.21 28.941)" fill="#060607"/>
        <path id="Path_881574" data-name="Path 881574" d="M22.532,5.362H33.07a2.905,2.905,0,0,1,1.649.411,1.488,1.488,0,0,1,.73,1.36A1.423,1.423,0,0,1,34.4,8.489a5.184,5.184,0,0,1-1.658.218q-9.94,0-19.885,0c-.5,0-1-.012-1.5-.045A1.661,1.661,0,0,1,9.692,6.986a1.586,1.586,0,0,1,1.606-1.6c.514-.041,1.036-.037,1.554-.037h9.679Z" transform="translate(32.15 16.635)" fill="#060607"/>
        <path id="Path_881575" data-name="Path 881575" d="M16,10.952c-2.383,0-4.771,0-7.154,0A1.722,1.722,0,0,1,7.1,9.313,1.656,1.656,0,0,1,8.781,7.686q7.208-.012,14.415,0A1.878,1.878,0,0,1,25.2,9.325c.026.744-.665,1.611-1.995,1.623-2.4.025-4.805.008-7.21.008Z" transform="translate(23.542 23.87)" fill="#060607"/>
        <path id="Path_881576" data-name="Path 881576" d="M8.4,7.685a20.288,20.288,0,0,1,2.746.09,1.56,1.56,0,0,1,.039,3.086,5.27,5.27,0,0,1-1.317.095c-1.33,0-2.655-.008-3.98,0A1.929,1.929,0,0,1,4,9.407c-.164-.694.842-1.7,1.688-1.718.825-.021,1.649,0,2.711,0" transform="translate(13.215 23.87)" fill="#060607"/>
        <path id="Path_881577" data-name="Path 881577" d="M6.7,9.354a.346.346,0,0,1-.566,0,.7.7,0,0,1,.566,0" transform="translate(20.358 28.899)" fill="#1e75bc"/>
        <path id="Path_881578" data-name="Path 881578" d="M5.627,9.359c-.155.205-.307.2-.462,0a.436.436,0,0,1,.462,0" transform="translate(17.134 28.894)" fill="#1e75bc"/>
        <path id="Path_881579" data-name="Path 881579" d="M35.5,30.982a10.693,10.693,0,0,1,3.134.156,2.335,2.335,0,0,1,1.5,1.989,2.9,2.9,0,0,1-.863,2.272q-4.255,4.98-8.47,9.989a3.674,3.674,0,0,1-2.18,1.356,2.478,2.478,0,0,1-1.774-.345c-1.161-.657-1.714-1.82-2.577-2.72-.954-1-1.826-2.063-2.707-3.123-.544-.657-1.1-1.3-1.615-1.985-.553-.727-1.265-1.344-1.813-2.075a8.631,8.631,0,0,1-1.809-2.5,2.5,2.5,0,0,1,1.938-2.967,38.958,38.958,0,0,1,3.92-.07,2.667,2.667,0,0,0,1.084-.308,1.368,1.368,0,0,0,.82-1.364q.013-4.53.022-9.061c0-.477-.009-.953,0-1.434.017-.6.173-.764.8-.768q3.309-.006,6.618.008c.717,0,.747.033.747.727.009,3.259,0,6.517.013,9.776a2.562,2.562,0,0,0,.328,1.561,1.789,1.789,0,0,0,1.533.842c.414.008.825.029,1.235.045.039.058.078.053.112,0" transform="translate(53.907 56.026)" fill="#ffe9df"/>
        <path id="Path_881580" data-name="Path 881580" d="M20.8,21.174c-.035.053-.073.058-.112,0H20.8" transform="translate(68.61 65.834)" fill="#1e75bc"/>
        <path id="Path_881581" data-name="Path 881581" d="M11.911,8.187c-1.792,0-3.583,0-5.371,0a1.763,1.763,0,0,1-1.364-.477A1.316,1.316,0,0,1,5.69,5.557a2.955,2.955,0,0,1,1-.144q5.317.012,10.638.016a1.522,1.522,0,0,1,1.58.916,1.287,1.287,0,0,1-.371,1.492,1.761,1.761,0,0,1-1.256.345H11.911v0" transform="translate(15.94 16.831)" fill="#1e75bc"/>
      </g>
    </g>
  </g>
</svg>
