<svg xmlns="http://www.w3.org/2000/svg" xmlns:xlink="http://www.w3.org/1999/xlink" width="121" height="121" viewBox="0 0 121 121">
  <defs>
    <clipPath id="clip-path">
      <rect id="Rectangle_400938" data-name="Rectangle 400938" width="121" height="121" transform="translate(0 0)" fill="none"/>
    </clipPath>
    <clipPath id="clip-path-2">
      <rect id="Rectangle_401073" data-name="Rectangle 401073" width="92.219" height="41.532" fill="#efb499"/>
    </clipPath>
    <clipPath id="clip-path-3">
      <rect id="Rectangle_403271" data-name="Rectangle 403271" width="68" height="57.276" fill="none"/>
    </clipPath>
  </defs>
  <g id="Group_1103345" data-name="Group 1103345" transform="translate(-388.656 -886)">
    <g id="Group_1099349" data-name="Group 1099349" transform="translate(0.988 -5127)">
      <rect id="Rectangle_401103" data-name="Rectangle 401103" width="121" height="121" transform="translate(387.668 6013)" fill="none"/>
      <g id="Group_1099348" data-name="Group 1099348" transform="translate(387.668 6013)">
        <g id="Group_1099282" data-name="Group 1099282">
          <g id="Group_1099281" data-name="Group 1099281" clip-path="url(#clip-path-2)">
            <path id="Path_873375" data-name="Path 873375" d="M74.8,9.1c-4.139,0-6.28-2.03-8.17-3.821-1.855-1.756-3.452-3.274-6.792-3.274s-4.937,1.517-6.792,3.274C51.161,7.072,49.023,9.1,44.881,9.1s-6.28-2.03-8.169-3.821C34.857,3.525,33.26,2.007,29.92,2.007s-4.937,1.517-6.789,3.274C21.241,7.072,19.1,9.1,14.962,9.1S8.679,7.072,6.789,5.281C4.937,3.525,3.34,2.007,0,2.007V0C4.139,0,6.28,2.033,8.17,3.821c1.855,1.759,3.452,3.274,6.792,3.274S19.9,5.58,21.75,3.824C23.637,2.033,25.781,0,29.92,0s6.283,2.033,8.17,3.821c1.855,1.759,3.452,3.274,6.792,3.274s4.937-1.514,6.792-3.274C53.56,2.033,55.7,0,59.843,0s6.283,2.033,8.17,3.821C69.867,5.58,71.464,7.094,74.8,7.094S79.742,5.58,81.6,3.821C83.483,2.033,85.624,0,89.766,0V2.007c-3.34,0-4.937,1.517-6.792,3.274C81.084,7.072,78.943,9.1,74.8,9.1" transform="translate(2.453 32.43)" fill="#efb499"/>
            <path id="Path_873376" data-name="Path 873376" d="M74.8,9.1c-4.139,0-6.283-2.03-8.17-3.824-1.855-1.756-3.452-3.27-6.792-3.27s-4.937,1.514-6.792,3.27C51.164,7.072,49.023,9.1,44.881,9.1s-6.283-2.03-8.17-3.824c-1.855-1.756-3.452-3.27-6.792-3.27s-4.937,1.517-6.789,3.27C21.241,7.072,19.1,9.1,14.962,9.1S8.679,7.072,6.789,5.278C4.937,3.522,3.34,2.007,0,2.007V0C4.139,0,6.283,2.03,8.17,3.821c1.855,1.759,3.452,3.274,6.792,3.274S19.9,5.58,21.75,3.821C23.637,2.03,25.781,0,29.92,0S36.2,2.03,38.093,3.821c1.852,1.759,3.449,3.274,6.789,3.274s4.937-1.514,6.792-3.274C53.56,2.03,55.7,0,59.843,0s6.283,2.03,8.17,3.821C69.867,5.58,71.464,7.094,74.8,7.094S79.742,5.58,81.6,3.821C83.486,2.03,85.627,0,89.769,0V2.007c-3.34,0-4.94,1.517-6.8,3.27C81.084,7.072,78.943,9.1,74.8,9.1" transform="translate(1.635 21.62)" fill="#efb499"/>
            <path id="Path_873377" data-name="Path 873377" d="M74.8,9.1c-4.139,0-6.283-2.03-8.169-3.824-1.855-1.756-3.452-3.27-6.792-3.27s-4.937,1.514-6.792,3.27C51.164,7.072,49.02,9.1,44.881,9.1s-6.283-2.03-8.17-3.824c-1.855-1.756-3.452-3.27-6.792-3.27s-4.937,1.517-6.789,3.27C21.241,7.072,19.1,9.1,14.962,9.1S8.678,7.072,6.789,5.278C4.937,3.522,3.34,2.007,0,2.007V0C4.139,0,6.283,2.03,8.169,3.821c1.851,1.759,3.452,3.274,6.792,3.274S19.9,5.58,21.75,3.821C23.637,2.03,25.781,0,29.92,0S36.2,2.03,38.093,3.821c1.852,1.759,3.449,3.274,6.789,3.274s4.937-1.514,6.792-3.274C53.56,2.03,55.7,0,59.843,0s6.283,2.03,8.17,3.821C69.867,5.58,71.464,7.094,74.8,7.094S79.742,5.58,81.6,3.821C83.486,2.03,85.624,0,89.769,0V2.007c-3.34,0-4.941,1.517-6.8,3.27C81.084,7.072,78.943,9.1,74.8,9.1" transform="translate(0.818 10.81)" fill="#efb499"/>
            <path id="Path_873378" data-name="Path 873378" d="M74.8,9.1c-4.139,0-6.28-2.03-8.17-3.821-1.855-1.756-3.452-3.27-6.792-3.27s-4.937,1.514-6.789,3.27C51.164,7.069,49.023,9.1,44.881,9.1s-6.28-2.03-8.169-3.821c-1.855-1.756-3.452-3.27-6.792-3.27s-4.937,1.514-6.789,3.267C21.245,7.069,19.1,9.1,14.962,9.1S8.678,7.069,6.789,5.278C4.937,3.522,3.34,2.007,0,2.007V0C4.139,0,6.283,2.03,8.17,3.821c1.855,1.756,3.452,3.27,6.792,3.27S19.9,5.577,21.75,3.821C23.64,2.03,25.781,0,29.92,0s6.28,2.03,8.173,3.821c1.852,1.756,3.449,3.27,6.789,3.27s4.937-1.514,6.792-3.27C53.563,2.03,55.7,0,59.843,0s6.28,2.03,8.17,3.821c1.855,1.756,3.452,3.27,6.792,3.27s4.937-1.514,6.792-3.27C83.486,2.03,85.627,0,89.769,0V2.007c-3.344,0-4.941,1.514-6.8,3.27C81.084,7.069,78.943,9.1,74.8,9.1" transform="translate(0 0.003)" fill="#efb499"/>
          </g>
        </g>
      </g>
      <circle id="Ellipse_11504" data-name="Ellipse 11504" cx="50.5" cy="50.5" r="50.5" transform="translate(402.668 6031)" fill="#ffce73"/>
      <circle id="Ellipse_11503" data-name="Ellipse 11503" cx="52.5" cy="52.5" r="52.5" transform="translate(395.668 6021)" fill="#f3f9ff"/>
    </g>
    <g id="Group_1099357" data-name="Group 1099357" transform="translate(414.598 911.804)">
      <rect id="Rectangle_401104" data-name="Rectangle 401104" width="68" height="69" transform="translate(0.059 -0.804)" fill="none"/>
      <g id="Group_1101563" data-name="Group 1101563" transform="translate(0.059 5.058)">
        <path id="Path_881061" data-name="Path 881061" d="M91.844,46.391v8.431l-15.9,1.234V42.609h6.85l3.782,3.782Z" transform="translate(-38.964 -21.861)" fill="#cf9a82"/>
        <g id="Group_1101562" data-name="Group 1101562">
          <g id="Group_1101561" data-name="Group 1101561" clip-path="url(#clip-path-3)">
            <path id="Path_881062" data-name="Path 881062" d="M56.341,54.642l-.857.391-2.62-2.971,2.339,3.1-2.442,1.121L50.224,53.41l2.264,3-2.42,1.109L47.583,54.7,49.8,57.639l-1.511.692a2.282,2.282,0,0,1-2.408-.319l-9.649-8.029-8.284.132V41.64l6.675-.756,2.894-2.224,6.1-.109,3.85-1.8,3.851,2.85-2.477,1.3,8.138,11.33a1.611,1.611,0,0,1-.638,2.4" transform="translate(-14.34 -18.858)" fill="#ebb399"/>
            <path id="Path_881063" data-name="Path 881063" d="M45.95,62.82a1.331,1.331,0,0,1-.7,1.175l-3.342,1.782-1.253-2.345L44,61.65a1.327,1.327,0,0,1,1.954,1.17" transform="translate(-20.858 -31.55)" fill="#cf9a82"/>
            <path id="Path_881064" data-name="Path 881064" d="M51.225,67.092a1.328,1.328,0,0,1-.7,1.173l-3.339,1.784L45.929,67.7l3.339-1.785a1.334,1.334,0,0,1,1.957,1.173" transform="translate(-23.565 -33.741)" fill="#cf9a82"/>
            <path id="Path_881065" data-name="Path 881065" d="M57.481,70.858a1.332,1.332,0,0,1-.7,1.175l-3.342,1.781L52.185,71.47l3.342-1.782a1.327,1.327,0,0,1,1.954,1.17" transform="translate(-26.774 -35.674)" fill="#cf9a82"/>
            <path id="Path_881066" data-name="Path 881066" d="M62.426,75.436a1.327,1.327,0,0,1-.7,1.173l-3.339,1.784L57.13,76.048l3.339-1.785a1.332,1.332,0,0,1,1.957,1.173" transform="translate(-29.312 -38.022)" fill="#cf9a82"/>
            <path id="Path_881067" data-name="Path 881067" d="M65.755,42.609v4.908l-6.888,2.1a1.756,1.756,0,0,1-2.063-.859l-.718-1.37Z" transform="translate(-28.776 -21.861)" fill="#cf9a82"/>
            <path id="Path_881068" data-name="Path 881068" d="M29.852,42.29,27.675,52.881a2.353,2.353,0,0,1-2.78,1.832l-4.056-.834L23.634,40.29l5.672,1.166a.7.7,0,0,1,.546.834" transform="translate(-10.692 -20.672)" fill="#fff"/>
            <path id="Path_881069" data-name="Path 881069" d="M29.758,63.534a.935.935,0,1,1-.728-1.1.936.936,0,0,1,.728,1.1" transform="translate(-14.318 -32.02)" fill="#12263f"/>
            <path id="Path_881070" data-name="Path 881070" d="M13.25,36.381,9.7,53.73,0,52.317,3.675,34.559Z" transform="translate(0 -17.731)" fill="#12263f"/>
            <path id="Path_881071" data-name="Path 881071" d="M100.22,43.469,102.4,54.06a2.353,2.353,0,0,0,2.78,1.832l4.055-.834-2.794-13.589-5.672,1.167a.7.7,0,0,0-.546.834" transform="translate(-51.412 -21.276)" fill="#fff"/>
            <path id="Path_881072" data-name="Path 881072" d="M107.855,64.715a.935.935,0,1,0,.728-1.1.936.936,0,0,0-.728,1.1" transform="translate(-55.327 -32.626)" fill="#7d3a1b"/>
            <path id="Path_881073" data-name="Path 881073" d="M112.439,36.381l3.555,17.348,9.695-1.413-3.675-17.758Z" transform="translate(-57.689 -17.731)" fill="#7d3a1b"/>
            <path id="Path_881074" data-name="Path 881074" d="M47.469,1.737V12.567A1.74,1.74,0,0,0,49.206,14.3h.577V17.36L52.839,14.3H66.814a1.74,1.74,0,0,0,1.737-1.737V1.737A1.74,1.74,0,0,0,66.814,0H49.206a1.74,1.74,0,0,0-1.737,1.737" transform="translate(-24.355 0)" fill="#ffb937"/>
            <rect id="Rectangle_403263" data-name="Rectangle 403263" width="16.276" height="1.054" transform="translate(25.517 2.863)" fill="#12263f"/>
            <rect id="Rectangle_403264" data-name="Rectangle 403264" width="16.276" height="1.054" transform="translate(25.517 5.37)" fill="#12263f"/>
            <rect id="Rectangle_403265" data-name="Rectangle 403265" width="16.276" height="1.054" transform="translate(25.517 7.877)" fill="#12263f"/>
            <rect id="Rectangle_403266" data-name="Rectangle 403266" width="16.276" height="1.054" transform="translate(25.517 10.383)" fill="#12263f"/>
            <path id="Path_881075" data-name="Path 881075" d="M69.15,97.03V85.893a1.789,1.789,0,0,0-1.787-1.787H66.77V80.964l-3.143,3.143H49.257a1.789,1.789,0,0,0-1.787,1.787V97.03a1.789,1.789,0,0,0,1.787,1.787H67.363A1.789,1.789,0,0,0,69.15,97.03" transform="translate(-24.355 -41.54)" fill="#ffce73"/>
            <rect id="Rectangle_403267" data-name="Rectangle 403267" width="16.738" height="1.083" transform="translate(25.585 53.249)" fill="#12263f"/>
            <rect id="Rectangle_403268" data-name="Rectangle 403268" width="16.738" height="1.083" transform="translate(25.585 50.671)" fill="#12263f"/>
            <rect id="Rectangle_403269" data-name="Rectangle 403269" width="16.738" height="1.083" transform="translate(25.585 48.093)" fill="#12263f"/>
            <rect id="Rectangle_403270" data-name="Rectangle 403270" width="16.738" height="1.083" transform="translate(25.585 45.515)" fill="#12263f"/>
          </g>
        </g>
      </g>
    </g>
  </g>
</svg>
