<svg xmlns="http://www.w3.org/2000/svg" xmlns:xlink="http://www.w3.org/1999/xlink" width="120" height="120" viewBox="0 0 120 120">
  <defs>
    <clipPath id="clip-path">
      <rect id="Rectangle_400938" data-name="Rectangle 400938" width="120" height="120" transform="translate(0 0)" fill="none"/>
    </clipPath>
    <clipPath id="clip-path-2">
      <rect id="Rectangle_401073" data-name="Rectangle 401073" width="92.219" height="41.532" fill="#7d3a1b"/>
    </clipPath>
    <clipPath id="clip-path-3">
      <rect id="Rectangle_403402" data-name="Rectangle 403402" width="66" height="65.717" fill="none"/>
    </clipPath>
  </defs>
  <g id="Group_1103343" data-name="Group 1103343" transform="translate(-810 -1573.32)">
    <g id="Group_1101783" data-name="Group 1101783" transform="translate(422.332 -4439.68)">
      <rect id="Rectangle_401103" data-name="Rectangle 401103" width="120" height="120" transform="translate(387.668 6013)" fill="none"/>
      <g id="Group_1099348" data-name="Group 1099348" transform="translate(387.668 6013)">
        <g id="Group_1099282" data-name="Group 1099282">
          <g id="Group_1099281" data-name="Group 1099281" clip-path="url(#clip-path-2)">
            <path id="Path_873375" data-name="Path 873375" d="M74.8,9.1c-4.139,0-6.28-2.03-8.17-3.821-1.855-1.756-3.452-3.274-6.792-3.274s-4.937,1.517-6.792,3.274C51.161,7.072,49.023,9.1,44.881,9.1s-6.28-2.03-8.169-3.821C34.857,3.525,33.26,2.007,29.92,2.007s-4.937,1.517-6.789,3.274C21.241,7.072,19.1,9.1,14.962,9.1S8.679,7.072,6.789,5.281C4.937,3.525,3.34,2.007,0,2.007V0C4.139,0,6.28,2.033,8.17,3.821c1.855,1.759,3.452,3.274,6.792,3.274S19.9,5.58,21.75,3.824C23.637,2.033,25.781,0,29.92,0s6.283,2.033,8.17,3.821c1.855,1.759,3.452,3.274,6.792,3.274s4.937-1.514,6.792-3.274C53.56,2.033,55.7,0,59.843,0s6.283,2.033,8.17,3.821C69.867,5.58,71.464,7.094,74.8,7.094S79.742,5.58,81.6,3.821C83.483,2.033,85.624,0,89.766,0V2.007c-3.34,0-4.937,1.517-6.792,3.274C81.084,7.072,78.943,9.1,74.8,9.1" transform="translate(2.453 32.43)" fill="#7d3a1b"/>
            <path id="Path_873376" data-name="Path 873376" d="M74.8,9.1c-4.139,0-6.283-2.03-8.17-3.824-1.855-1.756-3.452-3.27-6.792-3.27s-4.937,1.514-6.792,3.27C51.164,7.072,49.023,9.1,44.881,9.1s-6.283-2.03-8.17-3.824c-1.855-1.756-3.452-3.27-6.792-3.27s-4.937,1.517-6.789,3.27C21.241,7.072,19.1,9.1,14.962,9.1S8.679,7.072,6.789,5.278C4.937,3.522,3.34,2.007,0,2.007V0C4.139,0,6.283,2.03,8.17,3.821c1.855,1.759,3.452,3.274,6.792,3.274S19.9,5.58,21.75,3.821C23.637,2.03,25.781,0,29.92,0S36.2,2.03,38.093,3.821c1.852,1.759,3.449,3.274,6.789,3.274s4.937-1.514,6.792-3.274C53.56,2.03,55.7,0,59.843,0s6.283,2.03,8.17,3.821C69.867,5.58,71.464,7.094,74.8,7.094S79.742,5.58,81.6,3.821C83.486,2.03,85.627,0,89.769,0V2.007c-3.34,0-4.94,1.517-6.8,3.27C81.084,7.072,78.943,9.1,74.8,9.1" transform="translate(1.635 21.62)" fill="#7d3a1b"/>
            <path id="Path_873377" data-name="Path 873377" d="M74.8,9.1c-4.139,0-6.283-2.03-8.169-3.824-1.855-1.756-3.452-3.27-6.792-3.27s-4.937,1.514-6.792,3.27C51.164,7.072,49.02,9.1,44.881,9.1s-6.283-2.03-8.17-3.824c-1.855-1.756-3.452-3.27-6.792-3.27s-4.937,1.517-6.789,3.27C21.241,7.072,19.1,9.1,14.962,9.1S8.678,7.072,6.789,5.278C4.937,3.522,3.34,2.007,0,2.007V0C4.139,0,6.283,2.03,8.169,3.821c1.851,1.759,3.452,3.274,6.792,3.274S19.9,5.58,21.75,3.821C23.637,2.03,25.781,0,29.92,0S36.2,2.03,38.093,3.821c1.852,1.759,3.449,3.274,6.789,3.274s4.937-1.514,6.792-3.274C53.56,2.03,55.7,0,59.843,0s6.283,2.03,8.17,3.821C69.867,5.58,71.464,7.094,74.8,7.094S79.742,5.58,81.6,3.821C83.486,2.03,85.624,0,89.769,0V2.007c-3.34,0-4.941,1.517-6.8,3.27C81.084,7.072,78.943,9.1,74.8,9.1" transform="translate(0.818 10.81)" fill="#7d3a1b"/>
            <path id="Path_873378" data-name="Path 873378" d="M74.8,9.1c-4.139,0-6.28-2.03-8.17-3.821-1.855-1.756-3.452-3.27-6.792-3.27s-4.937,1.514-6.789,3.27C51.164,7.069,49.023,9.1,44.881,9.1s-6.28-2.03-8.169-3.821c-1.855-1.756-3.452-3.27-6.792-3.27s-4.937,1.514-6.789,3.267C21.245,7.069,19.1,9.1,14.962,9.1S8.678,7.069,6.789,5.278C4.937,3.522,3.34,2.007,0,2.007V0C4.139,0,6.283,2.03,8.17,3.821c1.855,1.756,3.452,3.27,6.792,3.27S19.9,5.577,21.75,3.821C23.64,2.03,25.781,0,29.92,0s6.28,2.03,8.173,3.821c1.852,1.756,3.449,3.27,6.789,3.27s4.937-1.514,6.792-3.27C53.563,2.03,55.7,0,59.843,0s6.28,2.03,8.17,3.821c1.855,1.756,3.452,3.27,6.792,3.27s4.937-1.514,6.792-3.27C83.486,2.03,85.627,0,89.769,0V2.007c-3.344,0-4.941,1.514-6.8,3.27C81.084,7.069,78.943,9.1,74.8,9.1" transform="translate(0 0.003)" fill="#7d3a1b"/>
          </g>
        </g>
      </g>
      <circle id="Ellipse_11504" data-name="Ellipse 11504" cx="50" cy="50" r="50" transform="translate(402.668 6031)" fill="#efb499"/>
      <circle id="Ellipse_11503" data-name="Ellipse 11503" cx="52" cy="52" r="52" transform="translate(395.668 6021)" fill="#f3f9ff"/>
    </g>
    <g id="Group_1101785" data-name="Group 1101785" transform="translate(835.941 1599.124)">
      <rect id="Rectangle_401104" data-name="Rectangle 401104" width="68" height="69" transform="translate(0.059 -0.804)" fill="none"/>
      <g id="Group_1101816" data-name="Group 1101816" transform="translate(0.059 1.833)">
        <g id="Group_1101815" data-name="Group 1101815" transform="translate(0 0)" clip-path="url(#clip-path-3)">
          <path id="Path_881825" data-name="Path 881825" d="M43.049,32.823a29.914,29.914,0,0,1,.185,2.993,2.412,2.412,0,0,1-2.5,2.466c-2.764,0-5.527-.015-8.291,0-1.225.01-2.449.01-3.674.015q-2.075.007-4.154-.017c-1.305-.015-2.61,0-3.915,0H7.518c-1.183,0-2.366,0-3.549,0a15.189,15.189,0,0,1-1.942-.044A2.39,2.39,0,0,1,0,35.875,20.682,20.682,0,0,1,.217,32.6,21.744,21.744,0,0,1,1.3,28.506,11.2,11.2,0,0,1,4,24.259a11.345,11.345,0,0,1,1.112-.9A11.7,11.7,0,0,1,6.835,22.3a14.753,14.753,0,0,1,2.256-.8,14.711,14.711,0,0,0,1.644-.568,5.464,5.464,0,0,1,.615-.127c1.673-.522,3.352-1.032,5.03-1.542.21-.063.429-.1.644-.144.037.176.088.351.11.532a4.515,4.515,0,0,0,1.7,2.91,3.973,3.973,0,0,0,2.2.978,4.545,4.545,0,0,0,3-.7,4.649,4.649,0,0,0,2.037-2.964c.063-.276-.044-.568.107-.827.076.027.151.056.229.081q2.272.681,4.542,1.359c.751.222,1.468.551,2.225.751a17.07,17.07,0,0,1,3.644,1.315,10.271,10.271,0,0,1,1.861,1.217,13.032,13.032,0,0,1,1.934,2,2.047,2.047,0,0,0,.312.544,16.119,16.119,0,0,1,1.9,5.232A5.621,5.621,0,0,0,43,32.569c.007.059.012.117.02.176l.024.078" transform="translate(0 27.413)" fill="#7d3a1b"/>
          <path id="Path_881826" data-name="Path 881826" d="M22.2,33.728c-.151.259-.041.551-.107.827a4.644,4.644,0,0,1-2.034,2.961,4.526,4.526,0,0,1-3,.7,3.953,3.953,0,0,1-2.2-.976,4.515,4.515,0,0,1-1.7-2.91c-.022-.181-.073-.356-.11-.532a8.225,8.225,0,0,0,.056-1.51.237.237,0,0,0-.151-.234,26.145,26.145,0,0,1-3.142-2.132,13.716,13.716,0,0,1-2.359-2.293,6.332,6.332,0,0,1-.807-1.651,18.47,18.47,0,0,1-.861-3.227c-.032-.156-.061-.278-.3-.332a3.071,3.071,0,0,1-2.361-1.71c-.193-.439-.173-.932-.356-1.371-.007-.017.044-.059.068-.088a1.13,1.13,0,0,0,.137-.468A2.94,2.94,0,0,1,5.2,16.806c.568-.129.529-.137.581-.744a5.73,5.73,0,0,1,.156-1.125,3.815,3.815,0,0,1,3.225-2.878c.817-.137,1.642-.229,2.444-.434a15.748,15.748,0,0,0,5.32-2.547,1.286,1.286,0,0,1,1.412-.039,20.023,20.023,0,0,0,3.927,2.11,15.427,15.427,0,0,0,2.849.79c.42.068.846.063,1.264.168a3.81,3.81,0,0,1,2.539,1.837,4.572,4.572,0,0,1,.529,2.088c.027.646.015.663.627.79a2.845,2.845,0,0,1,2.12,1.693c.044.1.063.215.173.273a2.233,2.233,0,0,1,.007,1.127,2.774,2.774,0,0,1-1.149,1.942c-.322.237-.717.312-1.049.522-.617.063-.642.061-.7.529-.08.593-.283,1.154-.385,1.739-.1.293-.2.59-.312.883a6.983,6.983,0,0,1-1.625,2.837c-.576.539-1.149,1.073-1.759,1.578a15.4,15.4,0,0,1-3.02,2.044.293.293,0,0,0-.181.31c.007.476,0,.951,0,1.427" transform="translate(3.979 12.734)" fill="#e3ae8d"/>
          <path id="Path_881827" data-name="Path 881827" d="M10.2,10.622a1.665,1.665,0,0,0,.083-1.01,1.5,1.5,0,0,1-.022-.332c0-2.188-.015-4.376,0-6.562A2.434,2.434,0,0,1,11.97.194a1.406,1.406,0,0,1,.5-.1c.622-.012,1.249-.088,1.866-.044.981.068,1.954-.068,2.937.017A8.146,8.146,0,0,0,18.654.057a9.579,9.579,0,0,1,2.115,0C21.391.14,22,.03,22.61.064c.9.049,1.815-.056,2.72-.012.49.022.985.034,1.471.024A21,21,0,0,1,29.216.062c.649.061,1.286-.029,1.932,0,.9.046,1.815-.059,2.72-.015.49.022.988.037,1.471.022.724-.02,1.451-.046,2.173-.02C38.21.081,38.9.008,39.6.047a2.6,2.6,0,0,1,1.486.337A2.479,2.479,0,0,1,42.225,2.5c-.022,4.962-.01,9.925-.01,14.887,0,.183-.029.373.185.471-.824.263-1.656.512-2.476.793a20.512,20.512,0,0,0-4.744,2.5,2.177,2.177,0,0,1-1.264.417q-6.03-.015-12.06,0a1.428,1.428,0,0,0-.507.071,23.531,23.531,0,0,0-.971-2.756c-.29-.622-.646-1.207-.966-1.81.093-.093.212-.051.32-.051q8.1,0,16.212,0c.193,0,.388,0,.581,0a1.063,1.063,0,0,0,1.059-.79,1.075,1.075,0,0,0-.693-1.349,1.772,1.772,0,0,0-.685-.117q-8.866,0-17.736,0a3.288,3.288,0,0,0-.817.059c-.439-.315-.8-.722-1.207-1.068a14.393,14.393,0,0,0-3.566-2.225,21.086,21.086,0,0,0-2.673-.893m16.021-.368q4.951,0,9.9,0a3.192,3.192,0,0,0,.632-.068A1.083,1.083,0,0,0,37.1,8.209a2.316,2.316,0,0,0-1.259-.254q-9.568-.018-19.139,0a4.749,4.749,0,0,0-.961.117c-.539.117-.685.585-.9,1.012-.124.241.11.237.146.359a1.2,1.2,0,0,0,1.281.815h9.965" transform="translate(14.687 -0.001)" fill="#feebcf"/>
          <path id="Path_881828" data-name="Path 881828" d="M20.842,4.574a20.592,20.592,0,0,1,2.673.9,14.384,14.384,0,0,1,3.566,2.222c.41.349.771.754,1.21,1.071a2.616,2.616,0,0,0,.2.261,9.484,9.484,0,0,1,1.561,1.99c.32.6.678,1.19.966,1.812a23.374,23.374,0,0,1,.971,2.756q.168,1.09.334,2.186c.078,1.517.024,3.034.056,4.552q0,1.1,0,2.2c-.068.317.068.651-.08.961-.107-.059-.129-.178-.173-.276a2.847,2.847,0,0,0-2.12-1.69c-.612-.127-.6-.146-.627-.793a4.54,4.54,0,0,0-.529-2.086A3.8,3.8,0,0,0,26.311,18.8c-.417-.1-.844-.1-1.264-.168a15.427,15.427,0,0,1-2.849-.79,20.223,20.223,0,0,1-3.927-2.11,1.282,1.282,0,0,0-1.41.039,15.776,15.776,0,0,1-5.323,2.544c-.8.207-1.627.3-2.444.434a3.817,3.817,0,0,0-3.225,2.881,5.921,5.921,0,0,0-.156,1.122c-.051.61-.012.615-.581.746A2.949,2.949,0,0,0,2.9,25.472l-.088-.015c.015-2.673-.01-5.347.061-8.018a11.288,11.288,0,0,1,.707-3.254,15.2,15.2,0,0,1,2.41-4.422A11.753,11.753,0,0,1,7.435,8.189a15.186,15.186,0,0,1,4.749-2.969,13.184,13.184,0,0,1,3.122-.82,13.244,13.244,0,0,1,5.264.159,1.419,1.419,0,0,0,.271.015" transform="translate(4.049 6.046)" fill="#ffce73"/>
          <path id="Path_881829" data-name="Path 881829" d="M10.734,27c0-.476,0-.951,0-1.427a.293.293,0,0,1,.181-.31,15.4,15.4,0,0,0,3.02-2.044c.61-.5,1.183-1.039,1.759-1.578A6.983,6.983,0,0,0,17.313,18.8c.107-.293.207-.59.312-.883q3.849-.007,7.7-.01a.583.583,0,0,1,.446.151c-.061.066-.12.137-.183.2-.6.6-1.237,1.154-1.793,1.8-.659.771-1.386,1.486-2.083,2.225-.124.037-.229.132-.371.12-.478-.039-.951.059-1.427.059a1.1,1.1,0,0,0-1.2,1,1.166,1.166,0,0,0,1.078,1.264,4.7,4.7,0,0,0,.72-.012q7.161.007,14.326,0c.315,0,.629.007.944,0a1.129,1.129,0,0,0,.117-2.247c-.351-.034-.707-.059-1.061-.059q-4.329-.007-8.657,0a5.106,5.106,0,0,0-.666.039.819.819,0,0,1-.722-.127c.2-.2.41-.39.6-.6q1.723-1.815,3.442-3.635a1.117,1.117,0,0,1,.5.093,5.94,5.94,0,0,0,1.693.322,8.85,8.85,0,0,0,3.108-.449A17.354,17.354,0,0,0,41.1,13.8c.1-.1.188-.246.351-.278a2.9,2.9,0,0,1,.01,1.046q-.007,9.239,0,18.478c0,.239,0,.478,0,.717-.11,0-.222.01-.334.01q-6.853,0-13.711,0c-.749,0-1.5-.034-2.247-.054a12.922,12.922,0,0,0-1.934-2A10.271,10.271,0,0,0,21.374,30.5a17.211,17.211,0,0,0-3.644-1.317c-.754-.2-1.473-.527-2.225-.751q-2.272-.673-4.542-1.356c-.078-.024-.154-.054-.229-.08" transform="translate(15.442 19.462)" fill="#feebcf"/>
          <path id="Path_881830" data-name="Path 881830" d="M37.385,22.918c-.163.034-.246.173-.351.278a17.326,17.326,0,0,1-6.959,4.257,8.86,8.86,0,0,1-3.108.451,6.009,6.009,0,0,1-1.693-.322,1.153,1.153,0,0,0-.5-.1c0-.146-.112-.207-.215-.271A5.279,5.279,0,0,1,23.4,26.15c-.268-.3-.263-.31-.534,0L21.7,27.458a.584.584,0,0,0-.446-.149q-3.849,0-7.7.007c.1-.585.3-1.146.385-1.737.063-.471.088-.468.7-.529.08.088.188.059.288.059.81,0,1.622,0,2.434,0,1.715,0,3.43,0,5.144,0,.227,0,.312-.015.266-.3a6.15,6.15,0,0,1-.141-2.215,7.41,7.41,0,0,1,.354-1.768c.1-.207,0-.281-.171-.317a1.555,1.555,0,0,0-.3-.012q-2.8,0-5.6,0c0-.732,0-1.464,0-2.2l2.193,0q2.272,0,4.54,0a.454.454,0,0,0,.466-.212,21.722,21.722,0,0,1,2.859-4.018c.061-.068.2-.122.129-.239-.054-.09-.176-.085-.281-.083l-.244,0H16.859c-.112-.727-.222-1.456-.334-2.186a1.421,1.421,0,0,1,.507-.071q6.03,0,12.06,0a2.177,2.177,0,0,0,1.264-.417,20.512,20.512,0,0,1,4.744-2.5c.82-.281,1.649-.529,2.476-.793.593-.124,1.183-.285,1.781-.361.832-.1,1.651-.281,2.493-.332.983-.059,1.961-.1,2.947-.1a9.059,9.059,0,0,1,1,.073.783.783,0,0,1,.622,1c-.183.6-.481,1.156-.71,1.739-.407,1.042-.949,2.022-1.368,3.059a1.964,1.964,0,0,1-1.293,1.132c-1.061.363-2.125.722-3.176,1.115-.493.183-.985.363-1.486.527-.2.063-.237.141-.107.322.473.659.915,1.339,1.4,1.986a1.9,1.9,0,0,1-.241,2.739c-.7.734-1.366,1.493-2.049,2.239" transform="translate(19.511 10.064)" fill="#727997"/>
          <path id="Path_881831" data-name="Path 881831" d="M16.649,21.809c.749.02,1.5.054,2.249.054q6.853-.011,13.709,0c.112,0,.224,0,.334-.007,2.3-.1,4.608-.029,6.911-.044.373,0,.749.024,1.122.059A1.159,1.159,0,0,1,42.013,22.9a6.228,6.228,0,0,1-.368,2.978,4.552,4.552,0,0,1-3.383,2.678,3.713,3.713,0,0,1-.785.054q-9.217,0-18.431,0a5.458,5.458,0,0,1-.181-1.027,15.967,15.967,0,0,0-1.9-5.232,2.189,2.189,0,0,1-.312-.544" transform="translate(23.963 31.373)" fill="#ffce73"/>
          <path id="Path_881832" data-name="Path 881832" d="M2.842,12.914c.029,0,.059.01.088.017a1.1,1.1,0,0,1-.137.468c.017-.161.032-.324.049-.485" transform="translate(4.02 18.587)" fill="#0e66b0"/>
          <path id="Path_881833" data-name="Path 881833" d="M17.662,24.74l-.024-.078.024.078" transform="translate(25.386 35.496)" fill="#9dc0d5"/>
          <path id="Path_881834" data-name="Path 881834" d="M16.274,12.529l5.6,0a1.383,1.383,0,0,1,.3.015c.173.037.271.107.171.317a7.363,7.363,0,0,0-.354,1.768,6.157,6.157,0,0,0,.141,2.215c.046.285-.039.3-.266.3-1.715,0-3.43,0-5.144,0q-1.218,0-2.434,0c-.1,0-.207.029-.288-.059.332-.212.727-.285,1.049-.522A2.779,2.779,0,0,0,16.2,14.617a2.233,2.233,0,0,0-.007-1.127c.146-.31.01-.644.08-.961" transform="translate(20.154 18.033)" fill="#feebcf"/>
          <path id="Path_881835" data-name="Path 881835" d="M23.515,5.564H13.55a1.2,1.2,0,0,1-1.281-.815c-.037-.122-.271-.117-.146-.359.22-.427.366-.9.9-1.012a4.578,4.578,0,0,1,.961-.115q9.568-.011,19.139,0a2.316,2.316,0,0,1,1.259.254A1.018,1.018,0,0,1,34.87,4.7a1.023,1.023,0,0,1-.82.8,3.192,3.192,0,0,1-.632.068q-4.951,0-9.9,0" transform="translate(17.397 4.689)" fill="#727997"/>
          <path id="Path_881836" data-name="Path 881836" d="M15.017,8.358a9.484,9.484,0,0,0-1.561-1.99,2.648,2.648,0,0,1-.2-.263,3.259,3.259,0,0,1,.815-.056q8.869,0,17.739,0a1.8,1.8,0,0,1,.683.115,1.076,1.076,0,0,1,.693,1.349,1.055,1.055,0,0,1-1.059.79c-.193.01-.385,0-.581,0q-8.1,0-16.212,0c-.107,0-.224-.039-.32.051" transform="translate(19.082 8.702)" fill="#727997"/>
          <path id="Path_881837" data-name="Path 881837" d="M14.91,9.762h9.718c.08,0,.163,0,.244,0,.1,0,.227,0,.281.085.071.117-.068.171-.129.239A21.722,21.722,0,0,0,22.164,14.1a.454.454,0,0,1-.466.212q-2.269,0-4.54,0-1.094,0-2.193,0c-.032-1.52.02-3.037-.056-4.554" transform="translate(21.46 14.05)" fill="#feebcf"/>
          <path id="Path_881838" data-name="Path 881838" d="M20.084,17.149a.818.818,0,0,0,.722.127,5.082,5.082,0,0,1,.666-.039q4.329,0,8.657,0c.354,0,.707.027,1.061.061a1.129,1.129,0,0,1-.117,2.247c-.315.012-.629,0-.946,0q-7.161,0-14.326,0a4.667,4.667,0,0,1-.717.012A1.166,1.166,0,0,1,14,18.293a1.1,1.1,0,0,1,1.2-1c.476,0,.949-.1,1.427-.059.141.012.246-.083.371-.12.027.185.168.166.3.166.715,0,1.429,0,2.144,0a1.221,1.221,0,0,0,.639-.137" transform="translate(20.155 24.634)" fill="#727997"/>
          <path id="Path_881839" data-name="Path 881839" d="M18.315,20.548a1.221,1.221,0,0,1-.639.137c-.715-.01-1.429,0-2.144,0-.132,0-.273.02-.3-.166.7-.739,1.422-1.454,2.083-2.225.556-.646,1.2-1.2,1.793-1.8.063-.063.122-.134.181-.2q.585-.655,1.168-1.312c.268-.3.266-.293.532,0a5.42,5.42,0,0,0,1.159,1.068c.1.061.215.122.212.271q-1.72,1.818-3.439,3.635c-.2.2-.4.4-.6.6" transform="translate(21.923 21.234)" fill="#12263f"/>
        </g>
      </g>
    </g>
  </g>
</svg>
