<svg xmlns="http://www.w3.org/2000/svg" xmlns:xlink="http://www.w3.org/1999/xlink" width="190" height="134" viewBox="0 0 190 134">
  <defs>
    <clipPath id="clip-path">
      <rect id="Rectangle_403317" data-name="Rectangle 403317" width="85.906" height="89.565" fill="#7d3a1b"/>
    </clipPath>
  </defs>
  <g id="Group_1101632" data-name="Group 1101632" transform="translate(-330 -7019)">
    <rect id="Rectangle_402215" data-name="Rectangle 402215" width="190" height="134" transform="translate(330 7019)" fill="none"/>
    <g id="Group_1100287" data-name="Group 1100287" transform="translate(16 -507)">
      <g id="Grupo_156312" data-name="Grupo 156312" transform="translate(344 7528.086)">
        <path id="Elipse_5845" data-name="Elipse 5845" d="M65.5,0A65.5,65.5,0,1,1,0,65.5,65.5,65.5,0,0,1,65.5,0Z" transform="translate(0 0)" fill="#ffce73"/>
      </g>
      <g id="Group_1101634" data-name="Group 1101634" transform="translate(367 7549.086)">
        <g id="Group_1101633" data-name="Group 1101633" transform="translate(0 0)" clip-path="url(#clip-path)">
          <path id="Path_881265" data-name="Path 881265" d="M49.452,22.456v5.065c1.008.065,1.974.127,2.937.2.784.055,1.565.113,2.349.189a2.991,2.991,0,0,1,2.672,2.83c.017.213.017.43.017.643q.005,5.958,0,11.912a3.137,3.137,0,0,1-3.294,3.456c-.784.045-1.568.1-2.349.144s-1.534.083-2.318.124V52.15c.512-.034,1.018-.065,1.523-.1q3.2-.206,6.407-.416,5.576-.366,11.152-.736c.784-.048,1.568-.076,2.352-.12a3.4,3.4,0,0,1,2.311.743q5.081,3.889,10.172,7.775c.523.4,1.063.777,1.541,1.224a2.848,2.848,0,0,1-.045,4.34c-.746.66-1.568,1.241-2.362,1.847-2.933,2.249-5.887,4.474-8.8,6.757a4.7,4.7,0,0,1-3.528,1.063c-2.146-.2-4.3-.292-6.451-.423-3.9-.237-7.81-.464-11.713-.7-.853-.052-1.706-.131-2.586-.2V86.635h.708l15.379-.01c1,0,1.554.347,1.778,1.094A1.4,1.4,0,0,1,66.1,89.524c-.753.052-1.513.038-2.27.038H21.5c-.254,0-.512-.01-.767-.034a1.386,1.386,0,0,1-1.265-1.341A1.409,1.409,0,0,1,20.62,86.7a5.235,5.235,0,0,1,.9-.069q7.583-.005,15.165,0h.736c.01-.175.024-.285.024-.4,0-4.443-.01-8.886,0-13.329,0-.378-.117-.492-.478-.506-1.338-.052-2.679-.12-4.02-.2-.6-.034-1.2-.083-1.788-.162a2.976,2.976,0,0,1-2.7-2.985c-.038-1.486-.017-2.971-.017-4.457,0-2.772-.007-5.543.014-8.312a2.863,2.863,0,0,1,1.4-2.589,4.951,4.951,0,0,1,2.356-.523c1.64-.1,3.277-.217,4.914-.32.227-.014.327-.083.323-.33-.007-1.541,0-3.085,0-4.629a.731.731,0,0,0-.041-.151c-.894.072-1.785.158-2.675.217-1.7.113-3.391.213-5.086.32q-5.236.325-10.471.646c-1.338.083-2.679.148-4.017.254a3.409,3.409,0,0,1-2.411-.691q-2.455-1.862-4.9-3.738-3.152-2.4-6.3-4.8A3.277,3.277,0,0,1,0,37.418,2.846,2.846,0,0,1,1.15,34.96c1.376-1.066,2.761-2.122,4.144-3.181,2.369-1.812,4.749-3.614,7.1-5.444a3.828,3.828,0,0,1,2.758-.932c1.664.134,3.332.2,5,.3q3.208.2,6.413.4,4.338.279,8.676.561c.708.045,1.42.083,2.149.124a2.268,2.268,0,0,0,.048-.32c0-1.472-.01-2.94,0-4.412,0-.279-.079-.371-.358-.389-1.878-.107-3.759-.244-5.64-.347a3.047,3.047,0,0,1-2.985-2.988c-.034-.97-.017-1.943-.017-2.913q-.005-4.586,0-9.171a8.507,8.507,0,0,1,.038-1.069,3.077,3.077,0,0,1,3.067-2.737c1.338-.062,2.672-.2,4.013-.282,1.052-.062,2.111-.062,3.164-.127,3.233-.206,6.465-.437,9.7-.643C51.013,1.214,53.606,1.066,56.2.9,58.692.75,61.185.585,63.678.434,66.013.289,68.351.169,70.686.011a3.808,3.808,0,0,1,2.7.843Q78.9,5.1,84.445,9.313a3.18,3.18,0,0,1,1.417,2.2A2.9,2.9,0,0,1,84.7,14.258c-.853.667-1.719,1.324-2.579,1.984q-4.2,3.214-8.4,6.424c-.251.189-.5.382-.76.557a3.054,3.054,0,0,1-1.94.554q-2.9-.186-5.812-.358c-2.407-.141-4.818-.261-7.225-.409-1.737-.11-3.473-.254-5.21-.371-1.094-.072-2.191-.12-3.318-.182M82.967,62.708c-.141-.131-.251-.258-.382-.358q-5.494-4.2-10.991-8.4a.937.937,0,0,0-.543-.189c-1.028.028-2.053.069-3.078.141-2.961.206-5.918.447-8.879.643-2.2.148-4.415.241-6.623.378q-6.67.4-13.332.832c-2.435.151-4.873.32-7.308.461-.365.021-.444.158-.44.5.017,1.372.01,2.741,0,4.113,0,.32.093.413.416.409,1.372-.017,2.741-.031,4.113.007a1.458,1.458,0,1,1-.107,2.913c-1.345,0-2.686.007-4.027-.007-.306,0-.4.1-.392.4q.01,2.12-.007,4.24c0,.258.1.337.354.351,2.662.162,5.327.34,7.992.5,1.764.107,3.535.182,5.3.3,3.191.206,6.379.44,9.57.646,2.693.172,5.385.31,8.078.478s5.413.371,8.119.53a1.337,1.337,0,0,0,.825-.23C75.4,68.5,79.16,65.617,82.967,62.708M31.4,13.415v.471c0,1.327.014,2.655-.014,3.982-.01.409.127.509.509.523,1.5.045,3,.093,4.491.189,3.019.2,6.032.45,9.051.647,3.291.213,6.585.378,9.873.581,3.336.206,6.664.433,10,.65,1.723.113,3.446.213,5.169.347a1.538,1.538,0,0,0,1.2-.244q5.411-4.168,10.843-8.3c.478-.368.478-.378,0-.739q-5.488-4.2-10.987-8.4a1.021,1.021,0,0,0-.626-.172c-.87.038-1.737.124-2.607.179q-6.556.433-13.112.856c-1.737.107-3.477.162-5.213.265-.87.055-1.733.193-2.6.248-2.294.144-4.587.261-6.878.4-2.081.124-4.161.258-6.238.385-.939.058-1.878.107-2.83.162v4.89h.45c1.2,0,2.4-.031,3.6.017a3.221,3.221,0,0,1,1.245.361,1.273,1.273,0,0,1,.646,1.341,1.233,1.233,0,0,1-.839,1.138,3.473,3.473,0,0,1-1.121.22c-1.31.028-2.624.01-4.01.01M2.876,37.308c3.882,2.964,7.693,5.874,11.51,8.776a.818.818,0,0,0,.506.141c1.64-.079,3.277-.165,4.914-.275,3.233-.213,6.462-.457,9.694-.664,3.019-.193,6.042-.34,9.061-.53,3.862-.244,7.72-.516,11.579-.767,1.324-.086,2.648-.158,3.975-.227.23-.01.361-.055.358-.34-.014-1.441-.01-2.885-.014-4.326a2.482,2.482,0,0,0-.045-.309h-.488c-1.413,0-2.827,0-4.24,0a1.52,1.52,0,0,1-1.706-1.468,1.546,1.546,0,0,1,1.706-1.523c.186,0,.371,0,.557,0,1.286,0,2.572-.007,3.855,0,.248,0,.361-.055.358-.33-.007-1.458.007-2.916-.007-4.371a.371.371,0,0,0-.258-.265c-2.462-.158-4.928-.3-7.39-.444-2.878-.172-5.757-.34-8.635-.53-2.83-.186-5.66-.406-8.494-.591-1.224-.083-2.452-.1-3.676-.169-.984-.062-1.964-.182-2.944-.244-2.593-.165-5.189-.3-7.779-.478a1.591,1.591,0,0,0-1.18.327c-3.019,2.328-6.052,4.636-9.079,6.953-.7.533-1.393,1.08-2.139,1.658M40.4,72.656c-.01.265-.021.4-.021.543,0,4.357,0,8.711-.014,13.068,0,.327.131.371.4.371,1.7-.01,3.4-.01,5.1-.01h.492V73.052c-2-.134-3.951-.261-5.956-.4m.024-50.764a1.331,1.331,0,0,0-.045.2c0,1.527,0,3.057-.007,4.584,0,.3.138.354.392.365,1.355.052,2.71.107,4.065.179.509.024,1.014.093,1.53.141v-5.1l-5.935-.375M46.364,47.3a.921.921,0,0,0-.169-.038c-1.85.113-3.7.234-5.554.34-.285.017-.265.2-.265.385,0,1.444,0,2.885-.007,4.33,0,.261.076.351.344.334,1.8-.12,3.59-.237,5.385-.34.265-.014.347-.1.32-.365a10.869,10.869,0,0,1-.052-1.111c-.007-1.169,0-2.338,0-3.535" transform="translate(-0.001 0.001)" fill="#7d3a1b"/>
        </g>
      </g>
    </g>
  </g>
</svg>
