<svg xmlns="http://www.w3.org/2000/svg" xmlns:xlink="http://www.w3.org/1999/xlink" width="121" height="121" viewBox="0 0 121 121">
  <defs>
    <clipPath id="clip-path">
      <rect id="Rectangle_400938" data-name="Rectangle 400938" width="121" height="121" transform="translate(0 0)" fill="none"/>
    </clipPath>
    <clipPath id="clip-path-2">
      <rect id="Rectangle_401073" data-name="Rectangle 401073" width="92.219" height="41.532" fill="#efb499"/>
    </clipPath>
    <clipPath id="clip-path-3">
      <rect id="Rectangle_403522" data-name="Rectangle 403522" width="75" height="75" transform="translate(411.667 1271.666)" fill="#fff" stroke="#707070" stroke-width="1"/>
    </clipPath>
    <clipPath id="clip-path-4">
      <rect id="Rectangle_403535" data-name="Rectangle 403535" width="73.333" height="96.974" fill="none"/>
    </clipPath>
    <clipPath id="clip-path-6">
      <rect id="Rectangle_403528" data-name="Rectangle 403528" width="71.11" height="95.307" fill="none"/>
    </clipPath>
    <clipPath id="clip-path-7">
      <path id="Path_882001" data-name="Path 882001" d="M35.556,0A35.555,35.555,0,1,0,71.11,35.555,35.555,35.555,0,0,0,35.556,0Z" fill="none"/>
    </clipPath>
    <clipPath id="clip-path-8">
      <rect id="Rectangle_403530" data-name="Rectangle 403530" width="26.659" height="45.495" fill="none"/>
    </clipPath>
    <clipPath id="clip-path-9">
      <rect id="Rectangle_403531" data-name="Rectangle 403531" width="9.415" height="6.726" fill="none"/>
    </clipPath>
    <clipPath id="clip-path-10">
      <rect id="Rectangle_403532" data-name="Rectangle 403532" width="4.206" height="7.757" fill="none"/>
    </clipPath>
    <clipPath id="clip-path-12">
      <rect id="Rectangle_403534" data-name="Rectangle 403534" width="23.632" height="32.059" fill="none"/>
    </clipPath>
  </defs>
  <g id="Group_1103338" data-name="Group 1103338" transform="translate(6148.344 10461)">
    <g id="Group_1101863" data-name="Group 1101863" transform="translate(-6536.012 -16474)">
      <rect id="Rectangle_401103" data-name="Rectangle 401103" width="121" height="121" transform="translate(387.668 6013)" fill="none"/>
      <g id="Group_1099348" data-name="Group 1099348" transform="translate(387.668 6013)">
        <g id="Group_1099282" data-name="Group 1099282">
          <g id="Group_1099281" data-name="Group 1099281" clip-path="url(#clip-path-2)">
            <path id="Path_873375" data-name="Path 873375" d="M74.8,9.1c-4.139,0-6.28-2.03-8.17-3.821-1.855-1.756-3.452-3.274-6.792-3.274s-4.937,1.517-6.792,3.274C51.161,7.072,49.023,9.1,44.881,9.1s-6.28-2.03-8.169-3.821C34.857,3.525,33.26,2.007,29.92,2.007s-4.937,1.517-6.789,3.274C21.241,7.072,19.1,9.1,14.962,9.1S8.679,7.072,6.789,5.281C4.937,3.525,3.34,2.007,0,2.007V0C4.139,0,6.28,2.033,8.17,3.821c1.855,1.759,3.452,3.274,6.792,3.274S19.9,5.58,21.75,3.824C23.637,2.033,25.781,0,29.92,0s6.283,2.033,8.17,3.821c1.855,1.759,3.452,3.274,6.792,3.274s4.937-1.514,6.792-3.274C53.56,2.033,55.7,0,59.843,0s6.283,2.033,8.17,3.821C69.867,5.58,71.464,7.094,74.8,7.094S79.742,5.58,81.6,3.821C83.483,2.033,85.624,0,89.766,0V2.007c-3.34,0-4.937,1.517-6.792,3.274C81.084,7.072,78.943,9.1,74.8,9.1" transform="translate(2.453 32.43)" fill="#efb499"/>
            <path id="Path_873376" data-name="Path 873376" d="M74.8,9.1c-4.139,0-6.283-2.03-8.17-3.824-1.855-1.756-3.452-3.27-6.792-3.27s-4.937,1.514-6.792,3.27C51.164,7.072,49.023,9.1,44.881,9.1s-6.283-2.03-8.17-3.824c-1.855-1.756-3.452-3.27-6.792-3.27s-4.937,1.517-6.789,3.27C21.241,7.072,19.1,9.1,14.962,9.1S8.679,7.072,6.789,5.278C4.937,3.522,3.34,2.007,0,2.007V0C4.139,0,6.283,2.03,8.17,3.821c1.855,1.759,3.452,3.274,6.792,3.274S19.9,5.58,21.75,3.821C23.637,2.03,25.781,0,29.92,0S36.2,2.03,38.093,3.821c1.852,1.759,3.449,3.274,6.789,3.274s4.937-1.514,6.792-3.274C53.56,2.03,55.7,0,59.843,0s6.283,2.03,8.17,3.821C69.867,5.58,71.464,7.094,74.8,7.094S79.742,5.58,81.6,3.821C83.486,2.03,85.627,0,89.769,0V2.007c-3.34,0-4.94,1.517-6.8,3.27C81.084,7.072,78.943,9.1,74.8,9.1" transform="translate(1.635 21.62)" fill="#efb499"/>
            <path id="Path_873377" data-name="Path 873377" d="M74.8,9.1c-4.139,0-6.283-2.03-8.169-3.824-1.855-1.756-3.452-3.27-6.792-3.27s-4.937,1.514-6.792,3.27C51.164,7.072,49.02,9.1,44.881,9.1s-6.283-2.03-8.17-3.824c-1.855-1.756-3.452-3.27-6.792-3.27s-4.937,1.517-6.789,3.27C21.241,7.072,19.1,9.1,14.962,9.1S8.678,7.072,6.789,5.278C4.937,3.522,3.34,2.007,0,2.007V0C4.139,0,6.283,2.03,8.169,3.821c1.851,1.759,3.452,3.274,6.792,3.274S19.9,5.58,21.75,3.821C23.637,2.03,25.781,0,29.92,0S36.2,2.03,38.093,3.821c1.852,1.759,3.449,3.274,6.789,3.274s4.937-1.514,6.792-3.274C53.56,2.03,55.7,0,59.843,0s6.283,2.03,8.17,3.821C69.867,5.58,71.464,7.094,74.8,7.094S79.742,5.58,81.6,3.821C83.486,2.03,85.624,0,89.769,0V2.007c-3.34,0-4.941,1.517-6.8,3.27C81.084,7.072,78.943,9.1,74.8,9.1" transform="translate(0.818 10.81)" fill="#efb499"/>
            <path id="Path_873378" data-name="Path 873378" d="M74.8,9.1c-4.139,0-6.28-2.03-8.17-3.821-1.855-1.756-3.452-3.27-6.792-3.27s-4.937,1.514-6.789,3.27C51.164,7.069,49.023,9.1,44.881,9.1s-6.28-2.03-8.169-3.821c-1.855-1.756-3.452-3.27-6.792-3.27s-4.937,1.514-6.789,3.267C21.245,7.069,19.1,9.1,14.962,9.1S8.678,7.069,6.789,5.278C4.937,3.522,3.34,2.007,0,2.007V0C4.139,0,6.283,2.03,8.17,3.821c1.855,1.756,3.452,3.27,6.792,3.27S19.9,5.577,21.75,3.821C23.64,2.03,25.781,0,29.92,0s6.28,2.03,8.173,3.821c1.852,1.756,3.449,3.27,6.789,3.27s4.937-1.514,6.792-3.27C53.563,2.03,55.7,0,59.843,0s6.28,2.03,8.17,3.821c1.855,1.756,3.452,3.27,6.792,3.27s4.937-1.514,6.792-3.27C83.486,2.03,85.627,0,89.769,0V2.007c-3.344,0-4.941,1.514-6.8,3.27C81.084,7.069,78.943,9.1,74.8,9.1" transform="translate(0 0.003)" fill="#efb499"/>
          </g>
        </g>
      </g>
      <circle id="Ellipse_11504" data-name="Ellipse 11504" cx="50.5" cy="50.5" r="50.5" transform="translate(402.668 6031)" fill="#ffce73"/>
      <circle id="Ellipse_11503" data-name="Ellipse 11503" cx="52.5" cy="52.5" r="52.5" transform="translate(395.668 6021)" fill="#f3f9ff"/>
    </g>
    <g id="Mask_Group_1101501" data-name="Mask Group 1101501" transform="translate(-6536.667 -11707.667)" clip-path="url(#clip-path-3)">
      <g id="Group_1102081" data-name="Group 1102081" transform="translate(413 1273.666)">
        <g id="Group_1102080" data-name="Group 1102080" clip-path="url(#clip-path-4)">
          <g id="Group_1102062" data-name="Group 1102062">
            <g id="Group_1102061" data-name="Group 1102061" clip-path="url(#clip-path-4)">
              <path id="Path_881986" data-name="Path 881986" d="M71.111,35.555A35.555,35.555,0,1,1,35.556,0,35.555,35.555,0,0,1,71.111,35.555" fill="#fecab2"/>
            </g>
          </g>
          <g id="Group_1102079" data-name="Group 1102079">
            <g id="Group_1102078" data-name="Group 1102078" clip-path="url(#clip-path-7)">
              <path id="Path_881987" data-name="Path 881987" d="M47.222,24.757c-1.26-.786,1.956-3.017,2.4-3.094C66.932,18.638,73.18,32.684,74,37.417c.963,5.564-.107,14.032.428,17.234a32.319,32.319,0,0,0,3.745,11.975c3,5.777,5.67,13.587,5.777,17.546s1.605,14.123-1.6,17.654-9.522,4.6-11.555,2.782-4.493-7.6-3.745-14.337,6.666-17.74-4.386-18.189c-2.908-.118-17.747-2.461-19.68-4.279s-6.212-10.057-6.961-18.4-.8-21.826,11.8-23.752c0,0-.576-.881-.592-.891" transform="translate(-18.645 -11.078)" fill="#ff7900"/>
              <g id="Group_1102065" data-name="Group 1102065" transform="translate(23.389 19.46)" style="mix-blend-mode: multiply;isolation: isolate">
                <g id="Group_1102064" data-name="Group 1102064">
                  <g id="Group_1102063" data-name="Group 1102063" clip-path="url(#clip-path-8)">
                    <path id="Path_881988" data-name="Path 881988" d="M57.568,83.427c7.572,5.584,13.235,2.674,16.226-9,2.907-11.353,1.876-21.385-.75-24.887S49.9,40.676,49.9,40.676,44.779,74,57.568,83.427" transform="translate(-48.887 -40.676)" fill="#ff7900"/>
                  </g>
                </g>
              </g>
              <path id="Path_881989" data-name="Path 881989" d="M55.128,101.711l-.474-10.638H45.822l-.471,10.554A3.244,3.244,0,0,1,43.3,104.5l-11.282,4.436a10.1,10.1,0,0,0-6.405,9.4v.03H74.866a10.1,10.1,0,0,0-6.444-9.416l-11.228-4.362a3.245,3.245,0,0,1-2.066-2.88" transform="translate(-13.357 -47.501)" fill="#ffd6a4"/>
              <g id="Group_1102068" data-name="Group 1102068" transform="translate(32.07 44.439)" style="mix-blend-mode: multiply;isolation: isolate">
                <g id="Group_1102067" data-name="Group 1102067">
                  <g id="Group_1102066" data-name="Group 1102066" clip-path="url(#clip-path-9)">
                    <path id="Path_881990" data-name="Path 881990" d="M67.032,98.279a9.515,9.515,0,0,0,4.712,1.332,9.228,9.228,0,0,0,4.7-1.434L76.2,92.885H67.288Z" transform="translate(-67.032 -92.885)" fill="#ffd6a4"/>
                  </g>
                </g>
              </g>
              <path id="Path_881991" data-name="Path 881991" d="M75.936,49.353c-.244,9.17-6.643,17.63-12.526,17.63-6.3,0-12.233-8.462-12.526-17.63-.437-13.7,5.608-16.609,12.526-16.609s12.932,1.381,12.526,16.609" transform="translate(-26.528 -17.078)" fill="#ffd6a4"/>
              <g id="Group_1102071" data-name="Group 1102071" transform="translate(22.298 30.263)" opacity="0.3" style="mix-blend-mode: multiply;isolation: isolate">
                <g id="Group_1102070" data-name="Group 1102070">
                  <g id="Group_1102069" data-name="Group 1102069" clip-path="url(#clip-path-10)">
                    <path id="Path_881992" data-name="Path 881992" d="M50.742,66.85c.3,2.136-.375,3.994-1.5,4.15s-2.273-1.451-2.569-3.587.375-3.994,1.5-4.15,2.273,1.451,2.569,3.587" transform="translate(-46.606 -63.254)" fill="#581501"/>
                  </g>
                </g>
              </g>
              <path id="Path_881993" data-name="Path 881993" d="M51.5,65.7c.3,2.136-.375,3.994-1.5,4.15s-2.273-1.451-2.569-3.587.375-3.994,1.5-4.15S51.2,63.563,51.5,65.7" transform="translate(-24.703 -32.391)" fill="#ffd6a4"/>
              <g id="Group_1102074" data-name="Group 1102074" transform="translate(47.236 30.263)" opacity="0.3" style="mix-blend-mode: multiply;isolation: isolate">
                <g id="Group_1102073" data-name="Group 1102073">
                  <g id="Group_1102072" data-name="Group 1102072" clip-path="url(#clip-path-10)">
                    <path id="Path_881994" data-name="Path 881994" d="M98.8,66.85c-.3,2.136.375,3.994,1.5,4.15s2.273-1.451,2.569-3.587-.375-3.994-1.5-4.15S99.1,64.714,98.8,66.85" transform="translate(-98.731 -63.254)" fill="#581501"/>
                  </g>
                </g>
              </g>
              <path id="Path_881995" data-name="Path 881995" d="M98.29,65.7c-.3,2.136.375,3.994,1.5,4.15s2.273-1.451,2.568-3.587-.374-3.994-1.5-4.15S98.586,63.563,98.29,65.7" transform="translate(-51.228 -32.391)" fill="#ffd6a4"/>
              <g id="Group_1102077" data-name="Group 1102077" transform="translate(27.565 17.847)" opacity="0.3" style="mix-blend-mode: multiply;isolation: isolate">
                <g id="Group_1102076" data-name="Group 1102076">
                  <g id="Group_1102075" data-name="Group 1102075" clip-path="url(#clip-path-12)">
                    <path id="Path_881996" data-name="Path 881996" d="M79.68,49.178a1.183,1.183,0,0,0-.218-.008C79.3,42.721,77.782,39.2,75.48,37.3c1.158,2.469,1.78,6.071,1.64,11.315-.244,9.17-6.643,17.631-12.526,17.631a9.874,9.874,0,0,1-6.979-3.5c2.373,3.951,5.788,6.609,9.317,6.609,4.744,0,9.823-5.5,11.74-12.442,1.1.089,2.216-1.5,2.506-3.592.3-2.137-.374-3.994-1.5-4.15" transform="translate(-57.615 -37.303)" fill="#ffd6a4"/>
                  </g>
                </g>
              </g>
              <path id="Path_881997" data-name="Path 881997" d="M68.422,125.589l-6.743-2.62-11.507,6.806L38.64,122.969l-6.624,2.6a10.1,10.1,0,0,0-6.405,9.4V135H74.866a10.1,10.1,0,0,0-6.444-9.416" transform="translate(-13.357 -64.137)" fill="#a2c139"/>
              <path id="Path_881998" data-name="Path 881998" d="M53.88,38.087S50.9,46.886,46.4,48.638s-3.858-2.313-3.858-2.313l2.033-5.349,3.622-4.708Z" transform="translate(-22.171 -18.916)" fill="#ff7900"/>
              <path id="Path_881999" data-name="Path 881999" d="M61,22.025a4.163,4.163,0,0,0-2.875,2.089,4.338,4.338,0,0,0-.54,1.873,8.689,8.689,0,0,0,3.351,7.572c4.922,3.852,6.628,3.852,9.787,4.6s7.636,2.992,8.233,5.508a4.094,4.094,0,0,0,1.789-3.689c-.123-2.568-.872-9.471-7.077-12.92-4.74-2.635-9.106-5.692-12.668-5.034" transform="translate(-30.026 -11.44)" fill="#ff7900"/>
              <path id="Path_882000" data-name="Path 882000" d="M107.474,116.888c3,5.778,7.453,14.319,7.561,18.278s1.868,15.341-1.342,18.872-30.463,5.22-18.941-13.5c3.555-5.776,2.647-21.495-.135-22.351Z" transform="translate(-47.947 -60.965)" fill="#ff7900"/>
            </g>
          </g>
        </g>
      </g>
    </g>
  </g>
</svg>
