<svg xmlns="http://www.w3.org/2000/svg" xmlns:xlink="http://www.w3.org/1999/xlink" width="121" height="121" viewBox="0 0 121 121">
  <defs>
    <clipPath id="clip-path">
      <rect id="Rectangle_400938" data-name="Rectangle 400938" width="121" height="121" transform="translate(0 0)" fill="none"/>
    </clipPath>
    <clipPath id="clip-path-2">
      <rect id="Rectangle_401073" data-name="Rectangle 401073" width="92.219" height="41.532" fill="#efb499"/>
    </clipPath>
    <clipPath id="clip-path-3">
      <rect id="Rectangle_403483" data-name="Rectangle 403483" width="75" height="75" transform="translate(411.667 1271.666)" fill="#fff" stroke="#707070" stroke-width="1"/>
    </clipPath>
    <clipPath id="clip-path-4">
      <rect id="Rectangle_403498" data-name="Rectangle 403498" width="74.436" height="75" fill="none"/>
    </clipPath>
    <clipPath id="clip-path-6">
      <circle id="Ellipse_11551" data-name="Ellipse 11551" cx="36.207" cy="36.207" r="36.207" fill="none"/>
    </clipPath>
    <clipPath id="clip-path-7">
      <rect id="Rectangle_403492" data-name="Rectangle 403492" width="28.173" height="37.063" fill="none"/>
    </clipPath>
    <clipPath id="clip-path-8">
      <rect id="Rectangle_403493" data-name="Rectangle 403493" width="8.513" height="6.48" fill="none"/>
    </clipPath>
    <clipPath id="clip-path-9">
      <rect id="Rectangle_403494" data-name="Rectangle 403494" width="4.166" height="7.685" fill="none"/>
    </clipPath>
    <clipPath id="clip-path-11">
      <rect id="Rectangle_403496" data-name="Rectangle 403496" width="23.411" height="31.759" fill="none"/>
    </clipPath>
    <clipPath id="clip-path-12">
      <rect id="Rectangle_403497" data-name="Rectangle 403497" width="22.46" height="60.856" fill="none"/>
    </clipPath>
  </defs>
  <g id="Group_1103336" data-name="Group 1103336" transform="translate(-1089.656 -1239)">
    <g id="Group_1101839" data-name="Group 1101839" transform="translate(701.988 -4774)">
      <rect id="Rectangle_401103" data-name="Rectangle 401103" width="121" height="121" transform="translate(387.668 6013)" fill="none"/>
      <g id="Group_1099348" data-name="Group 1099348" transform="translate(387.668 6013)">
        <g id="Group_1099282" data-name="Group 1099282">
          <g id="Group_1099281" data-name="Group 1099281" clip-path="url(#clip-path-2)">
            <path id="Path_873375" data-name="Path 873375" d="M74.8,9.1c-4.139,0-6.28-2.03-8.17-3.821-1.855-1.756-3.452-3.274-6.792-3.274s-4.937,1.517-6.792,3.274C51.161,7.072,49.023,9.1,44.881,9.1s-6.28-2.03-8.169-3.821C34.857,3.525,33.26,2.007,29.92,2.007s-4.937,1.517-6.789,3.274C21.241,7.072,19.1,9.1,14.962,9.1S8.679,7.072,6.789,5.281C4.937,3.525,3.34,2.007,0,2.007V0C4.139,0,6.28,2.033,8.17,3.821c1.855,1.759,3.452,3.274,6.792,3.274S19.9,5.58,21.75,3.824C23.637,2.033,25.781,0,29.92,0s6.283,2.033,8.17,3.821c1.855,1.759,3.452,3.274,6.792,3.274s4.937-1.514,6.792-3.274C53.56,2.033,55.7,0,59.843,0s6.283,2.033,8.17,3.821C69.867,5.58,71.464,7.094,74.8,7.094S79.742,5.58,81.6,3.821C83.483,2.033,85.624,0,89.766,0V2.007c-3.34,0-4.937,1.517-6.792,3.274C81.084,7.072,78.943,9.1,74.8,9.1" transform="translate(2.453 32.43)" fill="#efb499"/>
            <path id="Path_873376" data-name="Path 873376" d="M74.8,9.1c-4.139,0-6.283-2.03-8.17-3.824-1.855-1.756-3.452-3.27-6.792-3.27s-4.937,1.514-6.792,3.27C51.164,7.072,49.023,9.1,44.881,9.1s-6.283-2.03-8.17-3.824c-1.855-1.756-3.452-3.27-6.792-3.27s-4.937,1.517-6.789,3.27C21.241,7.072,19.1,9.1,14.962,9.1S8.679,7.072,6.789,5.278C4.937,3.522,3.34,2.007,0,2.007V0C4.139,0,6.283,2.03,8.17,3.821c1.855,1.759,3.452,3.274,6.792,3.274S19.9,5.58,21.75,3.821C23.637,2.03,25.781,0,29.92,0S36.2,2.03,38.093,3.821c1.852,1.759,3.449,3.274,6.789,3.274s4.937-1.514,6.792-3.274C53.56,2.03,55.7,0,59.843,0s6.283,2.03,8.17,3.821C69.867,5.58,71.464,7.094,74.8,7.094S79.742,5.58,81.6,3.821C83.486,2.03,85.627,0,89.769,0V2.007c-3.34,0-4.94,1.517-6.8,3.27C81.084,7.072,78.943,9.1,74.8,9.1" transform="translate(1.635 21.62)" fill="#efb499"/>
            <path id="Path_873377" data-name="Path 873377" d="M74.8,9.1c-4.139,0-6.283-2.03-8.169-3.824-1.855-1.756-3.452-3.27-6.792-3.27s-4.937,1.514-6.792,3.27C51.164,7.072,49.02,9.1,44.881,9.1s-6.283-2.03-8.17-3.824c-1.855-1.756-3.452-3.27-6.792-3.27s-4.937,1.517-6.789,3.27C21.241,7.072,19.1,9.1,14.962,9.1S8.678,7.072,6.789,5.278C4.937,3.522,3.34,2.007,0,2.007V0C4.139,0,6.283,2.03,8.169,3.821c1.851,1.759,3.452,3.274,6.792,3.274S19.9,5.58,21.75,3.821C23.637,2.03,25.781,0,29.92,0S36.2,2.03,38.093,3.821c1.852,1.759,3.449,3.274,6.789,3.274s4.937-1.514,6.792-3.274C53.56,2.03,55.7,0,59.843,0s6.283,2.03,8.17,3.821C69.867,5.58,71.464,7.094,74.8,7.094S79.742,5.58,81.6,3.821C83.486,2.03,85.624,0,89.769,0V2.007c-3.34,0-4.941,1.517-6.8,3.27C81.084,7.072,78.943,9.1,74.8,9.1" transform="translate(0.818 10.81)" fill="#efb499"/>
            <path id="Path_873378" data-name="Path 873378" d="M74.8,9.1c-4.139,0-6.28-2.03-8.17-3.821-1.855-1.756-3.452-3.27-6.792-3.27s-4.937,1.514-6.789,3.27C51.164,7.069,49.023,9.1,44.881,9.1s-6.28-2.03-8.169-3.821c-1.855-1.756-3.452-3.27-6.792-3.27s-4.937,1.514-6.789,3.267C21.245,7.069,19.1,9.1,14.962,9.1S8.678,7.069,6.789,5.278C4.937,3.522,3.34,2.007,0,2.007V0C4.139,0,6.283,2.03,8.17,3.821c1.855,1.756,3.452,3.27,6.792,3.27S19.9,5.577,21.75,3.821C23.64,2.03,25.781,0,29.92,0s6.28,2.03,8.173,3.821c1.852,1.756,3.449,3.27,6.789,3.27s4.937-1.514,6.792-3.27C53.563,2.03,55.7,0,59.843,0s6.28,2.03,8.17,3.821c1.855,1.756,3.452,3.27,6.792,3.27s4.937-1.514,6.792-3.27C83.486,2.03,85.627,0,89.769,0V2.007c-3.344,0-4.941,1.514-6.8,3.27C81.084,7.069,78.943,9.1,74.8,9.1" transform="translate(0 0.003)" fill="#efb499"/>
          </g>
        </g>
      </g>
      <circle id="Ellipse_11504" data-name="Ellipse 11504" cx="50.5" cy="50.5" r="50.5" transform="translate(402.668 6031)" fill="#ffce73"/>
      <circle id="Ellipse_11503" data-name="Ellipse 11503" cx="52.5" cy="52.5" r="52.5" transform="translate(395.668 6021)" fill="#f3f9ff"/>
    </g>
    <g id="Mask_Group_1101499" data-name="Mask Group 1101499" transform="translate(701.333 -7.667)" clip-path="url(#clip-path-3)">
      <g id="Group_1102011" data-name="Group 1102011" transform="translate(411.667 1271.667)">
        <g id="Group_1102010" data-name="Group 1102010" transform="translate(1 1)" clip-path="url(#clip-path-4)">
          <g id="Group_1101989" data-name="Group 1101989">
            <g id="Group_1101988" data-name="Group 1101988" clip-path="url(#clip-path-4)">
              <path id="Path_881932" data-name="Path 881932" d="M72.18,36.09A36.09,36.09,0,1,1,36.09,0,36.09,36.09,0,0,1,72.18,36.09" fill="#fecab2"/>
            </g>
          </g>
          <g id="Group_1102009" data-name="Group 1102009" transform="translate(-0.026 0)">
            <g id="Group_1102008" data-name="Group 1102008" transform="translate(0 0)" clip-path="url(#clip-path-6)">
              <path id="Path_881933" data-name="Path 881933" d="M67.649,51.455c.723-5.1-3.155-19.571-9.461-20.549l1.021-1.131s-1.986-6.07-8.345-5.781S37.857,25.873,32.22,34.689,26.584,52.9,27.6,56.441l1.59-2.24s-1.59,3.932-.722,11.216,5.981,15.666,5.981,15.666l1.425-7.291a10.088,10.088,0,0,0,3.968,8.448,3.9,3.9,0,0,1,4.579-2.168H55.2a3.9,3.9,0,0,1,4.579,2.168,10.093,10.093,0,0,0,3.948-8.72c1.4,1.3,1.445,7.563,1.445,7.563,5.2-9.394,2.746-19.367,1.59-24.136s.144-7.292.144-7.292Z" transform="translate(-13.094 -11.619)" fill="#581501"/>
              <g id="Group_1101992" data-name="Group 1101992" transform="translate(22.117 30.786)" opacity="0.3" style="mix-blend-mode: multiply;isolation: isolate">
                <g id="Group_1101991" data-name="Group 1101991">
                  <g id="Group_1101990" data-name="Group 1101990" clip-path="url(#clip-path-7)">
                    <path id="Path_881934" data-name="Path 881934" d="M68.319,96.774H45.249s-5.4-27.3,0-33.9c3.625-4.423,18.992-4.02,23.07,0,6.077,5.993,0,33.9,0,33.9" transform="translate(-42.848 -59.711)" fill="#581501"/>
                  </g>
                </g>
              </g>
              <path id="Path_881935" data-name="Path 881935" d="M53.643,103.44l-.433-9.7H45.156l-.429,9.625a2.959,2.959,0,0,1-1.873,2.622L32.565,110.03a9.212,9.212,0,0,0-5.841,8.573v.028H71.643a9.213,9.213,0,0,0-5.877-8.587l-10.239-3.978a2.959,2.959,0,0,1-1.884-2.626" transform="translate(-12.92 -45.409)" fill="#ffd6a4"/>
              <g id="Group_1101995" data-name="Group 1101995" transform="translate(32.004 48.329)" style="mix-blend-mode: multiply;isolation: isolate">
                <g id="Group_1101994" data-name="Group 1101994">
                  <g id="Group_1101993" data-name="Group 1101993" clip-path="url(#clip-path-8)">
                    <path id="Path_881936" data-name="Path 881936" d="M62.026,98.937a8.214,8.214,0,0,0,4.26,1.283,7.985,7.985,0,0,0,4.253-1.382l-.227-5.1H62.257Z" transform="translate(-62.026 -93.739)" fill="#ffd6a4"/>
                  </g>
                </g>
              </g>
              <path id="Path_881937" data-name="Path 881937" d="M71.018,54.73C70.776,63.813,64.437,72.2,58.609,72.2,52.37,72.2,46.49,63.812,46.2,54.73c-.434-13.568,5.555-16.454,12.409-16.454S71.42,39.644,71.018,54.73" transform="translate(-22.344 -18.542)" fill="#ffd6a4"/>
              <g id="Group_1101998" data-name="Group 1101998" transform="translate(21.817 34.194)" opacity="0.3" style="mix-blend-mode: multiply;isolation: isolate">
                <g id="Group_1101997" data-name="Group 1101997">
                  <g id="Group_1101996" data-name="Group 1101996" clip-path="url(#clip-path-9)">
                    <path id="Path_881938" data-name="Path 881938" d="M46.364,69.886C46.657,72,45.993,73.843,44.881,74s-2.252-1.436-2.545-3.553.371-3.957,1.483-4.111,2.252,1.437,2.545,3.553" transform="translate(-42.267 -66.322)" fill="#581501"/>
                  </g>
                </g>
              </g>
              <path id="Path_881939" data-name="Path 881939" d="M47.058,68.828c.293,2.116-.371,3.957-1.483,4.111s-2.252-1.436-2.544-3.553.371-3.957,1.483-4.111,2.252,1.436,2.545,3.553" transform="translate(-20.786 -31.616)" fill="#ffd6a4"/>
              <path id="Path_881940" data-name="Path 881940" d="M65.586,35.972S61.128,45.5,53.9,48.533l1.012-4.281s-2.224,4.4-6.648,5.691l.434-4.229a10.959,10.959,0,0,1-6.648,7.3V46.22s-.867-4.888,5.058-10.249A49.213,49.213,0,0,1,59.973,27.8s9.542,0,5.613,8.174" transform="translate(-20.324 -13.466)" fill="#581501"/>
              <path id="Path_881941" data-name="Path 881941" d="M78.038,42.5s6.053,4.44,7.086,10.843c0,0,3.718-1.549,1.239-7.331a14.932,14.932,0,0,0-7.538-7.736l-1.652,4.019Z" transform="translate(-37.359 -18.542)" fill="#581501"/>
              <g id="Group_1102001" data-name="Group 1102001" transform="translate(46.522 34.194)" opacity="0.3" style="mix-blend-mode: multiply;isolation: isolate">
                <g id="Group_1102000" data-name="Group 1102000">
                  <g id="Group_1101999" data-name="Group 1101999" clip-path="url(#clip-path-9)">
                    <path id="Path_881942" data-name="Path 881942" d="M90.253,69.886C89.96,72,90.624,73.843,91.736,74s2.252-1.436,2.544-3.553-.371-3.957-1.483-4.111-2.252,1.437-2.545,3.553" transform="translate(-90.184 -66.322)" fill="#581501"/>
                  </g>
                </g>
              </g>
              <path id="Path_881943" data-name="Path 881943" d="M89.783,68.828c-.293,2.116.371,3.957,1.483,4.111s2.252-1.436,2.544-3.553-.371-3.957-1.483-4.111-2.252,1.436-2.545,3.553" transform="translate(-43.434 -31.616)" fill="#ffd6a4"/>
              <g id="Group_1102004" data-name="Group 1102004" transform="translate(27.035 21.894)" opacity="0.3" style="mix-blend-mode: multiply;isolation: isolate">
                <g id="Group_1102003" data-name="Group 1102003">
                  <g id="Group_1102002" data-name="Group 1102002" clip-path="url(#clip-path-11)">
                    <path id="Path_881944" data-name="Path 881944" d="M74.246,54.23a1.117,1.117,0,0,0-.216-.008c-.157-6.388-1.664-9.873-3.945-11.756,1.147,2.446,1.763,6.014,1.624,11.21C71.467,62.76,65.128,71.142,59.3,71.142a9.783,9.783,0,0,1-6.913-3.463c2.351,3.913,5.734,6.546,9.23,6.546,4.7,0,9.73-5.451,11.63-12.325,1.093.088,2.195-1.482,2.482-3.559.293-2.116-.371-3.957-1.483-4.111" transform="translate(-52.387 -42.466)" fill="#ffd6a4"/>
                  </g>
                </g>
              </g>
              <path id="Path_881945" data-name="Path 881945" d="M65.767,123.12l-6.15-2.389-10.495,6.206-10.516-6.206-6.041,2.375a9.213,9.213,0,0,0-5.841,8.573v.027H71.643a9.212,9.212,0,0,0-5.876-8.587" transform="translate(-12.92 -58.485)" fill="#9cc77d"/>
              <g id="Group_1102007" data-name="Group 1102007" transform="translate(36.208 12.452)" opacity="0.5" style="mix-blend-mode: multiply;isolation: isolate">
                <g id="Group_1102006" data-name="Group 1102006">
                  <g id="Group_1102005" data-name="Group 1102005" clip-path="url(#clip-path-12)">
                    <path id="Path_881946" data-name="Path 881946" d="M91.392,80.381q-.171-.295-.363-.576c-.064-.093-.13-.186-.2-.277a9.216,9.216,0,0,0-.89-1.033c-.08-.081-.162-.16-.246-.238q-.251-.233-.52-.448c-.09-.072-.18-.142-.273-.21q-.278-.2-.572-.39-.147-.093-.3-.179c-.054-.031-.109-.06-.163-.09,2.609-8,.695-15.782-.285-19.825-1.156-4.77.144-7.292.144-7.292l.743,1.8c.68-4.8-2.718-17.907-8.38-20.241a3.934,3.934,0,0,0-1-3.306,8.085,8.085,0,0,0-7.4-3.913q-.751.034-1.507.1V85.008h22.46a9.193,9.193,0,0,0-1.246-4.626M84.5,75.544a8.636,8.636,0,0,0,.043-1.857,4.575,4.575,0,0,1,.936,2.238Z" transform="translate(-70.178 -24.152)" fill="#ffd6a4"/>
                  </g>
                </g>
              </g>
            </g>
          </g>
        </g>
      </g>
    </g>
  </g>
</svg>
