<svg xmlns="http://www.w3.org/2000/svg" xmlns:xlink="http://www.w3.org/1999/xlink" width="190" height="124" viewBox="0 0 190 124">
  <defs>
    <clipPath id="clip-path">
      <rect id="Rectangle_403343" data-name="Rectangle 403343" width="190" height="124" transform="translate(1125 1144.154)" fill="#fff" stroke="#707070" stroke-width="1"/>
    </clipPath>
    <clipPath id="clip-path-2">
      <rect id="Rectangle_403351" data-name="Rectangle 403351" width="103.757" height="116" fill="none"/>
    </clipPath>
  </defs>
  <g id="Mask_Group_1098741" data-name="Mask Group 1098741" transform="translate(-1125 -1144.154)" clip-path="url(#clip-path)">
    <g id="Group_1101730" data-name="Group 1101730" transform="translate(1171.092 1147.654)">
      <g id="Group_1101729" data-name="Group 1101729" transform="translate(0 0)" clip-path="url(#clip-path-2)">
        <path id="Path_881451" data-name="Path 881451" d="M16.115,92.36c-.313,1.256-.718,1.652-1.886,1.657-3.914.017-7.828-.013-11.742,0a2.335,2.335,0,0,1-2.4-2.333c-.159-2.074-.063-4.152-.063-6.23Q.016,72.629.046,59.8c0-1.945.413-2.575,2.149-3.226.25-.1.2-.23.15-.388a29.871,29.871,0,0,1-.81-4.06,29.417,29.417,0,0,1-.288-6.113,31.944,31.944,0,0,1,.638-4.945c.238-1.156.551-2.287.889-3.413a28.714,28.714,0,0,1,1.168-3.18,26.452,26.452,0,0,1,1.168-2.516C5.6,31.1,6.1,30.236,6.626,29.4A36.762,36.762,0,0,1,8.942,26.2a26.641,26.641,0,0,1,3.413-3.584c.78-.672,1.556-1.348,2.383-1.961a33.94,33.94,0,0,1,6.017-3.635,35.823,35.823,0,0,1,4.991-1.857c.835-.246,1.677-.413,2.525-.609a.7.7,0,0,0,.634-.8c-.033-3.376-.017-6.756-.017-10.136a5.718,5.718,0,0,1,.221-1.815,2.726,2.726,0,0,1,2.22-1.69A25.181,25.181,0,0,1,34.788.008q18.784,0,37.576.013a2.927,2.927,0,0,1,3.309,3.134c0,5.546-.008,11.091.029,16.633a1.988,1.988,0,0,1-1.694,1.89,1.847,1.847,0,0,1-1.686-1.945q-.006-7.173,0-14.346c0-.555,0-1.11.013-1.665.013-.3-.1-.4-.392-.384-.434.017-.868,0-1.3,0q-18.915,0-37.831,0c-.488,0-.517.2-.517.588q.013,19.385,0,38.774c0,.467.117.568.572.576,2.575.038,5.149-.079,7.724.071a2.915,2.915,0,0,1,2.65,2.8c-.046,1.506-.013,3.013,0,4.519,0,.167-.088.409.054.488.2.108.334-.125.463-.25q3.161-3.155,6.313-6.318a4.274,4.274,0,0,1,1.11-.914,4.814,4.814,0,0,1,2.145-.4q9.22-.006,18.448,0c.463,0,.572-.121.572-.58q-.025-7.273-.008-14.551a1.759,1.759,0,0,1,1.686-1.961,1.913,1.913,0,0,1,1.669,1.894c-.017,5.316,0,10.636-.038,15.957A2.7,2.7,0,0,1,73.132,46.6c-1.16,0-2.32.029-3.48.017-.33,0-.421.1-.409.417a30.323,30.323,0,0,1-.534,6.226,33.274,33.274,0,0,1-2.091,7.373A31.077,31.077,0,0,1,63.4,66.572c-.163.234-.138.584-.472.718-.113.046.029.154.054.2a2.108,2.108,0,0,0,.33.392c1.377,1.356,2.783,2.683,4.131,4.068,1.669,1.711,3.43,3.33,5.041,5.1a.642.642,0,0,0,.78.23,4.471,4.471,0,0,1,4.665,1.494c1.373,1.4,2.812,2.729,4.2,4.114,2.057,2.057,4.131,4.089,6.151,6.18a1.675,1.675,0,0,1-1.773,2.842,4.066,4.066,0,0,1-.755-.63c-1.652-1.652-3.309-3.3-4.949-4.966-.3-.3-.48-.359-.822-.013q-2.954,3-5.971,5.93c-.351.342-.371.517-.029.851,1.486,1.452,2.95,2.929,4.419,4.394q5.145,5.126,10.294,10.253c1.465,1.452,2.875,2.954,4.406,4.331a1.978,1.978,0,0,0,2.892-.054c1.252-1.193,2.449-2.445,3.693-3.647a2.177,2.177,0,0,0-.079-3.276c-2.587-2.529-5.141-5.1-7.69-7.657a1.708,1.708,0,0,1-.163-2.554,1.8,1.8,0,0,1,2.65.246c2.454,2.47,4.92,4.928,7.369,7.4a6.074,6.074,0,0,1,1.869,3.125,5.048,5.048,0,0,1-1.114,4.482,47.528,47.528,0,0,1-4.778,4.749,5.054,5.054,0,0,1-2.758,1.081c-2.057.25-3.534-.73-4.882-2.091q-3.292-3.3-6.6-6.6c-3.292-3.271-6.564-6.564-9.885-9.806-2.116-2.061-4.139-4.21-6.238-6.284-.526-.517-1.068-1.014-1.548-1.573a4.046,4.046,0,0,1-.9-4.1.5.5,0,0,0-.117-.58c-1.356-1.348-2.679-2.733-4.048-4.06-1.794-1.748-3.53-3.559-5.333-5.3-.259-.25-.446-.338-.793-.1a35.86,35.86,0,0,1-4.432,2.625,34.161,34.161,0,0,1-8.659,2.892c-.935.179-1.874.367-2.8.476a16.231,16.231,0,0,1-1.815.067c-1.49,0-2.979,0-4.469,0a10.893,10.893,0,0,0-1.427-.1c-.175.021-.367-.008-.217.284a.935.935,0,0,1,.033.409c0,3.046.008,6.1,0,9.143a2.659,2.659,0,0,1-.839,2.212,2.54,2.54,0,0,1-1.669.559.874.874,0,0,0-.5.013q-2.823-.019-5.642-.033a1.5,1.5,0,0,1-1.352-1.052c-.1-.2-.117-.434-.288-.593.029-.017.075-.033.083-.054A1.855,1.855,0,0,1,22.7,90.679c1.419-.008,2.838,0,4.256-.008.163,0,.388.121.5-.129l.029-.017-.021-.025-.013-.317a.4.4,0,0,0,0-.363c0-.146,0-.292,0-.442h.025l-.025,0c0-.134,0-.271,0-.409l.025,0h-.025v-.413h.025l-.025,0v-.413h0v-.413l.025,0h-.025V87.3h.025l-.025,0v-.413h.025l-.025,0v-.409l.025,0h-.025v-.413h.025l-.025,0v-.413h.025l-.025,0v-.409l.025,0h-.025V84.8h.025l-.025,0v-.413h.025l-.025,0v-.409l.025,0h-.025v-.413h.025l-.025,0v-.413h.025l-.025,0v-.409l.025,0h-.025v-.413h.025l-.025,0v-.413h.025l-.025,0v-.413h0V81.06h.025l-.025,0v-.413h.025l-.025,0v-.413h0v-.413h.025l-.025,0V79.4h.025l-.025,0v-.413h0v-.413h.025l-.025,0v-.413h.025l-.025,0v-.413h0v-.413h.025l-.025,0V76.9h.025l-.025,0v-.413h0V76.07h.025l-.025,0v-.413h.025l-.025,0v-.413h0v-.413h.025l-.025,0V74.4h.025l-.025,0v-.413h0v-.413h.025l-.025,0v-.413h.025l-.025,0V72.74h0v-.413l.025,0h-.025v-.413h.025l-.025,0v-.413h.025l-.025,0v-.409l.025,0h-.025v-.413h.025l-.025,0v-.413h.025l-.025,0v-.409l.025,0h-.025v-.413h.025l-.025,0V69h.025l-.025,0v-.409l.025,0h-.025v-.413h.025l-.025,0v-.413h0v-.413l.025,0h-.025v-.413h.025l-.025,0c0-.138,0-.275,0-.413h0l.013-.413h.025l-.025,0c0-.113,0-.225.008-.334a.106.106,0,0,0-.017-.171.654.654,0,0,0-.271-.48c-1.536-1.523-3.088-3.034-4.6-4.586a1.739,1.739,0,0,0-1.369-.563c-3.426.017-6.856.013-10.282.017-2.32,0-4.64.013-6.96,0-.459,0-.626.138-.559.593a14.884,14.884,0,0,1,.108,2.111c-.071,9.138.134,18.277-.113,27.411-.013.467.1.609.584.605,3.309-.021,6.614-.038,9.923.008,1.139.017,1.99.129,2.2,1.669M58.494,47.619c.163-.146.188-.275-.033-.388.083-.58-.3-.618-.718-.618-1.481,0-2.967.083-4.448-.021-.217-.142-.417-.234-.488.138-.1-.063-.154.029-.221.071a7.624,7.624,0,0,0-1.131,1.131q-2.56,2.541-5.116,5.082c-.538.534-1.056,1.085-1.623,1.586a2.69,2.69,0,0,1-3.488.4A2.831,2.831,0,0,1,39.9,52.381c.013-1.715-.025-3.434.017-5.145.013-.555-.159-.63-.663-.626-2.6.025-5.2.088-7.791-.017a2.543,2.543,0,0,1-2.3-1.632,4.263,4.263,0,0,1-.271-1.878c-.008-3.555,0-7.106,0-10.657,0-2.149-.013-4.3-.008-6.447,0-.371-.054-.53-.488-.4a18.948,18.948,0,0,0-3.067,1.185,23.433,23.433,0,0,0-7.411,5.5,23.716,23.716,0,0,0-4.966,8.9c-.092.317-.355.58-.355.88a12.06,12.06,0,0,1-.179,1.41,15.016,15.016,0,0,0-.376,2.762c.079,1.431-.1,2.863.113,4.294.134.889.288,1.778.455,2.654.184.956.668,1.853.9,2.8.134.538.388.605.851.605,2.633-.017,5.266,0,7.9,0a2.422,2.422,0,0,1,1.773.7c.972.96,1.957,1.919,2.917,2.9q1.584,1.609,3.184,3.209a2.056,2.056,0,0,1,.605,1.085,6.19,6.19,0,0,1,.129,1.218c-.021,1.473-.008,2.946-.013,4.419,0,.259.017.484.359.513.8.063,1.59.188,2.387.2a34.434,34.434,0,0,0,3.881-.071,22.6,22.6,0,0,0,15.156-7.691,22.611,22.611,0,0,0,4.594-7.87,18.867,18.867,0,0,0,1.047-4.657c.067-.964.2-1.928.217-2.9m-27.649,28.3c0,.538,0,1.077,0,1.611,0,.284.079.421.4.455a24.778,24.778,0,0,0,3.564.238,34.854,34.854,0,0,0,3.614-.121,22.576,22.576,0,0,0,2.671-.355c1.306-.351,2.633-.622,3.918-1.093a33.435,33.435,0,0,0,5.608-2.516,30.58,30.58,0,0,0,8.5-7.282,31.147,31.147,0,0,0,4.139-6.8c.434-.972.718-2,1.1-2.984a14.4,14.4,0,0,0,.772-2.712,23.487,23.487,0,0,0,.584-3.764c.025-1.148.146-2.3.159-3.463,0-.367-.121-.53-.513-.526-1.039.013-2.078,0-3.117-.013-.313-.008-.434.1-.417.417a26.531,26.531,0,0,1-.188,3.451,23.166,23.166,0,0,1-1.31,5.934,28.6,28.6,0,0,1-2.049,4.432,24.933,24.933,0,0,1-1.957,2.95,25.283,25.283,0,0,1-6.618,6.1,29.609,29.609,0,0,1-4.653,2.412A27.2,27.2,0,0,1,41.8,73.366a25.115,25.115,0,0,1-7.557.805c-.981-.038-1.957-.146-2.933-.225-.338-.029-.509.067-.476.463.042.5.008,1.006.008,1.506M4.565,47.7a18.774,18.774,0,0,0,.083,2.737,13.424,13.424,0,0,1,.325,1.874,20.237,20.237,0,0,0,.768,3.818.576.576,0,0,0,.655.446c1.022-.025,2.045-.008,3.067-.008.488,0,.7-.28.463-.7a19.515,19.515,0,0,1-.78-2.8c-.209-.534-.1-1.114-.288-1.657a5.47,5.47,0,0,1-.171-1.79c.008-1.2-.008-2.391,0-3.584a6.576,6.576,0,0,1,.184-2.1,2.7,2.7,0,0,0,.15-.951,1.321,1.321,0,0,1,.092-.655,17.942,17.942,0,0,0,.672-2.266,27.224,27.224,0,0,1,1.1-3.054,29.011,29.011,0,0,1,3.559-5.779,27.693,27.693,0,0,1,6.714-5.988,24.246,24.246,0,0,1,7.252-3.13c.342-.079.5-.221.488-.588-.021-1.056-.029-2.116,0-3.171.008-.492-.171-.522-.593-.421A30.746,30.746,0,0,0,22.3,20c-1.018.472-2.007,1.01-3,1.548-.705.388-1.285.968-1.953,1.4a33.214,33.214,0,0,0-3.856,3.138,14.84,14.84,0,0,0-1.335,1.506,30.228,30.228,0,0,0-2.646,3.459,32.5,32.5,0,0,0-2.808,5.483,22.592,22.592,0,0,0-1.269,4.01,7.6,7.6,0,0,0-.476,2.8.507.507,0,0,1-.017.209,13.14,13.14,0,0,0-.38,4.156M70.253,79.65c-.025-.171-.167-.259-.275-.363Q65.8,75.1,61.6,70.916c-.91-.905-.663-1.006-1.657.013a6.691,6.691,0,0,1-1.84,1.632.607.607,0,0,0-.15.851c1.06,1.047,2.128,2.086,3.184,3.134q2.885,2.879,5.771,5.763c.179.179.292.38.6.063.814-.843,1.686-1.632,2.537-2.441.083-.079.213-.129.2-.28m7.69,3.931c.013-.079-.054-.142-.113-.2-.906-.9-1.8-1.807-2.721-2.687A.748.748,0,0,0,74,80.714c-.392.363-.78.734-1.16,1.11q-2.141,2.128-4.277,4.252c-.63.626-.651.893-.029,1.54.772.8,1.577,1.556,2.337,2.366.284.3.463.275.73.008q3.08-3.08,6.172-6.147c.075-.075.175-.121.175-.263" transform="translate(0 0.001)" fill="#060607"/>
        <path id="Path_881452" data-name="Path 881452" d="M49.462,23.645a1.759,1.759,0,0,0-1.686,1.961q-.006,7.273.008,14.555c0,.455-.108.58-.572.58q-9.226-.025-18.448-.008a4.8,4.8,0,0,0-2.141.4,4.225,4.225,0,0,0-1.114.914q-3.155,3.161-6.313,6.318c-.125.129-.263.359-.463.25-.142-.079-.054-.321-.054-.488-.008-1.506-.042-3.013,0-4.519a2.915,2.915,0,0,0-2.65-2.8c-2.575-.15-5.149-.033-7.724-.071-.455-.008-.572-.108-.572-.576q.019-19.385,0-38.774C7.742,1,7.776.8,8.26.8Q27.175.818,46.09.8c.43,0,.864.017,1.3,0,.292-.013.4.088.392.388-.017.551-.013,1.106-.013,1.661q0,7.173,0,14.346a1.85,1.85,0,0,0,1.686,1.945c0,1.5,0,3,0,4.5M32.708,25.131h0c0-2.166.017-4.331,0-6.5-.017-1.719-.805-2.608-2.257-2.621-2.8-.029-5.6-.154-8.4.071a1.525,1.525,0,0,0-1.4,1.406c-.092,1.1.647,1.711,1.761,1.9.367.063.438.15.438.488q-.019,6.159,0,12.318c0,.4-.108.542-.526.538a1.732,1.732,0,0,0-1.665,1.807,1.9,1.9,0,0,0,1.227,1.486,5.109,5.109,0,0,0,2.045.088q4.388,0,8.78-.013a5.541,5.541,0,0,0,.83-.046,1.652,1.652,0,0,0,.1-3.226c-.939-.175-.939-.175-.922-1.1,0-.154,0-.309,0-.467v-6.13m-4.97-10.716v0c.417,0,.83,0,1.248,0s.864.008,1.3,0a2.239,2.239,0,0,0,2.337-1.961,6.17,6.17,0,0,0,.079-1.435,39.394,39.394,0,0,0-.1-4.6,2.161,2.161,0,0,0-1.74-1.765c-1.974-.021-3.947-.017-5.917,0a1.659,1.659,0,0,0-.972.25,2.6,2.6,0,0,0-1.135,2.2c-.025,1.682-.013,3.359,0,5.037a2.374,2.374,0,0,0,2.3,2.274h2.6" transform="translate(24.551 2.535)" fill="#ffb937"/>
        <path id="Path_881453" data-name="Path 881453" d="M24.867,39.633v3.747c0,.134,0,.271,0,.409v0c0,.146,0,.3,0,.442a.518.518,0,0,0,0,.363l.013.317-.025.017.017.025c-.108.25-.334.125-.5.129-1.419.008-2.838,0-4.256.008a1.857,1.857,0,0,0-2.053,1.627c-.008.021-.054.033-.083.054H13.53c-.209-1.54-1.06-1.657-2.2-1.669-3.309-.046-6.614-.029-9.923-.008-.488,0-.6-.138-.584-.605C1.07,35.36.865,26.218.936,17.084a14.853,14.853,0,0,0-.108-2.111c-.063-.455.1-.6.559-.593,2.32.017,4.64,0,6.96,0,3.426,0,6.856,0,10.282-.017A1.739,1.739,0,0,1,20,14.93c1.511,1.552,3.063,3.059,4.6,4.586a.645.645,0,0,1,.271.476c.008.058.013.117.017.171,0,.113,0,.225-.008.338v0l-.013.409v0c0,.138,0,.275,0,.413v18.3M7.838,35.686A1.828,1.828,0,0,0,5.8,36.959a1.749,1.749,0,0,0,1.052,2.007,4.886,4.886,0,0,0,1.231.113q4.832.006,9.66,0a6.139,6.139,0,0,0,.83-.029,1.662,1.662,0,0,0,1.456-1.285,1.593,1.593,0,0,0-.83-1.811,4.007,4.007,0,0,0-1.748-.263c-3.2,0-6.405,0-9.606,0l-.008-.029Zm10.687-4.3a1.541,1.541,0,0,0,1.5-1.26,1.7,1.7,0,0,0-1.819-2.078c-1.227-.033-2.458-.008-3.685-.008-2.358,0-4.711,0-7.065.008a1.676,1.676,0,0,0-1.511.91,1.421,1.421,0,0,0,.067,1.682,1.472,1.472,0,0,0,1.264.747c3.476-.008,6.956.008,10.436.017v.025l0-.025c.138,0,.275,0,.413,0v0c.113,0,.225,0,.338-.008.017.046.033.042.054,0m-8-10.974v.025c-1.093,0-2.182-.021-3.271.008A1.721,1.721,0,0,0,5.706,22.1a1.934,1.934,0,0,0,1.819,1.778c1.957.025,3.914.05,5.871-.013A1.747,1.747,0,0,0,15.278,21.9c-.038-.889-.776-1.473-1.945-1.486-.939-.013-1.874,0-2.808,0" transform="translate(2.586 45.584)" fill="#ffce73"/>
        <path id="Path_881454" data-name="Path 881454" d="M35.689,29.435a1.706,1.706,0,0,0,.159,2.55c2.554,2.566,5.108,5.133,7.695,7.657a2.182,2.182,0,0,1,.079,3.28c-1.243,1.2-2.441,2.454-3.693,3.647a1.982,1.982,0,0,1-2.892.054c-1.536-1.377-2.946-2.883-4.406-4.331q-5.158-5.114-10.294-10.253C20.863,30.57,19.4,29.1,17.917,27.645c-.342-.334-.325-.513.029-.855q3.017-2.929,5.971-5.925c.342-.346.522-.292.818.013,1.644,1.661,3.3,3.309,4.953,4.961a3.91,3.91,0,0,0,.755.63,1.833,1.833,0,0,0,2.036-.242,3.01,3.01,0,0,0,.826.905,18.233,18.233,0,0,1,2.111,2.174.472.472,0,0,0,.271.129" transform="translate(56.063 65.442)" fill="#7d3a1b"/>
        <path id="Path_881455" data-name="Path 881455" d="M19.094,17.609q0-5.508,0-11.016a4.219,4.219,0,0,1,.217-1.673A2.193,2.193,0,0,1,21.473,3.5q7.042-.025,14.079,0a2.289,2.289,0,0,1,1.686.739c1.093,1.11,2.191,2.22,3.3,3.3a14.472,14.472,0,0,1,1.035,1.114,2.77,2.77,0,0,1,.576,1.807c.017,5.8.029,11.6-.013,17.4a4.169,4.169,0,0,1-.488,2.4,2.3,2.3,0,0,1-1.995,1.093c-6.13.008-12.26.025-18.39-.013a2.192,2.192,0,0,1-2.162-2.149c-.054-3.86-.021-7.724-.021-11.584Zm19.7,9.468c.213-.129.221-.259-.008-.376q.013-7.9.021-15.8a.719.719,0,0,0-.209-.559Q36.935,8.673,35.3,7a.651.651,0,0,0-.522-.167q-5.871.013-11.738.021h-.108c-.342-.067-.488.025-.488.421.038,6.731.1,13.461-.033,20.192-.008.413.075.526.488.526,5.174-.013,10.349,0,15.523,0l.1.013c.25.042.3-.1.288-.3s-.017-.413-.021-.618" transform="translate(60.523 11.071)" fill="#060607"/>
        <path id="Path_881456" data-name="Path 881456" d="M27.7,32.1c-2.408,0-4.811.008-7.219,0a2.933,2.933,0,0,1-2.024-.48,2.27,2.27,0,0,1-.885-1.719c-.029-5.091,0-10.186-.038-15.277a2.436,2.436,0,0,1,2.646-2.629c4.936-.042,9.869-.025,14.805-.017a2.62,2.62,0,0,1,2.429,1.314,2.648,2.648,0,0,1,.3,1.331q.019,7.511,0,15.018a2.441,2.441,0,0,1-2.328,2.441c-2.562-.021-5.124,0-7.686,0V32.1m-.121-3.38v0c2.078,0,4.156-.008,6.234.008.43,0,.568-.129.563-.563-.021-3.947-.025-7.895-.033-11.847,0-.918,0-.935-.906-.935-3.985,0-7.966.013-11.947,0-.472,0-.605.129-.605.613q.031,6.084,0,12.16c0,.48.129.58.567.576,2.045-.017,4.085-.008,6.13-.008" transform="translate(55.619 37.948)" fill="#060607"/>
        <path id="Path_881457" data-name="Path 881457" d="M23.809,28.139c0,1.594-.058,3.188.017,4.778a2.617,2.617,0,0,1-2.679,2.7c-3.167,0-6.339-.033-9.506.017a2.687,2.687,0,0,1-2.854-2.875c-.017-3.155-.058-6.305.021-9.456a2.434,2.434,0,0,1,2.641-2.65c3.184-.029,6.372-.013,9.556,0a2.583,2.583,0,0,1,2.808,2.821c-.038,1.556,0,3.117,0,4.674M20.4,28.105c0-1.21-.013-2.424.008-3.635,0-.346-.075-.488-.455-.484q-3.58.025-7.165,0c-.4,0-.484.154-.484.526q.013,3.605-.017,7.215c0,.413.15.542.547.538q3.587-.025,7.165-.008c.33,0,.409-.1.4-.413-.013-1.248,0-2.491,0-3.739" transform="translate(27.796 65.462)" fill="#060607"/>
        <path id="Path_881458" data-name="Path 881458" d="M1.377,7.427c0-1.331.054-2.671-.013-4A2.475,2.475,0,0,1,3.88.9C6.793.93,9.7.9,12.61.909a2.936,2.936,0,0,1,1.773,1.452,7,7,0,0,1,.367,2.566c.046,1.661.058,3.326-.008,4.987A8.79,8.79,0,0,1,14.5,12.3a2.442,2.442,0,0,1-2.041,1.819,12.286,12.286,0,0,1-2.107.088c-2.045.008-4.089,0-6.134,0a2.727,2.727,0,0,1-2.8-1.97,1.124,1.124,0,0,1-.033-.351V7.427H1.377m3.418.129H4.786c0,.918.017,1.836,0,2.754-.013.413.1.584.551.588.5,0,.985-.129,1.486-.125,1.335.017,2.666,0,4,.017.275,0,.463-.008.459-.371q-.025-2.829-.021-5.663c0-.3-.071-.43-.4-.426q-2.829.025-5.663,0c-.325,0-.409.1-.4.417.021.935.008,1.869.008,2.8" transform="translate(4.319 2.843)" fill="#060607"/>
        <path id="Path_881459" data-name="Path 881459" d="M6.674,22.568a.874.874,0,0,1,.5-.013c-.159.255-.325.267-.5.013" transform="translate(21.175 71.47)" fill="#5dae7e"/>
        <path id="Path_881460" data-name="Path 881460" d="M44.146,27.178c1.481.1,2.967.017,4.448.021.417,0,.8.038.718.618a.273.273,0,0,0,.033.388c-.013.968-.15,1.932-.217,2.9a18.867,18.867,0,0,1-1.047,4.657,22.557,22.557,0,0,1-4.6,7.87,22.584,22.584,0,0,1-15.151,7.69,34.436,34.436,0,0,1-3.881.071c-.8-.008-1.594-.134-2.391-.2-.338-.029-.355-.25-.355-.513,0-1.473-.008-2.946.013-4.419a6.191,6.191,0,0,0-.134-1.218,2.021,2.021,0,0,0-.6-1.085q-1.6-1.6-3.184-3.209c-.96-.976-1.945-1.932-2.917-2.9a2.439,2.439,0,0,0-1.773-.7c-2.633,0-5.266-.013-7.9,0-.467,0-.718-.063-.851-.605-.234-.951-.718-1.849-.9-2.8C3.29,32.874,3.132,31.985,3,31.1c-.209-1.431-.033-2.863-.113-4.29a14.919,14.919,0,0,1,.376-2.762,12.246,12.246,0,0,0,.179-1.415c0-.3.263-.563.355-.88a23.115,23.115,0,0,1,12.372-14.4,19.143,19.143,0,0,1,3.071-1.185c.434-.129.492.029.488.4,0,2.149.008,4.3.008,6.447,0,3.551,0,7.1,0,10.657a4.327,4.327,0,0,0,.275,1.878,2.543,2.543,0,0,0,2.3,1.632c2.6.1,5.2.042,7.791.017.5,0,.676.071.663.626-.042,1.711,0,3.43-.021,5.145a2.848,2.848,0,0,0,1.331,2.616,2.7,2.7,0,0,0,3.493-.4c.563-.5,1.085-1.052,1.623-1.581q2.56-2.541,5.116-5.087a7.829,7.829,0,0,1,1.131-1.131c.067-.042.117-.134.217-.071.213.125.334-.075.492-.138" transform="translate(9.149 19.416)" fill="#cee8fa"/>
        <path id="Path_881461" data-name="Path 881461" d="M7.4,40.495c0-.5.033-1.006-.008-1.506-.033-.4.134-.492.472-.463.981.075,1.957.188,2.933.225a25.128,25.128,0,0,0,7.561-.805,27.974,27.974,0,0,0,3.251-1.077,29.608,29.608,0,0,0,4.653-2.412,25.364,25.364,0,0,0,6.618-6.109A25.589,25.589,0,0,0,34.838,25.4a29.4,29.4,0,0,0,2.049-4.432,23.343,23.343,0,0,0,1.31-5.934,25.812,25.812,0,0,0,.184-3.451c-.013-.321.1-.426.421-.421,1.039.021,2.078.029,3.117.017.392,0,.517.159.513.526-.013,1.16-.134,2.316-.159,3.463a23.559,23.559,0,0,1-.584,3.764,14.484,14.484,0,0,1-.772,2.712c-.388.981-.668,2.011-1.1,2.984a31.164,31.164,0,0,1-4.144,6.8,30.5,30.5,0,0,1-8.492,7.282,33.663,33.663,0,0,1-5.612,2.516c-1.281.467-2.608.743-3.914,1.093a22.575,22.575,0,0,1-2.671.355,36.1,36.1,0,0,1-3.618.121A24.859,24.859,0,0,1,7.8,42.56c-.321-.033-.4-.171-.4-.455,0-.538,0-1.072,0-1.611" transform="translate(23.444 35.421)" fill="#ffe2b7"/>
        <path id="Path_881462" data-name="Path 881462" d="M1.122,34.1a13.14,13.14,0,0,1,.38-4.156.593.593,0,0,0,.021-.209A7.428,7.428,0,0,1,2,26.942a22.592,22.592,0,0,1,1.269-4.01,32.5,32.5,0,0,1,2.808-5.483,30.192,30.192,0,0,1,2.641-3.459,15.929,15.929,0,0,1,1.335-1.506,33.569,33.569,0,0,1,3.856-3.138c.668-.434,1.252-1.014,1.957-1.4.985-.538,1.978-1.077,3-1.548a30.8,30.8,0,0,1,6-2.061c.421-.1.605-.071.593.421-.021,1.056-.013,2.116.008,3.171,0,.367-.15.509-.492.588a24.268,24.268,0,0,0-7.248,3.13A27.712,27.712,0,0,0,11,17.632a29.4,29.4,0,0,0-3.559,5.779,28.077,28.077,0,0,0-1.1,3.054,17.727,17.727,0,0,1-.668,2.266,1.276,1.276,0,0,0-.092.655,2.706,2.706,0,0,1-.154.951,6.7,6.7,0,0,0-.179,2.1c-.013,1.193,0,2.391,0,3.584a5.253,5.253,0,0,0,.171,1.79c.184.542.075,1.122.284,1.657a20.662,20.662,0,0,0,.78,2.8c.238.417.025.7-.463.7-1.022,0-2.045-.013-3.067.008a.569.569,0,0,1-.651-.446,20.27,20.27,0,0,1-.772-3.814,12.8,12.8,0,0,0-.325-1.878A20.024,20.024,0,0,1,1.122,34.1" transform="translate(3.443 13.601)" fill="#ffe2b7"/>
        <path id="Path_881463" data-name="Path 881463" d="M26.272,26.276c.008.15-.121.2-.2.275-.851.814-1.723,1.6-2.537,2.445-.309.317-.421.117-.6-.067q-2.885-2.879-5.771-5.758c-1.056-1.052-2.124-2.091-3.184-3.134a.6.6,0,0,1,.154-.851,6.819,6.819,0,0,0,1.836-1.636c.993-1.018.751-.918,1.657-.013q4.2,4.175,8.379,8.371c.1.108.246.2.271.367" transform="translate(43.981 53.375)" fill="#d2e1f1"/>
        <path id="Path_881464" data-name="Path 881464" d="M26.183,22.407c0,.142-.1.188-.175.263q-3.086,3.067-6.172,6.147c-.267.267-.446.292-.73-.008-.759-.81-1.565-1.569-2.337-2.366-.622-.647-.6-.914.029-1.54q2.141-2.122,4.277-4.252c.38-.376.768-.747,1.16-1.11a.748.748,0,0,1,1.114-.021c.922.88,1.815,1.79,2.721,2.687.058.058.125.121.113.2" transform="translate(51.761 61.174)" fill="#cee8fa"/>
        <path id="Path_881465" data-name="Path 881465" d="M13.146,11.26c-.159.063-.28.263-.492.138.075-.371.275-.28.492-.138" transform="translate(40.149 35.333)" fill="#5dae7e"/>
        <path id="Path_881466" data-name="Path 881466" d="M14.091,11.706a.273.273,0,0,1-.029-.388c.217.113.192.246.029.388" transform="translate(44.403 35.91)" fill="#5dae7e"/>
        <path id="Path_881467" data-name="Path 881467" d="M6.606,21.888a.5.5,0,0,1,0-.363.425.425,0,0,1,0,.363" transform="translate(20.851 68.295)" fill="#5dae7e"/>
        <path id="Path_881468" data-name="Path 881468" d="M6.6,15.886l-.017-.171a.108.108,0,0,1,.017.171" transform="translate(20.874 49.861)" fill="#5dae7e"/>
        <path id="Path_881469" data-name="Path 881469" d="M6.579,17.734v0l.025,0Z" transform="translate(20.874 56.255)" fill="#5dae7e"/>
        <path id="Path_881470" data-name="Path 881470" d="M6.579,19.628v0l.025,0Z" transform="translate(20.874 62.263)" fill="#5dae7e"/>
        <path id="Path_881471" data-name="Path 881471" d="M6.579,16.439v0l.025,0Z" transform="translate(20.874 52.143)" fill="#5dae7e"/>
        <path id="Path_881472" data-name="Path 881472" d="M6.579,16.538v0l.025,0Z" transform="translate(20.874 52.46)" fill="#5dae7e"/>
        <path id="Path_881473" data-name="Path 881473" d="M6.579,16.638v0l.025,0Z" transform="translate(20.874 52.776)" fill="#5dae7e"/>
        <path id="Path_881474" data-name="Path 881474" d="M6.579,16.738v0l.025,0Z" transform="translate(20.874 53.092)" fill="#5dae7e"/>
        <path id="Path_881475" data-name="Path 881475" d="M6.579,16.837v0l.025,0Z" transform="translate(20.874 53.408)" fill="#5dae7e"/>
        <path id="Path_881476" data-name="Path 881476" d="M6.579,16.239v0l.025,0Z" transform="translate(20.874 51.511)" fill="#5dae7e"/>
        <path id="Path_881477" data-name="Path 881477" d="M6.579,16.937v0l.025,0Z" transform="translate(20.874 53.725)" fill="#5dae7e"/>
        <path id="Path_881478" data-name="Path 881478" d="M6.579,17.037v0l.025,0Z" transform="translate(20.874 54.041)" fill="#5dae7e"/>
        <path id="Path_881479" data-name="Path 881479" d="M6.579,17.136v0l.025,0Z" transform="translate(20.874 54.357)" fill="#5dae7e"/>
        <path id="Path_881480" data-name="Path 881480" d="M6.579,17.236v0l.025,0Z" transform="translate(20.874 54.673)" fill="#5dae7e"/>
        <path id="Path_881481" data-name="Path 881481" d="M6.579,17.336v0l.025,0Z" transform="translate(20.874 54.99)" fill="#5dae7e"/>
        <path id="Path_881482" data-name="Path 881482" d="M6.579,17.435v0l.025,0Z" transform="translate(20.874 55.306)" fill="#5dae7e"/>
        <path id="Path_881483" data-name="Path 881483" d="M6.579,17.535v0l.025,0Z" transform="translate(20.874 55.622)" fill="#5dae7e"/>
        <path id="Path_881484" data-name="Path 881484" d="M6.579,17.635v0l.025,0Z" transform="translate(20.874 55.938)" fill="#5dae7e"/>
        <path id="Path_881485" data-name="Path 881485" d="M6.579,16.14v0l.025,0Z" transform="translate(20.875 51.195)" fill="#5dae7e"/>
        <path id="Path_881486" data-name="Path 881486" d="M6.579,16.04v0l.025,0Z" transform="translate(20.874 50.878)" fill="#5dae7e"/>
        <path id="Path_881487" data-name="Path 881487" d="M6.579,17.834v0l.025,0Z" transform="translate(20.874 56.571)" fill="#5dae7e"/>
        <path id="Path_881488" data-name="Path 881488" d="M6.579,17.934v0l.025,0Z" transform="translate(20.874 56.887)" fill="#5dae7e"/>
        <path id="Path_881489" data-name="Path 881489" d="M6.579,18.033v0l.025,0Z" transform="translate(20.874 57.203)" fill="#5dae7e"/>
        <path id="Path_881490" data-name="Path 881490" d="M6.578,15.94v0l.025,0Z" transform="translate(20.872 50.562)" fill="#5dae7e"/>
        <path id="Path_881491" data-name="Path 881491" d="M6.579,18.133v0l.025,0Z" transform="translate(20.874 57.52)" fill="#5dae7e"/>
        <path id="Path_881492" data-name="Path 881492" d="M6.579,18.233v0l.025,0Z" transform="translate(20.874 57.836)" fill="#5dae7e"/>
        <path id="Path_881493" data-name="Path 881493" d="M6.579,18.332v0l.025,0Z" transform="translate(20.874 58.152)" fill="#5dae7e"/>
        <path id="Path_881494" data-name="Path 881494" d="M6.579,18.432v0l.025,0Z" transform="translate(20.874 58.468)" fill="#5dae7e"/>
        <path id="Path_881495" data-name="Path 881495" d="M6.581,15.841v0l.025,0Z" transform="translate(20.879 50.247)" fill="#5dae7e"/>
        <path id="Path_881496" data-name="Path 881496" d="M6.579,18.532v0l.025,0Z" transform="translate(20.874 58.785)" fill="#5dae7e"/>
        <path id="Path_881497" data-name="Path 881497" d="M6.579,18.631v0l.025,0Z" transform="translate(20.874 59.101)" fill="#5dae7e"/>
        <path id="Path_881498" data-name="Path 881498" d="M6.579,18.731v0l.025,0Z" transform="translate(20.874 59.417)" fill="#5dae7e"/>
        <path id="Path_881499" data-name="Path 881499" d="M6.579,18.831v0l.025,0Z" transform="translate(20.874 59.733)" fill="#5dae7e"/>
        <path id="Path_881500" data-name="Path 881500" d="M6.579,18.93v0l.025,0Z" transform="translate(20.874 60.05)" fill="#5dae7e"/>
        <path id="Path_881501" data-name="Path 881501" d="M6.579,19.03v0l.025,0Z" transform="translate(20.874 60.366)" fill="#5dae7e"/>
        <path id="Path_881502" data-name="Path 881502" d="M6.579,19.13v0l.025,0Z" transform="translate(20.874 60.682)" fill="#5dae7e"/>
        <path id="Path_881503" data-name="Path 881503" d="M6.579,19.229v0l.025,0Z" transform="translate(20.874 60.998)" fill="#5dae7e"/>
        <path id="Path_881504" data-name="Path 881504" d="M6.579,19.329v0l.025,0Z" transform="translate(20.874 61.314)" fill="#5dae7e"/>
        <path id="Path_881505" data-name="Path 881505" d="M6.579,19.429v0l.025,0Z" transform="translate(20.874 61.631)" fill="#5dae7e"/>
        <path id="Path_881506" data-name="Path 881506" d="M6.579,19.528v0l.025,0Z" transform="translate(20.874 61.947)" fill="#5dae7e"/>
        <path id="Path_881507" data-name="Path 881507" d="M6.579,19.728v0l.025,0Z" transform="translate(20.874 62.579)" fill="#5dae7e"/>
        <path id="Path_881508" data-name="Path 881508" d="M6.579,19.827v0l.025,0Z" transform="translate(20.874 62.896)" fill="#5dae7e"/>
        <path id="Path_881509" data-name="Path 881509" d="M6.579,19.927v0l.025,0Z" transform="translate(20.874 63.212)" fill="#5dae7e"/>
        <path id="Path_881510" data-name="Path 881510" d="M6.579,20.027v0l.025,0Z" transform="translate(20.874 63.528)" fill="#5dae7e"/>
        <path id="Path_881511" data-name="Path 881511" d="M6.579,20.126v0l.025,0Z" transform="translate(20.874 63.844)" fill="#5dae7e"/>
        <path id="Path_881512" data-name="Path 881512" d="M6.579,20.226v0l.025,0Z" transform="translate(20.874 64.161)" fill="#5dae7e"/>
        <path id="Path_881513" data-name="Path 881513" d="M6.579,20.326v0l.025,0Z" transform="translate(20.874 64.477)" fill="#5dae7e"/>
        <path id="Path_881514" data-name="Path 881514" d="M6.579,20.426v0l.025,0Z" transform="translate(20.874 64.793)" fill="#5dae7e"/>
        <path id="Path_881515" data-name="Path 881515" d="M6.579,20.525v0l.025,0Z" transform="translate(20.874 65.109)" fill="#5dae7e"/>
        <path id="Path_881516" data-name="Path 881516" d="M6.579,20.625v0l.025,0Z" transform="translate(20.874 65.426)" fill="#5dae7e"/>
        <path id="Path_881517" data-name="Path 881517" d="M6.579,20.725v0l.025,0Z" transform="translate(20.874 65.742)" fill="#5dae7e"/>
        <path id="Path_881518" data-name="Path 881518" d="M6.579,20.824v0l.025,0Z" transform="translate(20.874 66.058)" fill="#5dae7e"/>
        <path id="Path_881519" data-name="Path 881519" d="M6.579,20.924v0l.025,0Z" transform="translate(20.874 66.374)" fill="#5dae7e"/>
        <path id="Path_881520" data-name="Path 881520" d="M6.579,21.023v0l.025,0Z" transform="translate(20.874 66.69)" fill="#5dae7e"/>
        <path id="Path_881521" data-name="Path 881521" d="M6.579,21.123v0l.025,0Z" transform="translate(20.874 67.007)" fill="#5dae7e"/>
        <path id="Path_881522" data-name="Path 881522" d="M6.579,21.223v0l.025,0Z" transform="translate(20.875 67.324)" fill="#5dae7e"/>
        <path id="Path_881523" data-name="Path 881523" d="M6.579,21.323v0l.025,0Z" transform="translate(20.875 67.64)" fill="#5dae7e"/>
        <path id="Path_881524" data-name="Path 881524" d="M6.578,21.422v0l.025,0Z" transform="translate(20.872 67.955)" fill="#5dae7e"/>
        <rect id="Rectangle_403350" data-name="Rectangle 403350" width="0.03" height="0.033" transform="translate(27.442 90.514) rotate(-33.693)" fill="#5dae7e"/>
        <path id="Path_881525" data-name="Path 881525" d="M6.579,16.339v0l.025,0Z" transform="translate(20.874 51.828)" fill="#5dae7e"/>
        <path id="Path_881526" data-name="Path 881526" d="M22.9,13.606v6.6c-.021.926-.021.926.922,1.1a1.656,1.656,0,0,1-.1,3.23,5.481,5.481,0,0,1-.83.046c-2.925,0-5.85.013-8.78.008a5.035,5.035,0,0,1-2.045-.088,1.891,1.891,0,0,1-1.223-1.486,1.732,1.732,0,0,1,1.661-1.807c.417.008.53-.129.53-.538q-.025-6.159,0-12.314c0-.342-.071-.426-.438-.488-1.114-.188-1.853-.805-1.761-1.9a1.533,1.533,0,0,1,1.406-1.41c2.8-.221,5.6-.1,8.4-.071,1.452.013,2.241.906,2.257,2.625.021,2.166,0,4.327,0,6.493ZM16.457,7.872c-.033-.033-.054-.038-.042.021l-.021.1c0,.108,0,.217.008.325a.056.056,0,0,0,0,.083c-.008.1-.029.209-.029.309q0,5.79.008,11.575a2.069,2.069,0,0,0,.054.918l-.017.033V21.2c.868,0,1.736-.017,2.6.033.4.021.488-.088.488-.476-.017-3.847-.008-7.695-.013-11.542,0-.363-.008-.726,0-1.089,0-.184-.038-.325-.246-.3-.926.092-1.861-.079-2.787.088Z" transform="translate(34.356 14.056)" fill="#060607"/>
        <path id="Path_881527" data-name="Path 881527" d="M16.267,11.494h-2.6a2.38,2.38,0,0,1-2.3-2.274c-.008-1.677-.021-3.355.008-5.037a2.607,2.607,0,0,1,1.127-2.2,1.683,1.683,0,0,1,.972-.25c1.978-.017,3.947-.021,5.921,0A2.17,2.17,0,0,1,21.136,3.5a38.5,38.5,0,0,1,.088,4.6,5.946,5.946,0,0,1-.075,1.435A2.242,2.242,0,0,1,18.812,11.5c-.43.008-.864,0-1.3,0-.413,0-.835,0-1.248,0ZM14.781,8.081l.008.033.05.125.058-.125c.768.013,1.536.029,2.3.042.188.242.351.146.492-.05.046-.05.125-.1.125-.15-.029-.939.071-1.878-.046-2.812.008-.05-.013-.071-.063-.05a23.668,23.668,0,0,0-2.929.046c-.079.008-.092.054-.071.117V7.968c-.008.058-.021.113.071.113" transform="translate(36.023 5.456)" fill="#060607"/>
        <path id="Path_881528" data-name="Path 881528" d="M14,21.015c-3.48-.008-6.96-.025-10.436-.017A1.472,1.472,0,0,1,2.3,20.251a1.421,1.421,0,0,1-.067-1.682,1.683,1.683,0,0,1,1.511-.914c2.353-.008,4.707,0,7.06,0,1.231,0,2.462-.029,3.689.008a1.7,1.7,0,0,1,1.819,2.078,1.541,1.541,0,0,1-1.5,1.26l-.029-.017L14.753,21c-.113,0-.225,0-.338.008-.138,0-.275,0-.413,0h0" transform="translate(6.303 55.97)" fill="#060607"/>
        <path id="Path_881529" data-name="Path 881529" d="M4.1,19.476q4.8.006,9.606,0a4.028,4.028,0,0,1,1.753.267,1.585,1.585,0,0,1,.826,1.807,1.661,1.661,0,0,1-1.456,1.289,6.844,6.844,0,0,1-.83.029H4.338A4.92,4.92,0,0,1,3.1,22.76a1.761,1.761,0,0,1-1.052-2.011,1.838,1.838,0,0,1,2.041-1.273h0" transform="translate(6.336 61.794)" fill="#060607"/>
        <path id="Path_881530" data-name="Path 881530" d="M6.808,15.817c.935,0,1.869-.008,2.808,0,1.168.013,1.907.6,1.945,1.486a1.747,1.747,0,0,1-1.882,1.961c-1.957.063-3.914.038-5.871.013A1.934,1.934,0,0,1,1.989,17.5,1.721,1.721,0,0,1,3.537,15.85c1.089-.029,2.178-.008,3.271-.008v-.025" transform="translate(6.303 50.176)" fill="#060607"/>
        <path id="Path_881531" data-name="Path 881531" d="M5.046,18.459l.029-.017.025.017c-.017.042-.033.046-.054,0" transform="translate(16.01 58.513)" fill="#5dae7e"/>
        <path id="Path_881532" data-name="Path 881532" d="M4.865,18.449h0l0,.025Z" transform="translate(15.437 58.536)" fill="#5dae7e"/>
        <path id="Path_881533" data-name="Path 881533" d="M4.965,18.448h0l0,.025Z" transform="translate(15.753 58.533)" fill="#5dae7e"/>
        <path id="Path_881534" data-name="Path 881534" d="M2.5,19.495h0V19.47Z" transform="translate(7.928 61.773)" fill="#5dae7e"/>
        <path id="Path_881535" data-name="Path 881535" d="M35.884,25.446q-7.761-.006-15.519,0c-.417,0-.5-.113-.492-.526.134-6.731.075-13.461.038-20.192,0-.4.146-.488.488-.421.033.075.071.071.1,0Q26.375,4.3,32.246,4.29a.656.656,0,0,1,.522.167Q34.407,6.134,36.06,7.8a.723.723,0,0,1,.213.559l-.025,15.8a.307.307,0,0,0,.013.376c0,.2.008.413.017.618s-.033.346-.284.3c-.029-.071-.063-.079-.109-.013m-7.732-3.388c1.348-.1,2.817.125,4.273-.1A1.694,1.694,0,0,0,33.573,19.8a2.039,2.039,0,0,0-2.107-1.143c-2.287-.021-4.573-.013-6.86-.013-.188,0-.38.033-.568.046a1.708,1.708,0,0,0-1.565,1.878,1.8,1.8,0,0,0,1.828,1.49c1.243,0,2.491,0,3.852,0m-.188-5.512v0c1.294,0,2.591-.008,3.889,0a1.723,1.723,0,0,0,1.5-.693,1.593,1.593,0,0,0-.939-2.537,6.539,6.539,0,0,0-1.36-.179c-2.095,0-4.185,0-6.28,0a4.686,4.686,0,0,0-.872.092,1.712,1.712,0,0,0-1.427,1.89,1.73,1.73,0,0,0,1.748,1.431c1.248.008,2.491,0,3.739,0M26.32,11.054v-.017c.83,0,1.661.029,2.487-.008a1.486,1.486,0,0,0,1.319-1,1.5,1.5,0,0,0-.3-1.686A2.37,2.37,0,0,0,28,7.616c-1.156-.033-2.316-.008-3.476-.013a2.081,2.081,0,0,0-.86.154A1.773,1.773,0,0,0,22.477,9.71a1.717,1.717,0,0,0,1.715,1.339c.709.021,1.419,0,2.128,0" transform="translate(63.053 13.611)" fill="#cee8fa"/>
        <path id="Path_881536" data-name="Path 881536" d="M23.852,9.428a.307.307,0,0,1-.008-.376c.23.117.221.246.008.376" transform="translate(75.461 28.72)" fill="#5dae7e"/>
        <path id="Path_881537" data-name="Path 881537" d="M23.711,9.394c.042-.067.079-.054.108.013l-.108-.013" transform="translate(75.231 29.664)" fill="#5dae7e"/>
        <path id="Path_881538" data-name="Path 881538" d="M20.1,4.3c-.033.075-.071.079-.1,0h.1" transform="translate(63.456 13.627)" fill="#5dae7e"/>
        <path id="Path_881539" data-name="Path 881539" d="M25.029,26.119c-2.045,0-4.085-.008-6.13.008-.438,0-.572-.1-.567-.576q.038-6.078,0-12.16c0-.484.134-.613.605-.613,3.981.013,7.962,0,11.947,0,.906,0,.9.017.906.935.008,3.952.013,7.9.033,11.847,0,.434-.134.568-.563.563-2.078-.017-4.156-.008-6.234-.008Z" transform="translate(58.164 40.545)" fill="#ffe2b7"/>
        <path id="Path_881540" data-name="Path 881540" d="M17.718,25.555c0,1.248-.008,2.491,0,3.739,0,.309-.075.413-.4.413q-3.58-.019-7.165.008c-.4,0-.551-.125-.547-.538q.031-3.605.017-7.215c0-.371.083-.526.484-.526q3.587.025,7.165,0c.38,0,.459.138.455.484-.021,1.21-.008,2.424-.008,3.635" transform="translate(30.478 68.012)" fill="#ffce73"/>
        <path id="Path_881541" data-name="Path 881541" d="M2.194,4.945c0-.935.013-1.869-.008-2.8,0-.313.079-.417.4-.417q2.829.019,5.663,0c.334,0,.4.125.4.426q-.006,2.829.021,5.663c0,.363-.184.376-.459.371-1.335-.013-2.666,0-4-.017-.5,0-.981.129-1.486.125-.455,0-.563-.175-.551-.588.021-.918,0-1.836,0-2.754Z" transform="translate(6.919 5.454)" fill="#ffce73"/>
        <path id="Path_881542" data-name="Path 881542" d="M12.231,18.629a2.012,2.012,0,0,1-.05-.918q-.019-5.79-.013-11.575c0-.1.021-.2.029-.309l.029-.021a.28.28,0,0,0-.025-.063c0-.108-.008-.217-.008-.325l.058-.088c.926-.163,1.861,0,2.787-.088.209-.021.25.125.25.3-.008.363,0,.73,0,1.093,0,3.847-.008,7.695.008,11.542,0,.388-.079.5-.488.472-.864-.05-1.732-.025-2.6-.029l.013,0" transform="translate(38.556 16.627)" fill="#f5f4f4"/>
        <path id="Path_881543" data-name="Path 881543" d="M12.18,8.453l-.013,0v.038l.013-.033" transform="translate(38.606 26.806)" fill="#cee8fa"/>
        <path id="Path_881544" data-name="Path 881544" d="M12.177,5.361l.025.063-.025.021a.056.056,0,0,1,0-.083" transform="translate(38.577 17.009)" fill="#cee8fa"/>
        <path id="Path_881545" data-name="Path 881545" d="M12.22,5.288l-.058.083.021-.092.033.008.008-.033Z" transform="translate(38.588 16.673)" fill="#cee8fa"/>
        <path id="Path_881546" data-name="Path 881546" d="M12.212,5.273,12.2,5.3l-.033-.008c-.013-.058.008-.054.042-.021" transform="translate(38.601 16.655)" fill="#5dae7e"/>
        <path id="Path_881547" data-name="Path 881547" d="M12.162,5.422c0-.906,0-1.807,0-2.712a1.088,1.088,0,0,1,.071-.117,22.945,22.945,0,0,1,2.933-.046l.063.05c.113.935.017,1.874.042,2.812,0,.046-.079.1-.121.15-.167.021-.346-.1-.5.05-.768-.017-1.536-.029-2.3-.042h-.113l0-.033-.067-.113" transform="translate(38.575 8.002)" fill="#f5f4f4"/>
        <path id="Path_881548" data-name="Path 881548" d="M12.754,3.322c.154-.154.334-.029.5-.05-.15.2-.309.292-.5.05" transform="translate(40.466 10.29)" fill="#5dae7e"/>
        <path id="Path_881549" data-name="Path 881549" d="M12.176,3.251h.108l-.05.129-.058-.129" transform="translate(38.632 10.315)" fill="#5dae7e"/>
        <path id="Path_881550" data-name="Path 881550" d="M12.166,3.217l.067.113c-.088,0-.083-.054-.067-.113" transform="translate(38.571 10.207)" fill="#cee8fa"/>
        <path id="Path_881551" data-name="Path 881551" d="M12.236,2.538l-.071.117c-.021-.063-.008-.108.071-.117" transform="translate(38.568 8.053)" fill="#cee8fa"/>
        <path id="Path_881552" data-name="Path 881552" d="M12.94,2.581l-.063-.05c.05-.017.067,0,.063.05" transform="translate(40.856 8.013)" fill="#5dae7e"/>
        <path id="Path_881553" data-name="Path 881553" d="M26.187,11.143c-1.36,0-2.608,0-3.856,0a1.8,1.8,0,0,1-1.824-1.486,1.7,1.7,0,0,1,1.561-1.878c.192-.013.38-.046.572-.046,2.287,0,4.569-.008,6.856.008a2.044,2.044,0,0,1,2.111,1.148,1.691,1.691,0,0,1-1.148,2.145c-1.46.234-2.925.008-4.273.108" transform="translate(65.023 24.531)" fill="#060607"/>
        <path id="Path_881554" data-name="Path 881554" d="M26,9.825c-1.243,0-2.491,0-3.735,0a1.738,1.738,0,0,1-1.753-1.431A1.715,1.715,0,0,1,21.939,6.5a4.073,4.073,0,0,1,.872-.092c2.091,0,4.185,0,6.276,0a6.5,6.5,0,0,1,1.36.175,1.6,1.6,0,0,1,.943,2.537,1.734,1.734,0,0,1-1.506.7c-1.294-.008-2.591,0-3.889,0v.008" transform="translate(65.022 20.336)" fill="#060607"/>
        <path id="Path_881555" data-name="Path 881555" d="M24.356,8.539c-.709,0-1.419.017-2.128,0A1.717,1.717,0,0,1,20.513,7.2,1.773,1.773,0,0,1,21.7,5.242a2.081,2.081,0,0,1,.86-.154c1.16,0,2.32-.021,3.476.013a2.37,2.37,0,0,1,1.832.726,1.5,1.5,0,0,1,.3,1.686,1.486,1.486,0,0,1-1.319,1c-.826.038-1.657.008-2.487.008v.017" transform="translate(65.017 16.127)" fill="#060607"/>
      </g>
    </g>
  </g>
</svg>
