<svg xmlns="http://www.w3.org/2000/svg" xmlns:xlink="http://www.w3.org/1999/xlink" width="190" height="124" viewBox="0 0 190 124">
  <defs>
    <clipPath id="clip-path">
      <rect id="Rectangle_403345" data-name="Rectangle 403345" width="190" height="124" transform="translate(1125 1144.154)" fill="#fff" stroke="#707070" stroke-width="1"/>
    </clipPath>
    <clipPath id="clip-path-2">
      <rect id="Rectangle_403355" data-name="Rectangle 403355" width="126" height="114.335" fill="none"/>
    </clipPath>
  </defs>
  <g id="Mask_Group_1098742" data-name="Mask Group 1098742" transform="translate(-1125 -1144.154)" clip-path="url(#clip-path)">
    <g id="Group_1101734" data-name="Group 1101734" transform="translate(1157 1149.154)">
      <g id="Group_1101733" data-name="Group 1101733" transform="translate(0 0)" clip-path="url(#clip-path-2)">
        <path id="Path_881582" data-name="Path 881582" d="M110.154,33.826v4.9c-1.354.23-1.765.668-1.77,2.041-.023,5.643-.023,11.286-.032,16.929q-.007,6.975-.009,13.95c-.081.059-.072.135-.045.221-.185.465-.578.51-1.007.51q-34.787,0-69.569.014c-.524,0-.628-.19-.618-.655.027-1.837.045-3.675.032-5.512-.041-6.912.095-13.828-.063-20.744a4.8,4.8,0,0,0-.519-2.406,4.411,4.411,0,0,0-3.743-2.194c-.84-.045-1.684,0-2.528-.009-.181,0-.438.108-.47-.23a.118.118,0,0,0-.018-.181c.009-1.589.041-3.183.027-4.772a19.724,19.724,0,0,0-.33-4,24.184,24.184,0,0,0-.8-2.754,17.957,17.957,0,0,0-5.7-7.946,18.646,18.646,0,0,0-4.217-2.524,13.175,13.175,0,0,0-2.794-.953,21.721,21.721,0,0,0-2.614-.4,19.55,19.55,0,0,0-5.386.185,12.389,12.389,0,0,0-3.174.966c-.569.271-.722.176-.758-.37a.341.341,0,0,0-.014-.384c0-.28,0-.564,0-.844l.036-.032L4.045,16.6q-.007-3.061-.009-6.117l.032-.018-.036-.054c-.2-.718.312-.582.7-.582H106.967c.172,0,.339-.009.51,0a.852.852,0,0,1,.849.677.116.116,0,0,0,.023.181c0,1.91.009,3.819,0,5.729q0,7.239-.018,14.487c-.135-.041-.221.027-.208.149a.14.14,0,0,0,.208.108,5.645,5.645,0,0,0,.023,1.174,1.946,1.946,0,0,0,1.8,1.49m-9.8,23.354.023-.036-.023-.036q-.007-1.72-.009-3.44c.054-.054.054-.1,0-.149-.009-.1-.014-.2-.023-.3l.032-.018-.036-.018a3.373,3.373,0,0,0-.4-1.133,3.058,3.058,0,0,0-2.506-1.418,2.945,2.945,0,0,0-1.106-.068q-13.848-.007-27.7-.009a7.534,7.534,0,0,0-2.361.081c-.212.072-.429.027-.65.1A2.877,2.877,0,0,0,64.007,51.9a3,3,0,0,0-.65,1.846c.086,2.469.032,4.939.032,7.408a3.184,3.184,0,0,0,3.074,3.386l.018.036.023-.032c.262,0,.524.014.786.014q14.241,0,28.478,0c.582,0,1.165.014,1.743-.032a3.005,3.005,0,0,0,2.826-2.636l.036-.023-.032-.027c0-1.553.014-3.1.018-4.654" transform="translate(14.008 34.501)" fill="#ffc900"/>
        <path id="Path_881583" data-name="Path 881583" d="M18.049,51.159c0,.284,0,.564,0,.844a.492.492,0,0,0,.014.384c.036.546.19.646.758.37A12.379,12.379,0,0,1,21.99,51.8a19.55,19.55,0,0,1,5.386-.19,22.667,22.667,0,0,1,2.614.406,13.419,13.419,0,0,1,2.794.948A18.647,18.647,0,0,1,37,55.484a17.957,17.957,0,0,1,5.7,7.946,24.454,24.454,0,0,1,.8,2.754,19.724,19.724,0,0,1,.33,4c.014,1.594-.018,3.183-.027,4.776a.121.121,0,0,0,.018.181c.032.334.289.221.47.226.844,0,1.688-.036,2.528.014a4.407,4.407,0,0,1,3.743,2.19,4.813,4.813,0,0,1,.519,2.411c.158,6.912.023,13.828.063,20.74.014,1.837,0,3.675-.032,5.512-.009.465.1.655.618.655q34.787-.02,69.569-.014c.429,0,.822-.041,1.007-.51a.179.179,0,0,0,.045-.221q.007-6.975.009-13.95c.009-5.643.009-11.286.032-16.929,0-1.372.415-1.81,1.77-2.041,1.494.3,1.824,1.251,1.824,2.5q.02,15.047,0,30.094a4.6,4.6,0,0,1-1.106,3.219,4.458,4.458,0,0,1-3.458,1.467q-24.351-.02-48.707-.009c-7.047,0-14.094.009-21.146-.018-.5,0-.641.194-.713.6a4.067,4.067,0,0,1-3.467,3.133,52.464,52.464,0,0,1-5.395.068q-18.169.014-36.333,0a8.272,8.272,0,0,1-2.271-.045,4.533,4.533,0,0,1-2.727-2.045A4.238,4.238,0,0,1,0,110.01c0-10.221-.023-20.437.023-30.654A4.125,4.125,0,0,1,3.4,75.469a20.918,20.918,0,0,1,3.4-.117c.334-.009.406-.068.406-.384-.009-1.761-.009-3.526.014-5.286a17.7,17.7,0,0,1,.9-5.395,18.671,18.671,0,0,1,3.2-5.955,14.9,14.9,0,0,1,2.632-2.646,1.028,1.028,0,0,0,.456-.939q-.014-12.433-.009-24.861a4.13,4.13,0,0,1,3.2-4.022,5.616,5.616,0,0,1,1.711-.095c.375.014.506-.059.506-.479-.018-4.555-.009-9.115-.014-13.67a2.777,2.777,0,0,1,2.88-2.853c1.255,0,2.51-.027,3.765-.014.361,0,.429-.117.429-.451,0-2.045.045-4.086,0-6.131A2.517,2.517,0,0,1,28.292.258,4.411,4.411,0,0,1,29.755,0q31.1.02,62.205.018,10.124,0,20.248-.018a4.887,4.887,0,0,1,1.851.28,2.186,2.186,0,0,1,1.232,1.544,7.207,7.207,0,0,1,.194,1.711q-.027,6.745-.032,13.5c0,.144-.05.3.072.424.009.072.045.095.113.059.867.09,1.734-.036,2.614.113a2.568,2.568,0,0,1,2.208,2.632c.032.655,0,1.309,0,1.964,0,5.977.009,11.954,0,17.932,0,.474.117.623.587.573a4.356,4.356,0,0,1,2.027.248,4.2,4.2,0,0,1,2.835,3.679c.077.9.081,1.788.081,2.677.014,6.2.023,12.406,0,18.6,0,1.472-.46,2.041-1.819,2.384a1.946,1.946,0,0,1-1.8-1.49,5.974,5.974,0,0,1-.023-1.174V65.4q.014-7.246.023-14.487,0-2.864-.009-5.729a.134.134,0,0,0-.023-.181.852.852,0,0,0-.849-.677c-.172-.014-.339,0-.51,0q-51.113,0-102.236,0c-.388,0-.9-.135-.7.578a.044.044,0,0,0,0,.072q.007,3.061.009,6.117l-.023.032ZM35.664,21.214c-.059-.045-.081-.018-.086.045-.014,1.386-.023,2.767-.045,4.153,0,.33.217.3.42.3.8,0,1.607-.009,2.415-.014q2.357-.02,4.718-.036c.185.009.37.027.555.027,4.031,0,8.063,0,12.094.009.56,0,1.124.023,1.684.063a4.2,4.2,0,0,1,3.711,2.433c1.607,3.237,3.39,6.388,4.907,9.675.375.808.871,1.612,1.3,2.415a.7.7,0,0,0,.74.442q23.288-.014,46.567,0h1.576c.415,0,.618-.131.609-.614-.032-1.481-.009-2.962-.009-4.442,0-4.5.009-9,0-13.5,0-1.129.172-.984-.975-.98-.357,0-.713.018-1.065.018H44.26c-.393,0-.786.023-1.178.036-2.474-.086-4.948-.045-7.417-.027m-3.436,54.12h.339c.415.027.257-.248.239-.451,0-1.919.077-3.833-.045-5.751l.027-.036-.036-.081a8.029,8.029,0,0,0-.564-2.131A6.7,6.7,0,0,0,27.8,62.856a7.108,7.108,0,0,0-6.519,1.034,6.852,6.852,0,0,0-2.9,4.925c-.212,2.036-.072,4.113-.081,6.171,0,.2.072.3.3.393.582.244,1.129-.077,1.693-.027h.023c1.12,0,2.244,0,3.363-.009.262,0,.528,0,.79,0l2.023,0c.226,0,.451,0,.677,0l2.257-.014a8.675,8.675,0,0,0,1.779,0c.271,0,.542,0,.813,0l.212,0M30.612,8.65c-.014.086.018.126.108.095,2.415.009,4.831.023,7.25.023H87.31a2.075,2.075,0,0,1,2.37,1.914,2.141,2.141,0,0,1-2.506,1.729c-.2,0-.411-.009-.614-.009q-13.943.007-27.882.009-7.53,0-15.06.014l-.027-.023-.027.023H32.816l-.027-.023-.027.023-8.736.014a.08.08,0,0,0-.135,0c-.307-.077-.348.1-.343.343.018.618.036,1.237.036,1.851,0,3.557,0,7.11-.027,10.663,0,.42.208.4.483.4l6.456-.014c.023.05.05.054.077,0a3.969,3.969,0,0,1,.614.023c.56.1.677-.126.664-.659-.032-1.576.009-3.151.009-4.722A2.506,2.506,0,0,1,33.1,17.936a5.29,5.29,0,0,1,2.587-.429q34.36.014,68.724.036c.357,0,.447-.09.442-.433-.023-1.278-.009-2.551-.009-3.828,0-.907,0-.907-.93-.853l-.027-.023-.027.023q-3.122,0-6.248,0L97.59,12.4l-.027.023c-.321,0-.637-.023-.953-.018a1.837,1.837,0,0,1-1.688-.916,4.21,4.21,0,0,1-.334-.916,1.983,1.983,0,0,1,1.982-1.8q4.693-.02,9.39,0a2.472,2.472,0,0,1,2.5,2.51c-.036,1.914,0,3.824-.018,5.738,0,.375.072.537.492.51a21.974,21.974,0,0,1,2.248-.032c.515.023.614-.176.609-.646-.018-3.562-.018-7.124-.018-10.681,0-.749.027-1.5.045-2.248.045,0,.095,0,.077-.068l-.086-.018c-.307-.271-.677-.131-1.016-.135Q95.134,3.7,79.473,3.7q-22.062,0-44.125,0c-1.445,0-2.885.014-4.329,0-.3,0-.429.045-.424.388.023,1.517.014,3.034.018,4.555M18.31,40.694c.316.009.637.023.953.023q21.67,0,43.344-.009c.871,0,.889,0,.515-.74Q60.582,35,58.034,30.031a1.134,1.134,0,0,0-1.1-.682q-18.358.02-36.712.023c-.506,0-1.011,0-1.517.023-.406.023-.686.19-.614.668a.1.1,0,0,0,0,.167,6.57,6.57,0,0,0,.045,1.63l-.027.032.027.032a.777.777,0,0,0-.063.208l-.014,7.72c.032.3-.289.7.253.844M37.574,87.279c-.05-.226.19-.293.257-.47a1.78,1.78,0,0,1,1.616-1.228c.47-.036.935-.063,1.4-.068q3.034-.007,6.072.009c.3,0,.555.023.551-.415-.027-1.743-.014-3.485-.05-5.228-.014-.776-.185-.9-.948-.9H4.586c-.718,0-.971.244-.975.953,0,1.594,0,3.187,0,4.781,0,.6.2.795.8.795,1.5,0,3,0,4.5,0,1.463,0,2.93-.014,4.393,0,1.67.014,3.336,0,5.007,0,4.045,0,8.095,0,12.144.009,1.485,0,2.167.56,2.415,1.883a1.981,1.981,0,0,1-2.05,1.72c-.686.036-1.372.05-2.059.05q-12.284.014-24.572,0c-.438,0-.6.077-.591.569.023,3.264.009,6.523,0,9.787,0,.862,0,.862.858.862q11.783-.007,23.561-.009,9.42-.007,18.835,0c.456,0,.614-.108.6-.6-.036-1.7-.023-3.408-.023-5.115,0-1.688,0-3.372.009-5.061,0-.239.023-.447-.325-.442-2.307.009-4.609,0-6.916.009-1.3,0-2.036-.442-2.352-1.381a1.03,1.03,0,0,0-.28-.519m-12.018,16.8v.009H5.029c-.357,0-.713,0-1.07.009-.239,0-.366.09-.361.37.014,1.761,0,3.526.023,5.286,0,.614.253.822.885.831.56.009,1.124,0,1.684,0q20.132,0,40.265,0c.871,0,.993-.081,1-.826.014-1.743-.009-3.485,0-5.228,0-.357-.149-.47-.47-.456-.149.009-.3,0-.451,0H25.556m10.9-32.13c0,.957.027,1.914-.009,2.867-.018.447.135.533.542.519.862-.032,1.725-.045,2.587,0,.488.032.609-.126.587-.587-.081-1.887.059-3.779-.1-5.67a17.094,17.094,0,0,0-.524-3.571A14.612,14.612,0,0,0,26.319,55.127a13.351,13.351,0,0,0-4.722.533,14.335,14.335,0,0,0-8.239,6.049A13.726,13.726,0,0,0,11.1,67.822c-.167,1.625-.09,3.237-.135,4.858A15,15,0,0,1,10.9,74.7c-.086.5.072.591.488.6.921,0,1.837,0,2.754.05.393.023.524-.077.515-.483-.023-1.44-.018-2.885-.009-4.329a13.151,13.151,0,0,1,.433-3.824,10.62,10.62,0,0,1,3.377-5.255,12.209,12.209,0,0,1,3.585-2.023,9.972,9.972,0,0,1,6.948-.027,10.6,10.6,0,0,1,3.7,2.19,11.143,11.143,0,0,1,3.481,5.625,19.757,19.757,0,0,1,.289,4.731" transform="translate(0 0)" fill="#060607"/>
        <path id="Path_881584" data-name="Path 881584" d="M25.7,3.93c-.068.036-.1.009-.113-.063l.113.063" transform="translate(89.936 13.591)" fill="#6493a2"/>
        <path id="Path_881585" data-name="Path 881585" d="M54.126,21.9l.014,3.44-.027.036.027.036c0,1.553-.014,3.1-.018,4.654l-.023.023.018.027a3.005,3.005,0,0,1-2.826,2.636c-.578.045-1.16.032-1.743.032q-14.241.007-28.478,0c-.262,0-.524-.009-.786-.014l-.041,0A3.184,3.184,0,0,1,17.17,29.38c0-2.469.054-4.943-.032-7.408a3,3,0,0,1,.65-1.846,2.877,2.877,0,0,1,1.589-1.165c.221-.072.438-.032.65-.1H34.009q8.593,0,17.182,0A3.058,3.058,0,0,1,53.7,20.275a3.475,3.475,0,0,1,.4,1.133l0,.036c.009.1.014.2.023.3l-.027.05a.882.882,0,0,0,.027.1m-3.765,7.214c.086.027.1-.014.095-.086,0-2.027,0-4.05.023-6.077,0-.4-.208-.343-.451-.343q-14.376,0-28.744,0c-.361,0-.479.077-.474.456.018,1.986.009,3.968.009,5.955-.018.068,0,.09.072.068.221.014.447.041.668.041q14.4-.007,28.8-.009" transform="translate(60.227 66.273)" fill="#060607"/>
        <path id="Path_881586" data-name="Path 881586" d="M48.941,18.96q-8.593,0-17.182,0H17.777a7.534,7.534,0,0,1,2.361-.081q13.848.014,27.7.009a2.945,2.945,0,0,1,1.106.068" transform="translate(62.477 66.171)" fill="#e23d21"/>
        <path id="Path_881587" data-name="Path 881587" d="M27.266,14.5v.257a.144.144,0,0,1-.212-.108c-.009-.122.077-.19.212-.149" transform="translate(95.078 50.909)" fill="#e23d21"/>
        <path id="Path_881588" data-name="Path 881588" d="M4.036,11.9a.493.493,0,0,1-.014-.384.332.332,0,0,1,.014.384" transform="translate(14.022 40.487)" fill="#e23d21"/>
        <path id="Path_881589" data-name="Path 881589" d="M27.152,23.512a.179.179,0,0,1-.045.221.174.174,0,0,1,.045-.221" transform="translate(95.2 82.633)" fill="#e23d21"/>
        <path id="Path_881590" data-name="Path 881590" d="M25.351,19.645a.881.881,0,0,1-.027-.1l.023-.045a.085.085,0,0,1,0,.149" transform="translate(89.001 68.519)" fill="#e23d21"/>
        <path id="Path_881591" data-name="Path 881591" d="M27.124,9.97a.134.134,0,0,1,.023.181.116.116,0,0,1-.023-.181" transform="translate(95.21 35.04)" fill="#e23d21"/>
        <path id="Path_881592" data-name="Path 881592" d="M9.746,16.785c-.068-.054-.059-.113-.023-.181a.118.118,0,0,1,.023.181" transform="translate(34.076 58.355)" fill="#e23d21"/>
        <path id="Path_881593" data-name="Path 881593" d="M25.328,19.458l0-.036.036.014Z" transform="translate(89.001 68.258)" fill="#e23d21"/>
        <path id="Path_881594" data-name="Path 881594" d="M4.015,10.019c-.027-.023-.032-.045,0-.072L4.046,10l-.032.018" transform="translate(14.03 34.959)" fill="#e23d21"/>
        <path id="Path_881595" data-name="Path 881595" d="M25.354,20.364l-.027-.036.027-.036.023.036Z" transform="translate(89.012 71.315)" fill="#e23d21"/>
        <rect id="Rectangle_403354" data-name="Rectangle 403354" width="0.037" height="0.037" transform="matrix(0.832, -0.555, 0.555, 0.832, 114.324, 96.353)" fill="#e23d21"/>
        <path id="Path_881596" data-name="Path 881596" d="M17.825,21.938l.041,0-.023.032Z" transform="translate(62.646 77.101)" fill="#e23d21"/>
        <path id="Path_881597" data-name="Path 881597" d="M4.012,11.382l-.018-.032.018-.032.036.032Z" transform="translate(14.037 39.78)" fill="#e23d21"/>
        <path id="Path_881598" data-name="Path 881598" d="M9.547,4.752c.388-.009.781-.032,1.174-.032H81.246c.357,0,.713-.014,1.07-.018,1.142-.009.971-.153.971.98q.014,6.745,0,13.494c0,1.485-.023,2.966.009,4.447.014.483-.194.614-.609.614-.524,0-1.047,0-1.576,0q-23.281,0-46.563,0A.7.7,0,0,1,33.8,23.8c-.429-.808-.93-1.607-1.3-2.42-1.521-3.287-3.3-6.433-4.907-9.67A4.207,4.207,0,0,0,23.88,9.275c-.56-.041-1.124-.063-1.684-.063Q16.149,9.2,10.107,9.2c-.185,0-.375-.023-.56-.032a16.444,16.444,0,0,0,0-2.709,9.843,9.843,0,0,0,0-1.711m49.827,10.09v-.023q5.817,0,11.634,0c.767,0,1.535.072,2.3-.009a1.611,1.611,0,0,0,1.553-1.544,1.585,1.585,0,0,0-.925-1.738,3.38,3.38,0,0,0-1.436-.348q-13.1.007-26.193,0a4.425,4.425,0,0,0-1.034.113,1.867,1.867,0,0,0-1.093,2.939,1.907,1.907,0,0,0,1.756.6H59.373" transform="translate(33.535 16.489)" fill="#f5f4f4"/>
        <path id="Path_881599" data-name="Path 881599" d="M34.773,19.334a1.03,1.03,0,0,1,.28.519c.316.939,1.047,1.386,2.352,1.381,2.3-.009,4.609,0,6.916-.009.348,0,.325.2.325.442-.009,1.688-.009,3.372-.009,5.061,0,1.706-.014,3.413.023,5.115.009.483-.149.6-.6.6q-9.42-.014-18.835,0-11.783.007-23.561.009c-.862,0-.858,0-.858-.862,0-3.264.018-6.523,0-9.787,0-.492.153-.569.591-.569q12.291.014,24.572,0c.686,0,1.372-.014,2.059-.05a1.987,1.987,0,0,0,2.05-1.725c1.282,0,2.56,0,3.842.009a1.873,1.873,0,0,0,.862-.131" transform="translate(2.801 67.95)" fill="#f5f4f4"/>
        <path id="Path_881600" data-name="Path 881600" d="M12.164,17.458l-6.451.014c-.28,0-.492.018-.488-.4.027-3.553.027-7.11.027-10.663,0-.618-.018-1.232-.036-1.851,0-.244.036-.42.343-.343.045.072.09.068.135,0L14.43,4.2c.018.063.036.059.054,0H25.229c.023.059.041.059.059,0q7.53-.007,15.06-.018,13.943,0,27.882,0c.2,0,.411,0,.618.009a2.142,2.142,0,0,0,2.5-1.729,1.031,1.031,0,0,1,.646-.113q2.126,0,4.262,0a4.21,4.21,0,0,0,.334.916,1.837,1.837,0,0,0,1.688.916c.316,0,.632.014.953.018.018.063.036.059.05,0q3.129,0,6.248,0c.018.059.036.059.059,0,.925-.054.925-.054.925.853,0,1.273-.014,2.551.009,3.824,0,.343-.086.438-.442.438q-34.36-.027-68.724-.036a5.239,5.239,0,0,0-2.587.429A2.5,2.5,0,0,0,13.527,12.1c0,1.576-.041,3.151-.009,4.722.014.533-.1.767-.664.664a3.97,3.97,0,0,0-.614-.023l-.036-.036Z" transform="translate(18.331 8.229)" fill="#fad1c3"/>
        <path id="Path_881601" data-name="Path 881601" d="M4.032,7.215c-.072-.479.208-.65.614-.668.506-.023,1.011-.023,1.517-.023Q24.514,6.511,42.87,6.5a1.124,1.124,0,0,1,1.1.682q2.546,4.964,5.088,9.936c.379.736.361.74-.515.74q-21.67,0-43.339.009c-.321,0-.637-.018-.957-.023C3.9,17.644,4.136,17.265,4,17c0-2.569,0-5.142.014-7.715a.9.9,0,0,1,.059-.208l.045-.009-.041-.059a6.558,6.558,0,0,1-.05-1.63l0-.163" transform="translate(14.058 22.851)" fill="#ffc900"/>
        <path id="Path_881602" data-name="Path 881602" d="M70.77,7.716H66.509a1.034,1.034,0,0,0-.646.108,2.075,2.075,0,0,0-2.37-1.914H14.154c-2.415,0-4.835-.014-7.25-.023L6.8,5.793c0-1.517,0-3.038-.018-4.555,0-.343.131-.388.424-.388,1.445.009,2.885,0,4.329,0q22.062,0,44.129,0,15.656,0,31.313.009c.339,0,.709-.14,1.02.131l-.027.045L88,1.066c-.014.749-.041,1.5-.041,2.248,0,3.562,0,7.124.018,10.681,0,.474-.1.673-.614.646a21.992,21.992,0,0,0-2.248.032c-.42.027-.492-.135-.492-.51.018-1.914-.014-3.824.018-5.738a2.472,2.472,0,0,0-2.5-2.51q-4.693-.027-9.39,0a1.981,1.981,0,0,0-1.982,1.8" transform="translate(23.818 2.857)" fill="#f5f4f4"/>
        <path id="Path_881603" data-name="Path 881603" d="M34.764,25.8a1.873,1.873,0,0,1-.862.131c-1.282,0-2.56,0-3.842-.009-.248-1.318-.93-1.874-2.415-1.878-4.05-.014-8.1-.009-12.144-.009-1.67,0-3.336.009-5.007,0-1.463-.014-2.93,0-4.393,0-1.5,0-3,0-4.5,0-.6,0-.8-.194-.8-.795,0-1.594-.009-3.187,0-4.781,0-.709.257-.953.975-.953h41.89c.763,0,.935.126.948.9.036,1.743.023,3.485.05,5.228,0,.438-.248.415-.551.415q-3.034-.014-6.072-.009c-.47,0-.935.032-1.4.068a1.78,1.78,0,0,0-1.616,1.228c-.068.176-.307.244-.257.47" transform="translate(2.81 61.486)" fill="#7a4f00"/>
        <path id="Path_881604" data-name="Path 881604" d="M22.756,23.056H43.73c.153,0,.3.009.451,0,.321-.014.474.1.47.451-.009,1.747.014,3.49,0,5.232,0,.745-.126.822-1,.822H3.393c-.564,0-1.129,0-1.688,0-.632-.009-.88-.217-.885-.826C.8,26.965.811,25.2.8,23.444c0-.28.122-.37.366-.375.357,0,.709,0,1.065,0H22.756Z" transform="translate(2.801 81.026)" fill="#7a4f00"/>
        <path id="Path_881605" data-name="Path 881605" d="M27.989,29.058a19.757,19.757,0,0,0-.289-4.731A11.113,11.113,0,0,0,24.22,18.7a10.6,10.6,0,0,0-3.7-2.19,9.972,9.972,0,0,0-6.948.027,12.186,12.186,0,0,0-3.58,2.022,10.6,10.6,0,0,0-3.381,5.255A13.133,13.133,0,0,0,6.18,27.64c-.009,1.445-.014,2.889.009,4.329.009.406-.117.506-.515.483-.916-.045-1.833-.045-2.754-.05-.415,0-.573-.095-.488-.6a15,15,0,0,0,.059-2.018c.045-1.621-.032-3.232.135-4.858a13.678,13.678,0,0,1,2.266-6.113,14.311,14.311,0,0,1,8.234-6.049,13.365,13.365,0,0,1,4.727-.533A14.612,14.612,0,0,1,31.068,22.62a17.094,17.094,0,0,1,.524,3.571c.167,1.892.023,3.783.1,5.67.023.46-.095.618-.587.587-.858-.05-1.725-.036-2.587,0-.406.014-.56-.072-.542-.519.036-.953.009-1.91.009-2.867" transform="translate(8.47 42.895)" fill="#6493a2"/>
        <path id="Path_881606" data-name="Path 881606" d="M17.794,26.68c-.271,0-.542,0-.813,0a6.7,6.7,0,0,0-1.779,0c-.749,0-1.5.009-2.257.018a.807.807,0,0,0-.677,0c-.673,0-1.35,0-2.023,0a1.108,1.108,0,0,0-.79,0c-1.12,0-2.239,0-3.363.009l-.009-.032L6.07,26.7c-.56-.05-1.111.271-1.693.027-.221-.095-.3-.194-.3-.393.014-2.059-.126-4.135.081-6.171a6.843,6.843,0,0,1,2.9-4.925,7.1,7.1,0,0,1,6.519-1.034,6.684,6.684,0,0,1,4.384,4.027,7.862,7.862,0,0,1,.564,2.131l-.014.036.023.081c.126,1.919.041,3.833.045,5.751-.068.158-.045.361-.239.451h-.339a.127.127,0,0,0-.212,0" transform="translate(14.218 48.65)" fill="#ffc900"/>
        <path id="Path_881607" data-name="Path 881607" d="M15.419,4.743a9.845,9.845,0,0,1-.009,1.711,15.079,15.079,0,0,1,.009,2.709c-1.571.014-3.142.023-4.713.036-.808,0-1.612.014-2.42.018-.2,0-.42.027-.415-.3.023-1.381.032-2.767.045-4.153A.059.059,0,0,0,8,4.716c2.474-.014,4.948-.054,7.422.027" transform="translate(27.663 16.497)" fill="#fad1c3"/>
        <path id="Path_881608" data-name="Path 881608" d="M6.518,16.733a6.9,6.9,0,0,1,1.779,0,8.367,8.367,0,0,1-1.779,0" transform="translate(22.908 58.597)" fill="#e23d21"/>
        <path id="Path_881609" data-name="Path 881609" d="M4.052,8.827c.135.266-.1.646.248.844-.537-.144-.217-.546-.248-.844" transform="translate(14.006 31.023)" fill="#e23d21"/>
        <path id="Path_881610" data-name="Path 881610" d="M5.245,16.747a1.108,1.108,0,0,1,.79,0c-.262,0-.528,0-.79,0" transform="translate(18.434 58.595)" fill="#e23d21"/>
        <path id="Path_881611" data-name="Path 881611" d="M5.867,16.748a.834.834,0,0,1,.682,0c-.23,0-.456,0-.682,0" transform="translate(20.62 58.599)" fill="#e23d21"/>
        <path id="Path_881612" data-name="Path 881612" d="M7.214,17.039c.194-.09.172-.3.239-.451.018.2.176.479-.239.451" transform="translate(25.354 58.299)" fill="#e23d21"/>
        <path id="Path_881613" data-name="Path 881613" d="M7.091,16.729a.127.127,0,0,1,.212,0l-.212,0" transform="translate(24.921 58.6)" fill="#e23d21"/>
        <path id="Path_881614" data-name="Path 881614" d="M5.431,2.786c-.045.068-.095.072-.14,0,.05-.05.095-.054.14,0" transform="translate(18.595 9.656)" fill="#6493a2"/>
        <path id="Path_881615" data-name="Path 881615" d="M4.041,6.66l0,.163c-.059-.054-.045-.108,0-.163" transform="translate(14.049 23.407)" fill="#e23d21"/>
        <path id="Path_881616" data-name="Path 881616" d="M7.278,15.405l-.027-.081.018-.036.036.081-.027.036" transform="translate(25.484 53.73)" fill="#e23d21"/>
        <path id="Path_881617" data-name="Path 881617" d="M23.064,2.775c-.018.059-.041.059-.059,0l.032-.027Z" transform="translate(80.851 9.658)" fill="#6493a2"/>
        <path id="Path_881618" data-name="Path 881618" d="M7.966,4.717a.064.064,0,0,1-.086.045c0-.063.027-.09.086-.045" transform="translate(27.694 16.501)" fill="#6493a2"/>
        <path id="Path_881619" data-name="Path 881619" d="M4.495,16.716l.014-.032.009.032H4.495" transform="translate(15.797 58.639)" fill="#e23d21"/>
        <path id="Path_881620" data-name="Path 881620" d="M24.792.937,24.76.9l.027-.045.081.018c.023.068-.032.068-.077.068" transform="translate(87.019 2.991)" fill="#6493a2"/>
        <path id="Path_881621" data-name="Path 881621" d="M21.664,2.774q-.027.088-.054,0l.027-.027Z" transform="translate(75.949 9.654)" fill="#6493a2"/>
        <path id="Path_881622" data-name="Path 881622" d="M9.7,2.771c-.018.059-.036.063-.054,0l.027-.023Z" transform="translate(33.912 9.658)" fill="#6493a2"/>
        <path id="Path_881623" data-name="Path 881623" d="M7.311,2.774c-.018.059-.036.063-.054,0l.027-.027Z" transform="translate(25.505 9.654)" fill="#6493a2"/>
        <path id="Path_881624" data-name="Path 881624" d="M4.035,7.057l.045.054-.045.014-.023-.036Z" transform="translate(14.1 24.802)" fill="#e23d21"/>
        <path id="Path_881625" data-name="Path 881625" d="M6.785,1.916l.108.1c-.095.027-.126-.009-.108-.1" transform="translate(23.828 6.734)" fill="#6493a2"/>
        <path id="Path_881626" data-name="Path 881626" d="M6.755,5.715,6.8,5.683l.036.036c-.027.045-.054.045-.077,0" transform="translate(23.741 19.973)" fill="#6493a2"/>
        <path id="Path_881627" data-name="Path 881627" d="M17.959,26.1c0-1.986.009-3.973-.009-5.955,0-.379.113-.46.474-.46q14.37.014,28.744,0c.244,0,.46-.05.451.348-.023,2.027-.018,4.05-.023,6.077L47.5,26.2q-14.4,0-28.8,0c-.221,0-.447-.023-.668-.036.018-.068-.009-.086-.072-.068" transform="translate(63.085 69.183)" fill="#f5f4f4"/>
        <path id="Path_881628" data-name="Path 881628" d="M17.957,21.111c.063-.018.09,0,.072.068-.068.023-.09,0-.072-.068" transform="translate(63.088 74.172)" fill="#6493a2"/>
        <path id="Path_881629" data-name="Path 881629" d="M24.5,21.195l.095-.086c.009.072-.009.113-.095.086" transform="translate(86.091 74.188)" fill="#6493a2"/>
        <path id="Path_881630" data-name="Path 881630" d="M32.7,9.79H19.262a1.907,1.907,0,0,1-1.756-.6A1.867,1.867,0,0,1,18.6,6.246a4.425,4.425,0,0,1,1.034-.113q13.1,0,26.193,0a3.38,3.38,0,0,1,1.436.348,1.585,1.585,0,0,1,.925,1.738,1.611,1.611,0,0,1-1.553,1.544c-.767.081-1.535,0-2.3.009q-5.817.007-11.634,0V9.79" transform="translate(60.211 21.54)" fill="#060607"/>
      </g>
    </g>
  </g>
</svg>
