<svg xmlns="http://www.w3.org/2000/svg" xmlns:xlink="http://www.w3.org/1999/xlink" width="121" height="121" viewBox="0 0 121 121">
  <defs>
    <clipPath id="clip-path">
      <rect id="Rectangle_400938" data-name="Rectangle 400938" width="121" height="121" transform="translate(0 0)" fill="none"/>
    </clipPath>
    <clipPath id="clip-path-2">
      <rect id="Rectangle_401073" data-name="Rectangle 401073" width="92.219" height="41.532" fill="#efb499"/>
    </clipPath>
  </defs>
  <g id="Group_1103346" data-name="Group 1103346" transform="translate(-740.656 -886)">
    <g id="Group_1099379" data-name="Group 1099379" transform="translate(352.988 -5127)">
      <rect id="Rectangle_401103" data-name="Rectangle 401103" width="121" height="121" transform="translate(387.668 6013)" fill="none"/>
      <g id="Group_1099348" data-name="Group 1099348" transform="translate(387.668 6013)">
        <g id="Group_1099282" data-name="Group 1099282">
          <g id="Group_1099281" data-name="Group 1099281" clip-path="url(#clip-path-2)">
            <path id="Path_873375" data-name="Path 873375" d="M74.8,9.1c-4.139,0-6.28-2.03-8.17-3.821-1.855-1.756-3.452-3.274-6.792-3.274s-4.937,1.517-6.792,3.274C51.161,7.072,49.023,9.1,44.881,9.1s-6.28-2.03-8.169-3.821C34.857,3.525,33.26,2.007,29.92,2.007s-4.937,1.517-6.789,3.274C21.241,7.072,19.1,9.1,14.962,9.1S8.679,7.072,6.789,5.281C4.937,3.525,3.34,2.007,0,2.007V0C4.139,0,6.28,2.033,8.17,3.821c1.855,1.759,3.452,3.274,6.792,3.274S19.9,5.58,21.75,3.824C23.637,2.033,25.781,0,29.92,0s6.283,2.033,8.17,3.821c1.855,1.759,3.452,3.274,6.792,3.274s4.937-1.514,6.792-3.274C53.56,2.033,55.7,0,59.843,0s6.283,2.033,8.17,3.821C69.867,5.58,71.464,7.094,74.8,7.094S79.742,5.58,81.6,3.821C83.483,2.033,85.624,0,89.766,0V2.007c-3.34,0-4.937,1.517-6.792,3.274C81.084,7.072,78.943,9.1,74.8,9.1" transform="translate(2.453 32.43)" fill="#efb499"/>
            <path id="Path_873376" data-name="Path 873376" d="M74.8,9.1c-4.139,0-6.283-2.03-8.17-3.824-1.855-1.756-3.452-3.27-6.792-3.27s-4.937,1.514-6.792,3.27C51.164,7.072,49.023,9.1,44.881,9.1s-6.283-2.03-8.17-3.824c-1.855-1.756-3.452-3.27-6.792-3.27s-4.937,1.517-6.789,3.27C21.241,7.072,19.1,9.1,14.962,9.1S8.679,7.072,6.789,5.278C4.937,3.522,3.34,2.007,0,2.007V0C4.139,0,6.283,2.03,8.17,3.821c1.855,1.759,3.452,3.274,6.792,3.274S19.9,5.58,21.75,3.821C23.637,2.03,25.781,0,29.92,0S36.2,2.03,38.093,3.821c1.852,1.759,3.449,3.274,6.789,3.274s4.937-1.514,6.792-3.274C53.56,2.03,55.7,0,59.843,0s6.283,2.03,8.17,3.821C69.867,5.58,71.464,7.094,74.8,7.094S79.742,5.58,81.6,3.821C83.486,2.03,85.627,0,89.769,0V2.007c-3.34,0-4.94,1.517-6.8,3.27C81.084,7.072,78.943,9.1,74.8,9.1" transform="translate(1.635 21.62)" fill="#efb499"/>
            <path id="Path_873377" data-name="Path 873377" d="M74.8,9.1c-4.139,0-6.283-2.03-8.169-3.824-1.855-1.756-3.452-3.27-6.792-3.27s-4.937,1.514-6.792,3.27C51.164,7.072,49.02,9.1,44.881,9.1s-6.283-2.03-8.17-3.824c-1.855-1.756-3.452-3.27-6.792-3.27s-4.937,1.517-6.789,3.27C21.241,7.072,19.1,9.1,14.962,9.1S8.678,7.072,6.789,5.278C4.937,3.522,3.34,2.007,0,2.007V0C4.139,0,6.283,2.03,8.169,3.821c1.851,1.759,3.452,3.274,6.792,3.274S19.9,5.58,21.75,3.821C23.637,2.03,25.781,0,29.92,0S36.2,2.03,38.093,3.821c1.852,1.759,3.449,3.274,6.789,3.274s4.937-1.514,6.792-3.274C53.56,2.03,55.7,0,59.843,0s6.283,2.03,8.17,3.821C69.867,5.58,71.464,7.094,74.8,7.094S79.742,5.58,81.6,3.821C83.486,2.03,85.624,0,89.769,0V2.007c-3.34,0-4.941,1.517-6.8,3.27C81.084,7.072,78.943,9.1,74.8,9.1" transform="translate(0.818 10.81)" fill="#efb499"/>
            <path id="Path_873378" data-name="Path 873378" d="M74.8,9.1c-4.139,0-6.28-2.03-8.17-3.821-1.855-1.756-3.452-3.27-6.792-3.27s-4.937,1.514-6.789,3.27C51.164,7.069,49.023,9.1,44.881,9.1s-6.28-2.03-8.169-3.821c-1.855-1.756-3.452-3.27-6.792-3.27s-4.937,1.514-6.789,3.267C21.245,7.069,19.1,9.1,14.962,9.1S8.678,7.069,6.789,5.278C4.937,3.522,3.34,2.007,0,2.007V0C4.139,0,6.283,2.03,8.17,3.821c1.855,1.756,3.452,3.27,6.792,3.27S19.9,5.577,21.75,3.821C23.64,2.03,25.781,0,29.92,0s6.28,2.03,8.173,3.821c1.852,1.756,3.449,3.27,6.789,3.27s4.937-1.514,6.792-3.27C53.563,2.03,55.7,0,59.843,0s6.28,2.03,8.17,3.821c1.855,1.756,3.452,3.27,6.792,3.27s4.937-1.514,6.792-3.27C83.486,2.03,85.627,0,89.769,0V2.007c-3.344,0-4.941,1.514-6.8,3.27C81.084,7.069,78.943,9.1,74.8,9.1" transform="translate(0 0.003)" fill="#efb499"/>
          </g>
        </g>
      </g>
      <circle id="Ellipse_11504" data-name="Ellipse 11504" cx="50.5" cy="50.5" r="50.5" transform="translate(402.668 6031)" fill="#ffce73"/>
      <circle id="Ellipse_11503" data-name="Ellipse 11503" cx="52.5" cy="52.5" r="52.5" transform="translate(395.668 6021)" fill="#f3f9ff"/>
    </g>
    <g id="Group_1099380" data-name="Group 1099380" transform="translate(766.598 911.804)">
      <rect id="Rectangle_401104" data-name="Rectangle 401104" width="68" height="69" transform="translate(0.059 -0.804)" fill="none"/>
      <g id="Group_1099356" data-name="Group 1099356" transform="translate(2.448 2.383)">
        <path id="Path_608993" data-name="Path 608993" d="M31.71,0,0,21.366v.021L31.628,42.755,63.316,21.179Z" transform="translate(0 0)" fill="#c88f24"/>
        <path id="Path_608994" data-name="Path 608994" d="M8.758,5.2V52.048l2.234,2.365,2.685-2.844,2.685,2.844,2.686-2.844,2.685,2.844,2.685-2.844L27.1,54.414l2.685-2.844,1.135,1.2V5.2Z" transform="translate(0.762 0.452)" fill="#fff3b8"/>
        <path id="Path_608995" data-name="Path 608995" d="M29.149,5.2V52.772l1.55,1.641,2.685-2.844,2.686,2.844,2.685-2.844,2.685,2.844,2.686-2.844,2.686,2.844L49.5,51.57l1.972,2.089V5.2Z" transform="translate(2.536 0.452)" fill="#f6e381"/>
        <path id="Path_609000" data-name="Path 609000" d="M29.1,41.061l31.7,21.42V19.493l-.014-.009Z" transform="translate(2.531 1.695)" fill="#ffb937"/>
        <path id="Path_609001" data-name="Path 609001" d="M0,19.767V62.582L31.629,41.045,0,19.675Z" transform="translate(0 1.711)" fill="#ffce73"/>
        <path id="Path_609002" data-name="Path 609002" d="M0,60.782v.1H31.629V39.245Z" transform="translate(0 3.413)" fill="#ffb937"/>
        <path id="Path_609003" data-name="Path 609003" d="M29.1,60.88H60.8v-.216L29.1,39.245Z" transform="translate(2.531 3.413)" fill="#ffce73"/>
        <text id="_" data-name="@" transform="translate(23.954 28.813)" fill="#12263f" font-size="18" font-family="Roboto-Bold, Roboto" font-weight="700"><tspan x="0" y="0">@</tspan></text>
      </g>
    </g>
  </g>
</svg>
