<svg xmlns="http://www.w3.org/2000/svg" xmlns:xlink="http://www.w3.org/1999/xlink" width="190" height="124" viewBox="0 0 190 124">
  <defs>
    <clipPath id="clip-path">
      <rect id="Rectangle_403347" data-name="Rectangle 403347" width="190" height="124" transform="translate(1125 1144.154)" fill="#fff" stroke="#707070" stroke-width="1"/>
    </clipPath>
    <clipPath id="clip-path-2">
      <rect id="Rectangle_403356" data-name="Rectangle 403356" width="142" height="107.564" fill="none"/>
    </clipPath>
  </defs>
  <g id="Mask_Group_1098743" data-name="Mask Group 1098743" transform="translate(-1125 -1144.154)" clip-path="url(#clip-path)">
    <g id="Group_1101736" data-name="Group 1101736" transform="translate(1149 1152.373)">
      <g id="Group_1101735" data-name="Group 1101735" transform="translate(0 0)" clip-path="url(#clip-path-2)">
        <path id="Path_881631" data-name="Path 881631" d="M66.207,9.67c3.189-.015,6.378-.051,9.566-.015a4.779,4.779,0,0,1,1.75.5,6.853,6.853,0,0,1,3.957,4.125,9.2,9.2,0,0,1,.432,3.062q.038,38.578,0,77.161c-.005,3.3-1.215,5.594-4.826,7.059a6.118,6.118,0,0,1-2.263.31q-25.35-.008-50.7-.02c-.931,0-1.856.046-2.782.015a6.724,6.724,0,0,1-4.323-1.7,6.485,6.485,0,0,1-2.3-5.559q.015-38.418.01-76.841a10.589,10.589,0,0,1,.27-3.413,6.743,6.743,0,0,1,2.685-3.509,8.055,8.055,0,0,1,4.857-1.2c2.914.01,5.833.005,8.748.015a3.105,3.105,0,0,0,1.622-.453,6.018,6.018,0,0,1,2.375-.722,11.137,11.137,0,0,1,2.4-.076.622.622,0,0,0,.737-.509A10.477,10.477,0,0,1,42.2,1.959,10,10,0,0,1,51.331.535a9.788,9.788,0,0,1,6.413,6.311c-.036.092.025.117.092.137.041.366.295.661.295,1.053,0,.229.2.351.488.336a12.579,12.579,0,0,1,4.17.493,1.365,1.365,0,0,1,.524.188,2.929,2.929,0,0,0,2.268.615c.209.331.417.31.626,0m3.825,46.153h0V38.211q0-7.407.005-14.82c0-.331.086-.7-.463-.7-1.292.02-2.578.015-3.865.025-.158,0-.387-.051-.448.117-.168.463-.605.62-.931.9a5.392,5.392,0,0,1-3.545,1.348q-12.58.031-25.159.01a5.916,5.916,0,0,1-3.687-1.47c-.346-.264-.427-.844-1.048-.824-1.007.031-2.019-.031-3.031-.041-.4-.005-.875-.112-1.17.066-.407.244.092.722-.031,1.1a.53.53,0,0,0,0,.127q0,31.766.02,63.531c0,.4-.422.9.01,1.154.32.188.819.066,1.241.071q20.788.015,41.576.041c.5,0,.529-.193.529-.59q-.008-16.219-.005-32.432m7.339-.061V16.418a2.265,2.265,0,0,0-2.3-2.339c-2.619-.015-5.238-.005-7.863-.02-.4-.005-.5.132-.5.509.025,1.078.036,2.156,0,3.229-.015.468.153.575.58.575,1.48-.015,2.96-.056,4.435.01,1.7.071,2.8.651,2.614,2.573-.01.1,0,.209,0,.315V89c0,.717.005,1.434-.01,2.151a1.985,1.985,0,0,1-1.841,1.973c-.356.031-.717.02-1.073.02H45.426q-10.367,0-20.73,0a2.206,2.206,0,0,1-2.528-2.085,6.808,6.808,0,0,1-.071-1.322V32.973c0-3.972-.005-7.944.015-11.911a2.407,2.407,0,0,1,2.7-2.69q2.22-.015,4.435.005c.4.005.585-.117.585-.534-.015-1.1-.02-2.2,0-3.3.01-.4-.153-.5-.524-.493q-3.807.023-7.608.01a2.527,2.527,0,0,0-1.165.229,2.66,2.66,0,0,0-1.394,2.726q.023,37.914.015,75.834,0,1.236.015,2.472A2.147,2.147,0,0,0,21.366,97.4c3.245.081,6.495.041,9.739.041q8.864.008,17.724,0H66.812c2.711,0,5.421.015,8.137-.005a2.26,2.26,0,0,0,2.421-2.523V55.762M48.376,20.655v-.041H60.735a1.289,1.289,0,0,0,1.409-1.073,27.353,27.353,0,0,0,.025-5.437A1.2,1.2,0,0,0,60.8,12.93q-1.968-.008-3.931-.005a2.493,2.493,0,0,1-2.787-2.594A6.1,6.1,0,0,0,53.5,7.9a5.578,5.578,0,0,0-8.025-2.741A6.232,6.232,0,0,0,42.4,10.621a2.16,2.16,0,0,1-1.251,2.014,2.653,2.653,0,0,1-1.282.295q-2.1-.015-4.186,0a1.443,1.443,0,0,0-1.4,1.277c-.025,1.648-.036,3.3.02,4.938a1.464,1.464,0,0,0,1.526,1.51H48.376" transform="translate(60.063 0)" fill="#060607"/>
        <path id="Path_881632" data-name="Path 881632" d="M18.67,11.818c4.77,0,9.546.005,14.322-.01a12.783,12.783,0,0,1,1.872.153,3.369,3.369,0,0,1,2.706,3.1c.27,13.04.015,26.08.107,39.115a17.3,17.3,0,0,1-.142,2.512,3.307,3.307,0,0,1-2.472,2.4,9.838,9.838,0,0,1-2.284.234Q18.3,59.3,3.819,59.294a3.655,3.655,0,0,1-3.8-3.7Q.008,35.635,0,15.688a3.716,3.716,0,0,1,3.906-3.875c4.918.015,9.841.005,14.764.005M33.322,35.706h.005q0-9.406.01-18.807c.005-.427-.1-.534-.519-.534q-9.528.023-19.061.015c-2.873,0-5.747.01-8.62-.015-.483-.005-.575.132-.575.6Q4.585,35.574,4.557,54.2c0,.565.132.717.712.717q13.785-.046,27.565-.036c.448,0,.5-.163.5-.554q-.023-9.307-.01-18.619" transform="translate(0 48.246)" fill="#060607"/>
        <path id="Path_881633" data-name="Path 881633" d="M18.756,48.272H3.611A3.617,3.617,0,0,1,.025,44.778Q.01,42.5.01,40.226.01,22.459,0,4.692A3.679,3.679,0,0,1,2.665.959,5.606,5.606,0,0,1,4.15.776H33.622a3.893,3.893,0,0,1,3.346,1.46,2.8,2.8,0,0,1,.585,1.683c.3,11.331.036,22.662.122,33.993.015,2.238-.01,4.475-.025,6.713a3.337,3.337,0,0,1-1.688,3.092,4.206,4.206,0,0,1-2.121.554ZM4.572,24.45h0q0,9.406-.005,18.812c0,.376-.005.6.509.6q13.716-.031,27.438,0c.661,0,.834-.178.834-.839q-.031-18.522.005-37.05c0-.656-.178-.8-.8-.793q-13.312.031-26.614.01A3.245,3.245,0,0,1,5.3,5.17c-.727-.147-.732-.153-.732.6V24.45" transform="translate(0 3.172)" fill="#060607"/>
        <path id="Path_881634" data-name="Path 881634" d="M28.853,10.447l.331.015.1.01c.036-.046.015-.081-.046-.076a17.032,17.032,0,0,0-2.034-2.161A10.05,10.05,0,0,1,26.132,7.08a2.162,2.162,0,0,1,3.3-2.762c2.309,2.314,4.633,4.613,6.937,6.937a2.018,2.018,0,0,1,.183,2.329,7.277,7.277,0,0,1-.941,1.175Q32.8,17.6,29.962,20.4a2.864,2.864,0,0,1-2.294,1.144,2.129,2.129,0,0,1-1.755-1.332,1.748,1.748,0,0,1,.153-2.075c.91-1.114,2.034-2.019,3.026-3.128a3.374,3.374,0,0,0-1.282-.153h-16.6a3.064,3.064,0,0,1-2.182-.58,2.1,2.1,0,0,1-.692-2.263,1.972,1.972,0,0,1,1.744-1.521,6.389,6.389,0,0,1,.819-.086q8.9,0,17.805.01c.036.071.086.086.147.031" transform="translate(33.687 15.09)" fill="#060607"/>
        <path id="Path_881635" data-name="Path 881635" d="M28.816,25.929c-6.133-.331-12.272-.066-18.411-.137a2.045,2.045,0,0,1-1.892-1.109A2.113,2.113,0,0,1,9.8,21.611a5.181,5.181,0,0,1,1.312-.132q8.269.008,16.539.005h1.475c.112-.259-.051-.331-.147-.427-.89-.875-1.821-1.709-2.65-2.629a2.09,2.09,0,0,1,.788-3.55,2.119,2.119,0,0,1,2.4.57q2.25,2.228,4.481,4.475c.687.687,1.358,1.383,2.05,2.07a2.17,2.17,0,0,1-.071,3.4q-2.044,2.075-4.109,4.13c-.839.839-1.688,1.673-2.548,2.487a2.382,2.382,0,0,1-2.3.387,2.161,2.161,0,0,1-1.348-2.116,2.482,2.482,0,0,1,.936-1.77c.865-.722,1.566-1.607,2.431-2.329.107-.234.025-.305-.214-.249" transform="translate(33.693 60.129)" fill="#060607"/>
        <path id="Path_881636" data-name="Path 881636" d="M25.331,1.933c-.208.31-.412.331-.626.005a1.187,1.187,0,0,1,.626-.005" transform="translate(100.939 7.737)" fill="#1c4163"/>
        <path id="Path_881637" data-name="Path 881637" d="M12.291,16.936c.239-.056.32.015.214.249a.265.265,0,0,1-.214-.249" transform="translate(50.218 69.122)" fill="#d9e1ed"/>
        <path id="Path_881638" data-name="Path 881638" d="M12.422,5.01c.056,0,.081.031.046.076l-.107-.01V5.015Z" transform="translate(50.504 20.471)" fill="#1c4163"/>
        <path id="Path_881639" data-name="Path 881639" d="M12.415,5.069c-.061.056-.112.041-.147-.031.061-.046.112-.041.147.031" transform="translate(50.124 20.468)" fill="#1c4163"/>
        <path id="Path_881640" data-name="Path 881640" d="M23.267,1.487c-.071-.02-.132-.046-.092-.142l.092.142" transform="translate(94.636 5.497)" fill="#d9e1ed"/>
        <path id="Path_881641" data-name="Path 881641" d="M60.554,37.587q0,16.219.01,32.432c0,.4-.025.59-.534.59q-20.788-.038-41.576-.041c-.422,0-.921.117-1.236-.066-.437-.259-.015-.763-.015-1.154q-.038-31.773-.02-63.537a.532.532,0,0,1,0-.127c.122-.376-.376-.854.031-1.1.295-.178.773-.066,1.175-.066,1.007.01,2.019.071,3.031.041.62-.02.7.559,1.043.829a5.945,5.945,0,0,0,3.687,1.47q12.58-.008,25.159-.01A5.435,5.435,0,0,0,54.853,5.5c.325-.28.768-.437.931-.9.061-.168.295-.112.448-.117,1.287-.01,2.578,0,3.865-.02.554-.01.463.366.463.692q0,7.415-.005,14.82ZM39.082,45.9c4.17.132,8.041-1.658,11.392-4.648a15.611,15.611,0,0,0,5.208-11.6A16.779,16.779,0,0,0,38.843,12.26a16.3,16.3,0,0,0-12.679,5.61,16.227,16.227,0,0,0-4.236,12.8A16.258,16.258,0,0,0,27.42,41.523,16.412,16.412,0,0,0,39.082,45.9m5.381,8.6h8.483a3.9,3.9,0,0,0,1.231-.122,2.113,2.113,0,0,0,1.577-2.238,2.154,2.154,0,0,0-1.592-1.963,9,9,0,0,0-1.877-.137q-7.026-.008-14.057,0c-.971,0-1.938,0-2.909.036a2.266,2.266,0,0,0-2.172,2A2.348,2.348,0,0,0,35.6,54.507c2.955-.025,5.91-.01,8.864-.01M44.5,65.2v-.036q4.531,0,9.063-.005a2.137,2.137,0,0,0,2.07-2.945,1.968,1.968,0,0,0-2-1.368c-1.246-.041-2.492-.036-3.738-.036-4.8-.005-9.592.005-14.383,0a2.182,2.182,0,0,0-2.365,2.477,2.417,2.417,0,0,0,1.922,1.907c3.143.01,6.286.005,9.429.005M25.3,50.067a15.054,15.054,0,0,0-1.516.005,2.067,2.067,0,0,0-2.034,1.785,2.147,2.147,0,0,0,1.6,2.477,10.738,10.738,0,0,0,3.718.046,2.232,2.232,0,0,0,1.775-1.755,2.119,2.119,0,0,0-1.485-2.446,7.2,7.2,0,0,0-2.06-.112m.071,15.089c.422,0,.849-.031,1.266.005a2.016,2.016,0,0,0,1.526-.565,2.1,2.1,0,0,0,.656-2.121,1.818,1.818,0,0,0-1.4-1.521,12.355,12.355,0,0,0-3.463-.122A2.025,2.025,0,0,0,21.78,63.4c.142.834,1.165,1.882,1.968,1.811.544-.046,1.088.025,1.627-.056" transform="translate(69.54 18.236)" fill="#feebcf"/>
        <path id="Path_881642" data-name="Path 881642" d="M73.8,44.472v39.15a2.257,2.257,0,0,1-2.421,2.523c-2.711.02-5.427.005-8.137.005H45.265q-8.865,0-17.729,0c-3.245,0-6.495.041-9.739-.041A2.151,2.151,0,0,1,15.6,84.034q-.015-1.236-.015-2.472,0-37.914-.015-75.834A2.66,2.66,0,0,1,16.967,3a2.54,2.54,0,0,1,1.165-.229q3.807.008,7.608-.01c.376-.005.534.1.524.493q-.023,1.648,0,3.3c.005.417-.183.539-.58.534q-2.22-.023-4.44-.005a2.409,2.409,0,0,0-2.7,2.69c-.02,3.967-.015,7.939-.015,11.906q0,28.386.005,56.767a6.43,6.43,0,0,0,.071,1.322,2.2,2.2,0,0,0,2.523,2.085q10.367.008,20.73,0H67.846c.356,0,.717.01,1.078-.02a1.977,1.977,0,0,0,1.836-1.973c.015-.717.01-1.434.01-2.151V9.98c0-.107-.01-.214,0-.315.183-1.922-.915-2.5-2.609-2.573-1.48-.066-2.96-.025-4.44-.01-.422,0-.6-.107-.58-.575.041-1.073.025-2.151.005-3.229-.01-.376.1-.514.5-.509,2.619.015,5.238.005,7.858.02a2.265,2.265,0,0,1,2.3,2.339V44.472" transform="translate(63.632 11.29)" fill="#727997"/>
        <path id="Path_881643" data-name="Path 881643" d="M32.664,17.148H20.113a1.464,1.464,0,0,1-1.526-1.51c-.056-1.643-.046-3.29-.02-4.938a1.443,1.443,0,0,1,1.4-1.277q2.09-.015,4.186,0a2.653,2.653,0,0,0,1.282-.295,2.16,2.16,0,0,0,1.251-2.014A6.232,6.232,0,0,1,29.76,1.651a5.578,5.578,0,0,1,8.025,2.741,6.1,6.1,0,0,1,.585,2.431,2.493,2.493,0,0,0,2.787,2.594q1.961,0,3.931.005A1.2,1.2,0,0,1,46.457,10.6a27.354,27.354,0,0,1-.025,5.437,1.289,1.289,0,0,1-1.409,1.073H32.664v.041" transform="translate(75.775 3.507)" fill="#7d3a1b"/>
        <path id="Path_881644" data-name="Path 881644" d="M29.661,32.045q0,9.307.01,18.619c0,.392-.051.549-.5.549q-13.785,0-27.565.036C1.028,51.254.9,51.1.9,50.537Q.927,31.916.9,13.294c0-.458.092-.6.58-.59,2.873.025,5.742.015,8.615.015q9.536-.008,19.067-.015c.417,0,.519.107.519.529q-.023,9.406-.01,18.812h-.01M15.045,43.636q-4.684,0-9.373,0A2.3,2.3,0,0,0,3.48,45.314a2.3,2.3,0,0,0,1.246,2.411,4.089,4.089,0,0,0,1.933.29c2.807-.031,5.615,0,8.427-.01,3.163-.005,6.332,0,9.5-.056,1.465-.02,2.1-.692,2.222-2.131a1.894,1.894,0,0,0-1.338-2.044,8.507,8.507,0,0,0-1.49-.147c-2.975.02-5.95.01-8.931.01m.229-23.456h8.615a6.139,6.139,0,0,0,1.175-.1,2.018,2.018,0,0,0,1.719-1.434,2.189,2.189,0,0,0-.976-2.523,3.04,3.04,0,0,0-1.561-.361c-6.062-.015-12.119-.005-18.177-.01a2.48,2.48,0,0,0-1.612.605,2.079,2.079,0,0,0-.437,2.751A2.426,2.426,0,0,0,6.282,20.18h8.992m-.2,9.261c3.128,0,6.25.01,9.378,0A2.208,2.208,0,0,0,26.655,27.8a2.087,2.087,0,0,0-1.444-2.568,4.036,4.036,0,0,0-1.419-.209H6.623a5.5,5.5,0,0,0-1.19.122,2.5,2.5,0,0,0-1.739,1.785,2.319,2.319,0,0,0,2.319,2.528c3.016-.046,6.037-.015,9.058-.015m.112,4.9v-.005h-.7c-2.894.015-5.783.01-8.676.051a2.129,2.129,0,0,0-2.1,1.739,2.178,2.178,0,0,0,1.215,2.334,4.431,4.431,0,0,0,2.278.29c5.193.02,10.385.01,15.578.005a15.729,15.729,0,0,0,1.9-.066,2.22,2.22,0,0,0,2.08-2.222,2.183,2.183,0,0,0-2.019-2.075,9.44,9.44,0,0,0-1.139-.051H15.182" transform="translate(3.661 51.907)" fill="#feebcf"/>
        <path id="Path_881645" data-name="Path 881645" d="M.9,20.982V2.3c0-.748.005-.748.732-.6a3.258,3.258,0,0,0,.631.02q13.3.008,26.614-.01c.631,0,.8.137.8.8q-.038,18.522-.005,37.045c0,.661-.173.839-.834.839q-13.716-.031-27.433,0c-.519,0-.509-.224-.509-.6Q.906,30.388.9,20.982ZM15.118,37.2v.005c3.041,0,6.083-.005,9.124.005a3.564,3.564,0,0,0,1.043-.147,2.106,2.106,0,0,0,1.577-2.039,2.039,2.039,0,0,0-1.114-1.973,3.975,3.975,0,0,0-1.922-.4c-5.889-.015-11.779-.005-17.668-.01a3.428,3.428,0,0,0-1.546.387A1.929,1.929,0,0,0,3.451,34.7a2.362,2.362,0,0,0,2.421,2.5q4.623.008,9.246,0m-.081-13.706v.015c-3.021,0-6.042.005-9.063-.005a2.37,2.37,0,0,0-1.449.5,2.035,2.035,0,0,0-.793,2.167,2.2,2.2,0,0,0,1.861,1.653c.61.046,1.221.1,1.831.1q8.018.015,16.035.005a7.461,7.461,0,0,0,1.3-.112,2.055,2.055,0,0,0,1.877-1.6,2.161,2.161,0,0,0-1.144-2.441,3.422,3.422,0,0,0-1.582-.285c-2.96.005-5.915,0-8.875,0m.147-14.128v-.02h1.775c2.578,0,5.152.02,7.73-.005A2.1,2.1,0,0,0,26.851,7.21a2.011,2.011,0,0,0-1.978-2.172,8.957,8.957,0,0,0-1.332-.051q-7.636-.008-15.267,0c-.87,0-1.739-.02-2.6.046a2.11,2.11,0,0,0-1.892,1.5A2,2,0,0,0,4.346,8.72,2.77,2.77,0,0,0,6.5,9.371c2.894-.015,5.788-.005,8.681-.005m-.142,9.2v.015c3.128,0,6.25.015,9.378-.005a2.07,2.07,0,0,0,2.268-2.146,2.037,2.037,0,0,0-1.455-2.014,15.407,15.407,0,0,0-1.617-.153c-4.623.02-9.251.01-13.874.01-1.353,0-2.7-.01-4.053.015A2.2,2.2,0,0,0,3.67,16.461a2.282,2.282,0,0,0,2.06,2.116c3.1-.041,6.21-.015,9.312-.015" transform="translate(3.669 6.64)" fill="#feebcf"/>
        <path id="Path_881646" data-name="Path 881646" d="M35.208,39.639a16.448,16.448,0,0,1-11.662-4.374,16.287,16.287,0,0,1-5.5-10.858,16.276,16.276,0,0,1,4.236-12.8A16.349,16.349,0,0,1,34.969,6,16.775,16.775,0,0,1,51.8,23.39a15.6,15.6,0,0,1-5.2,11.6c-3.352,2.99-7.222,4.781-11.392,4.653m-1.526-4.42a10.256,10.256,0,0,0,2.5.005l.01.025.005-.025a12.332,12.332,0,0,0,8.285-4.252,12.063,12.063,0,0,0,2.95-8.763,11.791,11.791,0,0,0-5-9.434,12.284,12.284,0,0,0-9.2-2.319,12.088,12.088,0,0,0-9.5,6.683,10.614,10.614,0,0,0-1.3,4.969c.005.463.015.931-.005,1.394A9.883,9.883,0,0,0,24.045,29a12.293,12.293,0,0,0,6.734,5.645,6.4,6.4,0,0,0,2.858.575l.025.025Z" transform="translate(73.414 24.499)" fill="#060607"/>
        <path id="Path_881647" data-name="Path 881647" d="M31.51,17.887c-2.955,0-5.91-.015-8.865.005a2.342,2.342,0,0,1-2.451-2.426,2.266,2.266,0,0,1,2.172-2c.971-.036,1.943-.036,2.914-.036q7.026-.008,14.057,0a8.926,8.926,0,0,1,1.872.137,2.165,2.165,0,0,1,1.6,1.963,2.106,2.106,0,0,1-1.582,2.233,3.889,3.889,0,0,1-1.231.127H31.51" transform="translate(82.493 54.846)" fill="#060607"/>
        <path id="Path_881648" data-name="Path 881648" d="M31.547,19.935c-3.143,0-6.286.005-9.429-.005A2.411,2.411,0,0,1,20.2,18.023a2.186,2.186,0,0,1,2.36-2.482c4.8.01,9.592,0,14.388.005,1.241,0,2.492-.01,3.733.036a1.975,1.975,0,0,1,2,1.368,2.137,2.137,0,0,1-2.07,2.945c-3.021.005-6.042,0-9.063,0v.041" transform="translate(82.496 63.499)" fill="#060607"/>
        <path id="Path_881649" data-name="Path 881649" d="M21.525,13.445a7.2,7.2,0,0,1,2.06.112A2.117,2.117,0,0,1,25.07,16,2.226,2.226,0,0,1,23.3,17.758a10.738,10.738,0,0,1-3.718-.046,2.144,2.144,0,0,1-1.6-2.477,2.063,2.063,0,0,1,2.034-1.78,15.053,15.053,0,0,1,1.516-.01" transform="translate(73.319 54.859)" fill="#060607"/>
        <path id="Path_881650" data-name="Path 881650" d="M21.591,19.919c-.539.081-1.083.01-1.627.056-.8.071-1.826-.976-1.968-1.811A2.025,2.025,0,0,1,20.172,15.6a12.355,12.355,0,0,1,3.463.122,1.818,1.818,0,0,1,1.4,1.521,2.085,2.085,0,0,1-.656,2.121,2.039,2.039,0,0,1-1.526.57c-.417-.041-.844-.01-1.266-.01" transform="translate(73.325 63.474)" fill="#060607"/>
        <path id="Path_881651" data-name="Path 881651" d="M13.005,18.794c2.975,0,5.955.01,8.931-.01a9.023,9.023,0,0,1,1.49.147,1.9,1.9,0,0,1,1.338,2.05c-.127,1.439-.758,2.106-2.222,2.131-3.163.051-6.332.046-9.5.056-2.807.005-5.615-.025-8.422.005a4.089,4.089,0,0,1-1.933-.29A2.3,2.3,0,0,1,1.44,20.473a2.3,2.3,0,0,1,2.192-1.678q4.684-.008,9.373,0" transform="translate(5.7 76.748)" fill="#060607"/>
        <path id="Path_881652" data-name="Path 881652" d="M13.04,17.729H4.049A2.439,2.439,0,0,1,1.78,16.661a2.08,2.08,0,0,1,.442-2.751A2.467,2.467,0,0,1,3.83,13.3c6.062.01,12.119,0,18.177.015a2.963,2.963,0,0,1,1.561.356,2.183,2.183,0,0,1,.976,2.523,2.011,2.011,0,0,1-1.714,1.434,5.755,5.755,0,0,1-1.175.1c-2.873.005-5.742,0-8.615,0" transform="translate(5.894 54.359)" fill="#060607"/>
        <path id="Path_881653" data-name="Path 881653" d="M12.843,19.55c-3.021,0-6.042-.031-9.058.015a2.326,2.326,0,0,1-2.319-2.533,2.5,2.5,0,0,1,1.739-1.78,5.2,5.2,0,0,1,1.19-.127q8.582.008,17.17,0a4.156,4.156,0,0,1,1.419.209A2.091,2.091,0,0,1,24.428,17.9a2.2,2.2,0,0,1-2.212,1.643c-3.123.01-6.245.005-9.373.005" transform="translate(5.888 61.799)" fill="#060607"/>
        <path id="Path_881654" data-name="Path 881654" d="M12.95,16.963h8.422a9.441,9.441,0,0,1,1.139.051,2.183,2.183,0,0,1,2.019,2.075,2.22,2.22,0,0,1-2.08,2.222,15.729,15.729,0,0,1-1.9.066c-5.193.005-10.385.015-15.578-.005a4.431,4.431,0,0,1-2.278-.29,2.178,2.178,0,0,1-1.215-2.334,2.129,2.129,0,0,1,2.1-1.739c2.894-.041,5.783-.036,8.676-.051h.7Z" transform="translate(5.893 69.288)" fill="#060607"/>
        <path id="Path_881655" data-name="Path 881655" d="M13.075,12.281q-4.623,0-9.246,0A2.366,2.366,0,0,1,1.4,9.784a1.945,1.945,0,0,1,1.16-1.673,3.465,3.465,0,0,1,1.551-.387c5.889.005,11.779-.005,17.668.01a3.987,3.987,0,0,1,1.922.4A2.047,2.047,0,0,1,24.818,10.1a2.111,2.111,0,0,1-1.582,2.039,3.564,3.564,0,0,1-1.043.147c-3.036-.01-6.077-.005-9.119-.005Z" transform="translate(5.717 31.56)" fill="#060607"/>
        <path id="Path_881656" data-name="Path 881656" d="M12.816,5.929c2.96,0,5.915.005,8.875-.005a3.558,3.558,0,0,1,1.582.285A2.161,2.161,0,0,1,24.416,8.65a2.054,2.054,0,0,1-1.877,1.6,7.456,7.456,0,0,1-1.3.107q-8.018.015-16.035,0c-.61-.005-1.226-.056-1.836-.1A2.2,2.2,0,0,1,1.51,8.6,2.038,2.038,0,0,1,2.3,6.438a2.353,2.353,0,0,1,1.455-.5c3.021.01,6.042.005,9.063.005V5.929" transform="translate(5.89 24.206)" fill="#060607"/>
        <path id="Path_881657" data-name="Path 881657" d="M12.97,6.667c-2.894,0-5.788-.005-8.681.005a2.751,2.751,0,0,1-2.156-.651,1.986,1.986,0,0,1-.565-2.182,2.091,2.091,0,0,1,1.892-1.5c.859-.071,1.729-.051,2.594-.051H21.326a9.6,9.6,0,0,1,1.327.051,2.012,2.012,0,0,1,1.983,2.172,2.1,2.1,0,0,1-2.161,2.136c-2.578.02-5.152.005-7.73.005H12.97v.015" transform="translate(5.888 9.339)" fill="#060607"/>
        <path id="Path_881658" data-name="Path 881658" d="M12.816,8.412c-3.1,0-6.21-.025-9.312.015a2.282,2.282,0,0,1-2.06-2.116A2.2,2.2,0,0,1,3.463,4.134c1.353-.025,2.7-.015,4.053-.015,4.623,0,9.251.01,13.874-.01a15.407,15.407,0,0,1,1.617.153,2.037,2.037,0,0,1,1.455,2.014,2.07,2.07,0,0,1-2.268,2.146c-3.128.02-6.25.005-9.378.005V8.412" transform="translate(5.895 16.79)" fill="#060607"/>
        <path id="Path_881659" data-name="Path 881659" d="M30.058,31.733a6.4,6.4,0,0,1-2.858-.575,12.313,12.313,0,0,1-6.734-5.645,9.907,9.907,0,0,1-1.617-5.5c.02-.468.01-.931.005-1.394a10.6,10.6,0,0,1,1.3-4.969,12.088,12.088,0,0,1,9.5-6.683,12.284,12.284,0,0,1,9.2,2.319,11.774,11.774,0,0,1,5,9.429,12.076,12.076,0,0,1-2.95,8.768,12.305,12.305,0,0,1-8.285,4.247l-.015.005a10.255,10.255,0,0,1-2.5-.005h-.046m10.126-16.58a2.139,2.139,0,0,0-.331-1.414,2.227,2.227,0,0,0-3.194-.341c-.4.341-.758.717-1.129,1.088q-2.891,2.884-5.767,5.777c-.295.295-.509.275-.783-.02-.356-.387-.737-.753-1.124-1.109a18.326,18.326,0,0,0-2-1.922,1.976,1.976,0,0,0-2.263-.086,2.01,2.01,0,0,0-1.053,2.131,2.717,2.717,0,0,0,.885,1.5c1.373,1.373,2.741,2.751,4.13,4.109,1.287,1.261,2.406,1.292,3.687.031,2.812-2.767,5.584-5.574,8.381-8.356a1.678,1.678,0,0,0,.565-1.383" transform="translate(76.992 27.986)" fill="#ffb937"/>
        <path id="Path_881660" data-name="Path 881660" d="M21.049,11.742h.046l-.02.025Z" transform="translate(86.001 47.975)" fill="#1c4163"/>
        <path id="Path_881661" data-name="Path 881661" d="M21.549,11.747l.015-.005-.005.031Z" transform="translate(88.046 47.976)" fill="#1c4163"/>
        <path id="Path_881662" data-name="Path 881662" d="M37.241,10.313a1.678,1.678,0,0,1-.565,1.383c-2.8,2.782-5.569,5.589-8.381,8.356-1.282,1.261-2.4,1.231-3.687-.031-1.388-1.358-2.756-2.736-4.13-4.109a2.717,2.717,0,0,1-.885-1.5,2.01,2.01,0,0,1,1.053-2.131,1.976,1.976,0,0,1,2.263.086,18.326,18.326,0,0,1,2,1.922c.387.356.768.722,1.124,1.109.275.295.488.315.783.02q2.868-2.9,5.767-5.777c.371-.371.732-.748,1.129-1.088A2.227,2.227,0,0,1,36.91,8.9a2.139,2.139,0,0,1,.331,1.414" transform="translate(79.935 32.826)" fill="#060607"/>
      </g>
    </g>
  </g>
</svg>
