<svg xmlns="http://www.w3.org/2000/svg" xmlns:xlink="http://www.w3.org/1999/xlink" width="190" height="134" viewBox="0 0 190 134">
  <defs>
    <clipPath id="clip-path">
      <rect id="Rectangle_403316" data-name="Rectangle 403316" width="78.138" height="72.336" fill="#7d3a1b" stroke="#7d3a1b" stroke-width="1"/>
    </clipPath>
  </defs>
  <g id="Group_1101629" data-name="Group 1101629" transform="translate(-330 -7019)">
    <rect id="Rectangle_402215" data-name="Rectangle 402215" width="190" height="134" transform="translate(330 7019)" fill="none"/>
    <g id="Group_1100287" data-name="Group 1100287" transform="translate(16 -507)">
      <g id="Grupo_156312" data-name="Grupo 156312" transform="translate(344 7528.029)">
        <path id="Elipse_5845" data-name="Elipse 5845" d="M65.5,0A65.5,65.5,0,1,1,0,65.5,65.5,65.5,0,0,1,65.5,0Z" transform="translate(0 0)" fill="#ffce73"/>
      </g>
      <g id="Group_1101631" data-name="Group 1101631" transform="translate(370.205 7557.071)">
        <g id="Group_1101630" data-name="Group 1101630" transform="translate(0 0)" clip-path="url(#clip-path)">
          <path id="Path_881253" data-name="Path 881253" d="M14.847,69.383c-.15-.122-.3-.237-.451-.358A38.377,38.377,0,0,1,2.747,53.289,37.889,37.889,0,0,1,.279,43.484a37.4,37.4,0,0,1-.131-7.869A38.007,38.007,0,0,1,5.1,19.8,38.9,38.9,0,0,1,25.408,2.52a38.512,38.512,0,0,1,8.862-2.2A36.564,36.564,0,0,1,44.283.37,38.948,38.948,0,0,1,64.448,9.442,38.44,38.44,0,0,1,76.89,29.348a37.692,37.692,0,0,1,1.155,12.039,38.3,38.3,0,0,1-5.664,17.752.991.991,0,0,0-.157.781,8.946,8.946,0,0,1,.218,1.453.965.965,0,0,0,.451.784c1.453,1.072,2.883,2.176,4.346,3.235a1.983,1.983,0,0,1,.9,1.824c-.045,1.168-.006,2.336-.006,3.507a1.518,1.518,0,0,1-1.546,1.61c-.134,0-.269,0-.4,0q-37.064,0-74.128,0a4.264,4.264,0,0,1-.947-.09,1.376,1.376,0,0,1,.029-2.7,3.458,3.458,0,0,1,.749-.077q6.145,0,12.283,0h.656l.022-.083M70.89,56.313c.08-.138.122-.2.16-.272a36.043,36.043,0,0,0,4.1-13.086,36.6,36.6,0,0,0-.07-8.657A32.716,32.716,0,0,0,73.29,26.89,36.329,36.329,0,0,0,33.1,3.269a32.783,32.783,0,0,0-11.732,4.1Q4.369,17.328,2.775,37a32.778,32.778,0,0,0,.483,8.01A35.247,35.247,0,0,0,8.114,57.92,36.339,36.339,0,0,0,19.03,69.086a1.872,1.872,0,0,0,1.1.387q9.25-.019,18.5-.01h.429c0-.835.006-1.6,0-2.375a1.829,1.829,0,0,1,.784-1.6q2.3-1.68,4.564-3.411a.994.994,0,0,0,.314-.547c.109-.5.144-1.024.246-1.53a12.566,12.566,0,0,1,9.786-9.678c.813-.154,1.645-.227,2.471-.339V48.754c-.477-.029-.938-.042-1.4-.09a1.44,1.44,0,0,1-1.12-.589,1.375,1.375,0,0,1,1.213-2.183c1.8-.045,3.613-.038,5.421,0a1.328,1.328,0,0,1,1.4,1.338,1.393,1.393,0,0,1-1.341,1.447c-.3.035-.611.029-.915.042l-.426.019v1.232c.922.141,1.827.211,2.7.419a12.545,12.545,0,0,1,7.719,5.376c.122.179.262.346.419.55m4.535,13.134c0-.576-.013-1.107,0-1.635a.6.6,0,0,0-.272-.57c-.97-.72-1.971-1.4-2.88-2.2a4.59,4.59,0,0,0-3.29-1.114c-7.389.061-14.779.029-22.168.035a1.061,1.061,0,0,0-.6.141c-1.37,1-2.727,2.029-4.084,3.053a.5.5,0,0,0-.211.3c-.019.659-.01,1.319-.01,1.984Zm-27.871-8.3H69.7a1.107,1.107,0,0,0,0-.147,9.978,9.978,0,0,0-3.309-5.837,8.858,8.858,0,0,0-5.29-2.253c-1.629-.086-3.267-.022-4.9-.01a4.9,4.9,0,0,0-.989.112,9.664,9.664,0,0,0-6.154,4.132,8.442,8.442,0,0,0-1.5,4" transform="translate(-0.001 -0.002)" fill="#7d3a1b" stroke="#7d3a1b" stroke-width="1"/>
          <path id="Path_881254" data-name="Path 881254" d="M4.472,11.746c.477,0,.957-.01,1.434,0a1.313,1.313,0,0,1,1.383,1.293,1.349,1.349,0,0,1-1.264,1.421C5.016,14.508,4,14.508,3,14.457a1.359,1.359,0,0,1-1.255-1.511,1.283,1.283,0,0,1,1.411-1.2H4.472" transform="translate(3.83 25.837)" fill="#7d3a1b" stroke="#7d3a1b" stroke-width="1"/>
          <path id="Path_881255" data-name="Path 881255" d="M23.666,11.746c.493,0,.982-.01,1.472,0a1.281,1.281,0,0,1,1.322,1.306,1.308,1.308,0,0,1-1.235,1.4c-1.021.038-2.045.035-3.066-.006a1.373,1.373,0,0,1-1.226-1.424,1.273,1.273,0,0,1,1.338-1.277c.464-.006.931,0,1.4,0" transform="translate(46.058 25.837)" fill="#7d3a1b" stroke="#7d3a1b" stroke-width="1"/>
          <path id="Path_881256" data-name="Path 881256" d="M14.5,4.523c0,.49.01.982,0,1.472a1.327,1.327,0,0,1-1.3,1.251,1.276,1.276,0,0,1-1.37-1.123c-.048-1.11-.054-2.227-.019-3.341a1.206,1.206,0,0,1,1.344-1.03,1.261,1.261,0,0,1,1.335,1.1,1.3,1.3,0,0,1,.01.16V4.523H14.5" transform="translate(25.917 3.854)" fill="#7d3a1b" stroke="#7d3a1b" stroke-width="1"/>
          <path id="Path_881257" data-name="Path 881257" d="M10.928,6.829a1.355,1.355,0,0,1-.867,1.283A1.159,1.159,0,0,1,8.694,7.92a1.8,1.8,0,0,1-.352-.426c-.474-.8-.95-1.6-1.389-2.413a1.215,1.215,0,0,1,.573-1.8,1.191,1.191,0,0,1,1.741.454c.518.832,1,1.69,1.479,2.544a2.4,2.4,0,0,1,.182.544" transform="translate(14.863 6.775)" fill="#7d3a1b" stroke="#7d3a1b" stroke-width="1"/>
          <path id="Path_881258" data-name="Path 881258" d="M17.816,8.252a1.367,1.367,0,0,1-1.28-2.019c.458-.819.918-1.645,1.431-2.432a1.314,1.314,0,0,1,2.423.186,1.083,1.083,0,0,1,.032.822C19.89,5.816,19.308,6.8,18.715,7.765a1.065,1.065,0,0,1-.9.486" transform="translate(35.996 6.773)" fill="#7d3a1b" stroke="#7d3a1b" stroke-width="1"/>
          <path id="Path_881259" data-name="Path 881259" d="M23.49,6.813a1.3,1.3,0,0,1,1.3.97,1.186,1.186,0,0,1-.522,1.482q-1.306.8-2.653,1.52a1.243,1.243,0,0,1-1.7-.55,1.223,1.223,0,0,1,.365-1.741c.666-.432,1.36-.819,2.051-1.213.358-.2.736-.374,1.1-.563l.048.1" transform="translate(43.36 14.779)" fill="#7d3a1b" stroke="#7d3a1b" stroke-width="1"/>
          <path id="Path_881260" data-name="Path 881260" d="M4.46,6.739a3.578,3.578,0,0,1,.669.227c.842.47,1.683.944,2.5,1.456a1.259,1.259,0,0,1,.416,1.763,1.27,1.27,0,0,1-1.767.528C5.4,10.23,4.527,9.728,3.669,9.2a1.22,1.22,0,0,1-.5-1.495,1.357,1.357,0,0,1,1.293-.97" transform="translate(6.802 14.827)" fill="#7d3a1b" stroke="#7d3a1b" stroke-width="1"/>
          <path id="Path_881261" data-name="Path 881261" d="M9.481,19.639a1.338,1.338,0,0,1,1.248,1.991c-.442.829-.925,1.639-1.408,2.445a1.25,1.25,0,0,1-1.338.659,1.413,1.413,0,0,1-1.2-1.075,1.007,1.007,0,0,1,.086-.682q.763-1.4,1.591-2.752a1.147,1.147,0,0,1,1.024-.586" transform="translate(14.86 43.21)" fill="#7d3a1b" stroke="#7d3a1b" stroke-width="1"/>
          <path id="Path_881262" data-name="Path 881262" d="M3.1,19.032a1.221,1.221,0,0,1,.666-1.142c.81-.483,1.623-.963,2.451-1.408a1.273,1.273,0,0,1,1.808.534,1.238,1.238,0,0,1-.438,1.76c-.832.518-1.7.989-2.547,1.482A1.325,1.325,0,0,1,3.1,19.032" transform="translate(6.82 35.858)" fill="#7d3a1b" stroke="#7d3a1b" stroke-width="1"/>
          <path id="Path_881263" data-name="Path 881263" d="M12.923,28.3h0a1.14,1.14,0,0,1-1.139-1.139V6.677a1.139,1.139,0,0,1,2.279,0V27.159A1.14,1.14,0,0,1,12.923,28.3" transform="translate(25.928 12.191)" fill="#7d3a1b" stroke="#7d3a1b" stroke-width="1"/>
          <path id="Path_881264" data-name="Path 881264" d="M11.836,18.676h0a1.135,1.135,0,0,1,.64-1.475L31.524,9.674a1.138,1.138,0,1,1,.838,2.115L13.311,19.316a1.137,1.137,0,0,1-1.475-.64" transform="translate(25.866 21.109)" fill="#7d3a1b" stroke="#7d3a1b" stroke-width="1"/>
        </g>
      </g>
    </g>
  </g>
</svg>
