<svg xmlns="http://www.w3.org/2000/svg" xmlns:xlink="http://www.w3.org/1999/xlink" width="400.845" height="514.938" viewBox="0 0 400.845 514.938">
  <defs>
    <clipPath id="clip-path">
      <rect id="Rectangle_403291" data-name="Rectangle 403291" width="400.845" height="514.604" fill="none"/>
    </clipPath>
  </defs>
  <g id="Group_1103351" data-name="Group 1103351" transform="translate(-179.155 -2800.063)">
    <rect id="Rectangle_404502" data-name="Rectangle 404502" width="400" height="79" rx="39.5" transform="translate(180 3236)" fill="#ffe7ba"/>
    <g id="Group_1101572" data-name="Group 1101572" transform="translate(179.155 2800.063)">
      <g id="Group_1101571" data-name="Group 1101571" clip-path="url(#clip-path)">
        <path id="Path_881076" data-name="Path 881076" d="M385.919,355.569c0,23.527-83.017,42.6-185.423,42.6S15.071,379.1,15.071,355.569s83.017-42.6,185.424-42.6,185.423,19.074,185.423,42.6" transform="translate(0.26 5.401)" fill="#c7c7c7"/>
        <path id="Path_881077" data-name="Path 881077" d="M341.184,467.187c-16.623,13.187-39.664-7.2-34.153-23.883,2.848-8.624,9.606-15.481,10.962-24.6,1.4-9.416,5.853-13.4,13.129-19.083,2.853-2.231,3.995-6.334,5.322-9.68,2.507-6.316,6.251-11.633,12.275-15.023,7.424-4.177,22.037,1.457,23.858,10.818,2.208,11.36-12.532,16.736-17.355,24.031-4.141,6.261-.234,14.508-6.3,21.293-9.12,10.194,5.339,26.411-7.734,36.127" transform="translate(5.284 6.446)" fill="#c27552"/>
        <path id="Path_881078" data-name="Path 881078" d="M323.5,486.064a.674.674,0,0,1-.67-.613c-2.945-32.422,6.934-65.284,27.1-90.16a.674.674,0,1,1,1.048.848c-19.949,24.606-29.72,57.114-26.807,89.191a.674.674,0,0,1-.611.731.6.6,0,0,1-.061,0" transform="translate(5.562 6.817)" fill="#29275f"/>
        <path id="Path_881079" data-name="Path 881079" d="M328.991,437.554c-4.486,6.345-8.017,13.456-15.626,14.852-11.487,2.11-25.242,13.066-24.541,27.377-.2,29.139,44.248,28.545,47.68,6.9,1.619-10.23,4.217-14.691,14.673-16.193,6.261-.9,8.154-6.17,9.917-11.576a13.771,13.771,0,0,1,6.78-5.417c3.98-1.45,8.471-.821,12.729-.948,3.757-.112,7.51-.886,10.3-3.365a15.105,15.105,0,0,0,4.85-9.462,16.482,16.482,0,0,0-2.652-10.948,18.6,18.6,0,0,0-8.51-6.985,14.7,14.7,0,0,0-11.219-.023c-4.083,1.681-7.253,4.731-10.418,7.7-.021.022-.046.041-.066.063a16.643,16.643,0,0,1-15.642,3.775c-6.868-1.714-13.411-2.6-18.252,4.243" transform="translate(4.984 7.259)" fill="#7d3a1b"/>
        <path id="Path_881080" data-name="Path 881080" d="M288.3,505.911a.675.675,0,0,1-.579-1.018,150.813,150.813,0,0,1,83.49-66.731.674.674,0,0,1,.412,1.284,149.469,149.469,0,0,0-82.744,66.136.673.673,0,0,1-.58.33" transform="translate(4.963 7.56)" fill="#29275f"/>
        <path id="Path_881081" data-name="Path 881081" d="M260.124,474.579c13.729,2.331,20.538-16.678,12.1-24.531-4.364-4.06-10.418-5.868-14.08-10.684-3.781-4.973-7.6-5.854-13.582-6.827-2.346-.381-4.3-2.38-6.121-3.886-3.437-2.84-7.272-4.715-11.808-4.761-5.59-.056-12.214,7.8-10.3,13.761,2.319,7.232,12.5,5.666,17.577,8.337,4.36,2.293,4.72,8.27,10.355,10.255,8.467,2.982,5.277,16.878,15.866,18.335" transform="translate(3.727 7.315)" fill="#7d3a1b"/>
        <path id="Path_881082" data-name="Path 881082" d="M275.954,479.938l-.037.018a.444.444,0,0,1-.583-.229A81.864,81.864,0,0,0,231.729,436.9a.443.443,0,0,1,.334-.82,82.767,82.767,0,0,1,44.084,43.292.443.443,0,0,1-.192.565" transform="translate(3.994 7.525)" fill="#29275f"/>
        <path id="Path_881083" data-name="Path 881083" d="M246.708,458.833c4.585,2.232,8.864,5.205,13.681,3.6,7.274-2.417,18.649-.463,22.768,7.991,9.325,16.7-16.428,30.4-25.242,19.039-4.165-5.372-7.069-7.118-13.557-4.676-3.885,1.464-6.641-.971-9.363-3.524a9.038,9.038,0,0,0-5.612-.974c-2.748.424-5.132,2.205-7.621,3.478a10.373,10.373,0,0,1-6.987,1.318A9.913,9.913,0,0,1,209,481.181a10.814,10.814,0,0,1-1.935-7.135,12.212,12.212,0,0,1,2.687-6.707,9.655,9.655,0,0,1,6.446-3.56c2.88-.323,5.667.429,8.427,1.138.019.007.039.009.058.016a10.924,10.924,0,0,0,10.19-2.772c3.408-3.157,6.893-5.731,11.839-3.328" transform="translate(3.572 7.901)" fill="#c27552"/>
        <path id="Path_881084" data-name="Path 881084" d="M291.561,485.236a.444.444,0,0,1-.438-.006,98.092,98.092,0,0,0-68.493-11.89.442.442,0,1,1-.169-.868,98.974,98.974,0,0,1,69.111,11.994.442.442,0,0,1-.011.769" transform="translate(3.833 8.122)" fill="#29275f"/>
        <path id="Path_881085" data-name="Path 881085" d="M392.188,359.047H8.5a7.75,7.75,0,0,1-7.75-7.75v-3.262H399.94V351.3a7.751,7.751,0,0,1-7.751,7.75" transform="translate(0.013 6.006)" fill="#12263f"/>
        <path id="Path_881086" data-name="Path 881086" d="M358.293,288.289H42.4L.751,349.065H399.938Z" transform="translate(0.013 4.975)" fill="#fff"/>
        <path id="Path_881087" data-name="Path 881087" d="M352.146,91.315H47.125a5.278,5.278,0,0,0-5.279,5.279V291.688H357.424V96.594a5.278,5.278,0,0,0-5.279-5.279" transform="translate(0.722 1.576)" fill="#12263f"/>
        <rect id="Rectangle_403277" data-name="Rectangle 403277" width="296.263" height="168.222" transform="translate(52.226 109.498)" fill="#ffe9df"/>
        <path id="Path_881088" data-name="Path 881088" d="M392.2,359.823H8.514A8.524,8.524,0,0,1,0,351.308v-3.261a.763.763,0,0,1,.763-.763H399.952a.763.763,0,0,1,.763.763v3.261a8.524,8.524,0,0,1-8.513,8.514M1.526,348.81v2.5A7,7,0,0,0,8.514,358.3H392.2a7,7,0,0,0,6.988-6.989v-2.5Z" transform="translate(0 5.993)" fill="#29275f"/>
        <path id="Path_881089" data-name="Path 881089" d="M399.952,349.841H.763a.763.763,0,0,1-.63-1.194L41.78,287.871a.761.761,0,0,1,.629-.332h315.9a.764.764,0,0,1,.63.332l41.646,60.776a.764.764,0,0,1-.63,1.194M2.211,348.315H398.5l-40.6-59.25H42.81Z" transform="translate(0 4.962)" fill="#29275f"/>
        <path id="Path_881090" data-name="Path 881090" d="M357.437,292.464H41.859a.763.763,0,0,1-.763-.763V96.606a6.048,6.048,0,0,1,6.041-6.041H352.159a6.048,6.048,0,0,1,6.042,6.041V291.7a.763.763,0,0,1-.763.763M42.622,290.938H356.674V96.606a4.521,4.521,0,0,0-4.516-4.516H47.137a4.521,4.521,0,0,0-4.516,4.516Z" transform="translate(0.709 1.563)" fill="#29275f"/>
        <path id="Path_881091" data-name="Path 881091" d="M347.616,276.639H51.353a.763.763,0,0,1-.763-.763V107.655a.763.763,0,0,1,.763-.763H347.616a.763.763,0,0,1,.763.763V275.876a.763.763,0,0,1-.763.763m-295.5-1.526H346.853V108.418H52.116Z" transform="translate(0.873 1.845)" fill="#29275f"/>
        <rect id="Rectangle_403278" data-name="Rectangle 403278" width="162.329" height="7.374" transform="translate(119.193 284.685)" fill="#fff"/>
        <path id="Path_881092" data-name="Path 881092" d="M183.6,99.381a4.972,4.972,0,1,1-4.972-4.972,4.972,4.972,0,0,1,4.972,4.972" transform="translate(2.997 1.629)" fill="#67a4e9"/>
        <path id="Path_881093" data-name="Path 881093" d="M255.184,344.275H140.7a.763.763,0,0,1-.63-1.194l11.944-17.43a.763.763,0,0,1,.63-.332H243.24a.766.766,0,0,1,.631.332l11.943,17.43a.763.763,0,0,1-.63,1.194M142.15,342.749H253.736l-10.9-15.9H153.047Z" transform="translate(2.415 5.614)" fill="#29275f"/>
        <path id="Path_881094" data-name="Path 881094" d="M82.761,304.494H61.649a.763.763,0,0,1-.665-1.136l5.418-9.644a.764.764,0,0,1,.665-.389H87.35a.762.762,0,0,1,.689,1.091l-4.588,9.643a.763.763,0,0,1-.69.435m-19.808-1.526H82.28l3.863-8.117H67.512Z" transform="translate(1.051 5.062)" fill="#29275f"/>
        <path id="Path_881095" data-name="Path 881095" d="M118.594,304.494H97.482a.763.763,0,0,1-.7-1.054l3.988-9.644a.762.762,0,0,1,.7-.471h20.284a.762.762,0,0,1,.725,1l-3.16,9.643a.763.763,0,0,1-.725.526m-19.971-1.526h19.418l2.659-8.117H101.98Z" transform="translate(1.669 5.062)" fill="#29275f"/>
        <path id="Path_881096" data-name="Path 881096" d="M154.428,304.494H133.316a.764.764,0,0,1-.738-.958l2.557-9.644a.763.763,0,0,1,.739-.567h20.284a.762.762,0,0,1,.751.9l-1.73,9.644a.763.763,0,0,1-.751.628m-20.12-1.526h19.481l1.457-8.117H136.461Z" transform="translate(2.287 5.062)" fill="#29275f"/>
        <path id="Path_881097" data-name="Path 881097" d="M190.261,304.494H169.149a.764.764,0,0,1-.758-.852L169.52,294a.763.763,0,0,1,.758-.674h20.284a.763.763,0,0,1,.763.786l-.3,9.643a.763.763,0,0,1-.763.74m-20.255-1.526h19.516l.253-8.117H170.958Z" transform="translate(2.906 5.062)" fill="#29275f"/>
        <path id="Path_881098" data-name="Path 881098" d="M226.1,304.494H204.986a.764.764,0,0,1-.763-.74l-.3-9.643a.761.761,0,0,1,.763-.786H224.97a.763.763,0,0,1,.758.674l1.129,9.643a.763.763,0,0,1-.759.851m-20.373-1.526h19.516l-.95-8.117H205.472Z" transform="translate(3.519 5.062)" fill="#29275f"/>
        <path id="Path_881099" data-name="Path 881099" d="M261.956,304.494H240.844a.763.763,0,0,1-.751-.629l-1.73-9.643a.762.762,0,0,1,.751-.9H259.4a.763.763,0,0,1,.737.567l2.558,9.644a.763.763,0,0,1-.738.958m-20.473-1.526h19.481l-2.154-8.117H240.025Z" transform="translate(4.113 5.062)" fill="#29275f"/>
        <path id="Path_881100" data-name="Path 881100" d="M297.814,304.494H276.7a.764.764,0,0,1-.725-.526l-3.159-9.643a.762.762,0,0,1,.725-1h20.283a.761.761,0,0,1,.7.471l3.988,9.644a.763.763,0,0,1-.7,1.054m-20.559-1.526h19.417l-3.356-8.117H274.6Z" transform="translate(4.707 5.062)" fill="#29275f"/>
        <path id="Path_881101" data-name="Path 881101" d="M333.67,304.494H312.558a.761.761,0,0,1-.689-.436l-4.589-9.642a.763.763,0,0,1,.69-1.091h20.283a.761.761,0,0,1,.665.389l5.418,9.644a.763.763,0,0,1-.666,1.136m-20.63-1.526h19.327l-4.559-8.117h-18.63Z" transform="translate(5.301 5.062)" fill="#29275f"/>
        <path id="Path_881102" data-name="Path 881102" d="M60.3,317.791H39.19a.762.762,0,0,1-.665-1.135l5.418-9.645a.762.762,0,0,1,.664-.388H64.891a.762.762,0,0,1,.69,1.09l-4.59,9.643a.761.761,0,0,1-.689.435m-19.808-1.526H59.82l3.864-8.116H45.053Z" transform="translate(0.663 5.291)" fill="#29275f"/>
        <path id="Path_881103" data-name="Path 881103" d="M96.135,317.791H75.023a.762.762,0,0,1-.7-1.054l3.988-9.643a.76.76,0,0,1,.7-.471H99.295a.762.762,0,0,1,.725,1l-3.16,9.642a.762.762,0,0,1-.725.526m-19.971-1.526H95.582l2.66-8.116H79.52Z" transform="translate(1.281 5.291)" fill="#29275f"/>
        <path id="Path_881104" data-name="Path 881104" d="M131.968,317.791H110.857a.763.763,0,0,1-.738-.957l2.557-9.645a.764.764,0,0,1,.739-.566H133.7a.761.761,0,0,1,.751.9l-1.729,9.645a.764.764,0,0,1-.752.627m-20.119-1.526H131.33l1.457-8.116H114Z" transform="translate(1.9 5.291)" fill="#29275f"/>
        <path id="Path_881105" data-name="Path 881105" d="M167.8,317.791H146.69a.764.764,0,0,1-.758-.85l1.128-9.644a.763.763,0,0,1,.759-.673H168.1a.76.76,0,0,1,.763.785l-.3,9.644a.762.762,0,0,1-.762.738m-20.255-1.526h19.515l.253-8.116H148.5Z" transform="translate(2.518 5.291)" fill="#29275f"/>
        <path id="Path_881106" data-name="Path 881106" d="M203.638,317.791H182.527a.763.763,0,0,1-.763-.738l-.3-9.644a.759.759,0,0,1,.763-.785H202.51a.762.762,0,0,1,.758.673l1.128,9.644a.76.76,0,0,1-.758.85m-20.372-1.526h19.515l-.95-8.116H183.014Z" transform="translate(3.131 5.291)" fill="#29275f"/>
        <path id="Path_881107" data-name="Path 881107" d="M239.5,317.791H218.385a.763.763,0,0,1-.751-.629l-1.73-9.643a.761.761,0,0,1,.751-.9h20.284a.762.762,0,0,1,.738.566l2.557,9.645a.76.76,0,0,1-.738.957m-20.473-1.526H238.5l-2.153-8.116H217.566Z" transform="translate(3.725 5.291)" fill="#29275f"/>
        <path id="Path_881108" data-name="Path 881108" d="M275.354,317.791H254.243a.764.764,0,0,1-.725-.526l-3.16-9.642a.761.761,0,0,1,.725-1h20.284a.76.76,0,0,1,.7.471l3.987,9.643a.762.762,0,0,1-.7,1.054M254.8,316.266h19.417l-3.356-8.116H252.136Z" transform="translate(4.32 5.291)" fill="#29275f"/>
        <path id="Path_881109" data-name="Path 881109" d="M311.211,317.791H290.1a.762.762,0,0,1-.688-.435l-4.591-9.643a.763.763,0,0,1,.69-1.09H305.8a.76.76,0,0,1,.664.388l5.418,9.645a.763.763,0,0,1-.666,1.135m-20.629-1.526h19.325l-4.557-8.116H286.718Z" transform="translate(4.914 5.291)" fill="#29275f"/>
        <path id="Path_881110" data-name="Path 881110" d="M346.3,317.791H325.191a.763.763,0,0,1-.689-.435l-4.59-9.643a.763.763,0,0,1,.69-1.09h20.283a.762.762,0,0,1,.665.388l5.418,9.645a.762.762,0,0,1-.666,1.135m-20.629-1.526H345l-4.559-8.116h-18.63Z" transform="translate(5.519 5.291)" fill="#29275f"/>
        <path id="Path_881111" data-name="Path 881111" d="M285.358,41.283V205.117A17.655,17.655,0,0,1,267.7,222.77H129.162a17.655,17.655,0,0,1-17.653-17.653V41.283A17.655,17.655,0,0,1,129.162,23.63H267.7a17.655,17.655,0,0,1,17.653,17.653" transform="translate(1.924 0.408)" fill="#fff"/>
        <path id="Path_881112" data-name="Path 881112" d="M229.605,33.462a4.366,4.366,0,1,1-4.366-4.366,4.367,4.367,0,0,1,4.366,4.366" transform="translate(3.811 0.502)" fill="#cf987f"/>
        <path id="Path_881113" data-name="Path 881113" d="M248.464,33.462A4.366,4.366,0,1,1,244.1,29.1a4.367,4.367,0,0,1,4.366,4.366" transform="translate(4.137 0.502)" fill="#ab6f53"/>
        <path id="Path_881114" data-name="Path 881114" d="M267.323,33.462a4.366,4.366,0,1,1-4.366-4.366,4.367,4.367,0,0,1,4.366,4.366" transform="translate(4.462 0.502)" fill="#7d3a1b"/>
        <path id="Path_881115" data-name="Path 881115" d="M267.718,223.547H129.175a18.438,18.438,0,0,1-18.416-18.417V41.3A18.437,18.437,0,0,1,129.175,22.88H267.718A18.438,18.438,0,0,1,286.134,41.3V205.13a18.438,18.438,0,0,1-18.416,18.417M129.175,24.406A16.91,16.91,0,0,0,112.285,41.3V205.13a16.91,16.91,0,0,0,16.891,16.892H267.718a16.911,16.911,0,0,0,16.891-16.892V41.3a16.91,16.91,0,0,0-16.891-16.891Z" transform="translate(1.911 0.395)" fill="#29275f"/>
        <path id="Path_881116" data-name="Path 881116" d="M285.371,41.76H111.521a.763.763,0,0,1,0-1.526h173.85a.763.763,0,0,1,0,1.526" transform="translate(1.911 0.694)" fill="#29275f"/>
        <path id="Path_881117" data-name="Path 881117" d="M171.063,63.624l-18.882-8-18.881,8V19.1h37.764Z" transform="translate(2.3 0.33)" fill="#ffb937"/>
        <rect id="Rectangle_403279" data-name="Rectangle 403279" width="43.798" height="47.301" transform="translate(126.379 74.419)" fill="#fecab2"/>
        <rect id="Rectangle_403280" data-name="Rectangle 403280" width="98.113" height="4.019" transform="translate(176.222 74.419)" fill="#c7c7c7"/>
        <rect id="Rectangle_403281" data-name="Rectangle 403281" width="98.113" height="4.019" transform="translate(176.222 85.18)" fill="#c7c7c7"/>
        <rect id="Rectangle_403282" data-name="Rectangle 403282" width="98.113" height="4.019" transform="translate(176.222 95.942)" fill="#c7c7c7"/>
        <rect id="Rectangle_403283" data-name="Rectangle 403283" width="98.113" height="4.019" transform="translate(176.222 106.702)" fill="#c7c7c7"/>
        <rect id="Rectangle_403284" data-name="Rectangle 403284" width="56.703" height="4.019" transform="translate(176.222 117.463)" fill="#c7c7c7"/>
        <rect id="Rectangle_403285" data-name="Rectangle 403285" width="147.957" height="4.019" transform="translate(126.379 138.358)" fill="#c7c7c7"/>
        <rect id="Rectangle_403286" data-name="Rectangle 403286" width="147.957" height="4.019" transform="translate(126.379 149.12)" fill="#c7c7c7"/>
        <rect id="Rectangle_403287" data-name="Rectangle 403287" width="147.957" height="4.019" transform="translate(126.379 159.88)" fill="#c7c7c7"/>
        <rect id="Rectangle_403288" data-name="Rectangle 403288" width="147.957" height="4.019" transform="translate(126.379 170.642)" fill="#c7c7c7"/>
        <rect id="Rectangle_403289" data-name="Rectangle 403289" width="106.546" height="4.019" transform="translate(126.379 181.402)" fill="#c7c7c7"/>
        <rect id="Rectangle_403290" data-name="Rectangle 403290" width="68.122" height="11.233" transform="translate(205.609 54.714)" fill="#7d3a1b"/>
        <path id="Path_881118" data-name="Path 881118" d="M201.381,209.487a.76.76,0,0,1-.329-.074l-15.586-7.434a.762.762,0,1,1,.656-1.376l15.259,7.276L216.64,200.6a.763.763,0,1,1,.657,1.376l-15.587,7.434a.76.76,0,0,1-.329.074" transform="translate(3.193 3.46)" fill="#29275f"/>
        <path id="Path_881119" data-name="Path 881119" d="M366.656,509.457H276.217l-24.472-92.249s-24.881-26.281-36.714-45.087-16.43-25.066-17.446-31.207c-.9-5.494-7.357-45.365-8.73-53.857a2.917,2.917,0,0,1,.766-2.51,1.839,1.839,0,0,1,.37-.343c2.852-2.154,9.8-5.019,17.7,8.61,9.1,15.7,10.42,35.526,10.618,40.135l3.223,5.441,8.808,14.858,11.015,18.568s11.714-2.166,19.731-11.7l-11-18.569-8.808-14.857-3.46-5.851-.04-.053-23.666-33.294s-11.649-5.045-23.125-10.459-15.148-24.234-6.788-22.953c3.17.489,10.17,3.051,17.631,6.049,12.15,4.86,25.5,10.843,25.5,10.843,5.23-4.768,14.132-2.02,14.132-2.02s6.247-3.3,12.493-2.391,34.787,27.813,39.277,36.715,15.055,92.645,15.055,92.645Z" transform="translate(3.1 4.383)" fill="#fff"/>
        <path id="Path_881120" data-name="Path 881120" d="M196.167,260.944a11.205,11.205,0,0,1-1.5,4.523,3.746,3.746,0,0,1-4.582,1.4L182,263.535a3.786,3.786,0,0,1-2.314-3.93,9.69,9.69,0,0,1,1.374-4.172A3.727,3.727,0,0,1,185.424,254l8.247,2.883a3.787,3.787,0,0,1,2.5,4.062" transform="translate(3.1 4.379)" fill="#fecab2"/>
        <path id="Path_881121" data-name="Path 881121" d="M199.39,298.5c-2.154,1.756-5.507,1.861-7.285,1.776a1.478,1.478,0,0,1-1.389-1.243l-1.892-11.683a1.514,1.514,0,0,1,.564-1.421,9.008,9.008,0,0,1,6.333-1.609,1.492,1.492,0,0,1,1.213.836c1.452,3.124,2.621,9.718,2.988,11.955a1.5,1.5,0,0,1-.532,1.39" transform="translate(3.258 4.905)" fill="#fecab2"/>
        <path id="Path_881122" data-name="Path 881122" d="M241.505,327.054c-8.029,9.535-19.744,11.7-19.744,11.7l-3.223-5.441c-.2-4.609-1.519-24.432-10.618-40.135-7.9-13.63-14.844-10.764-17.7-8.611a1.87,1.87,0,0,0-.37.343l-23.693-40a22.85,22.85,0,0,0,2.8,3.381l.224.224a10.623,10.623,0,0,0,1.2.991,3.908,3.908,0,0,0,.383.278,5.824,5.824,0,0,0,.726.422,4.483,4.483,0,0,0,.516.238c.171.066.343.132.528.185.159.039.33.078.5.1h.026a3.385,3.385,0,0,0,.515.04,3.266,3.266,0,0,0,1.664-.462c2.126-1.254,2.562-3.7,2.483-5.771a1,1,0,0,0-.013-.2,8.725,8.725,0,0,0-.093-1.07c0-.066-.013-.119-.013-.172-.026-.158-.053-.3-.066-.435a.041.041,0,0,1-.013-.026,15.144,15.144,0,0,0-.369-1.625c.026.026.079.079.145.159a1.3,1.3,0,0,1,.118.132c.053.053.106.119.159.172.2.2.45.435.74.7a3.1,3.1,0,0,0,.383.343c.159.132.316.278.488.4a.927.927,0,0,0,.132.106,6.568,6.568,0,0,0,.607.435l.159.119a10.709,10.709,0,0,0,1.082.594,5.518,5.518,0,0,0,.582.251,5.056,5.056,0,0,0,.594.185,2.2,2.2,0,0,0,.581.118,3.832,3.832,0,0,0,1.6-.079,3.168,3.168,0,0,0,.475-.158,4.292,4.292,0,0,0,.489-.251,2.916,2.916,0,0,0,1.016-1.03,2.094,2.094,0,0,0,.172-.29V242.9a4.883,4.883,0,0,0,.238-.607.3.3,0,0,0,.04-.145,2.5,2.5,0,0,0,.132-.542,5.163,5.163,0,0,0,.079-.634.258.258,0,0,0,.013-.106,10.141,10.141,0,0,0,.013-1.4c-.013-.185-.026-.369-.04-.541a15.215,15.215,0,0,0-.251-1.757,3.953,3.953,0,0,0-.119-.568c-.053-.264-.106-.528-.172-.779s-.132-.515-.2-.753c-.3-1.1-.6-1.888-.674-2.086l16.311,27.51c-7.462-3-14.461-5.56-17.631-6.05-8.36-1.281-4.689,17.539,6.788,22.953s23.125,10.46,23.125,10.46l23.666,33.294.04.053Z" transform="translate(2.867 4.02)" fill="#e6ac4b"/>
        <path id="Path_881123" data-name="Path 881123" d="M249.37,340.315c-8.03,9.548-19.744,11.7-19.744,11.7l-8.808-14.858s11.714-2.166,19.744-11.7Z" transform="translate(3.81 5.616)" fill="#c7c7c7"/>
        <path id="Path_881124" data-name="Path 881124" d="M260.223,358.632c-8.016,9.535-19.731,11.7-19.731,11.7l-11.015-18.569s11.715-2.152,19.745-11.7Z" transform="translate(3.96 5.868)" fill="#fff"/>
        <path id="Path_881125" data-name="Path 881125" d="M187.267,239.712a9.832,9.832,0,0,1-.013,1.4.258.258,0,0,1-.013.106,5.188,5.188,0,0,1-.079.634c-.013.053-.026.119-.04.172a.657.657,0,0,1-.04.172,1.091,1.091,0,0,1-.053.2c-.013.053-.026.093-.04.145a4.913,4.913,0,0,1-.237.607v.013a2.106,2.106,0,0,1-.172.291,2.927,2.927,0,0,1-1.017,1.03,4.266,4.266,0,0,1-.488.25,3.35,3.35,0,0,1-.476.159,3.831,3.831,0,0,1-1.6.079,5.087,5.087,0,0,1-.581-.119,5.179,5.179,0,0,1-.594-.185,5.293,5.293,0,0,1-.581-.25,10.93,10.93,0,0,1-1.083-.594L180,243.7a6.519,6.519,0,0,1-.607-.436.926.926,0,0,1-.132-.106c-.171-.118-.33-.263-.488-.4a4.562,4.562,0,0,1-.382-.344c-.291-.263-.542-.5-.74-.7a.969.969,0,0,0-.159-.171,1.192,1.192,0,0,0-.119-.132c-.066-.079-.119-.132-.145-.159a15.021,15.021,0,0,1,.37,1.625.041.041,0,0,0,.013.026c.013.132.04.277.066.435,0,.053.013.106.013.172a8.933,8.933,0,0,1,.092,1.07.985.985,0,0,1,.013.2c.079,2.074-.356,4.517-2.482,5.772a3.282,3.282,0,0,1-1.664.462,3.365,3.365,0,0,1-.515-.04h-.026c-.172-.026-.344-.066-.5-.106-.185-.053-.356-.119-.528-.185a4.225,4.225,0,0,1-.515-.237,5.691,5.691,0,0,1-.726-.423,4.042,4.042,0,0,1-.384-.277,10.612,10.612,0,0,1-1.2-.991l-.225-.225a22.778,22.778,0,0,1-2.8-3.38c-.106-.172-.172-.264-.172-.264l-3.83-19.665c2.166-1.175,5.362-3.342,6.867-6.445L185.8,233.188a.1.1,0,0,0,.013.039c.079.2.369.991.673,2.087q.1.356.2.753c.066.25.118.515.171.779a3.9,3.9,0,0,1,.119.568,15.146,15.146,0,0,1,.251,1.757c.013.184.026.369.04.541" transform="translate(2.799 3.775)" fill="#fff"/>
        <path id="Path_881126" data-name="Path 881126" d="M169.118,218.854c-1.506,3.1-4.7,5.269-6.867,6.445l-1.36-7,3.17-3.817Z" transform="translate(2.776 3.701)" fill="#29275f"/>
        <path id="Path_881127" data-name="Path 881127" d="M276.229,510.233a.764.764,0,0,1-.738-.567L251.071,417.6c-1.991-2.116-25.384-27.121-36.673-45.062-2.059-3.269-3.9-6.16-5.537-8.736-7.886-12.4-11.15-17.526-12.016-22.754-.9-5.5-7.356-45.367-8.73-53.86a3.675,3.675,0,0,1,.968-3.159,2.387,2.387,0,0,1,.473-.433,9.019,9.019,0,0,1,7.314-1.8c4,.81,7.868,4.389,11.49,10.642,8.9,15.363,10.448,34.483,10.713,40.294l22.667,38.228c2.279-.54,11.646-3.151,18.419-10.92l-22.99-38.806-23.548-33.121c-1.579-.686-12.4-5.407-22.951-10.384-8.918-4.207-13.073-15.745-11.415-21.172a4.26,4.26,0,0,1,5.066-3.225c2.833.436,8.821,2.487,17.8,6.094,10.79,4.316,22.663,9.577,25.086,10.657,5.009-4.133,12.564-2.384,14.188-1.942,1.316-.644,6.941-3.169,12.68-2.331,6.945,1.03,35.5,28.508,39.847,37.127,4.464,8.821,14.487,87.776,15.114,92.759l58.312,113.417a.764.764,0,0,1-1.358.7L307.619,396.282a.7.7,0,0,1-.079-.253c-.1-.836-10.588-83.713-14.979-92.4-4.519-8.954-32.734-35.419-38.709-36.3-5.934-.863-11.965,2.28-12.024,2.311a.762.762,0,0,1-.582.054c-.085-.025-8.553-2.556-13.393,1.855a.764.764,0,0,1-.825.133c-.133-.06-13.477-6.033-25.473-10.832-8.748-3.514-14.786-5.59-17.464-6a2.759,2.759,0,0,0-3.376,2.163c-1.512,4.951,2.638,15.587,10.607,19.347,11.333,5.347,22.986,10.4,23.1,10.449a.76.76,0,0,1,.319.257l23.665,33.295c.012.017.064.089.075.106l23.269,39.277a.762.762,0,0,1-.072.879A37.773,37.773,0,0,1,241.5,372.582a.754.754,0,0,1-.8-.361l-23.046-38.868a.752.752,0,0,1-.106-.355c-.235-5.482-1.689-24.55-10.516-39.786-3.394-5.857-6.916-9.192-10.472-9.91a7.539,7.539,0,0,0-6.1,1.526,1.162,1.162,0,0,0-.238.214,2.194,2.194,0,0,0-.607,1.9c1.375,8.5,7.834,48.37,8.731,53.863.814,4.919,4.029,9.973,11.8,22.183,1.64,2.577,3.481,5.47,5.54,8.742,11.658,18.525,36.375,44.706,36.623,44.969a.762.762,0,0,1,.183.329l24.471,92.249a.759.759,0,0,1-.738.957" transform="translate(3.087 4.37)" fill="#29275f"/>
        <path id="Path_881128" data-name="Path 881128" d="M230.583,354.388a.765.765,0,0,1-.657-.373l-12.031-20.3a.774.774,0,0,1-.1-.356c-.236-5.482-1.689-24.55-10.516-39.785-3.394-5.857-6.917-9.193-10.473-9.911a7.545,7.545,0,0,0-6.1,1.526,1.117,1.117,0,0,0-.236.214.764.764,0,0,1-1.251-.091l-23.692-40a.763.763,0,0,1,1.288-.818,21.946,21.946,0,0,0,2.7,3.263l.232.232a9.519,9.519,0,0,0,1.1.9,2.35,2.35,0,0,0,.269.2l.118.081a5.08,5.08,0,0,0,.616.358,3.974,3.974,0,0,0,.463.216c.15.058.3.117.463.163.1.025.235.057.369.079a.545.545,0,0,1,.065.006,2.521,2.521,0,0,0,1.678-.327c1.492-.881,2.2-2.592,2.107-5.084-.008-.04-.012-.161-.014-.2a7.884,7.884,0,0,0-.082-.976.674.674,0,0,1-.01-.12q-.006-.046-.009-.085c-.024-.145-.043-.254-.055-.349a.686.686,0,0,1-.017-.076h0a12.613,12.613,0,0,0-.315-1.406c-.023-.086-.04-.148-.047-.18a.763.763,0,0,1,1.29-.7c.041.041.106.107.186.2a.971.971,0,0,1,.084.089,2.066,2.066,0,0,1,.2.229c.133.128.375.357.655.611a2.919,2.919,0,0,0,.347.312l.145.122a3.746,3.746,0,0,0,.3.241.739.739,0,0,1,.106.088,6.888,6.888,0,0,0,.6.433l.215.158a10.192,10.192,0,0,0,.944.512l.1.045a3.394,3.394,0,0,0,.4.173,4.467,4.467,0,0,0,.535.169,1.7,1.7,0,0,0,.452.1,3.209,3.209,0,0,0,1.344-.054,2.534,2.534,0,0,0,.384-.127,3.345,3.345,0,0,0,.4-.206,2.17,2.17,0,0,0,.748-.761,2.078,2.078,0,0,0,.113-.181c.007-.018.015-.037.023-.055a4.2,4.2,0,0,0,.2-.512c.005-.017.051-.18.058-.2a1.192,1.192,0,0,1,.04-.154c0-.03.012-.079.013-.085s.023-.1.024-.1l.023-.1a4.491,4.491,0,0,0,.06-.5.734.734,0,0,1,.016-.117,9.661,9.661,0,0,0,.008-1.3l-.039-.526a14.631,14.631,0,0,0-.236-1.658,3.854,3.854,0,0,0-.107-.515c-.063-.308-.112-.556-.175-.792-.067-.269-.132-.514-.2-.745-.289-1.044-.572-1.817-.647-2.006a.763.763,0,0,1,1.365-.672l16.31,27.509a.763.763,0,0,1-.941,1.1c-8.746-3.514-14.785-5.59-17.463-6a2.758,2.758,0,0,0-3.375,2.162c-1.512,4.951,2.638,15.587,10.607,19.347,11.332,5.348,22.985,10.4,23.1,10.449a.752.752,0,0,1,.318.258l23.666,33.294c.012.018.063.089.074.107l12.269,20.706a.764.764,0,0,1-.073.88,37.723,37.723,0,0,1-20.189,11.961.716.716,0,0,1-.138.013M219.305,333.1l11.653,19.66c2.279-.536,11.647-3.14,18.434-10.919L237.4,321.6l-23.547-33.12c-1.579-.686-12.4-5.407-22.952-10.384-8.918-4.208-13.073-15.745-11.415-21.173a4.263,4.263,0,0,1,5.067-3.225c2.606.4,7.89,2.172,15.717,5.264L187.834,237.99c.038.279.071.576.1.882l.041.551a10.551,10.551,0,0,1-.013,1.524.639.639,0,0,1-.018.171,6.323,6.323,0,0,1-.084.643c0,.009-.024.106-.025.115a2.247,2.247,0,0,1-.07.3,1.853,1.853,0,0,1-.059.214c-.006.024-.013.048-.014.053a5.711,5.711,0,0,1-.268.721.786.786,0,0,1-.04.1,2.863,2.863,0,0,1-.233.392A3.562,3.562,0,0,1,185.9,244.9a4.94,4.94,0,0,1-.591.3,4.178,4.178,0,0,1-.584.194,4.563,4.563,0,0,1-1.893.094,2.723,2.723,0,0,1-.727-.155,6.447,6.447,0,0,1-1.152-.421,11.816,11.816,0,0,1-1.249-.677l-.214-.157a6.392,6.392,0,0,1-.63-.453,1.074,1.074,0,0,1-.137-.108c-.11-.079-.217-.167-.32-.255a9.861,9.861,0,0,1,.084,1.016,2,2,0,0,1,.015.271c.116,3.022-.872,5.256-2.858,6.428a4.041,4.041,0,0,1-2.638.527c-.025,0-.052,0-.07-.007-.2-.031-.393-.075-.573-.12-.23-.065-.423-.138-.616-.213a5.387,5.387,0,0,1-.6-.278,6.242,6.242,0,0,1-.786-.46l-.062-.042,19.766,33.374a8.936,8.936,0,0,1,7.038-1.594c4,.809,7.867,4.389,11.49,10.642,8.9,15.362,10.447,34.482,10.712,40.292" transform="translate(2.854 4.007)" fill="#29275f"/>
        <path id="Path_881129" data-name="Path 881129" d="M240.5,371.109a.765.765,0,0,1-.656-.373l-11.015-18.569a.762.762,0,0,1,.518-1.139c.115-.022,11.549-2.228,19.3-11.442a.756.756,0,0,1,.647-.27.764.764,0,0,1,.594.371l11,18.569a.764.764,0,0,1-.072.88,37.78,37.78,0,0,1-20.175,11.96.726.726,0,0,1-.139.013m-9.823-18.817,10.2,17.192c2.281-.54,11.647-3.151,18.421-10.92l-10.185-17.189a38.021,38.021,0,0,1-18.434,10.917" transform="translate(3.947 5.855)" fill="#29275f"/>
        <path id="Path_881130" data-name="Path 881130" d="M173.687,251.867a4.189,4.189,0,0,1-.586-.041c-.026,0-.052,0-.071-.007-.2-.031-.392-.074-.572-.12-.231-.065-.423-.138-.616-.213a5.306,5.306,0,0,1-.6-.278,6.315,6.315,0,0,1-.787-.46l-.11-.075a3.171,3.171,0,0,1-.359-.269,9.983,9.983,0,0,1-1.214-1l-.243-.243a23.551,23.551,0,0,1-2.891-3.491c-.1-.166-.159-.245-.165-.254a.764.764,0,0,1-.125-.293l-5.191-26.665a.765.765,0,0,1,.162-.633l3.171-3.817a.76.76,0,0,1,.524-.273.794.794,0,0,1,.562.183l21.764,18.78a.759.759,0,0,1,.239.385c.144.368.411,1.128.685,2.116.067.244.136.5.2.772.067.255.124.534.18.815a4.164,4.164,0,0,1,.127.613,15.833,15.833,0,0,1,.254,1.792l.041.551v.015a10.494,10.494,0,0,1-.015,1.509.615.615,0,0,1-.017.171,6.286,6.286,0,0,1-.084.643l-.026.115a2.1,2.1,0,0,1-.069.3,1.863,1.863,0,0,1-.06.214c-.006.024-.013.048-.014.053a5.57,5.57,0,0,1-.267.721.972.972,0,0,1-.04.1,2.973,2.973,0,0,1-.234.392,3.55,3.55,0,0,1-1.243,1.241,5.1,5.1,0,0,1-.591.3,4.061,4.061,0,0,1-.585.194,4.575,4.575,0,0,1-1.892.095,6.109,6.109,0,0,1-.666-.136,5.873,5.873,0,0,1-.683-.216,4.9,4.9,0,0,1-.531-.225,11.8,11.8,0,0,1-1.248-.677l-.214-.157a6.162,6.162,0,0,1-.63-.453,1,1,0,0,1-.137-.108c-.11-.079-.217-.167-.321-.255a9.6,9.6,0,0,1,.084,1.016,2,2,0,0,1,.015.271c.116,3.022-.871,5.256-2.857,6.428a4.013,4.013,0,0,1-2.052.568m-.465-1.562c.023,0,.047,0,.064.006a2.524,2.524,0,0,0,1.679-.327c1.492-.881,2.2-2.592,2.106-5.083-.008-.041-.012-.162-.014-.2a7.694,7.694,0,0,0-.082-.976.785.785,0,0,1-.009-.12q-.006-.046-.009-.085c-.025-.145-.043-.254-.056-.349a.508.508,0,0,1-.016-.076h0a13.106,13.106,0,0,0-.315-1.406c-.023-.086-.04-.148-.047-.18a.763.763,0,0,1,1.29-.7c.041.042.1.107.185.2a.787.787,0,0,1,.084.09,1.887,1.887,0,0,1,.2.228c.133.128.376.357.656.611a4.279,4.279,0,0,0,.347.312l.144.122c.1.083.2.169.3.241a.747.747,0,0,1,.107.088,7.146,7.146,0,0,0,.6.434l.214.157a10.459,10.459,0,0,0,.944.512l.1.045a3.649,3.649,0,0,0,.4.174,4.713,4.713,0,0,0,.536.168,4.514,4.514,0,0,0,.507.1,3.1,3.1,0,0,0,1.288-.06,2.652,2.652,0,0,0,.384-.126,3.528,3.528,0,0,0,.4-.207,2.159,2.159,0,0,0,.747-.761c.054-.079.086-.132.114-.181.007-.018.014-.037.022-.055a4.048,4.048,0,0,0,.2-.512c.005-.017.051-.18.058-.2.007-.04.023-.1.04-.154l.014-.085c0-.007.022-.1.023-.1l.024-.1a4.5,4.5,0,0,0,.059-.5.638.638,0,0,1,.017-.117,10.267,10.267,0,0,0,.009-1.29l-.04-.533a14.4,14.4,0,0,0-.237-1.658,3.664,3.664,0,0,0-.106-.514c-.064-.309-.113-.557-.175-.793-.068-.269-.132-.514-.2-.745-.245-.883-.484-1.574-.6-1.879l-21.029-18.145-2.442,2.94,5.092,26.159c.028.043.063.1.1.158a21.973,21.973,0,0,0,2.681,3.237l.233.232a9.517,9.517,0,0,0,1.095.9,2.334,2.334,0,0,0,.27.2l.118.081a5.066,5.066,0,0,0,.615.358,3.981,3.981,0,0,0,.464.216c.15.058.3.117.463.163.1.025.235.057.369.079" transform="translate(2.763 3.688)" fill="#29275f"/>
        <path id="Path_881131" data-name="Path 881131" d="M184.233,255.064a.764.764,0,0,1-.685-.423l-6.1-12.269a.763.763,0,1,1,1.367-.68l6.1,12.269a.763.763,0,0,1-.344,1.022.753.753,0,0,1-.339.08" transform="translate(3.061 4.163)" fill="#29275f"/>
        <path id="Path_881132" data-name="Path 881132" d="M232.5,333.473a.762.762,0,0,1-.651-.363l-15.168-24.6a.763.763,0,0,1,1.3-.8l15.168,24.6a.763.763,0,0,1-.649,1.164" transform="translate(3.737 5.304)" fill="#29275f"/>
        <path id="Path_881133" data-name="Path 881133" d="M260.287,309.52a.764.764,0,0,1-.572-.256L225.959,271.2a.763.763,0,1,1,1.142-1.012l33.756,38.059a.762.762,0,0,1-.571,1.27" transform="translate(3.896 4.658)" fill="#29275f"/>
        <path id="Path_881134" data-name="Path 881134" d="M272.113,298.3a.759.759,0,0,1-.514-.2l-31.691-28.822a.763.763,0,1,1,1.027-1.128l31.691,28.821a.763.763,0,0,1-.514,1.328" transform="translate(4.136 4.624)" fill="#29275f"/>
        <path id="Path_881135" data-name="Path 881135" d="M250.534,415.287a.763.763,0,0,1-.156-1.51,119.642,119.642,0,0,0,14.806-4.12.763.763,0,1,1,.556,1.42,118.656,118.656,0,0,1-15.049,4.193.747.747,0,0,1-.158.016" transform="translate(4.31 7.068)" fill="#29275f"/>
        <path id="Path_881136" data-name="Path 881136" d="M62.824,121.621a3.473,3.473,0,1,1,3.473-3.473,3.473,3.473,0,0,1-3.473,3.473" transform="translate(1.024 1.979)" fill="#efb499"/>
        <path id="Path_881137" data-name="Path 881137" d="M79.316,121.621a3.473,3.473,0,1,1,3.473-3.473,3.474,3.474,0,0,1-3.473,3.473" transform="translate(1.309 1.979)" fill="#efb499"/>
        <path id="Path_881138" data-name="Path 881138" d="M59.351,134.64a3.473,3.473,0,1,1,3.473,3.473,3.473,3.473,0,0,1-3.473-3.473" transform="translate(1.024 2.263)" fill="#efb499"/>
        <path id="Path_881139" data-name="Path 881139" d="M59.351,151.132a3.473,3.473,0,1,1,3.473,3.473,3.473,3.473,0,0,1-3.473-3.473" transform="translate(1.024 2.548)" fill="#efb499"/>
        <path id="Path_881140" data-name="Path 881140" d="M59.351,167.624a3.473,3.473,0,1,1,3.473,3.473,3.473,3.473,0,0,1-3.473-3.473" transform="translate(1.024 2.833)" fill="#efb499"/>
        <path id="Path_881141" data-name="Path 881141" d="M59.351,184.116a3.473,3.473,0,1,1,3.473,3.473,3.472,3.472,0,0,1-3.473-3.473" transform="translate(1.024 3.117)" fill="#efb499"/>
        <path id="Path_881142" data-name="Path 881142" d="M79.316,138.113a3.473,3.473,0,1,1,3.473-3.473,3.474,3.474,0,0,1-3.473,3.473" transform="translate(1.309 2.263)" fill="#efb499"/>
        <path id="Path_881143" data-name="Path 881143" d="M75.843,151.132a3.473,3.473,0,1,1,3.473,3.473,3.473,3.473,0,0,1-3.473-3.473" transform="translate(1.309 2.548)" fill="#efb499"/>
        <path id="Path_881144" data-name="Path 881144" d="M75.843,167.624a3.473,3.473,0,1,1,3.473,3.473,3.473,3.473,0,0,1-3.473-3.473" transform="translate(1.309 2.833)" fill="#efb499"/>
        <path id="Path_881145" data-name="Path 881145" d="M75.843,184.116a3.473,3.473,0,1,1,3.473,3.473,3.472,3.472,0,0,1-3.473-3.473" transform="translate(1.309 3.117)" fill="#efb499"/>
        <path id="Path_881146" data-name="Path 881146" d="M59.351,200.608a3.473,3.473,0,1,1,3.473,3.473,3.473,3.473,0,0,1-3.473-3.473" transform="translate(1.024 3.402)" fill="#efb499"/>
        <path id="Path_881147" data-name="Path 881147" d="M75.843,200.608a3.473,3.473,0,1,1,3.473,3.473,3.473,3.473,0,0,1-3.473-3.473" transform="translate(1.309 3.402)" fill="#efb499"/>
        <path id="Path_881148" data-name="Path 881148" d="M315.286,121.784a3.473,3.473,0,1,1,3.472-3.473,3.473,3.473,0,0,1-3.472,3.473" transform="translate(5.381 1.982)" fill="#efb499"/>
        <path id="Path_881149" data-name="Path 881149" d="M331.777,121.784a3.473,3.473,0,1,1,3.473-3.473,3.474,3.474,0,0,1-3.473,3.473" transform="translate(5.665 1.982)" fill="#efb499"/>
        <path id="Path_881150" data-name="Path 881150" d="M311.813,134.8a3.472,3.472,0,1,1,3.472,3.473,3.473,3.473,0,0,1-3.472-3.473" transform="translate(5.381 2.266)" fill="#efb499"/>
        <path id="Path_881151" data-name="Path 881151" d="M311.813,151.295a3.472,3.472,0,1,1,3.472,3.473,3.473,3.473,0,0,1-3.472-3.473" transform="translate(5.381 2.551)" fill="#efb499"/>
        <path id="Path_881152" data-name="Path 881152" d="M311.813,167.787a3.472,3.472,0,1,1,3.472,3.473,3.473,3.473,0,0,1-3.472-3.473" transform="translate(5.381 2.835)" fill="#efb499"/>
        <path id="Path_881153" data-name="Path 881153" d="M331.777,138.276a3.473,3.473,0,1,1,3.473-3.473,3.474,3.474,0,0,1-3.473,3.473" transform="translate(5.665 2.266)" fill="#efb499"/>
        <path id="Path_881154" data-name="Path 881154" d="M328.3,151.295a3.473,3.473,0,1,1,3.473,3.473,3.474,3.474,0,0,1-3.473-3.473" transform="translate(5.665 2.551)" fill="#efb499"/>
        <path id="Path_881155" data-name="Path 881155" d="M328.3,167.787a3.473,3.473,0,1,1,3.473,3.473,3.474,3.474,0,0,1-3.473-3.473" transform="translate(5.665 2.835)" fill="#efb499"/>
        <path id="Path_881156" data-name="Path 881156" d="M298.255,121.215a3.473,3.473,0,1,1,3.473-3.473,3.474,3.474,0,0,1-3.473,3.473" transform="translate(5.087 1.972)" fill="#efb499"/>
        <path id="Path_881157" data-name="Path 881157" d="M298.255,137.707a3.473,3.473,0,1,1,3.473-3.473,3.474,3.474,0,0,1-3.473,3.473" transform="translate(5.087 2.256)" fill="#efb499"/>
        <path id="Path_881158" data-name="Path 881158" d="M294.782,150.726a3.473,3.473,0,1,1,3.473,3.473,3.474,3.474,0,0,1-3.473-3.473" transform="translate(5.087 2.541)" fill="#efb499"/>
        <path id="Path_881159" data-name="Path 881159" d="M294.782,167.218a3.473,3.473,0,1,1,3.473,3.473,3.474,3.474,0,0,1-3.473-3.473" transform="translate(5.087 2.826)" fill="#efb499"/>
        <path id="Path_881160" data-name="Path 881160" d="M149.576,412.268a1.933,1.933,0,0,1-1.935,1.935H142.6v5.046a1.935,1.935,0,1,1-3.871,0V414.2h-5.045a1.935,1.935,0,1,1,0-3.87h5.045v-5.046a1.935,1.935,0,1,1,3.871,0v5.046h5.046a1.933,1.933,0,0,1,1.935,1.935" transform="translate(2.273 6.96)" fill="#ffe7ba"/>
        <path id="Path_881161" data-name="Path 881161" d="M145.268,433.477c-3.362,0-3.367,5.225,0,5.225s3.368-5.225,0-5.225" transform="translate(2.463 7.48)" fill="#ffe7ba"/>
        <path id="Path_881162" data-name="Path 881162" d="M168.838,412.635c-3.362,0-3.368,5.225,0,5.225s3.368-5.225,0-5.225" transform="translate(2.87 7.12)" fill="#ffe7ba"/>
        <path id="Path_881163" data-name="Path 881163" d="M391.4,477.136a1.7,1.7,0,0,1-1.7,1.7h-4.438v4.438a1.7,1.7,0,1,1-3.406,0v-4.438h-4.438a1.7,1.7,0,1,1,0-3.406h4.438v-4.438a1.7,1.7,0,1,1,3.406,0v4.438h4.438a1.7,1.7,0,0,1,1.7,1.7" transform="translate(6.483 8.098)" fill="#ffe7ba"/>
        <path id="Path_881164" data-name="Path 881164" d="M366.414,490.566c-2.958,0-2.963,4.6,0,4.6s2.963-4.6,0-4.6" transform="translate(6.285 8.465)" fill="#ffe7ba"/>
        <path id="Path_881165" data-name="Path 881165" d="M368.866,457.492c-2.958,0-2.963,4.6,0,4.6s2.963-4.6,0-4.6" transform="translate(6.327 7.895)" fill="#ffe7ba"/>
        <path id="Path_881166" data-name="Path 881166" d="M338.091,33.57a2.653,2.653,0,0,1-2.655,2.654h-6.919v6.919a2.654,2.654,0,1,1-5.308,0V36.224H316.29a2.654,2.654,0,1,1,0-5.308h6.918V24a2.654,2.654,0,1,1,5.308,0v6.919h6.919a2.653,2.653,0,0,1,2.655,2.654" transform="translate(5.412 0.368)" fill="#ffe7ba"/>
        <path id="Path_881167" data-name="Path 881167" d="M295.243,24.675c-4.611,0-4.618,7.167,0,7.167s4.618-7.167,0-7.167" transform="translate(5.035 0.426)" fill="#ffe7ba"/>
        <path id="Path_881168" data-name="Path 881168" d="M344.593,0c-4.611,0-4.618,7.167,0,7.167S349.211,0,344.593,0" transform="translate(5.887)" fill="#ffe7ba"/>
        <path id="Path_881169" data-name="Path 881169" d="M82.858,19.464A1.933,1.933,0,0,1,80.924,21.4H75.878v5.046a1.935,1.935,0,1,1-3.871,0V21.4H66.963a1.935,1.935,0,1,1,0-3.87h5.045V12.484a1.935,1.935,0,1,1,3.871,0v5.046h5.046a1.933,1.933,0,0,1,1.935,1.935" transform="translate(1.122 0.182)" fill="#ffe7ba"/>
        <path id="Path_881170" data-name="Path 881170" d="M50.9,13.425c-3.362,0-3.368,5.225,0,5.225s3.367-5.225,0-5.225" transform="translate(0.835 0.232)" fill="#ffe7ba"/>
      </g>
    </g>
  </g>
</svg>
