<svg xmlns="http://www.w3.org/2000/svg" xmlns:xlink="http://www.w3.org/1999/xlink" width="139" height="139" viewBox="0 0 139 139">
  <defs>
    <clipPath id="clip-path">
      <rect id="Rectangle_400938" data-name="Rectangle 400938" width="139" height="139" transform="translate(-0.043 -0.043)" fill="none"/>
    </clipPath>
    <clipPath id="clip-path-2">
      <rect id="Rectangle_401073" data-name="Rectangle 401073" width="105.872" height="47.68" fill="#7d3a1b"/>
    </clipPath>
    <clipPath id="clip-path-3">
      <rect id="Rectangle_403304" data-name="Rectangle 403304" width="78" height="77.504" fill="#6a4d23"/>
    </clipPath>
  </defs>
  <g id="Group_1101591" data-name="Group 1101591" transform="translate(-731 -7429.881)">
    <g id="Group_1099528" data-name="Group 1099528" transform="translate(466.043 2145.924)">
      <g id="Group_1099379" data-name="Group 1099379" transform="translate(265 5284)">
        <rect id="Rectangle_401103" data-name="Rectangle 401103" width="139" height="139" transform="translate(-0.043 -0.043)" fill="none"/>
        <g id="Group_1099348" data-name="Group 1099348" transform="translate(0)">
          <g id="Group_1099282" data-name="Group 1099282">
            <g id="Group_1099281" data-name="Group 1099281" clip-path="url(#clip-path-2)">
              <path id="Path_873375" data-name="Path 873375" d="M85.879,10.449c-4.752,0-7.21-2.33-9.379-4.386C74.371,4.047,72.538,2.3,68.7,2.3s-5.668,1.742-7.8,3.758c-2.17,2.056-4.624,4.386-9.379,4.386s-7.21-2.33-9.379-4.386C40.018,4.047,38.184,2.3,34.349,2.3s-5.668,1.742-7.794,3.758c-2.17,2.056-4.627,4.386-9.379,4.386S9.963,8.119,7.794,6.063C5.668,4.047,3.835,2.3,0,2.3V0C4.752,0,7.21,2.334,9.379,4.386c2.129,2.02,3.963,3.758,7.8,3.758s5.668-1.738,7.794-3.755C27.136,2.334,29.6,0,34.349,0s7.213,2.334,9.379,4.386c2.129,2.02,3.963,3.758,7.8,3.758s5.668-1.738,7.8-3.758C61.489,2.334,63.951,0,68.7,0s7.213,2.334,9.379,4.386c2.129,2.02,3.963,3.758,7.8,3.758s5.668-1.738,7.8-3.758C95.843,2.334,98.3,0,103.056,0V2.3c-3.835,0-5.668,1.742-7.8,3.758-2.169,2.056-4.627,4.386-9.379,4.386" transform="translate(2.816 37.231)" fill="#7d3a1b"/>
              <path id="Path_873376" data-name="Path 873376" d="M85.879,10.449c-4.752,0-7.213-2.33-9.379-4.39C74.371,4.043,72.538,2.3,68.7,2.3s-5.668,1.738-7.8,3.755c-2.166,2.06-4.624,4.39-9.379,4.39s-7.213-2.33-9.379-4.39C40.018,4.043,38.184,2.3,34.349,2.3s-5.668,1.742-7.794,3.755c-2.17,2.06-4.627,4.39-9.379,4.39s-7.213-2.33-9.383-4.39C5.668,4.043,3.835,2.3,0,2.3V0C4.752,0,7.213,2.33,9.379,4.386c2.129,2.02,3.963,3.758,7.8,3.758s5.668-1.738,7.794-3.758C27.136,2.33,29.6,0,34.349,0s7.213,2.33,9.383,4.386c2.126,2.02,3.959,3.758,7.794,3.758s5.668-1.738,7.8-3.758C61.489,2.33,63.951,0,68.7,0s7.213,2.33,9.379,4.386c2.129,2.02,3.963,3.758,7.8,3.758s5.668-1.738,7.8-3.758C95.846,2.33,98.3,0,103.059,0V2.3c-3.835,0-5.672,1.742-7.8,3.755-2.169,2.06-4.628,4.39-9.379,4.39" transform="translate(1.877 24.821)" fill="#7d3a1b"/>
              <path id="Path_873377" data-name="Path 873377" d="M85.879,10.449c-4.752,0-7.213-2.33-9.379-4.39C74.371,4.043,72.538,2.3,68.7,2.3s-5.668,1.738-7.8,3.755c-2.166,2.06-4.627,4.39-9.379,4.39s-7.213-2.33-9.379-4.39C40.018,4.043,38.184,2.3,34.349,2.3s-5.668,1.742-7.794,3.755c-2.169,2.06-4.627,4.39-9.379,4.39s-7.213-2.33-9.383-4.39C5.668,4.043,3.835,2.3,0,2.3V0C4.752,0,7.213,2.33,9.379,4.386c2.126,2.02,3.963,3.758,7.8,3.758s5.668-1.738,7.794-3.758C27.136,2.33,29.6,0,34.349,0s7.213,2.33,9.383,4.386c2.126,2.02,3.959,3.758,7.794,3.758s5.668-1.738,7.8-3.758C61.489,2.33,63.951,0,68.7,0s7.213,2.33,9.379,4.386c2.129,2.02,3.963,3.758,7.8,3.758s5.668-1.738,7.8-3.758C95.846,2.33,98.3,0,103.059,0V2.3c-3.835,0-5.672,1.742-7.8,3.755-2.169,2.06-4.627,4.39-9.379,4.39" transform="translate(0.939 12.41)" fill="#7d3a1b"/>
              <path id="Path_873378" data-name="Path 873378" d="M85.879,10.445c-4.752,0-7.21-2.33-9.379-4.386C74.371,4.043,72.538,2.3,68.7,2.3s-5.668,1.738-7.794,3.755c-2.169,2.056-4.627,4.386-9.383,4.386s-7.21-2.33-9.379-4.386C40.018,4.043,38.184,2.3,34.349,2.3s-5.668,1.738-7.794,3.751c-2.166,2.06-4.627,4.39-9.379,4.39S9.963,8.115,7.794,6.059C5.668,4.043,3.835,2.3,0,2.3V0C4.752,0,7.213,2.33,9.379,4.386c2.129,2.016,3.963,3.755,7.8,3.755S22.845,6.4,24.971,4.386C27.14,2.33,29.6,0,34.349,0s7.21,2.33,9.383,4.386c2.126,2.016,3.959,3.755,7.794,3.755s5.668-1.738,7.8-3.755C61.493,2.33,63.951,0,68.7,0s7.21,2.33,9.379,4.386c2.129,2.016,3.963,3.755,7.8,3.755s5.668-1.738,7.8-3.755C95.846,2.33,98.3,0,103.059,0V2.3c-3.839,0-5.672,1.738-7.8,3.755-2.169,2.056-4.627,4.386-9.379,4.386" transform="translate(0 0.004)" fill="#7d3a1b"/>
            </g>
          </g>
        </g>
        <path id="Path_873425" data-name="Path 873425" d="M57.977,0A57.977,57.977,0,1,1,0,57.977,57.977,57.977,0,0,1,57.977,0Z" transform="translate(17.221 20.665)" fill="#efb499"/>
        <circle id="Ellipse_11503" data-name="Ellipse 11503" cx="60.5" cy="60.5" r="60.5" transform="translate(8.957 8.957)" fill="#fff"/>
      </g>
    </g>
    <g id="Group_1099529" data-name="Group 1099529" transform="translate(413 1035.881)">
      <g id="Group_1099389" data-name="Group 1099389" transform="translate(347.893 6422.744)">
        <rect id="Rectangle_401104" data-name="Rectangle 401104" width="78" height="79" transform="translate(0.107 0.256)" fill="none"/>
      </g>
      <g id="Group_1101596" data-name="Group 1101596" transform="translate(348 6429)">
        <g id="Group_1101595" data-name="Group 1101595" clip-path="url(#clip-path-3)">
          <path id="Path_881203" data-name="Path 881203" d="M40.144,10.287h34.34c1.381,0,3.4,2.357,3.278,3.846-.556,8.668.738,18.241.009,26.8-.172,2.021-.9,3.632-3.02,4.1l-13.9.064c-1.571,1.275-4.988,6.914-6.659,7.3a3.332,3.332,0,0,1-3.224-.724,10.324,10.324,0,0,1-.849-1.636V45.054h-2.28v21.8c0,.937-1.877,3-3.009,2.975l-13.946.015c-.243-.046-.713.286-.713.429V75.4c0,.67-1.742,1.993-2.5,2.085-2.9.352-5.931-6.108-8.248-7.584L5.535,69.831c-1.8-.474-2.579-2.054-2.735-3.819-.7-7.894.545-16.8.011-24.805-.148-1.3,1.8-3.562,2.993-3.562H16.776l-2.191-2.512c-3.506-.467-7.941.45-11.328-.071A3.907,3.907,0,0,1,.236,31.244c.6-8.654-.754-18.275,0-26.811A4.089,4.089,0,0,1,4.093.312c10.347.731,22.026-.97,32.215-.01a4.452,4.452,0,0,1,2.68,1.025A6.292,6.292,0,0,1,40.144,3.02ZM22.76,32.8H36.867c.578,0,.962-1.6,1.011-2.124.767-8.322-.613-17.8,0-26.246l-.71-1.286L3.286,3.14,2.8,4.718l.161,27.221a1.711,1.711,0,0,0,1.4.876c3.51.461,8.017-.37,11.64-.02L22.19,40.07l.57-.288Zm29.923,9.974v6.982l.57.288,6.47-7.211c4.323-.482,9.4.442,13.627-.052a2.248,2.248,0,0,0,1.7-.861l.013-28.227-.584-.841H40.144V32.658a11.371,11.371,0,0,1-.951,1.472c-1.054,1.058-2.5,1.032-3.9.949.265,1.333-.736,7.7,1,7.7ZM32.735,35.08H25.325v2.565h7.409ZM27.89,74.55V67.568c5.039-.4,10.879.534,15.821,0,.571-.062,1.563-.287,1.563-1V45.054H35.442a11,11,0,0,1-1.429-.851,4.638,4.638,0,0,1-1.277-4l-7.223.047c-.618.2-.914,2.48-3.18,2.48-2.169,0-2.661-2.314-3.71-2.52A89.579,89.579,0,0,0,6.646,40.2c-.582.077-1,.161-1.212.783L5.516,67a2.062,2.062,0,0,0,1.423.572c4.335.492,9.484-.426,13.91.054l6.333,7.349Z" transform="translate(0 0)" fill="#6a4d23"/>
          <path id="Path_881204" data-name="Path 881204" d="M27.712,174a7.528,7.528,0,0,1,3.7-4.708c-4.454-4.975,2.792-11.7,7.24-7.091,1.619,1.68,1.066,2.783,1.309,4.68.138,1.077.784-.2,1.426-.154-3.913-4.488,1.512-11,6.535-7.528,2.669,1.847,2.532,5.04.874,7.527l1,.573c.828.344.121-1.219.136-1.562.37-8.668,14.371-4.745,8.84,3.4,3.317,2.042,4.046,5.291,3.7,9H59.914c.009-2,.314-4.224-1.134-5.848-1.2-1.343-4.524-2.373-5.9-.867l.763,6.715-2.241-.041c-.386-.239-.489-4.325-.678-5.165a5.816,5.816,0,0,0-8.808-3.813c-3.161,1.926-2.584,6.12-3.1,9.3l-2.53-.735.844-6.5c-4.82-1.9-7.862,2.424-7.144,6.956H27.712c.139-1.284-.192-2.9,0-4.132m16.735-13.2a2.5,2.5,0,1,0,1.587,4.729c2.5-.741,1.755-5.465-1.587-4.729m-11.23,3.169c-2.255,2.464,1.644,5.847,3.773,3.348,2.216-2.6-1.838-5.462-3.773-3.348m19.948,0c-2.255,2.464,1.644,5.847,3.773,3.348,2.216-2.6-1.838-5.462-3.773-3.348" transform="translate(-19.771 -113.127)" fill="#6a4d23"/>
          <path id="Path_881205" data-name="Path 881205" d="M29.965,41.688c-6.734-7.466,1.393-18.262,9.967-12.193,6-4.413,13.232.007,12.447,7.308-.3,2.782-2.106,4.467-3.987,6.271-2.611,2.5-5.6,4.693-8.262,7.156l-.569-.021Zm4.4-11.516c-2.4.259-4.45,2.843-4.506,5.217-.053,2.257,1.381,3.943,2.854,5.406,2.073,2.06,4.755,3.9,6.849,5.99l.65.1c2.252-2.624,8.951-6.474,9.535-9.87.758-4.406-2.7-8.476-7.073-6.219-1.109.573-1.579,1.682-2.69,2.165-.854,0-2.318-3.148-5.619-2.792" transform="translate(-19.644 -19.817)" fill="#6a4d23"/>
          <path id="Path_881206" data-name="Path 881206" d="M169.5,61.448c2.7-.353,6.285.309,7,3.4a59.1,59.1,0,0,1,.1,10.118c-.324,2.1-2.662,3.66-4.687,3.862-4.029.4-9.171.13-12.8-1.725-.883,2.319-5.013,1.939-7.156,1.742a2.621,2.621,0,0,1-2.7-2.429,85,85,0,0,1,0-12.552c.473-3.976,6.6-2.031,9.406-2.256,2.767-2.377,1.975-7.6,6.417-7.593,4.18.007,5.393,3.914,4.417,7.432m-2.849,2.566c-.192-1.853,1.478-5.573-.015-6.967-2.686-2.507-3.189,1.764-4.024,3.355a23.315,23.315,0,0,1-3.312,4.1l-.01,10.012c3.642,1.883,8.3,2.144,12.362,1.77,1.743-.16,2.494-.954,2.693-2.721.174-1.537.195-7.235-.45-8.384a7.352,7.352,0,0,0-1.117-1.163Zm-9.974,0h-4.845V76.268h4.845Z" transform="translate(-106.56 -38.623)" fill="#6a4d23"/>
        </g>
      </g>
    </g>
  </g>
</svg>
