<svg id="Group_1101777" data-name="Group 1101777" xmlns="http://www.w3.org/2000/svg" xmlns:xlink="http://www.w3.org/1999/xlink" width="295" height="246.954" viewBox="0 0 295 246.954">
  <defs>
    <clipPath id="clip-path">
      <rect id="Rectangle_403373" data-name="Rectangle 403373" width="295" height="246.954" fill="none"/>
    </clipPath>
    <clipPath id="clip-path-2">
      <rect id="Rectangle_403372" data-name="Rectangle 403372" width="359" height="246.954" fill="none"/>
    </clipPath>
    <clipPath id="clip-path-3">
      <rect id="Rectangle_403366" data-name="Rectangle 403366" width="7.977" height="9.345" fill="none"/>
    </clipPath>
    <clipPath id="clip-path-4">
      <rect id="Rectangle_403368" data-name="Rectangle 403368" width="29.236" height="10.949" fill="#fecab2"/>
    </clipPath>
    <clipPath id="clip-path-5">
      <rect id="Rectangle_403369" data-name="Rectangle 403369" width="30.545" height="10.401" fill="#fecab2"/>
    </clipPath>
    <clipPath id="clip-path-6">
      <rect id="Rectangle_403370" data-name="Rectangle 403370" width="84.206" height="28.794" fill="#7a4f00"/>
    </clipPath>
    <clipPath id="clip-path-7">
      <rect id="Rectangle_403371" data-name="Rectangle 403371" width="18.699" height="19.273" fill="none"/>
    </clipPath>
  </defs>
  <g id="Group_1101776" data-name="Group 1101776" clip-path="url(#clip-path)">
    <g id="Group_1101775" data-name="Group 1101775">
      <g id="Group_1101774" data-name="Group 1101774" clip-path="url(#clip-path-2)">
        <path id="Path_881691" data-name="Path 881691" d="M405.629,117.372a62.012,62.012,0,1,1-62.013-62.013,62.013,62.013,0,0,1,62.013,62.013" transform="translate(-119.23 -23.439)" fill="none"/>
        <path id="Path_881692" data-name="Path 881692" d="M350.43,64.65a9.747,9.747,0,0,1-2.571.447c-.92,0-.4.19-.9.5s-1.031.756-1.764,1.156-.753.332-1.274-.022-.354.093-1.132.5-.708.447-.66,1.2a2.28,2.28,0,0,0,.708,1.628c.518.638.8,1.357.306,1.569s-.388.827-1.062.767a3.987,3.987,0,0,1-1.934-.957c-.544-.436-.615-.141-1.085.167s-.153.459-.779.366-1.132-1-1.345-1.1-.153.332-.719.108-.637-.108-.615-.827-.093-1.532-.13-2.113-.507-.377-.4-.708-.376-1.3.238-1.614,1.037-1.218,1.934-1.713.861-.235.886-.388-.108-.19-.51-.19-.34.011-.447-.4.082-.343.615-.767.153-.719.447-1.215.685-.461.9-.79-.108-.379.246-.9a4.2,4.2,0,0,0,.507-1.334c.19-1.062-.376.071-.943-.5s-.5-.567-.8-.235-1.132.187-1.911.683-.921.663-1.654.331-.4-1.11-1.085-1.014-1.285.354-.767,1.156,1.24-.093,1.948.9c.5.707.275.98-.32,1.178-.238.079-.682-.235-.931.048-.872.991-.142,1.416-.991,2.076s-.85.637-.425,1.252,1.062,1.535.164,1.792-1.886,1.465-2.62,1.111.354-1.416.119-1.58-.827.164-.943,1.345-.142,1.3-.85,1.58-.827-.544-1.37-.306.543,1.628-.283,1.58-1.156-.969-1.651-1.864-.943-.592-1.251-1.11.212-.566,1.7-.589.686-.071,1.911-1.2,2.1-.9,1.628-1.8.425-1.085-.5-1.036-.567.306-1.841,1.32-.425.521-1.58,1.229-.686.116-1.676-.048-.589.235-.779,1.58-.5.969-1.345,1.158-.589.258-1.628-.212-.5-.8-2.124.116a42.03,42.03,0,0,0-4.506,2.574c-2.242,1.509-.4,1.107-1.557,2.169s-.167.5.329,2.195.45.212.708,1.252-1.275,1.085-1.532,2.1.354.753.849.164a12.334,12.334,0,0,0,1.744-2.289c.45-.9.544-.379,2.6-1.274s1.181-1.062,1.3-1.747-.116-.615.756-1.085,1.014-1.039,2.076-2.03.1-.447.969-.92.261-.235,1.416-.261.589.379,1.085,1.252,1.2.589,1.323.968-.354.518-1.132.314-.306.629-.827,1.031.026.212.5.541.9-.046,1.937-.895.872-.875.966-.212-.164.8-.329,1.793a5,5,0,0,1-.331,1.274c-.164.543-.5.235-.306.92s.612.5,1.2,1.416.824.589.8,1.345a3.787,3.787,0,0,1-.968,2.243c-.4.283-.612.541-.187.92s.8-.238,1.651.5-.283.943-.425,1.58-.071,1.2-2.265.778-3.044.283-5.805,1.416-2.761,1.345-4.389.708c-.584-.227-.714-.366-.731-.422-.046.057-.246.2-1.04.422-2.053.566-1.274.637-1.77,2.053s-1.133.567-2.478.5-3.186,2.407-4.248,3.964a12.144,12.144,0,0,1-2.832,3.257c-2.265,2.2-2.407.85-3.044,3.044s1.345,4.814-.424,5.168-1.062-.566-1.628-2.69.5-1.557-.779-1.982-.991.354-2.62,1.2-.708-1.274-2.407-.707-2.195,2.265-3.044,5.522-.071,3.753.5,4.531,1.416-.707,2.053-2.124,1.345-.849,2.124-.637.141.708-.5,2.761-.849,1.274-.283,2.478,2.265-.142,2.407,2.053-.779,1.841.07,3.682.637.991,2.053.283,1.2.212,3.115-.7.5-2.345,2.124-1.778-.637,1.77-.284,2.69.991-.92,1.416-1.77.354,0,4.036.5.849-.991,4.318.363,2.124,2.611,4.955,3.885,3.682-.708,5.664,1.7.283,1.982.283,3.186.566.424,2.053.425,3.044,1.062,4.318,1.77,1.911-.212,4.46-.071,1.487.5,4.036,2.265,1.982-.425,2.832.991,1.274,1.557.849,2.832-.637.708-1.487,3.3-1.062,1.093-2.407,2.934.567,2.124-.637,3.54-.849,1.557-2.832,1.911-1.911,0-3.4,1.486-2.195,1.841-2.478,4.036-.212,1.911-2.195,3.823-.212,2.407-1.2,4.885-1.77,1.416-1.982,3.469,1.133-.283,2.266,1.345.071,1.841,2.053,3.257,2.973,2.9,1.132,2.053-3.044,0-5.38-2.761-2.832-1.77-4.956-4.743-2.973-2.265-3.4-5.451-1.982-2.195-2.974-6.371a28.624,28.624,0,0,0-3.327-8.5c-1.062-1.77-1.133-1.062-3.965-2.124s-.991-1.062-3.54-4.389-2.407-2.124-3.611-3.186-.141-.991.283-3.611-.849-1.628.85-3.681,1.132-3.186.354-4.885-.92.212-2.761-.637-2.336-1.982-2.9-3.965-2.62-2.195-3.894-3.611-.849.637-2.619-1.132-.637-3.823-.5-5.239c.136-1.365-.841-1.442-.915-1.444h0c.012-.051.023-.1.034-.156.147-.671.3-1.331.453-1.985l.042-.173a62.036,62.036,0,0,1,60.179-46.991q1.741,0,3.457.093a1.261,1.261,0,0,1,.207.272c.091.266.261.592,1.557,1.359s.521.671.991,1.685.827.521,1.158,1.628-.4.379-.663,1.158.592.306.425,1.178.425.614.5,1.11-.284.5-1.77.827" transform="translate(-120.186 -23.43)" fill="#ffb937"/>
        <path id="Path_881693" data-name="Path 881693" d="M462.2,122.672c0,1.433-.048,2.857-.144,4.265-.5,1.523-1.009,3.246-1.64,4.882-.943,2.455-.943,1.606-2.076,4.154s-1.557,5.57-2.124,7.646-.142.991-1.274,2.832-1.747,1.51-2.784,2.642-.9,1.982-1.416,3.115-.19.331-.991.8-.473.283-1.039,1.462-.66.849-1.747,1.888-2.311,1.464-3.3,2.6-1.229.943-2.786.849-1.793,1.51-2.549.895-.8-.943-.046-1.793.991-1.132,1.274-3.3-.19-.849.142-2.217.093-2.076.377-3.729-.283-1.51-.66-3.115.377-.66,1.226-2.124.425-1.651,1.793-3.019.566-1.039.19-2.549-.093-.9-.235-2.832-1.133-.663-1.8-2.172.331-1.747.424-3.066.8-1.465.283-2.265-2.027,0-3.443-.473-.283-.9-1.133-1.51a2.228,2.228,0,0,0-2.738.518c-.566.66-1.085.566-2.832,1.039s-1.226-.521-2.738-.756-1.557.566-2.735,1.274-1.7-1.274-3.115-2.076-1.132-.473-1.7-1.747-1.841-1.748-3.022-2.926-1.557-.708-1.605-1.7-.518-.991-.566-1.841.849-.521.614-1.371,0-.611.142-1.934-.048-.9-.85-1.934-.19-.946,1.085-2.5a30.727,30.727,0,0,1,3.778-4.01c1.416-1.229.377-.283.66-.849s.518-2.549,1.793-3.305,2.6-1.416,3.07-2.171,1.319-.142,3.257-.046,1.319-.615,2.217-1.323.943-.283,3.729-.141,1.416-.566,3.115-.283.943.518.991,1.841-.238.756.943,1.557,1.039-.048,2.407.473.615.895,1.557,1.037.991.566,1.651.946.9.142.8-.8-.283-1.036.754-1.132,1.371.566,2.738,1.07.943.252,2.03-.031,1.178.425,1.982-.331-.379-2.784-.9-3.823-.19.19-.943-.329-.757.046-1.557.141-1.416-.379-2.266-1.18.187-1.133-.83-2.5-.728-.19-1.294.235-.048.566.85,1.557.235.9-.238,1.368-.283.8-.753-.046-1.512-1.274-2.314-2.265-.093-1.512-1.181-2.265a22.352,22.352,0,0,1-1.982-1.512,5.031,5.031,0,0,0-2.169-1.226c-1.274-.518-1.229-.473-1.132.093s.753.566,2.925,2.124,1.793,1.274,2.549,2.124,0,.9-.331,2.22.283,1.651-1.226,1.085-1.747-.424-1.464-1.18,1.181,0,1.841-.518-.045-.615-1.085-1.7-1.747-.8-3.349-1.889-.708-1.461-1.8-1.651-.612.566-1.7.991-.518-.708-1.6-.425-.1.283-.379,1.747-.753.8-1.509,1.368-.284.9.19,1.464-.142.566-1.127,1.7-1.093.093-2.226.093-1.334,1.025-1.722.391-2.654-.532-2.727-1.132-.529-1.028-.776-1.736.529-.671.634-1.594-.884-1.1-.85-1.484.357-1.24,1.207-1.133a3.57,3.57,0,0,0,2.05,0c1.348-.283,1.982.247,2.727-.178s.283-.92-.179-1.8-.634-.073-1.662-.815-1.594-.283-1.594-.92-.1-.745,1.206-.954,1.059-.32,1.982-1.065.424-.283.708-1.132.351-.918.317-1.379,1.24-.141,1.2-.461a3.438,3.438,0,0,0-.246-1.521c-.32-.637-1.132-.778-.707-1.169s.141-.634,1.175-.176.983,1.062,1.974,2.016,1.45.816,2.3.249a2.909,2.909,0,0,1,2.2-.424c.883.034.917-.176,0-.884s-1.1-.532-1.17-1.982-.529-.816.071-1.7,1.062-.782,0-.64a4.816,4.816,0,0,1-2.549-.034c-1.345-.317-.391-1.025-1.557-1.911s-.566-.708-.849-1.628-.708-1.062-.957-.566.39.637.283,1.733.5.5.957,1.7.957.674,2.016,1.382-.175.249.32,1.274.708,1.025.5,1.77.071.991-1.1.779-.954-1.133-2.158-1.982-.883-1.24-1.382-1.1-.1.708-.671.991-.354.5-1.453-.351-.708-.744-1.521-1.489-.779-1.342-1.1-2.124,1.379-.742,1.167-1.237.425-1.028-.141-1.558-.742-1.945-1.416-2.549-.92-.424-.742-1.062-.745-1.382.492-1.345.5-.246,1.877.354a15.836,15.836,0,0,0,3.01,1.359,6.831,6.831,0,0,1,2.334,1.048c1.206.6.886.957,1.736,1.133s.1-.459-.671-1.45-.957-.991-1.348-1.523a.935.935,0,0,1-.167-.481A62,62,0,0,1,462.2,122.672" transform="translate(-175.803 -28.75)" fill="#ffb937"/>
        <path id="Path_881694" data-name="Path 881694" d="M423.639,87.14a1.3,1.3,0,0,0-1.18.142c-.543.4-.874.5-.52.9s1.038.165,1.038.92.259.472-.566.731.155.874-.619,1.109-.254.614-.443,1.109-.378.991-.142,1.251.637.4,1.534.307,1.3-.118,1.581-.732a1.575,1.575,0,0,0,.165-1.463c-.212-.543-.708-.874-.33-.92s.779.283,1.274.661-.189,0-.236.778.259,1.026.4,1.705-.213.938.354,1.1a4.239,4.239,0,0,0,2.289-.07c.8-.26.66-.437,1.132-1.033s.661-.643.4-1.3-.944-.755-1.393-1.487-.472-.614-1.322-.991-1.2-.142-1.463-.684.189-.449-.213-1.227-1.251-.472-1.746-.8" transform="translate(-178.291 -36.86)" fill="#ffb937"/>
        <path id="Path_881695" data-name="Path 881695" d="M449.874,111.576a1.224,1.224,0,0,1,.619.46c.337.408.036.744.514,1.275s.353.371.743,1.256.389.92-.567,1.221-1.185.071-1.309-.867a3.263,3.263,0,0,0-.442-1.451,2.729,2.729,0,0,1-.283-1.151s.266-1.03.725-.743" transform="translate(-190.167 -47.22)" fill="#b8c13e"/>
        <path id="Path_881696" data-name="Path 881696" d="M486.888,196.918a61.579,61.579,0,0,1-5.457,11.95c-.637-.326-.4-1.515-.238-2.271s.473-1.062,1.676-2.713a7.524,7.524,0,0,0,1.416-2.88c.589-1.439.544-.708.968-1.651s.5-1.77,1.062-2.22a1.135,1.135,0,0,1,.572-.215" transform="translate(-203.658 -83.374)" fill="#b8c13e"/>
        <path id="Path_881697" data-name="Path 881697" d="M402.314,57.4a5.654,5.654,0,0,1,1.7.165c.991.236,1.345.661,2.407.9a19.286,19.286,0,0,1,2.289.9c.9.283.8.849.425,1.322s-.283-.213-1.794-.449-.424.826-2.1-.307-1.157-1.038-2.549-1.463-.92-1.059-.378-1.062" transform="translate(-170.111 -24.298)" fill="#b8c13e"/>
        <circle id="Ellipse_11540" data-name="Ellipse 11540" cx="62.013" cy="62.013" r="62.013" transform="matrix(0.005, -1, 1, 0.005, 162.058, 155.628)" fill="none" stroke="#000" stroke-linecap="round" stroke-linejoin="round" stroke-width="0.75"/>
        <path id="Path_881698" data-name="Path 881698" d="M308.707,63.407a7.776,7.776,0,1,0-12.712,8.051h0l0,0,8.026,7.417a1.107,1.107,0,0,0,1.817-.514l2.952-10.522v0a7.739,7.739,0,0,0-.089-4.43m-6,7.353a5.189,5.189,0,1,1,3.581-6.405,5.19,5.19,0,0,1-3.581,6.405" transform="translate(-124.276 -24.555)" fill="#7d3a1b"/>
        <path id="Path_881699" data-name="Path 881699" d="M482.669,53.65a14.741,14.741,0,1,0-28.394-2.731h0v0a.014.014,0,0,1,0,.007l3.389,20.439a2.1,2.1,0,0,0,3.32,1.343l16.658-12.32a.006.006,0,0,1,.005,0v0a14.67,14.67,0,0,0,5.019-6.736m-17.53,4.034a9.837,9.837,0,1,1,12.811-5.425,9.838,9.838,0,0,1-12.811,5.425" transform="translate(-192.258 -14.322)" fill="#7d3a1b"/>
        <path id="Path_881700" data-name="Path 881700" d="M473.716,146.086a7.6,7.6,0,1,0-12.991,6.9h0l0,0L468,160.817a1.082,1.082,0,0,0,1.81-.366l3.663-10.036,0,0v0a7.568,7.568,0,0,0,.244-4.325m-6.394,6.72a5.072,5.072,0,1,1,3.969-5.977,5.072,5.072,0,0,1-3.969,5.977" transform="translate(-194.219 -59.374)" fill="#7d3a1b"/>
        <path id="Path_881701" data-name="Path 881701" d="M241.814,385.275H92.63a4.333,4.333,0,0,1-4.333-4.333V349.76a4.332,4.332,0,0,1,4.333-4.332H241.814a4.332,4.332,0,0,1,4.333,4.333v31.182a4.333,4.333,0,0,1-4.333,4.333" transform="translate(-37.385 -146.253)" fill="#b03a36"/>
        <line id="Line_3239" data-name="Line 3239" x2="157.849" transform="translate(50.912 210.972)" fill="none" stroke="#000" stroke-miterlimit="10" stroke-width="0.5"/>
        <rect id="Rectangle_403362" data-name="Rectangle 403362" width="4.604" height="39.847" transform="translate(86.095 199.176)"/>
        <rect id="Rectangle_403363" data-name="Rectangle 403363" width="4.604" height="39.847" transform="translate(92.648 199.176)"/>
        <rect id="Rectangle_403364" data-name="Rectangle 403364" width="4.604" height="39.847" transform="translate(162.422 199.176)"/>
        <rect id="Rectangle_403365" data-name="Rectangle 403365" width="4.605" height="39.847" transform="translate(168.974 199.176)"/>
        <path id="Path_881702" data-name="Path 881702" d="M193.714,379.758h-6.749a1.046,1.046,0,0,1-1.045-1.045v-3.025a1.046,1.046,0,0,1,1.045-1.046h6.749a1.046,1.046,0,0,1,1.046,1.046v3.025a1.046,1.046,0,0,1-1.046,1.045" transform="translate(-78.718 -158.622)"/>
        <path id="Path_881703" data-name="Path 881703" d="M256.894,379.758h-6.749a1.046,1.046,0,0,1-1.045-1.045v-3.025a1.046,1.046,0,0,1,1.045-1.046h6.749a1.046,1.046,0,0,1,1.046,1.046v3.025a1.046,1.046,0,0,1-1.046,1.045" transform="translate(-105.468 -158.622)"/>
        <path id="Path_881704" data-name="Path 881704" d="M228.657,391.145H192.228a1.85,1.85,0,0,1-1.85-1.85v-9.814a.4.4,0,0,1,.4-.4h2.893a.4.4,0,0,1,.4.4v7.965h32.73v-7.965a.4.4,0,0,1,.4-.4H230.1a.4.4,0,0,1,.4.4V389.3a1.85,1.85,0,0,1-1.85,1.85" transform="translate(-80.605 -160.5)" fill="#f9b741"/>
        <path id="Path_881705" data-name="Path 881705" d="M138.96,367.4h-1.8a1.046,1.046,0,0,1-1.046-1.046V358.58a1.046,1.046,0,0,1,1.046-1.045h1.8a1.046,1.046,0,0,1,1.046,1.045v7.772a1.046,1.046,0,0,1-1.046,1.046" transform="translate(-57.628 -151.379)" fill="#f9b741"/>
        <path id="Path_881706" data-name="Path 881706" d="M310.334,367.4h-1.8a1.046,1.046,0,0,1-1.046-1.046V358.58a1.046,1.046,0,0,1,1.046-1.045h1.8a1.046,1.046,0,0,1,1.046,1.045v7.772a1.046,1.046,0,0,1-1.046,1.046" transform="translate(-130.188 -151.379)" fill="#f9b741"/>
        <path id="Path_881707" data-name="Path 881707" d="M225.909,379.862H214.558a1.054,1.054,0,0,1-1.054-1.054v-3.8a1.054,1.054,0,0,1,1.054-1.054h11.351a1.054,1.054,0,0,1,1.054,1.054v3.8a1.054,1.054,0,0,1-1.054,1.054" transform="translate(-90.397 -158.333)" fill="#f9b741"/>
        <path id="Path_881708" data-name="Path 881708" d="M225.455,379.358H220.8a.461.461,0,0,1-.461-.461v-1.114a.461.461,0,0,1,.461-.461h4.656a.461.461,0,0,1,.461.461V378.9a.461.461,0,0,1-.461.461" transform="translate(-93.29 -159.756)"/>
        <path id="Path_881709" data-name="Path 881709" d="M234.692,314.22H135.3a5.031,5.031,0,0,1-5.031-5.031V276.75a5.031,5.031,0,0,1,5.031-5.031h99.391a5.032,5.032,0,0,1,5.031,5.031v32.438a5.032,5.032,0,0,1-5.031,5.031" transform="translate(-55.156 -115.045)" fill="#f9b741"/>
        <path id="Path_881710" data-name="Path 881710" d="M133.323,285.006h-3.054V276.75a5.032,5.032,0,0,1,5.031-5.031h8.256v3.054a10.234,10.234,0,0,1-10.234,10.234" transform="translate(-55.155 -115.045)"/>
        <path id="Path_881711" data-name="Path 881711" d="M133.323,322.384h-3.054v8.256a5.032,5.032,0,0,0,5.031,5.031h8.256v-3.054a10.234,10.234,0,0,0-10.234-10.234" transform="translate(-55.155 -136.496)"/>
        <path id="Path_881712" data-name="Path 881712" d="M307.285,322.384h3.054v8.256a5.032,5.032,0,0,1-5.031,5.031h-8.256v-3.054a10.234,10.234,0,0,1,10.234-10.234" transform="translate(-125.77 -136.496)"/>
        <path id="Path_881713" data-name="Path 881713" d="M307.285,285.006h3.054V276.75a5.032,5.032,0,0,0-5.031-5.031h-8.256v3.054a10.234,10.234,0,0,0,10.234,10.234" transform="translate(-125.77 -115.045)"/>
        <line id="Line_3240" data-name="Line 3240" x2="109.454" transform="translate(75.114 177.925)" fill="none" stroke="#000" stroke-miterlimit="10" stroke-width="0.5"/>
        <path id="Path_881714" data-name="Path 881714" d="M201.752,309.821h-3.32a1.083,1.083,0,0,1-1.083-1.083v-7.219a1.083,1.083,0,0,1,1.083-1.083h3.32a1.083,1.083,0,0,1,1.083,1.083v7.219a1.083,1.083,0,0,1-1.083,1.083" transform="translate(-83.556 -127.203)"/>
        <path id="Path_881715" data-name="Path 881715" d="M247.9,309.821h-3.32a1.083,1.083,0,0,1-1.083-1.083v-7.219a1.083,1.083,0,0,1,1.083-1.083h3.32a1.083,1.083,0,0,1,1.083,1.083v7.219a1.083,1.083,0,0,1-1.083,1.083" transform="translate(-103.097 -127.203)"/>
        <path id="Path_881716" data-name="Path 881716" d="M228.69,308.574s1.253,13.578-13.279,13.578-13.279-13.578-13.279-13.578" transform="translate(-85.571 -130.649)" fill="none" stroke="#fff" stroke-linecap="round" stroke-miterlimit="10" stroke-width="2"/>
        <path id="Path_881717" data-name="Path 881717" d="M174.136,308.1s2.391,14.168,15.142,16.116" transform="translate(-73.728 -130.448)" fill="none" stroke="#000" stroke-linecap="round" stroke-miterlimit="10" stroke-width="1"/>
        <path id="Path_881718" data-name="Path 881718" d="M203.461,335.1l-3.23,5.564a1.564,1.564,0,0,1-2.139.568l-8.887-5.159a1.563,1.563,0,0,1-.757-1.09l-.7-4.128a1.565,1.565,0,0,1,1.006-1.733l3.934-1.436a1.566,1.566,0,0,1,1.322.116l8.887,5.159a1.565,1.565,0,0,1,.568,2.139" transform="translate(-79.481 -138.702)"/>
        <path id="Path_881719" data-name="Path 881719" d="M288.447,233.206s-8.979,1.2-14.088.616c-5.916-.671-.427-6.3-.427-6.3l13.882,3.343Z" transform="translate(-115 -96.331)" fill="#ffc6a6"/>
        <path id="Path_881720" data-name="Path 881720" d="M267.876,277.448l6.391,7.345a19.339,19.339,0,0,1,4.607,10.349l5.633,46.94s-5.663,3.234-11.839,2.59c0,0-11.233-23.684-12.285-34.925l-1.146-10.728-9.727-8.21Z" transform="translate(-105.642 -117.47)" fill="#ffc6a6"/>
        <path id="Path_881721" data-name="Path 881721" d="M315.444,228.171s6.164.451,13.225.962c2.482.18,6.315,2.638,7.079,8.058,2.1,14.9,6.415,47.7,6.415,47.7l-11.693,1.3S317.4,262.1,320.152,249.879l-11.579-.442Z" transform="translate(-130.649 -96.607)" fill="#ffc6a6"/>
        <path id="Path_881722" data-name="Path 881722" d="M259.627,225.43l30.22,1.206s.273,19.944-4.23,28.123l-30.095-2.639L243.5,233.095Z" transform="translate(-103.097 -95.446)" fill="#7d3a1b"/>
        <path id="Path_881723" data-name="Path 881723" d="M276.132,265.533l-16.41-1.442-6.308-9.987,3.01-.4h1.9Z" transform="translate(-107.294 -107.416)"/>
        <path id="Path_881724" data-name="Path 881724" d="M203.231,238.181s-5.961,9.2-1.633,19.311l4.582.028,20.279,22.147c6.919,0,21.236-10.254,22.9-16.357l-19.5-23.133Z" transform="translate(-84.689 -100.845)" fill="#7d3a1b"/>
        <path id="Path_881725" data-name="Path 881725" d="M264.744,145.913s4.6.726,6.441,6.394c1.565,4.819,5.76,23.414,5.76,23.414l22.322,8.663-3.2,6.48s-26.7-4.22-28.671-6.1-11.373-23.739-11.373-23.739Z" transform="translate(-108.398 -61.779)" fill="#ffc6a6"/>
        <path id="Path_881726" data-name="Path 881726" d="M197.942,205.885c.11.666,25.646,6.275,38.743-12.5,6.527-1.4,9.919-2.168,9.919-2.168-3.236-2.33-7.644-5.487-7.625-5.67,1.427-13.674,2.339-20.663,3.34-28.941,1.077-8.894-1.111-11.224-3.935-11.662-6.013-.934-22.364.5-22.364.5s-6.973,2.024-13.615,3.935c-3.036,7.411-8.586,31.592-4.464,56.5" transform="translate(-83.186 -61.236)" fill="#db5017"/>
        <path id="Path_881727" data-name="Path 881727" d="M229.774,142.672l-3.976,2.535s1.6,5.131,10.389,4.517c8.5-.594,8.722-6.1,8.722-6.1l-3.064-1.369" transform="translate(-95.602 -60.231)"/>
        <path id="Path_881728" data-name="Path 881728" d="M212.3,169.831s.993,22.993-6.442,25.017c-9.073,2.47-8.595-8.252-8.595-8.252" transform="translate(-83.518 -71.906)"/>
        <path id="Path_881729" data-name="Path 881729" d="M271.678,102.392s1.967,6.844-2.309,7.605l-.955-5.772" transform="translate(-113.645 -43.352)"/>
        <path id="Path_881730" data-name="Path 881730" d="M246.7,117.81a10.242,10.242,0,0,1-2.5-.219c.221,2.669.294,3.189.294,3.189-1.15,4.9-13.166,3.868-14.116.79l3.461-11.8.023.012a10.292,10.292,0,0,1-2.609-4.035c-1-3.3-1.365-8.112,1.16-11.869,4.748-7.067,21.129-9.184,21.33,3.709,0,0,1.814,13.794-3.26,18.7a5.7,5.7,0,0,1-3.78,1.525" transform="translate(-97.539 -37.359)" fill="#ffc6a6"/>
        <path id="Path_881731" data-name="Path 881731" d="M230.265,110.492l1.424-4.544c-2.575-3.191-2.639-6.107-.127-7.3,2.549-1.215,4.508,2.286,4.811,3.99,2.955-1.119,3.783-4.459,3.6-6.419,1.672.566,15.77,1.693,15.284-7.683-.513-9.9-16.784-7.529-18.984-6.708-5.226,1.951-4.748,5.7-4.748,5.7-14.575,2.576-1.369,22.338-1.259,22.963" transform="translate(-95.127 -34.285)"/>
        <path id="Path_881732" data-name="Path 881732" d="M284.26,223.5v3.28H266.212a3.28,3.28,0,0,1,3.28-3.28Z" transform="translate(-112.713 -94.63)"/>
        <path id="Path_881733" data-name="Path 881733" d="M282.356,202.448h44.075a1.231,1.231,0,0,0,1.186-.9l9.451-34.023a1.182,1.182,0,0,0-1.139-1.5H293.378a2.316,2.316,0,0,0-2.232,1.7l-9.418,33.9a.652.652,0,0,0,.628.826" transform="translate(-119.272 -70.294)"/>
        <path id="Path_881734" data-name="Path 881734" d="M286.116,202.448h44.075a1.231,1.231,0,0,0,1.186-.9l9.451-34.023a1.182,1.182,0,0,0-1.139-1.5H297.138a2.316,2.316,0,0,0-2.232,1.7l-9.418,33.9a.652.652,0,0,0,.628.826" transform="translate(-120.864 -70.294)" fill="#727997"/>
        <path id="Path_881735" data-name="Path 881735" d="M170.351,157.9C164.1,174.955,151.3,212.884,151.3,212.884l-8.646,3.614s-8.211,1.465-8.947,2.128.073,2.46,1.545,2.665,8.723-.006,8.723-.006h5.368a37.757,37.757,0,0,0-2.026,5.026c-.374,2.295,4.658,1.229,6.094-2.526l3.131-2.5h3.07a5.574,5.574,0,0,0,1.036-6.294c5.379-10.215,13.494-22.3,13.213-26.287l8.563-16.252c9.643-18.327-7.962-25.787-12.078-14.553" transform="translate(-56.496 -64.61)" fill="#ffc6a6"/>
        <g id="Group_1101758" data-name="Group 1101758" transform="translate(138.973 74.076)" style="mix-blend-mode: multiply;isolation: isolate">
          <g id="Group_1101757" data-name="Group 1101757">
            <g id="Group_1101756" data-name="Group 1101756" clip-path="url(#clip-path-3)">
              <path id="Path_881736" data-name="Path 881736" d="M248.7,134.625s-5.824-1.206-7.683-6.156c0,0-.239,7.95,7.977,9.345Z" transform="translate(-241.02 -128.469)" fill="#ffc6a6"/>
            </g>
          </g>
        </g>
        <path id="Path_881737" data-name="Path 881737" d="M282.179,385.176s-.765-2.828.263-3.49,5.46,2.026,5.46,2.026l6.664-2.116a16.34,16.34,0,0,1,2.632-6.987l7.376,4.552A14.072,14.072,0,0,0,299.7,383.4l5.227,3.425s7.233-.767,10.379,1.175c5.482,3.385,3.312,9.632,3.312,9.632H280.235a17.4,17.4,0,0,1,1.944-12.455" transform="translate(-118.479 -158.608)" fill="#6a4d23"/>
        <path id="Path_881738" data-name="Path 881738" d="M318.332,410.161c.912.657.433,2.52.433,2.52H278.206a2.635,2.635,0,0,1,.951-2.52Z" transform="translate(-117.775 -173.661)"/>
        <path id="Path_881739" data-name="Path 881739" d="M310.862,405.078c4.374-5.732,6.747-8.907,6.747-8.907" transform="translate(-131.618 -167.737)" fill="none" stroke="#000" stroke-linecap="round" stroke-linejoin="round" stroke-width="0.5"/>
        <path id="Path_881740" data-name="Path 881740" d="M286.457,394.18a9.78,9.78,0,0,1,7.453,10.055h-1.465a8.653,8.653,0,0,0-6.264-9.018Z" transform="translate(-121.168 -166.894)"/>
        <path id="Path_881741" data-name="Path 881741" d="M336.6,321.138s-.041-2.93,1.119-3.316,4.788,3.315,4.788,3.315l6.98-.4a16.339,16.339,0,0,1,4.28-6.117l6.019,6.237a14.071,14.071,0,0,0-5.769,2.9l4.216,4.613s7.2,1.048,9.765,3.709c4.473,4.636.823,10.152.823,10.152l-37.19-9.507a17.4,17.4,0,0,1,4.969-11.586" transform="translate(-140.412 -133.209)" fill="#6a4d23"/>
        <path id="Path_881742" data-name="Path 881742" d="M368.91,351.32c.72.862-.2,2.549-.2,2.549L329.41,343.824a2.634,2.634,0,0,1,1.546-2.206Z" transform="translate(-139.471 -144.64)"/>
        <path id="Path_881743" data-name="Path 881743" d="M361.743,345.593c5.657-4.47,8.743-6.958,8.743-6.958" transform="translate(-153.161 -143.377)" fill="none" stroke="#000" stroke-linecap="round" stroke-linejoin="round" stroke-width="0.5"/>
        <path id="Path_881744" data-name="Path 881744" d="M342.229,327.813a9.781,9.781,0,0,1,4.73,11.587l-1.42-.363a8.652,8.652,0,0,0-3.836-10.287Z" transform="translate(-144.676 -138.795)"/>
        <path id="Path_881745" data-name="Path 881745" d="M233.016,108.258s-3.052,1.609-1.388,6.093c1.45,3.909,4.006,5.2,7.114,3.825,2.871-1.27,3.013-4.638,1.932-7.094-1.491-3.39-4.98-4.509-7.658-2.824" transform="translate(-97.86 -45.508)" fill="#db5017"/>
        <path id="Path_881746" data-name="Path 881746" d="M233.643,111.532s-2.114,1.115-.962,4.22c1,2.707,2.775,3.6,4.928,2.649,1.988-.879,2.086-3.212,1.338-4.913C237.914,111.14,235.5,110.365,233.643,111.532Z" transform="translate(-98.371 -46.995)" fill="none" stroke="#000" stroke-linecap="round" stroke-linejoin="round" stroke-width="0.5"/>
        <path id="Path_881747" data-name="Path 881747" d="M231.738,103.1s-3.036-5.492-1.531-9.561a5.137,5.137,0,0,1,3.482-1.195,14.8,14.8,0,0,0,1.089,9.6Z" transform="translate(-97.292 -39.096)" fill="#db5017"/>
        <path id="Path_881748" data-name="Path 881748" d="M242.665,125.836l.3,57.954s-.213,19.874,4.62,19.528c3.853-.276,3.357-13.608,6.163-15.621,2.3-1.652,3.6,6.795,6.727,6.795,3.081,0,3.275-10.5,3.275-10.5" transform="translate(-102.743 -53.278)" fill="none" stroke="#000" stroke-linecap="round" stroke-miterlimit="10" stroke-width="0.5"/>
        <path id="Path_881749" data-name="Path 881749" d="M242.275,127.924h0a.565.565,0,0,1-.564-.564v-2a.564.564,0,1,1,1.129,0v2a.564.564,0,0,1-.564.564" transform="translate(-102.339 -52.836)"/>
        <path id="Path_881751" data-name="Path 881751" d="M101.512,63.1c-6.9-2.043-7.136,3.857-7.136,3.857s-6.942-7.39-12.533-5.922c-6.4,1.68-1.533,10.241-1.533,10.241S66.018,56.337,59.019,61.515c-2.666,1.972-3.283,5.768-.351,9.245-8.718-.482-4.744,8.042-4.744,8.042h71.384s-16.665-13.59-23.8-15.7" transform="translate(-22.449 -25.583)" fill="#fecab2"/>
        <g id="Group_1101764" data-name="Group 1101764" transform="translate(101.918 23.284)" opacity="0.2">
          <g id="Group_1101763" data-name="Group 1101763">
            <g id="Group_1101762" data-name="Group 1101762" clip-path="url(#clip-path-4)">
              <path id="Path_881753" data-name="Path 881753" d="M196.739,44.427a2.823,2.823,0,0,0-3.363,2.073s-5.037-6.8-11.293-6.063c-8.147.959-4.525,10.893-4.525,10.893H205.99s-6.25-6.469-9.252-6.9" transform="translate(-176.755 -40.381)" fill="#fecab2"/>
            </g>
          </g>
        </g>
        <g id="Group_1101767" data-name="Group 1101767" transform="translate(291.308 53.839)" opacity="0.3">
          <g id="Group_1101766" data-name="Group 1101766">
            <g id="Group_1101765" data-name="Group 1101765" clip-path="url(#clip-path-5)">
              <path id="Path_881754" data-name="Path 881754" d="M525.966,96.466a2.989,2.989,0,0,0-3.561,2.2s-5.529-6.018-10.462-5.215c-3.092.5-3.847,4.315-2.445,6.22-6.22-1.51-3.837,4.107-3.837,4.107h30.1s-6.615-6.847-9.792-7.307" transform="translate(-505.214 -93.373)" fill="#fecab2"/>
            </g>
          </g>
        </g>
        <path id="Path_881755" data-name="Path 881755" d="M516.66,139.466a1.252,1.252,0,1,1-1.252-1.252,1.252,1.252,0,0,1,1.252,1.252" transform="translate(-217.692 -58.519)"/>
        <path id="Path_881756" data-name="Path 881756" d="M526.617,139.466a1.252,1.252,0,1,1-1.252-1.252,1.252,1.252,0,0,1,1.252,1.252" transform="translate(-221.907 -58.519)"/>
        <path id="Path_881757" data-name="Path 881757" d="M536.572,139.466a1.252,1.252,0,1,1-1.252-1.252,1.252,1.252,0,0,1,1.252,1.252" transform="translate(-226.122 -58.519)"/>
        <path id="Path_881758" data-name="Path 881758" d="M546.528,139.466a1.252,1.252,0,1,1-1.252-1.252,1.252,1.252,0,0,1,1.252,1.252" transform="translate(-230.338 -58.519)"/>
        <path id="Path_881759" data-name="Path 881759" d="M556.484,139.466a1.252,1.252,0,1,1-1.252-1.252,1.252,1.252,0,0,1,1.252,1.252" transform="translate(-234.553 -58.519)"/>
        <path id="Path_881760" data-name="Path 881760" d="M155.053,121.034a2.28,2.28,0,1,1-2.28-2.279,2.28,2.28,0,0,1,2.28,2.279" transform="translate(-63.718 -50.28)"/>
        <path id="Path_881761" data-name="Path 881761" d="M173.183,121.034a2.28,2.28,0,1,1-2.28-2.279,2.28,2.28,0,0,1,2.28,2.279" transform="translate(-71.394 -50.28)"/>
        <path id="Path_881762" data-name="Path 881762" d="M191.312,121.034a2.28,2.28,0,1,1-2.28-2.279,2.28,2.28,0,0,1,2.28,2.279" transform="translate(-79.07 -50.28)"/>
        <path id="Path_881763" data-name="Path 881763" d="M26.05,261.468a1.3,1.3,0,1,1-1.3-1.3,1.3,1.3,0,0,1,1.3,1.3" transform="translate(-9.927 -110.153)"/>
        <path id="Path_881764" data-name="Path 881764" d="M36.4,261.468a1.3,1.3,0,1,1-1.3-1.3,1.3,1.3,0,0,1,1.3,1.3" transform="translate(-14.31 -110.153)"/>
        <path id="Path_881765" data-name="Path 881765" d="M46.754,261.468a1.3,1.3,0,1,1-1.3-1.3,1.3,1.3,0,0,1,1.3,1.3" transform="translate(-18.693 -110.153)"/>
        <path id="Path_881766" data-name="Path 881766" d="M379.144,379.9a1.3,1.3,0,1,1-1.3-1.3,1.3,1.3,0,0,1,1.3,1.3" transform="translate(-159.426 -160.296)"/>
        <path id="Path_881767" data-name="Path 881767" d="M389.5,379.9a1.3,1.3,0,1,1-1.3-1.3,1.3,1.3,0,0,1,1.3,1.3" transform="translate(-163.809 -160.296)"/>
        <path id="Path_881768" data-name="Path 881768" d="M399.849,379.9a1.3,1.3,0,1,1-1.3-1.3,1.3,1.3,0,0,1,1.3,1.3" transform="translate(-168.192 -160.296)"/>
        <circle id="Ellipse_11541" data-name="Ellipse 11541" cx="3.115" cy="3.115" r="3.115" transform="translate(6.748 181.598)" fill="none" stroke="#372ee2" stroke-miterlimit="10" stroke-width="0.5"/>
        <path id="Path_881769" data-name="Path 881769" d="M580.754,167.037a1.675,1.675,0,1,1,1.675,1.675A1.675,1.675,0,0,1,580.754,167.037Z" transform="translate(-245.889 -70.014)" fill="none" stroke="#372ee2" stroke-miterlimit="10" stroke-width="0.5"/>
        <path id="Path_881770" data-name="Path 881770" d="M414.554,39.03a3.774,3.774,0,1,1,3.773,3.773A3.773,3.773,0,0,1,414.554,39.03Z" transform="translate(-175.521 -14.928)" fill="none" stroke="#372ee2" stroke-miterlimit="10" stroke-width="0.5"/>
        <circle id="Ellipse_11542" data-name="Ellipse 11542" cx="2.64" cy="2.64" r="2.64" transform="translate(28.36 93.054) rotate(-73.155)" fill="none" stroke="#372ee2" stroke-miterlimit="10" stroke-width="0.5"/>
        <path id="Path_881771" data-name="Path 881771" d="M375.065,285.35a1.062,1.062,0,1,1,1.062,1.062A1.061,1.061,0,0,1,375.065,285.35Z" transform="translate(-158.801 -120.366)" fill="none" stroke="#372ee2" stroke-miterlimit="10" stroke-width="0.5"/>
        <path id="Path_881772" data-name="Path 881772" d="M373.082,369.611a1.511,1.511,0,1,1,1.511,1.511A1.511,1.511,0,0,1,373.082,369.611Z" transform="translate(-157.961 -155.852)" fill="none" stroke="#372ee2" stroke-miterlimit="10" stroke-width="0.5"/>
        <path id="Path_881773" data-name="Path 881773" d="M94.344,217.719a1.511,1.511,0,1,1,1.511,1.511A1.511,1.511,0,0,1,94.344,217.719Z" transform="translate(-39.945 -91.542)" fill="none" stroke="#372ee2" stroke-miterlimit="10" stroke-width="0.5"/>
        <path id="Path_881774" data-name="Path 881774" d="M595.244,129.628a3.478,3.478,0,1,1,3.479,3.479A3.478,3.478,0,0,1,595.244,129.628Z" transform="translate(-252.024 -53.411)" fill="none" stroke="#372ee2" stroke-miterlimit="10" stroke-width="0.5"/>
        <path id="Path_881775" data-name="Path 881775" d="M196.074,72.389a3.478,3.478,0,1,1,3.478,3.479A3.478,3.478,0,0,1,196.074,72.389Z" transform="translate(-83.017 -29.177)" fill="none" stroke="#372ee2" stroke-miterlimit="10" stroke-width="0.5"/>
        <g id="Group_1101770" data-name="Group 1101770" transform="translate(142.465)" opacity="0.5">
          <g id="Group_1101769" data-name="Group 1101769">
            <g id="Group_1101768" data-name="Group 1101768" clip-path="url(#clip-path-6)">
              <path id="Path_881776" data-name="Path 881776" d="M324.5,6.722a10.509,10.509,0,0,0-6.86-3.244C315.4,3.37,302.331,6.3,290.293,9.106a53.668,53.668,0,0,1-7.75-6.282A9.364,9.364,0,0,0,273.45.312l-1.744.464a.709.709,0,0,0-.431,1.044c.292.5.72,1.212,1.253,2.06-.289.071-.515.13-.605.161a1.311,1.311,0,0,0-.908,1.614,1.455,1.455,0,0,0,1.333,1.205,7.84,7.84,0,0,0,2.012-.194c1.13,1.646,2.474,3.476,3.962,5.248-5.419,1.276-9.222,2.164-9.38,2.123-.255-.067-4.169-2.049-8.064-4.033-2.547-1.3-5.087-2.6-6.588-3.362a6.593,6.593,0,0,0-3.629-.67c-1.576.168-3.345.54-3.561.855a.114.114,0,0,0-.024.062.214.214,0,0,0,.029.075h0a2.924,2.924,0,0,0,.256.365h0c1.617,2.078,9.66,10.655,10.356,13.533.385,1.612-4.66,2.184-5.263,2.463a.962.962,0,0,0-.543.7,6.859,6.859,0,0,0-.077,2.715c.327.928,5.4,2.291,10.947,2.011s47.964-7.682,56.38-9.753,11.165-3.448,11.963-5.784c.728-2.13-1.071-5.885-6.626-6.5" transform="translate(-247.076 0)" fill="#7a4f00"/>
            </g>
          </g>
        </g>
        <path id="Path_881781" data-name="Path 881781" d="M129.826,179.467a6.434,6.434,0,0,0-.216-1.653l3.145-1.425-1.986-3.441-2.8,2.005a6.411,6.411,0,0,0-2.935-1.7l.337-3.425H121.4l.338,3.437a6.409,6.409,0,0,0-2.863,1.654l-2.808-2.012-1.987,3.441,3.137,1.421a6.425,6.425,0,0,0-.012,3.348l-3.146,1.426,1.986,3.441,2.8-2.005a6.412,6.412,0,0,0,2.935,1.7l-.337,3.426h3.973l-.338-3.437a6.413,6.413,0,0,0,2.864-1.654l2.808,2.012,1.986-3.441-3.136-1.421a6.424,6.424,0,0,0,.228-1.7m-6.42,3.7a3.7,3.7,0,1,1,3.7-3.7,3.7,3.7,0,0,1-3.7,3.7" transform="translate(-48.291 -71.906)" fill="#7d3a1b"/>
        <g id="Group_1101773" data-name="Group 1101773" transform="translate(244.748 208.192)" opacity="0.5">
          <g id="Group_1101772" data-name="Group 1101772">
            <g id="Group_1101771" data-name="Group 1101771" clip-path="url(#clip-path-7)">
              <path id="Path_881782" data-name="Path 881782" d="M440.235,370.7a6.431,6.431,0,0,0-.216-1.653l3.145-1.425-1.987-3.441-2.8,2.005a6.411,6.411,0,0,0-2.935-1.7l.337-3.425h-3.973l.338,3.437a6.41,6.41,0,0,0-2.863,1.654l-2.808-2.012-1.987,3.441,3.137,1.421a6.424,6.424,0,0,0-.012,3.348l-3.147,1.426,1.987,3.441,2.8-2.005a6.412,6.412,0,0,0,2.935,1.7l-.337,3.426h3.973l-.338-3.437a6.413,6.413,0,0,0,2.864-1.654l2.808,2.012,1.986-3.441-3.136-1.421a6.423,6.423,0,0,0,.228-1.7m-6.42,3.7a3.7,3.7,0,1,1,3.7-3.7,3.7,3.7,0,0,1-3.7,3.7" transform="translate(-424.465 -361.066)" fill="#5982fb"/>
            </g>
          </g>
        </g>
        <line id="Line_3241" data-name="Line 3241" x1="333.007" transform="translate(0 239.023)" fill="#fff"/>
        <line id="Line_3242" data-name="Line 3242" x1="333.007" transform="translate(0 239.023)" fill="none" stroke="#000" stroke-miterlimit="10" stroke-width="1"/>
        <line id="Line_3243" data-name="Line 3243" x1="180.045" transform="translate(107.472 246.666)" fill="#fff"/>
        <line id="Line_3244" data-name="Line 3244" x1="180.045" transform="translate(107.472 246.666)" fill="none" stroke="#000" stroke-miterlimit="10" stroke-width="1"/>
        <path id="Path_881784" data-name="Path 881784" d="M485.926,385.933a26.863,26.863,0,0,1,7.066-17.114c-7.25.92-12.256,13.029-12.256,13.029a30.455,30.455,0,0,1,3.975-18.984c-7.251,3.416-10.048,12.617-10.6,21.413a17.8,17.8,0,0,0-13.581-10.142c7.84,4.216,11.03,18.522,11.03,18.522h17.567c2.834-13.57,15.237-18.522,15.237-18.522-11.41-1.083-18.439,11.8-18.439,11.8" transform="translate(-194.987 -153.635)" fill="#fff"/>
      </g>
    </g>
  </g>
</svg>
