<svg xmlns="http://www.w3.org/2000/svg" xmlns:xlink="http://www.w3.org/1999/xlink" width="190" height="134" viewBox="0 0 190 134">
  <defs>
    <clipPath id="clip-path">
      <rect id="Rectangle_403310" data-name="Rectangle 403310" width="87.961" height="87.746" fill="#7d3a1b"/>
    </clipPath>
  </defs>
  <g id="Group_1101619" data-name="Group 1101619" transform="translate(-330 -7019)">
    <rect id="Rectangle_402215" data-name="Rectangle 402215" width="190" height="134" transform="translate(330 7019)" fill="none"/>
    <g id="Group_1100287" data-name="Group 1100287" transform="translate(16 -507)">
      <g id="Grupo_156312" data-name="Grupo 156312" transform="translate(344 7528)">
        <path id="Elipse_5845" data-name="Elipse 5845" d="M65.5,0A65.5,65.5,0,1,1,0,65.5,65.5,65.5,0,0,1,65.5,0Z" transform="translate(0 0)" fill="#ffce73"/>
      </g>
      <g id="Group_1101621" data-name="Group 1101621" transform="translate(366 7550)">
        <g id="Group_1101620" data-name="Group 1101620" transform="translate(0 0)" clip-path="url(#clip-path)">
          <path id="Path_881229" data-name="Path 881229" d="M58.348,58.37c1.177.726,2.218,1.379,3.272,2.01a.557.557,0,0,0,.435-.025A22.85,22.85,0,0,1,68.468,58.6a24.423,24.423,0,0,1,8.211.3,25.957,25.957,0,0,1,8.407,3.373A5.472,5.472,0,0,1,87.954,66.8a5.777,5.777,0,0,1-2.9,5.358,5.4,5.4,0,0,1-5.582.17,24.012,24.012,0,0,0-5.661-2.064c-.956-.2-1.934-.3-2.9-.442a1.232,1.232,0,0,0-.2.019c.066.126.117.224.174.322a29.993,29.993,0,0,1,3.97,10.922c.24,1.587.312,3.2.432,4.809a1.617,1.617,0,0,1-.846,1.578A1.671,1.671,0,0,1,71.9,86.118c-.063-.94-.057-1.887-.151-2.824a27.411,27.411,0,0,0-12.31-20.376c-.192-.126-.391-.24-.641-.391-.009.189-.022.316-.022.439,0,3.408,0,6.816.009,10.224a.665.665,0,0,0,.2.486,10.444,10.444,0,0,1,4.727,7.249,33,33,0,0,1,.2,3.919c.016.338-.006.682-.016,1.022a1.8,1.8,0,0,1-1.878,1.881h-35.9a1.84,1.84,0,0,1-1.609-.66,1.886,1.886,0,0,1-.394-.994,38.477,38.477,0,0,1,.063-4.557,10.359,10.359,0,0,1,4.708-7.76.62.62,0,0,0,.325-.59q-.014-5.112-.006-10.224v-.473c-.546.363-1.029.666-1.493,1A27.164,27.164,0,0,0,17.151,78.428a28.134,28.134,0,0,0-1.07,7.6,1.675,1.675,0,0,1-3.307.376,7.529,7.529,0,0,1-.05-1.644,31.23,31.23,0,0,1,4.2-14.286c.11-.189.211-.388.385-.71-.694.085-1.294.133-1.887.234a24.942,24.942,0,0,0-6.892,2.319A5.854,5.854,0,0,1,.006,67.206a5.129,5.129,0,0,1,2.2-4.437,21,21,0,0,1,5.163-2.708A24.618,24.618,0,0,1,19.41,58.588a23.327,23.327,0,0,1,6.532,1.773.509.509,0,0,0,.394.022c1.054-.628,2.1-1.278,3.175-1.941-.158-.126-.3-.249-.458-.363a31.931,31.931,0,0,0-10.786-5.125,34.526,34.526,0,0,0-8.394-1.073A7.124,7.124,0,0,1,2.72,45.877a7.008,7.008,0,0,1,2.436-7.015,6.343,6.343,0,0,1,3.588-1.452c1.145-.107,2.294-.278,3.443-.29a28.919,28.919,0,0,1,3.212.224,31.886,31.886,0,0,1,8.76,2.048c1.672.672,3.276,1.512,4.91,2.275.032.016.069.019.126.038v-6.1c-1.171,0-2.326.095-3.465-.019a15.93,15.93,0,0,1-9.615-4.266,1.618,1.618,0,0,1,.025-2.553,16.365,16.365,0,0,1,6.226-3.55A17.625,17.625,0,0,1,27,24.441c.076,0,.151-.013.3-.025-.095-.145-.151-.256-.227-.35a18.111,18.111,0,0,1-4.115-9.192,20.073,20.073,0,0,1-.18-2.821,1.81,1.81,0,0,1,2.045-2,19.115,19.115,0,0,1,11.78,4.14c.054.041.107.076.161.114l.088-.009c.013-.177.041-.366.044-.552A18.743,18.743,0,0,1,42.715.584,1.7,1.7,0,0,1,45.35.666a19.429,19.429,0,0,1,3.708,5.043,19.168,19.168,0,0,1,2.07,8.388c0,.063.009.126.019.23.1-.063.18-.1.246-.155a18.631,18.631,0,0,1,8.243-3.755,26.129,26.129,0,0,1,3.509-.357,1.815,1.815,0,0,1,2.07,2.016A18.03,18.03,0,0,1,62.5,21.857c-.533.865-1.158,1.672-1.764,2.54.328.035.694.085,1.063.114a16.5,16.5,0,0,1,9.8,4.049,1.087,1.087,0,0,1,.088.082,1.719,1.719,0,0,1-.016,2.881,16,16,0,0,1-6.456,3.522,16.169,16.169,0,0,1-5.828.59c-.183-.016-.366-.025-.584-.038v6.09c1.12-.546,2.228-1.133,3.373-1.635A32.2,32.2,0,0,1,72.349,37.4c.808-.073,1.616-.218,2.424-.224,1.215-.006,2.43.063,3.642.136A8.13,8.13,0,0,1,81.422,38a6.533,6.533,0,0,1,3.809,4.926,7.29,7.29,0,0,1-2.758,7.533,6.9,6.9,0,0,1-4.522,1.42,1.7,1.7,0,0,1-1.72-1.483,1.671,1.671,0,0,1,1.139-1.767,3.445,3.445,0,0,1,1.07-.2A3.51,3.51,0,0,0,81.759,46a4.418,4.418,0,0,0,.1-2.739,3.432,3.432,0,0,0-3.225-2.543,29.2,29.2,0,0,0-6.078.038,29.985,29.985,0,0,0-13.916,5.033A4.972,4.972,0,0,0,56.9,47.641a14.263,14.263,0,0,1-6,5.936.478.478,0,0,0-.309.511c.019.417.016.839,0,1.256a.34.34,0,0,0,.3.41c1.281.36,2.556.751,3.844,1.1a.673.673,0,0,0,.5-.167A36.544,36.544,0,0,1,61.753,52.4a3.173,3.173,0,0,1,.991-.347,1.645,1.645,0,0,1,1.761,1.1,1.581,1.581,0,0,1-.625,1.9c-.319.224-.682.388-1.019.59-1.486.9-2.969,1.8-4.513,2.73M32.667,72.126A10.935,10.935,0,0,1,44,76.856a10.9,10.9,0,0,1,11.313-4.721V71.7c0-3.537-.006-7.075.009-10.616a.5.5,0,0,0-.391-.559,29.033,29.033,0,0,0-6.1-1.729,1.819,1.819,0,0,1-1.691-2.039c0-.571,0-1.142,0-1.758a17.216,17.216,0,0,1-6.292.009c0,.7.006,1.338,0,1.979a1.705,1.705,0,0,1-1.2,1.663,4.241,4.241,0,0,1-.757.2,28.331,28.331,0,0,0-5.869,1.695.476.476,0,0,0-.357.54q.014,5.33.006,10.657Zm0-32.039c0,.17,0,.341,0,.511A10.73,10.73,0,0,0,36.8,49.374a11.067,11.067,0,0,0,8.984,2.4,11.409,11.409,0,0,0,9.322-8.76,25.6,25.6,0,0,0,.189-4.74c0-.092-.126-.215-.224-.275a7.725,7.725,0,0,0-9.6,1.193c-1.057,1.086-1.906,1.086-2.979-.006l-.057-.054A7.753,7.753,0,0,0,32.9,38a.568.568,0,0,0-.224.394c-.025.562-.009,1.127-.009,1.691m-20.42.432c-.978.069-1.96.123-2.938.211A3.314,3.314,0,0,0,6.4,42.576a4.15,4.15,0,0,0,.5,4.61,3.12,3.12,0,0,0,2.521,1.237,42.455,42.455,0,0,1,7.069.675,34.609,34.609,0,0,1,12.121,4.67c1.442.9,2.774,1.969,4.162,2.951a.68.68,0,0,0,.48.151c1.281-.357,2.556-.748,3.84-1.114a.348.348,0,0,0,.3-.413q-.024-.648,0-1.3a.427.427,0,0,0-.278-.448,14.735,14.735,0,0,1-6.226-6.3,3.088,3.088,0,0,0-.994-1.127,30.852,30.852,0,0,0-17.643-5.655m43.065-6.191c0-1.275.006-2.49-.009-3.708a.444.444,0,0,0-.234-.293c-.839-.429-1.685-.843-2.528-1.259q-4.085-2.007-8.176-4a.854.854,0,0,0-.65-.047Q38.3,27.649,32.9,30.323a.521.521,0,0,0-.227.379c-.025.533-.009,1.073-.009,1.609v2.013a11.19,11.19,0,0,1,11.319,1.644,11.222,11.222,0,0,1,11.326-1.641M42.244,84.263a17.538,17.538,0,0,0-.016-2.547A7.363,7.363,0,0,0,31.6,76.083c-3.121,1.505-4.468,4.513-4.087,8.179Zm3.493-.013H60.494a12.508,12.508,0,0,0-.234-3.424,7.445,7.445,0,0,0-11.979-3.774,7.815,7.815,0,0,0-2.543,7.2M44,4.153a14.954,14.954,0,0,0-3.755,10.133A14.734,14.734,0,0,0,42.33,21.9c1.953-.871,1.682-.707,3.272,0A15.256,15.256,0,0,0,44,4.153M64.883,62.864c.082.1.12.151.161.2.928.956,1.871,1.906,2.78,2.881a1.053,1.053,0,0,0,.88.391,23.625,23.625,0,0,1,8.88,1.534c1.152.417,2.247.991,3.383,1.455a2.413,2.413,0,0,0,2.66-.268,2.508,2.508,0,0,0,.865-2.506,2.337,2.337,0,0,0-1.3-1.5,21.149,21.149,0,0,0-9.246-3.115,22.737,22.737,0,0,0-7.261.429c-.59.142-1.171.325-1.8.5m-41.844.006a1.815,1.815,0,0,0-.24-.1,22.3,22.3,0,0,0-4.415-.861A22.006,22.006,0,0,0,8.11,63.382a18.331,18.331,0,0,0-3.84,2.032,1.908,1.908,0,0,0-.855,1.518,2.5,2.5,0,0,0,3.607,2.389c.653-.3,1.291-.637,1.953-.909A26.124,26.124,0,0,1,19.4,66.294a.781.781,0,0,0,.533-.151c1.041-1.07,2.057-2.158,3.108-3.272M61.781,13.522c-.221.028-.347.05-.477.063a14.549,14.549,0,0,0-8.482,3.8,14.847,14.847,0,0,0-3.863,5.567c-.2.5-.205.5.275.738,1.291.641,2.584,1.269,3.866,1.922a.712.712,0,0,0,.761-.022A14.989,14.989,0,0,0,61.51,15.444c.136-.619.18-1.256.271-1.922m-35.548.032c.032.407.032.789.095,1.161a14.838,14.838,0,0,0,3.727,7.7,15.454,15.454,0,0,0,4.178,3.225.672.672,0,0,0,.53,0c1.136-.533,2.259-1.1,3.386-1.65.36-.177.713-.363,1.063-.543a14.971,14.971,0,0,0-12.979-9.9M58.774,32.179c2.862.5,7.52-.568,9.243-2.117a13.948,13.948,0,0,0-9.9-2.032,2.77,2.77,0,0,1,.656,2.177c-.022.65,0,1.3,0,1.972m-29.568.009c0-.843.006-1.663,0-2.483a2.27,2.27,0,0,1,.442-1.4c.054-.076.095-.167.148-.259-3.143-.631-8.763.577-9.811,2.076a13.894,13.894,0,0,0,9.224,2.064" transform="translate(0 -0.002)" fill="#7d3a1b"/>
          <path id="Path_881230" data-name="Path 881230" d="M21.712,17.329a1.69,1.69,0,1,1,3.38.05,1.69,1.69,0,1,1-3.38-.05" transform="translate(46.803 33.763)" fill="#7d3a1b"/>
        </g>
      </g>
    </g>
  </g>
</svg>
