<svg xmlns="http://www.w3.org/2000/svg" xmlns:xlink="http://www.w3.org/1999/xlink" width="190" height="134" viewBox="0 0 190 134">
  <defs>
    <clipPath id="clip-path">
      <rect id="Rectangle_403312" data-name="Rectangle 403312" width="87.608" height="87.213" fill="#7d3a1b"/>
    </clipPath>
  </defs>
  <g id="Group_1101622" data-name="Group 1101622" transform="translate(-330 -7019)">
    <rect id="Rectangle_402215" data-name="Rectangle 402215" width="190" height="134" transform="translate(330 7019)" fill="none"/>
    <g id="Group_1100287" data-name="Group 1100287" transform="translate(16 -507)">
      <g id="Grupo_156312" data-name="Grupo 156312" transform="translate(344 7528)">
        <path id="Elipse_5845" data-name="Elipse 5845" d="M65.5,0A65.5,65.5,0,1,1,0,65.5,65.5,65.5,0,0,1,65.5,0Z" transform="translate(0 0)" fill="#ffce73"/>
      </g>
      <g id="Group_1101624" data-name="Group 1101624" transform="translate(365.398 7549.415)">
        <g id="Group_1101623" data-name="Group 1101623" transform="translate(0 0)" clip-path="url(#clip-path)">
          <path id="Path_881231" data-name="Path 881231" d="M32.437,70.236h-.942c-8.162,0-16.324-.045-24.485.013a7.091,7.091,0,0,1-6.67-5.11,9.248,9.248,0,0,1-.324-2.382Q-.013,42.048.006,21.346a7.169,7.169,0,0,1,5.935-7.159,8.438,8.438,0,0,1,1.485-.117q9.034-.01,18.071,0h.508a18.291,18.291,0,0,1,35.592,0H80.239A7.169,7.169,0,0,1,87.6,21.395c.016,4.113,0,8.227,0,12.34q0,14.655,0,29.314a7,7,0,0,1-1.841,4.861A6.692,6.692,0,0,1,80.6,70.236q-12.447-.024-24.89-.01a5.694,5.694,0,0,0-.576.058A7.948,7.948,0,0,0,56.8,74.437c.074.1.155.184.23.282a3.038,3.038,0,0,0,2.825,1.314c1.764-.126,3.547-.042,5.32-.023a4.049,4.049,0,0,1,3.754,2.748,9.3,9.3,0,0,1,.078,5.366A4.3,4.3,0,0,1,64.6,87.21c-2.515.01-5.029,0-7.544,0q-16.743,0-33.482,0a5.95,5.95,0,0,1-2.676-.44A4.13,4.13,0,0,1,18.511,83.8a10.348,10.348,0,0,1,.1-4.864,4.28,4.28,0,0,1,3.858-2.955c2.055.074,4.116.016,6.172.036a1.326,1.326,0,0,0,.916-.324,7.764,7.764,0,0,0,2.877-5.142c.01-.087,0-.181,0-.314m33.01-11.181H64.34q-27.636,0-55.268,0c-.227,0-.456,0-.683-.026A2.824,2.824,0,0,1,5.722,56.1V22.508A2.668,2.668,0,0,1,7.5,19.893a4.2,4.2,0,0,1,1.417-.236c5.269-.016,10.54-.01,15.812-.01h.722V16.909c-.1-.01-.191-.026-.282-.026-6.159,0-12.317,0-18.476.016a3.274,3.274,0,0,0-1.282.3A4.177,4.177,0,0,0,2.819,21.33V63.388A4.215,4.215,0,0,0,6.56,67.472a21.349,21.349,0,0,0,2.136.036q19.908,0,39.815,0,8.9,0,17.79.019c.573,0,.579,0,.485-.56-.3-1.773-.589-3.547-.887-5.32-.146-.867-.3-1.735-.453-2.6m5.146-11.722V32.511a1.462,1.462,0,0,0-1.66-1.65c-.524,0-1.049.026-1.573.026q-23.738,0-47.476,0a14.785,14.785,0,0,0-1.608.045,1.357,1.357,0,0,0-1.256,1.421c0,.443,0,.887,0,1.33V49.168a1.283,1.283,0,0,0,1.291,1.392c.294.023.592.026.887.026q22.126,0,44.252,0h.605c-.191-1.026-.359-1.974-.553-2.916a.766.766,0,0,0-.272-.4,3.2,3.2,0,0,1-1.262-2.084c-.288-1.731-.566-3.466-.874-5.2a2.246,2.246,0,0,0-.33-.618,2.157,2.157,0,0,0-.346.612c-.307,1.715-.6,3.437-.871,5.159a2.915,2.915,0,0,1-4.21,2.311,2.779,2.779,0,0,1-1.6-2.605q-.01-5.422,0-10.845a1.071,1.071,0,0,1,.039-.227h2.709v1.592q0,4.5,0,8.99a5.931,5.931,0,0,0,.084.712l.129,0a2.13,2.13,0,0,0,.091-.288c.3-1.773.608-3.544.887-5.324a3.083,3.083,0,0,1,6.146-.045c.262,1.751.566,3.5.861,5.246a2.4,2.4,0,0,0,.133.379l.168-.01c.032-.343.087-.686.087-1.029q-.015-4.937-.042-9.877c0-.117.016-.23.026-.343H67.77v.466c0,3.159.013,6.317.013,9.476a4.063,4.063,0,0,1-.709,3.01c1.23.21,2.346.4,3.518.605m-6.068,6.094H63.87q-22.548,0-45.094-.01a5.842,5.842,0,0,1-1.589-.214,4.363,4.363,0,0,1-3.071-4.434q-.015-8.044,0-16.087A4.452,4.452,0,0,1,18.7,28.1c3,.071,6,.029,8.994.032.217,0,.434-.029.705-.045A18.238,18.238,0,0,1,26,22.476H8.54v33.79H65.006c-.162-.958-.32-1.877-.482-2.838M43.8,78.731v.013H28.353c-1.9,0-3.793-.01-5.686.01a1.383,1.383,0,0,0-1.45,1.489q0,1.228,0,2.46c0,1.178.511,1.693,1.7,1.693q20.976,0,41.955,0a1.39,1.39,0,0,0,1.531-1.524c.006-.793,0-1.586,0-2.379-.006-1.223-.557-1.764-1.773-1.764H43.8m18.33-61.848c0,.88-.006,1.7.013,2.515,0,.081.129.21.22.236a1.992,1.992,0,0,0,.482.013q8,0,16.013,0a2.86,2.86,0,0,1,3.029,3.039V48.611c0,.612,0,.608.612.706l2.269.369c-1.731,1.725-3.414,3.395-5.12,5.091.2.227.362.421.54.6,1.11,1.117,2.217,2.233,3.343,3.33.272.265.288.427,0,.709q-3.092,3.034-6.155,6.1c-.359.359-.7.738-1.052,1.117-.159-.142-.249-.22-.333-.3-1.22-1.214-2.443-2.424-3.654-3.644-.2-.2-.324-.252-.55-.026-1.537,1.544-3.091,3.071-4.634,4.605a2.159,2.159,0,0,0-.172.239c.12.013.184.023.246.023q6.616,0,13.23,0a4.677,4.677,0,0,0,1-.107,4.245,4.245,0,0,0,3.333-4.282q0-6.913,0-13.825,0-14.073,0-28.142a4.28,4.28,0,0,0-4.314-4.307c-5.942.065-11.887.026-17.828.026h-.515M59.259,28.133h.676q4.558,0,9.113-.016a4.326,4.326,0,0,1,2.605.825,4.5,4.5,0,0,1,1.838,3.88c.013,4.838.006,9.676.006,14.511v.482c1.88.256,3.689.706,5.54.871v-26.2H61.683c-.353,1-.644,1.961-1.039,2.88s-.89,1.79-1.385,2.767M54.508,75.993c-.285-.447-.537-.822-.767-1.21a10.955,10.955,0,0,1-1.366-4.22c-.036-.249-.12-.34-.382-.337-1.087.013-2.178,0-3.265,0q-6.311,0-12.618,0c-.816,0-.835,0-.948.806a10.563,10.563,0,0,1-1.9,4.693,1.4,1.4,0,0,0-.117.265ZM66.66,49.479c.693,4.126,1.369,8.162,2.058,12.262.2-.165.362-.282.5-.417.683-.667,1.359-1.34,2.039-2.013.906-.9.686-.871,1.576.006q1.553,1.524,3.094,3.065c.282.282.476.3.777-.013q1.447-1.515,2.964-2.964c.278-.265.278-.4.013-.663-1.23-1.2-2.44-2.427-3.657-3.641-.149-.149-.3-.256-.061-.482.948-.916,1.877-1.851,2.809-2.78a2.134,2.134,0,0,0,.2-.311L66.66,49.479m-28.5-29.822c0,.162,0,.269,0,.372a34.61,34.61,0,0,0,1.23,7.7.494.494,0,0,0,.573.414c2.566-.006,5.133-.01,7.7.006.343,0,.463-.139.547-.437a35.509,35.509,0,0,0,1.233-7.615c.023-.359-.074-.456-.437-.453-3.184.016-6.372.013-9.557.016H38.162M43.806,16.9v.01c1.786,0,3.573-.006,5.359.006.249,0,.307-.084.291-.3-.032-.43-.032-.861-.087-1.285-.165-1.278-.356-2.55-.528-3.825-.039-.265-.165-.343-.43-.343-3.023.006-6.045.013-9.071-.01-.388,0-.566.113-.608.485q-.282,2.481-.573,4.955c-.036.311.142.311.366.311,1.761-.006,3.521,0,5.282,0M36.641,28.084a36.672,36.672,0,0,1-1.259-8.4H28.311c.026.217.052.388.071.56a15.033,15.033,0,0,0,3.291,7.667.7.7,0,0,0,.476.23c1.343.01,2.686,0,4.032-.013.142,0,.288-.023.46-.039m15.592-8.4a37.115,37.115,0,0,1-1.256,8.395,1.06,1.06,0,0,0,.184.045c1.437.01,2.874.026,4.311.013a.748.748,0,0,0,.5-.259,15.054,15.054,0,0,0,2.9-5.78c.194-.79.314-1.6.472-2.414Zm-.544-8.5c.207,1.919.411,3.8.618,5.7h6.968a2.35,2.35,0,0,0,0-.307A15.532,15.532,0,0,0,57.8,11.511a.523.523,0,0,0-.544-.35c-1.718.013-3.437,0-5.155,0-.129,0-.259.013-.408.019M35.3,16.88c.207-1.926.411-3.8.612-5.654a.452.452,0,0,0-.113-.049c-1.841,0-3.683-.013-5.524.006a.6.6,0,0,0-.437.317c-.395,1.01-.8,2.019-1.113,3.055a23.253,23.253,0,0,0-.456,2.324ZM48,8.4a.726.726,0,0,0,0-.207A12.283,12.283,0,0,0,45.709,3.8a2.277,2.277,0,0,0-3.764-.042c-.081.087-.162.181-.236.272A12.471,12.471,0,0,0,39.77,7.718c-.074.207-.142.421-.233.683ZM38.537,3.77c-2,.456-6.052,3.3-6.628,4.608.023.013.045.036.068.036,1.476.013,2.955.029,4.43.019.1,0,.246-.165.3-.282.56-1.317,1.1-2.641,1.654-3.961.049-.117.1-.233.178-.421m10.647.013c.55,1.388,1.139,2.8,1.657,4.227.126.35.256.447.6.44,1.275-.023,2.55-.013,3.825-.019.126,0,.256-.016.395-.026-.647-1.417-4.913-4.411-6.479-4.621" transform="translate(0 0.001)" fill="#7d3a1b"/>
          <rect id="Rectangle_403311" data-name="Rectangle 403311" width="2.861" height="2.854" transform="translate(14.129 61.841)" fill="#7d3a1b"/>
          <path id="Path_881232" data-name="Path 881232" d="M5.382,19.1c0,.939.006,1.819-.013,2.7,0,.071-.172.194-.265.2-.722.016-1.447.019-2.172,0a.4.4,0,0,1-.272-.272c-.026-.79-.026-1.579-.006-2.369a.354.354,0,0,1,.252-.243c.8-.016,1.605-.01,2.476-.01" transform="translate(5.903 42.712)" fill="#7d3a1b"/>
          <path id="Path_881233" data-name="Path 881233" d="M8.872,19.1c0,.926.006,1.8-.013,2.663,0,.081-.175.227-.272.23-.725.019-1.447.006-2.172.013-.217,0-.282-.094-.282-.288,0-.79-.01-1.583,0-2.372a.337.337,0,0,1,.22-.236c.816-.016,1.631-.01,2.515-.01" transform="translate(13.71 42.712)" fill="#7d3a1b"/>
          <path id="Path_881234" data-name="Path 881234" d="M11.344,10.43h2.9V21.689l.117.029a2.152,2.152,0,0,0,.142-.4c.291-1.731.589-3.466.871-5.2a3.262,3.262,0,0,1,1.718-2.524,3.006,3.006,0,0,1,4.249,1.877c.362,1.68.605,3.382.9,5.074.068.388.146.773.22,1.162.045-.006.094-.013.146-.016V10.44h2.916c.01.129.016.256.016.385,0,3.427.016,6.854,0,10.285a3.1,3.1,0,0,1-1.916,3.126,2.815,2.815,0,0,1-3.8-1.819c-.356-1.469-.553-2.977-.822-4.469-.1-.553-.207-1.107-.33-1.657-.023-.113-.142-.2-.214-.3-.091.1-.233.2-.252.317-.2,1.052-.388,2.11-.576,3.168-.162.9-.285,1.8-.492,2.689a2.894,2.894,0,0,1-3,2.294,3,3,0,0,1-2.709-2.518,5.473,5.473,0,0,1-.091-1c-.006-3.346,0-6.7,0-10.042Z" transform="translate(25.361 23.325)" fill="#7d3a1b"/>
          <path id="Path_881235" data-name="Path 881235" d="M6.17,10.433h2.7v.472q0,5.039.013,10.081a6.579,6.579,0,0,0,.084.751c.052,0,.107,0,.162,0,.071-.4.149-.8.214-1.2.262-1.55.5-3.1.78-4.647a3.1,3.1,0,0,1,1.126-1.942,2.974,2.974,0,0,1,4.705,1.282,18.159,18.159,0,0,1,.573,2.754c.191,1.068.35,2.146.528,3.217.026.165.084.327.126.489l.12.013a1.158,1.158,0,0,0,.117-.353c.01-.874,0-1.744,0-2.618q0-3.971,0-7.942c0-.107.013-.21.019-.346h2.686a2.316,2.316,0,0,1,.036.3c0,3.589-.016,7.178.01,10.767a2.918,2.918,0,0,1-5.825.265c-.259-1.78-.579-3.55-.89-5.32-.026-.152-.2-.278-.3-.417-.11.136-.285.262-.311.414-.188.987-.34,1.984-.511,2.974-.159.926-.278,1.861-.5,2.773a2.882,2.882,0,0,1-5.5.414,2.681,2.681,0,0,1-.2-.977c-.016-3.683-.013-7.366-.01-11.049a1,1,0,0,1,.036-.159" transform="translate(13.713 23.331)" fill="#7d3a1b"/>
        </g>
      </g>
    </g>
  </g>
</svg>
