<svg xmlns="http://www.w3.org/2000/svg" xmlns:xlink="http://www.w3.org/1999/xlink" width="139" height="139" viewBox="0 0 139 139">
  <defs>
    <clipPath id="clip-path">
      <rect id="Rectangle_400938" data-name="Rectangle 400938" width="139" height="139" transform="translate(-0.043 -0.043)" fill="none"/>
    </clipPath>
    <clipPath id="clip-path-2">
      <rect id="Rectangle_401073" data-name="Rectangle 401073" width="105.872" height="47.68" fill="#7d3a1b"/>
    </clipPath>
    <clipPath id="clip-path-3">
      <rect id="Rectangle_403303" data-name="Rectangle 403303" width="74.352" height="75.624" fill="#6a4d23"/>
    </clipPath>
  </defs>
  <g id="Group_1101592" data-name="Group 1101592" transform="translate(-1150 -7429.881)">
    <g id="Group_1099530" data-name="Group 1099530" transform="translate(885.043 2145.924)">
      <g id="Group_1099379" data-name="Group 1099379" transform="translate(265 5284)">
        <rect id="Rectangle_401103" data-name="Rectangle 401103" width="139" height="139" transform="translate(-0.043 -0.043)" fill="none"/>
        <g id="Group_1099348" data-name="Group 1099348" transform="translate(0)">
          <g id="Group_1099282" data-name="Group 1099282">
            <g id="Group_1099281" data-name="Group 1099281" clip-path="url(#clip-path-2)">
              <path id="Path_873375" data-name="Path 873375" d="M85.879,10.449c-4.752,0-7.21-2.33-9.379-4.386C74.371,4.047,72.538,2.3,68.7,2.3s-5.668,1.742-7.8,3.758c-2.17,2.056-4.624,4.386-9.379,4.386s-7.21-2.33-9.379-4.386C40.018,4.047,38.184,2.3,34.349,2.3s-5.668,1.742-7.794,3.758c-2.17,2.056-4.627,4.386-9.379,4.386S9.963,8.119,7.794,6.063C5.668,4.047,3.835,2.3,0,2.3V0C4.752,0,7.21,2.334,9.379,4.386c2.129,2.02,3.963,3.758,7.8,3.758s5.668-1.738,7.794-3.755C27.136,2.334,29.6,0,34.349,0s7.213,2.334,9.379,4.386c2.129,2.02,3.963,3.758,7.8,3.758s5.668-1.738,7.8-3.758C61.489,2.334,63.951,0,68.7,0s7.213,2.334,9.379,4.386c2.129,2.02,3.963,3.758,7.8,3.758s5.668-1.738,7.8-3.758C95.843,2.334,98.3,0,103.056,0V2.3c-3.835,0-5.668,1.742-7.8,3.758-2.169,2.056-4.627,4.386-9.379,4.386" transform="translate(2.816 37.231)" fill="#7d3a1b"/>
              <path id="Path_873376" data-name="Path 873376" d="M85.879,10.449c-4.752,0-7.213-2.33-9.379-4.39C74.371,4.043,72.538,2.3,68.7,2.3s-5.668,1.738-7.8,3.755c-2.166,2.06-4.624,4.39-9.379,4.39s-7.213-2.33-9.379-4.39C40.018,4.043,38.184,2.3,34.349,2.3s-5.668,1.742-7.794,3.755c-2.17,2.06-4.627,4.39-9.379,4.39s-7.213-2.33-9.383-4.39C5.668,4.043,3.835,2.3,0,2.3V0C4.752,0,7.213,2.33,9.379,4.386c2.129,2.02,3.963,3.758,7.8,3.758s5.668-1.738,7.794-3.758C27.136,2.33,29.6,0,34.349,0s7.213,2.33,9.383,4.386c2.126,2.02,3.959,3.758,7.794,3.758s5.668-1.738,7.8-3.758C61.489,2.33,63.951,0,68.7,0s7.213,2.33,9.379,4.386c2.129,2.02,3.963,3.758,7.8,3.758s5.668-1.738,7.8-3.758C95.846,2.33,98.3,0,103.059,0V2.3c-3.835,0-5.672,1.742-7.8,3.755-2.169,2.06-4.628,4.39-9.379,4.39" transform="translate(1.877 24.821)" fill="#7d3a1b"/>
              <path id="Path_873377" data-name="Path 873377" d="M85.879,10.449c-4.752,0-7.213-2.33-9.379-4.39C74.371,4.043,72.538,2.3,68.7,2.3s-5.668,1.738-7.8,3.755c-2.166,2.06-4.627,4.39-9.379,4.39s-7.213-2.33-9.379-4.39C40.018,4.043,38.184,2.3,34.349,2.3s-5.668,1.742-7.794,3.755c-2.169,2.06-4.627,4.39-9.379,4.39s-7.213-2.33-9.383-4.39C5.668,4.043,3.835,2.3,0,2.3V0C4.752,0,7.213,2.33,9.379,4.386c2.126,2.02,3.963,3.758,7.8,3.758s5.668-1.738,7.794-3.758C27.136,2.33,29.6,0,34.349,0s7.213,2.33,9.383,4.386c2.126,2.02,3.959,3.758,7.794,3.758s5.668-1.738,7.8-3.758C61.489,2.33,63.951,0,68.7,0s7.213,2.33,9.379,4.386c2.129,2.02,3.963,3.758,7.8,3.758s5.668-1.738,7.8-3.758C95.846,2.33,98.3,0,103.059,0V2.3c-3.835,0-5.672,1.742-7.8,3.755-2.169,2.06-4.627,4.39-9.379,4.39" transform="translate(0.939 12.41)" fill="#7d3a1b"/>
              <path id="Path_873378" data-name="Path 873378" d="M85.879,10.445c-4.752,0-7.21-2.33-9.379-4.386C74.371,4.043,72.538,2.3,68.7,2.3s-5.668,1.738-7.794,3.755c-2.169,2.056-4.627,4.386-9.383,4.386s-7.21-2.33-9.379-4.386C40.018,4.043,38.184,2.3,34.349,2.3s-5.668,1.738-7.794,3.751c-2.166,2.06-4.627,4.39-9.379,4.39S9.963,8.115,7.794,6.059C5.668,4.043,3.835,2.3,0,2.3V0C4.752,0,7.213,2.33,9.379,4.386c2.129,2.016,3.963,3.755,7.8,3.755S22.845,6.4,24.971,4.386C27.14,2.33,29.6,0,34.349,0s7.21,2.33,9.383,4.386c2.126,2.016,3.959,3.755,7.794,3.755s5.668-1.738,7.8-3.755C61.493,2.33,63.951,0,68.7,0s7.21,2.33,9.379,4.386c2.129,2.016,3.963,3.755,7.8,3.755s5.668-1.738,7.8-3.755C95.846,2.33,98.3,0,103.059,0V2.3c-3.839,0-5.672,1.738-7.8,3.755-2.169,2.056-4.627,4.386-9.379,4.386" transform="translate(0 0.004)" fill="#7d3a1b"/>
            </g>
          </g>
        </g>
        <path id="Path_873425" data-name="Path 873425" d="M57.977,0A57.977,57.977,0,1,1,0,57.977,57.977,57.977,0,0,1,57.977,0Z" transform="translate(17.221 20.665)" fill="#ffb937"/>
        <circle id="Ellipse_11503" data-name="Ellipse 11503" cx="60.5" cy="60.5" r="60.5" transform="translate(8.957 8.957)" fill="#fff"/>
      </g>
    </g>
    <g id="Group_1101594" data-name="Group 1101594" transform="translate(1183 7462.256)">
      <g id="Group_1101593" data-name="Group 1101593" clip-path="url(#clip-path-3)">
        <path id="Path_881188" data-name="Path 881188" d="M6.271,204.148v24.722H38.352V216.32c0-.627,1.48-1.189,2-.674l.417.714c.4,3.748-.4,8.2.031,11.858.032.275.023.485.293.651h2.831c.83,0,.719,3.275.667,3.875a6.355,6.355,0,0,1-6.132,5.946c-10.673.779-22.364-.53-33.137-.093a6.224,6.224,0,0,1-5.281-5.853c-.052-.6-.163-3.875.667-3.875H3.534l.38-26.606a1.951,1.951,0,0,1,1.507-.758,72.853,72.853,0,0,1,10.928.017,1.336,1.336,0,0,1,.395,2.625Zm35.856,27.175H2.5c-.416,3.97,2.705,5.418,6.229,4.908-.561-3.38,3.012-3.38,2.451,0h22.27c.011-.806-.175-1.662.456-2.279,1.772-.727,2.212.789,1.995,2.279,3.548.5,6.594-.909,6.229-4.908" transform="translate(0 -163.319)" fill="#6a4d23"/>
        <path id="Path_881189" data-name="Path 881189" d="M62.129,166.967a1.514,1.514,0,0,1-1.974,0l-2.976-5.233-.523-.16c-1.989,1.546-5.961,2.118-4.959,5.453a42.369,42.369,0,0,0,2.59,4.393c2.46,3.193,5.81-1.147,8.466-2.036l19.992-7.468-.142-.694-5.244-9.11a1.236,1.236,0,0,1,1.913-1.334l6.677,11.637-.2.717-19.041,7.287c-.212.228,2.376,4.216,2.553,4.9a3.77,3.77,0,0,1-2.921,4.639c-3.821.641-4.587-3.594-6.35-5.969-.657.131-1.139.64-1.78.859-2.061.7-3.663.132-5.373-1.031-4.191,3.578-9.424-2.324-5.094-5.663.335-.258,1.2-.544,1.323-.753.255-.42.008-2.063.184-2.835a5.745,5.745,0,0,1,1.79-2.551c8.477-4.533,15.24-11.542,22.777-17.419a1.655,1.655,0,0,1,1.763-.315c.9.442,3.025,4.892.326,4.406-.856-.154-1.091-1.448-1.645-1.2L59.247,159.849l-.012.564c.589,1.4,3.2,4.558,3.126,5.923a1.172,1.172,0,0,1-.232.63m-11.665,2.7c-3.354.477-1.6,4.246.943,1.95Zm11.715,2.82c-.159.216,2.325,4.5,2.558,4.7a1.275,1.275,0,0,0,2.081-1.315c-.656-.693-1.97-3.879-2.563-4.253-.422-.267-1.47.924-2.076.864" transform="translate(-37.415 -116.939)" fill="#6a4d23"/>
        <path id="Path_881190" data-name="Path 881190" d="M277.736,208.622c4.722-.677,10.75.4,15.612-.047a3.73,3.73,0,0,1,3.495,3.488,51.783,51.783,0,0,1,.008,7.37c-.181,2.034-2.23,1.774-2.457.552-.4-2.168.337-5.464-.016-7.721-.142-.906-.757-1.171-1.584-1.247-4.554-.416-9.732.332-14.355,0-1.029.119-1.334.652-1.42,1.6-.414,4.557.33,9.731,0,14.355a1.457,1.457,0,0,0,.938,1.327l15.35.044c2.355-.526-.372-5.458,2.677-4.864,1.4.273.917,4.28.427,5.326a3.778,3.778,0,0,1-3.062,2.034c-4.866-.336-10.312.443-15.106.007a3.779,3.779,0,0,1-3.673-3.5c.361-4.9-.48-10.47,0-15.285a3.621,3.621,0,0,1,3.161-3.444" transform="translate(-222.633 -169.065)" fill="#6a4d23"/>
        <path id="Path_881191" data-name="Path 881191" d="M277.924,5.538c4.615-.729,10.833.451,15.619-.047a3.8,3.8,0,0,1,3.491,3.491c-.336,4.866.443,10.312.007,15.106a3.779,3.779,0,0,1-3.5,3.673c-4.885-.317-10.283.419-15.105.005a3.651,3.651,0,0,1-3.385-2.276c-.454-1.233-.466-7.269-.292-8.774a1.246,1.246,0,0,1,2.452-.368c.4,2.168-.337,5.464.016,7.721.142.906.757,1.171,1.584,1.247,4.554.416,9.732-.332,14.355,0a1.444,1.444,0,0,0,1.4-1.242c-.3-4.676.438-9.922.02-14.529-.086-.948-.391-1.48-1.42-1.6L278.3,7.986c-2.318.517.308,5.446-2.677,4.864-1.155-.225-.948-2.922-.853-3.865a3.743,3.743,0,0,1,3.157-3.448" transform="translate(-222.825 -4.295)" fill="#6a4d23"/>
        <path id="Path_881192" data-name="Path 881192" d="M1.071,65.556l15.716.058a1.76,1.76,0,0,1,.767,1.5c.554,6.052-.44,12.936,0,19.078a1.482,1.482,0,0,1-1.6,1.6c-4.562-.335-9.679.415-14.172,0a1.764,1.764,0,0,1-1.419-.657l-.186-20.4c.008-.54.48-.913.9-1.178m14.02,2.414H2.636V85.332H15.091Z" transform="translate(-0.14 -53.185)" fill="#6a4d23"/>
        <path id="Path_881193" data-name="Path 881193" d="M114.223.114c13.185-1.676,17.9,15.55,6.816,20.969A11.174,11.174,0,0,1,105.3,8.363c.95-3.975,4.808-7.726,8.924-8.249m.378,2.454c-11.33,1.544-8.1,20.251,4,16.836,9.789-2.762,7.267-18.372-4-16.836" transform="translate(-85.164 0)" fill="#6a4d23"/>
        <path id="Path_881194" data-name="Path 881194" d="M316.145,250.229c-4.6,4.6-11.579-2.416-7.1-7.009,4.567-4.686,11.748,2.364,7.1,7.009m-4.136-5.928a2.469,2.469,0,0,0,1.041,4.822c3.138-.453,2.464-5.541-1.041-4.822" transform="translate(-249.553 -196.069)" fill="#6a4d23"/>
        <path id="Path_881195" data-name="Path 881195" d="M317.675,32.564a1.358,1.358,0,0,1-.332,1.929c-1.571.693-4.845-1.169-4.337,2.553,3.26-.394,3.256,3.073,0,2.64-.229,1.29.68,4.372-.939,4.832-2.184.621-1.388-3.74-1.513-4.832-3.288.415-3.335-3,0-2.64-.363-2.462.93-4.618,3.49-4.908.766-.087,3.124-.115,3.631.426" transform="translate(-249.933 -26.034)" fill="#6a4d23"/>
        <path id="Path_881196" data-name="Path 881196" d="M268.79,176.546a1.265,1.265,0,0,1,.713,2.423,48.888,48.888,0,0,1-6.624,1.324,1.247,1.247,0,0,1-.513-2.421,47.536,47.536,0,0,1,6.424-1.326" transform="translate(-212.17 -143.221)" fill="#6a4d23"/>
        <path id="Path_881197" data-name="Path 881197" d="M223.432,111.617a1.712,1.712,0,0,1-.094-1.6c.157-.388,3.214-4.433,3.633-4.858,1.358-1.374,2.8-.308,2.118,1.364-.129.317-3.376,4.645-3.715,4.964a1.361,1.361,0,0,1-1.942.131" transform="translate(-181.068 -84.802)" fill="#6a4d23"/>
        <path id="Path_881198" data-name="Path 881198" d="M248.292,137.428a1.351,1.351,0,0,1,1.53,1.345c-.177,1.122-4.731,3.744-5.682,4.713a1.275,1.275,0,0,1-1.541-1.924c1.327-.645,4.5-3.911,5.694-4.134" transform="translate(-196.591 -111.48)" fill="#6a4d23"/>
        <path id="Path_881199" data-name="Path 881199" d="M27.352,117.06a28.425,28.425,0,0,1,5.2,0,1.3,1.3,0,0,1,.813,2.233c-.687.557-5.895.543-6.627,0a1.294,1.294,0,0,1,.616-2.234" transform="translate(-21.324 -94.874)" fill="#6a4d23"/>
        <path id="Path_881200" data-name="Path 881200" d="M27.042,144.118a44.068,44.068,0,0,1,5.961,0c1.257.279,1.035,2.187-.347,2.4a31.514,31.514,0,0,1-5.232-.029c-1.231-.274-1.41-2.069-.381-2.376" transform="translate(-21.395 -116.841)" fill="#6a4d23"/>
        <path id="Path_881201" data-name="Path 881201" d="M43.759,93.147c-.41.389-3.906.4-4.3-.085-1.887-2.295,3.464-2.755,4.354-1.665a1.363,1.363,0,0,1-.053,1.75" transform="translate(-31.687 -73.692)" fill="#6a4d23"/>
        <path id="Path_881202" data-name="Path 881202" d="M144.711,32.488a2.7,2.7,0,0,1,1.253.372,53.84,53.84,0,0,1,6.9,3.476,1.367,1.367,0,0,1,.484,1.782c-.367.751-7.3,3.724-8.5,4.319a1.423,1.423,0,0,1-1.226-1.392,48.216,48.216,0,0,1,0-7.179,1.479,1.479,0,0,1,1.083-1.378m1.375,6.572,3.2-1.6-3.2-1.6Z" transform="translate(-116.415 -26.35)" fill="#6a4d23"/>
      </g>
    </g>
  </g>
</svg>
