<svg xmlns="http://www.w3.org/2000/svg" xmlns:xlink="http://www.w3.org/1999/xlink" width="90.184" height="90.184" viewBox="0 0 90.184 90.184">
  <defs>
    <clipPath id="clip-path">
      <rect id="Rectangle_403323" data-name="Rectangle 403323" width="50.082" height="59" fill="none"/>
    </clipPath>
  </defs>
  <g id="Group_1103381" data-name="Group 1103381" transform="translate(-758 -6642)">
    <g id="Group_1099368" data-name="Group 1099368" transform="translate(758 6642)">
      <g id="Group_1073526" data-name="Group 1073526" transform="translate(0 0)">
        <g id="Group_1072785" data-name="Group 1072785" transform="translate(0 0)">
          <path id="Path_608385" data-name="Path 608385" d="M45.092,0A45.092,45.092,0,1,1,0,45.092,45.092,45.092,0,0,1,45.092,0Z" transform="translate(0 0)" fill="none"/>
        </g>
        <g id="Group_1073383" data-name="Group 1073383" transform="translate(0 0)">
          <path id="Path_608385-2" data-name="Path 608385" d="M45.092,0A45.092,45.092,0,1,1,0,45.092,45.092,45.092,0,0,1,45.092,0Z" transform="translate(0 0)" fill="#fff"/>
        </g>
      </g>
    </g>
    <g id="Group_1099372" data-name="Group 1099372" transform="translate(355.863 615.531)">
      <rect id="Rectangle_401104" data-name="Rectangle 401104" width="59" height="59" transform="translate(418.137 6042.469)" fill="none"/>
      <g id="Group_1101638" data-name="Group 1101638" transform="translate(422.136 6042.469)">
        <g id="Group_1101637" data-name="Group 1101637" clip-path="url(#clip-path)">
          <path id="Path_881271" data-name="Path 881271" d="M94.949,14.586A10.365,10.365,0,1,1,84.584,4.221,10.364,10.364,0,0,1,94.949,14.586" transform="translate(-44.867 -2.552)" fill="#ffc90a"/>
          <path id="Path_881272" data-name="Path 881272" d="M95.464,16.077a9.39,9.39,0,1,1-9.39-9.39,9.39,9.39,0,0,1,9.39,9.39" transform="translate(-46.357 -4.042)" fill="#fff"/>
          <path id="Path_881273" data-name="Path 881273" d="M102.217,16.288l5.615-3.242a.463.463,0,0,0,.139-.677,8.535,8.535,0,0,0-5.927-3.424.463.463,0,0,0-.518.458V15.89a.46.46,0,0,0,.691.4" transform="translate(-61.374 -5.406)" fill="#ffc90a"/>
          <path id="Path_881274" data-name="Path 881274" d="M104.02,25.167l5.616,3.243a.463.463,0,0,0,.655-.217,8.541,8.541,0,0,0,0-6.849.463.463,0,0,0-.655-.217L104.02,24.37a.46.46,0,0,0,0,.8" transform="translate(-62.743 -12.735)" fill="#ffc90a"/>
          <path id="Path_881275" data-name="Path 881275" d="M89.337,15.889V9.4a.464.464,0,0,0-.518-.458,8.536,8.536,0,0,0-5.927,3.424.463.463,0,0,0,.14.677l5.614,3.242a.46.46,0,0,0,.691-.4" transform="translate(-50.055 -5.405)" fill="#ffc90a"/>
          <path id="Path_881276" data-name="Path 881276" d="M101.526,33.645v6.486a.464.464,0,0,0,.518.459,8.537,8.537,0,0,0,5.927-3.425.463.463,0,0,0-.139-.677l-5.615-3.241a.46.46,0,0,0-.691.4" transform="translate(-61.374 -20.06)" fill="#ffc90a"/>
          <path id="Path_881277" data-name="Path 881277" d="M88.647,33.246l-5.615,3.242a.463.463,0,0,0-.139.677,8.538,8.538,0,0,0,5.927,3.424.463.463,0,0,0,.518-.458V33.644a.46.46,0,0,0-.691-.4" transform="translate(-50.055 -20.06)" fill="#ffc90a"/>
          <path id="Path_881278" data-name="Path 881278" d="M85.8,24.37l-5.616-3.243a.463.463,0,0,0-.655.217,8.541,8.541,0,0,0,0,6.849.463.463,0,0,0,.655.217L85.8,25.167a.46.46,0,0,0,0-.8" transform="translate(-47.644 -12.735)" fill="#ffc90a"/>
          <path id="Path_881279" data-name="Path 881279" d="M48.512,113.644a1.816,1.816,0,0,1-1.816-1.816V92.211a1.816,1.816,0,1,1,3.633,0v19.618a1.816,1.816,0,0,1-1.816,1.816" transform="translate(-28.229 -54.644)" fill="#e6e8ea"/>
          <path id="Path_881280" data-name="Path 881280" d="M43.686,143.631H25.436a1.817,1.817,0,0,1,0-3.634h18.25a1.817,1.817,0,0,1,0,3.634" transform="translate(-14.279 -84.631)" fill="#cfd0d1"/>
          <path id="Path_881281" data-name="Path 881281" d="M2.373.507A1.211,1.211,0,0,0,.4,1.914l7.053,9.878H10.43Z" transform="translate(-0.106 0)" fill="#e15c49"/>
          <path id="Path_881282" data-name="Path 881282" d="M40.461,30.918a1.211,1.211,0,0,0-1.206-1.1H10.324l6.524,9.137.53.741A1.211,1.211,0,0,1,15.405,41.1L7.348,29.817H1.313a1.212,1.212,0,0,0-1.207,1.1C.036,31.682,0,32.464,0,33.242c0,12.463,9.1,22.6,20.283,22.6s20.284-10.14,20.284-22.6c0-.765-.036-1.547-.107-2.324" transform="translate(0 -18.025)" fill="#e6e8ea"/>
          <path id="Path_881283" data-name="Path 881283" d="M39.372,54.141a16.818,16.818,0,0,0-2.857.766,14.129,14.129,0,0,1-4.4.934,6.723,6.723,0,0,1-2.659-.533c-.565-.239-1.134-.51-1.709-.785a15.693,15.693,0,0,0-3.935-1.479,9.7,9.7,0,0,0-1.4-.123l.53.741a1.211,1.211,0,0,1-1.972,1.407l-1.353-1.895c-.628.117-1.224.256-1.761.4l-.54.143a21.814,21.814,0,0,1-6.347,1.016A8.577,8.577,0,0,1,9.2,54.473c2.589,7.544,9.064,12.916,16.645,12.916,7.672,0,14.208-5.5,16.733-13.188a8.269,8.269,0,0,0-3.206-.061" transform="translate(-5.561 -31.992)" fill="#f7a93b"/>
          <path id="Path_881284" data-name="Path 881284" d="M25.459,65.67A.673.673,0,1,1,24.786,65a.673.673,0,0,1,.673.674" transform="translate(-14.576 -39.291)" fill="#fff"/>
          <path id="Path_881285" data-name="Path 881285" d="M72.665,70.158a.673.673,0,1,1-.673-.673.673.673,0,0,1,.673.673" transform="translate(-43.113 -42.005)" fill="#fff"/>
          <path id="Path_881286" data-name="Path 881286" d="M49.8,78.054a1.179,1.179,0,1,1-1.179-1.179A1.179,1.179,0,0,1,49.8,78.054" transform="translate(-28.68 -46.472)" fill="#fff"/>
        </g>
      </g>
    </g>
  </g>
</svg>
